<svg xmlns="http://www.w3.org/2000/svg" width="13" height="30" viewBox="0 0 13 30">
    <g fill="none" fill-rule="nonzero">
        <path fill="#FFD551" d="M11.238 30H1.762C.789 30 0 29.23 0 28.279v-7.558C0 19.771.789 19 1.762 19h9.544c.936 0 1.694.74 1.694 1.655v7.624c0 .95-.789 1.721-1.762 1.721zM10.536 5.19s-.032-.008-.064-.013a3.41 3.41 0 0 0-.122-.023c-2.079-.432-1.914-2.908-1.914-2.908v-.934A.316.316 0 0 0 8.116 1H4.405c-.176 0-.32.14-.32.312v.934h-.037s.176 2.635-2.119 2.943a.591.591 0 0 0-.01.002h-.003C.83 5.356 0 6.271 0 7.376v9.412C0 18.01 1.015 19 2.268 19h9.279c.802 0 1.453-.635 1.453-1.418V8.226c0-1.476-1.052-2.712-2.464-3.035zM4.085 17.286a.379.379 0 0 1-.384.374H2.508c-.706 0-1.278-.558-1.278-1.247V8.505c0-.689.572-1.247 1.278-1.247h1.193c.212 0 .384.168.384.374v9.653z"/>
        <path fill="#FFB74B" d="M5 17.64V8.36C5 8.16 4.859 8 4.684 8H4c.174 0 .316.161.316.36v9.28c0 .199-.142.36-.316.36h.684c.175 0 .316-.16.316-.36z"/>
        <path fill="#FFC34C" d="M2.755 17.659h-.233c-.71 0-1.285-.558-1.285-1.247V8.505c0-.689.575-1.247 1.285-1.247h.052c.057-1.05.87-1.908 1.923-2.067h.002a.597.597 0 0 1 .01-.002c2.308-.308 2.132-2.943 2.132-2.943h.038v-.934C6.679 1.139 6.823 1 7 1H4.43a.317.317 0 0 0-.322.312v.934H4.07s.177 2.635-2.131 2.943a.597.597 0 0 0-.01.002h-.004C.836 5.356 0 6.271 0 7.376v9.412C0 18.01 1.021 19 2.28 19H4.853c-.941 0-1.749-.553-2.097-1.341z"/>
        <path fill="#E58D23" d="M9.257 4H3.743C3.333 4 3 3.64 3 3.197V.803C3 .359 3.333 0 3.743 0h5.514c.41 0 .743.36.743.803v2.394c0 .444-.333.803-.743.803z"/>
        <path fill="#FFC34C" d="M2.427 29.616v-7.67c0-.92.707-1.665 1.578-1.665H12c-.14-.73-.753-1.281-1.487-1.281H1.578C.706 19 0 19.746 0 20.665v7.67C0 29.255.706 30 1.578 30h.892a1.76 1.76 0 0 1-.043-.384z"/>
        <path fill="#BF6C0D" d="M7.265 3.223V.777C7.265.347 7.595 0 8 0H4.735C4.329 0 4 .348 4 .777v2.446c0 .43.329.777.735.777H8c-.406 0-.735-.348-.735-.777z"/>
        <circle cx="6" cy="28" r="1" fill="#FFC34C"/>
        <circle cx="7" cy="15" r="1" fill="#FFC34C"/>
        <circle cx="7" cy="16" r="1" fill="#FFC34C"/>
        <path fill="#FFDF74" d="M11.5 14c-.276 0-.5-.175-.5-.39V7.39c0-.215.224-.39.5-.39s.5.175.5.39v6.22c0 .215-.224.39-.5.39z"/>
        <path fill="#FFF4C1" d="M0 22h13v5H0z"/>
        <path fill="#FCE575" d="M2.98 22.254c0-.086.007-.171.02-.254H0v5h2.98v-4.746z"/>
        <path fill="#FCF9DE" d="M11.5 28c-.276 0-.5-.175-.5-.39v-6.22c0-.215.224-.39.5-.39s.5.175.5.39v6.22c0 .215-.224.39-.5.39z"/>
    </g>
</svg>
