<svg xmlns="http://www.w3.org/2000/svg" width="27" height="17" viewBox="0 0 27 17">
    <g fill="none" fill-rule="nonzero">
        <path fill="#D7D9CC" d="M25.696 14H1.304C.584 14 0 13.329 0 12.5c0-.828.584-1.5 1.304-1.5h24.392c.72 0 1.304.672 1.304 1.5 0 .829-.584 1.5-1.304 1.5z"/>
        <path fill="#BEBFB5" d="M25.971 11H24c.568 0 1.029.672 1.029 1.5 0 .829-.461 1.5-1.029 1.5h1.971C26.54 14 27 13.329 27 12.5c0-.828-.46-1.5-1.029-1.5z"/>
        <path fill="#D7D9CC" d="M18.574 17H8.426C6.122 17 4.02 15.837 3 14h21c-1.019 1.837-3.122 3-5.426 3z"/>
        <path fill="#BEBFB5" d="M24 14H3c.104.187.22.367.345.54h15.51c.528 0 .793.569.418.9-1.114.983-2.638 1.56-4.26 1.56h3.56c2.07 0 3.977-.938 5.082-2.46.098-.142.203-.284.345-.54z"/>
        <path fill="#FAE34B" d="M25 8.916c0 1.15-.945 2.084-2.11 2.084H4.806A1.795 1.795 0 0 1 3 9.216V1.784C3 .799 3.809 0 4.806 0h18.057C24.043 0 25 .945 25 2.11v6.806z"/>
        <path fill="#EBD12F" d="M23.067 0H20c1.068 0 1.933.823 1.933 1.838v7.324C21.933 10.177 21.068 11 20 11h3.067C24.134 11 25 10.177 25 9.162V1.838C25 .823 24.134 0 23.067 0z"/>
        <g fill="#FF8000">
            <path d="M16.67 0h-4.66v3.309c0 .621.522 1.125 1.165 1.125s1.165-.504 1.165-1.125V4.68c0 .622.521 1.126 1.165 1.126.643 0 1.164-.504 1.164-1.126V2.43c0 .621.522 1.125 1.166 1.125.643 0 1.164-.504 1.164-1.126V0h-2.33zM17.869 8.99H17.8c-.624 0-1.13-.49-1.13-1.093v-.391c0-.604.506-1.093 1.13-1.093h.069c.624 0 1.13.49 1.13 1.093v.391c0 .603-.506 1.093-1.13 1.093z"/>
        </g>
    </g>
</svg>
