<svg xmlns="http://www.w3.org/2000/svg" width="22" height="29" viewBox="0 0 22 29">
    <g fill="none" fill-rule="nonzero" transform="rotate(12 8.121 19.007)">
        <path fill="#EDAB37" d="M5.683 4.716c.833 0 1.5.45 1.5 1s-.667 1-1.5 1c-.825 0-1.5-.45-1.5-1s.675-1 1.5-1z"/>
        <path fill="#F6BB42" d="M14.099 9.812c.77 0 1.4-.534 1.4-1.2v-4.2c0-1.992-1.883-3.6-4.2-3.6h2.8c2.324 0 4.2 1.608 4.2 3.6v4.2c0 .666-.623 1.2-1.4 1.2h-2.8z"/>
        <path fill="#EDAB37" d="M15.066 9.127h3v9h-3z"/>
        <path fill="#F6BB42" d="M17.499 18.065c.77 0 1.4.533 1.4 1.2v4.2c0 1.992-1.883 3.6-4.2 3.6h-2.8c2.317 0 4.2-1.608 4.2-3.6v-4.2c0-.667-.63-1.2-1.4-1.2h2.8z"/>
        <ellipse cx="10.893" cy="23.011" fill="#EDAB37" rx="2" ry="1.5"/>
        <path fill="#FFCE54" d="M16.918 19.527V23.4c0 1.836-1.793 3.319-4 3.319h-8c-2.213 0-4-1.483-4-3.32v-3.872c0-.614.594-1.106 1.333-1.106V9.017c-.733 0-1.333-.493-1.333-1.107V4.038c0-1.837 1.793-3.32 4-3.32h8c2.207 0 4 1.483 4 3.32V7.91c0 .614-.6 1.107-1.333 1.107v9.404c.734 0 1.333.492 1.333 1.106zm-4 3.043c0-.764-.747-1.383-1.667-1.383s-1.666.619-1.666 1.383c0 .763.746 1.383 1.666 1.383.92 0 1.667-.62 1.667-1.383zM7.585 5.698c0-.609-.594-1.107-1.334-1.107-.733 0-1.333.498-1.333 1.107 0 .608.6 1.106 1.333 1.106.74 0 1.334-.498 1.334-1.106z"/>
        <g fill="#EDAB37">
            <path d="M4.768 22.603c-.406 0-.737-.253-.737-.567 0-.313.324-.567.729-.567h.008c.405 0 .733.254.733.567 0 .314-.328.567-.733.567zM9.172 18.065c-.405 0-.737-.253-.737-.567 0-.313.324-.566.73-.566h.007c.405 0 .733.253.733.566 0 .314-.328.567-.733.567zM13.577 15.23c-.406 0-.737-.254-.737-.567 0-.314.324-.567.728-.567h.009c.404 0 .733.253.733.567 0 .313-.329.566-.733.566zM6.236 12.96c-.406 0-.737-.253-.737-.566 0-.314.324-.567.729-.567h.008c.405 0 .733.253.733.567 0 .313-.328.566-.733.566zM13.577 7.289c-.406 0-.737-.254-.737-.567 0-.313.324-.567.728-.567h.009c.404 0 .733.254.733.567 0 .313-.329.567-.733.567z"/>
        </g>
    </g>
</svg>
