<svg xmlns="http://www.w3.org/2000/svg" width="25" height="25" viewBox="0 0 25 25">
    <g fill="none" fill-rule="nonzero">
        <path fill="#76E1F8" d="M22 6c-1.654 0-3-1.346-3-3s1.346-3 3-3 3 1.346 3 3-1.346 3-3 3z"/>
        <path fill="#FF80A8" d="M18.142 25a6.9 6.9 0 0 1-.846-.052l-2.666-.33a17.371 17.371 0 0 0-4.26 0l-2.666.33a6.898 6.898 0 0 1-5.375-1.642A6.78 6.78 0 0 1 0 18.198V14h1.465a5.34 5.34 0 0 0 1.834 4.023 5.42 5.42 0 0 0 4.223 1.29l2.666-.329c1.534-.189 3.09-.189 4.624 0l2.666.33a5.42 5.42 0 0 0 4.223-1.29A5.34 5.34 0 0 0 23.535 14H25v4.198a6.78 6.78 0 0 1-2.33 5.108A6.894 6.894 0 0 1 18.143 25z"/>
        <path fill="#FF3C7D" d="M23.477 14c0 1.54-.696 3.007-1.908 4.023a5.79 5.79 0 0 1-4.392 1.29l-2.773-.329c-.798-.094-1.6-.142-2.404-.142v5.646c.74 0 1.48.043 2.215.13l2.773.33c.294.035.587.052.88.052a7.34 7.34 0 0 0 4.71-1.694c1.54-1.29 2.422-3.153 2.422-5.108V14h-1.523z"/>
        <path fill="#FFA0BF" d="M18.142 20c-.281 0-.563-.016-.846-.05l-2.666-.314a18.176 18.176 0 0 0-4.26 0l-2.666.314c-1.944.23-3.903-.342-5.375-1.568C.85 17.148 0 15.369 0 13.5c0-1.868.849-3.647 2.33-4.881C3.8 7.394 5.76 6.822 7.703 7.05l2.666.315c1.413.167 2.847.167 4.26 0l2.666-.315c1.916-.226 3.784.298 5.261 1.476C24.11 9.766 25 11.578 25 13.501c0 1.868-.849 3.647-2.33 4.88A7.085 7.085 0 0 1 18.143 20z"/>
        <path fill="#FF80A8" d="M22.46 8.527c-1.536-1.178-3.48-1.702-5.472-1.476l-2.773.315c-.735.084-1.475.125-2.215.125v12.02c.74 0 1.48.041 2.215.124l2.773.315c.294.033.587.05.88.05 1.723 0 3.402-.57 4.71-1.618C24.118 17.148 25 15.369 25 13.5c0-1.923-.926-3.735-2.54-4.974z"/>
        <path fill="#25D9F7" d="M19.5 12a3.499 3.499 0 1 1 0-7C21.43 5 23 6.57 23 8.5S21.43 12 19.5 12z"/>
        <path fill="#76E1F8" d="M16 9c-1.654 0-3-1.346-3-3s1.346-3 3-3 3 1.346 3 3-1.346 3-3 3z"/>
        <path fill="#FF80A8" d="M13.847 16c-.089 0-.178-.006-.266-.02l-.637-.092a3.103 3.103 0 0 0-.888 0l-.637.093c-.61.088-1.224-.131-1.686-.602-.466-.475-.733-1.16-.733-1.88 0-.718.267-1.403.733-1.878.462-.47 1.077-.69 1.686-.602l.637.092c.295.043.593.043.888 0l.637-.092c.593-.086 1.196.122 1.654.57.486.476.765 1.172.765 1.91 0 .72-.267 1.405-.733 1.88a1.992 1.992 0 0 1-1.42.621z"/>
        <path fill="#FF3C7D" d="M12.508 15.889l.727.092a2.44 2.44 0 0 0 1.928-.602c.532-.475.837-1.16.837-1.879 0-.739-.319-1.435-.875-1.912a2.44 2.44 0 0 0-1.89-.569l-.727.092a4.065 4.065 0 0 1-.508.032v4.714c.17 0 .34.01.508.032z"/>
        <path fill="#25D9F7" d="M17 2a1 1 0 1 1-2 0 1 1 0 0 1 2 0z"/>
    </g>
</svg>
