<svg xmlns="http://www.w3.org/2000/svg" width="29" height="28" viewBox="0 0 29 28">
    <g fill="none" fill-rule="nonzero">
        <path fill="#A3783C" d="M14 9c1.104 0 2-1.075 2-2.4 0-1.326-.896-2.4-2-2.4-.025 0-.05.008-.073.009.046-.199.07-.403.073-.609 0-.888-.408-1.703-1.062-2.12-.653-.416-1.444-.366-2.057.13C10.588.595 9.765-.062 8.87.006 7.975.072 7.228.849 7.043 1.9a1.67 1.67 0 0 0-.544-.1c-1.104 0-2 1.073-2 2.399 0 .03.007.06.008.088A1.668 1.668 0 0 0 4 4.2c-1.104 0-2 1.074-2 2.4C2 7.925 2.896 9 4 9h10z"/>
        <path fill="#FFC117" d="M14.077 27H3.923L3 10h12z"/>
        <path fill="#FFC117" d="M1 8h15v3H1z"/>
        <path fill="#FDAD2A" d="M14.877 13L15 10H3l.123 3z"/>
        <path fill="#A3783C" d="M25.087 28c.892.002 1.666-.741 1.865-1.79.198-1.05-.232-2.125-1.037-2.59.267-.813.125-1.74-.367-2.384-.49-.644-1.244-.892-1.939-.639-.174-.973-.847-1.701-1.668-1.803.403-.753.4-1.723-.01-2.471-.409-.749-1.146-1.135-1.878-.985-.453-1.003-1.453-1.444-2.336-1.03C17.402 13.51 16.734 13 16 13c-.734 0-1.402.509-1.717 1.308-.883-.414-1.883.027-2.336 1.03-.726-.125-1.447.267-1.851 1.006a2.694 2.694 0 0 0-.037 2.45c-.821.102-1.494.83-1.668 1.803a1.589 1.589 0 0 0-.521-.097c-.63-.005-1.22.366-1.577.99a2.699 2.699 0 0 0-.208 2.13c-.805.465-1.235 1.54-1.037 2.59.199 1.049.973 1.792 1.865 1.79h18.174z"/>
        <path fill="#6F4921" d="M4 6h1v1H4zM0 27h1v1H0zM3 27h26v1H3z"/>
        <g fill="#6F4921">
            <path d="M8 23.195h.971v1.122H8zM24.029 23.195H25v1.122h-.971zM16.257 24.878h.972V26h-.972zM11.886 20.39h.971v1.122h-.971zM11.4 24.878h.971V26H11.4zM15.771 15.902h.972v1.122h-.972zM8.486 3h.971v1.122h-.971zM10.914 5.805h.972v1.122h-.972z"/>
        </g>
    </g>
</svg>
