<svg xmlns="http://www.w3.org/2000/svg" width="21" height="24" viewBox="0 0 21 24">
    <g fill="none" fill-rule="nonzero">
        <path fill="#2D1E1C" d="M9.317 16a14.895 14.895 0 0 1 3.195-4.794c1.607-1.367 3.111-2.193 4.38-2.687.041-.243.078-.487.104-.73C17.094 3.087 15.246.653 14.54 0c-.985.095-4.044.906-7.091 4.63A14.488 14.488 0 0 0 5.82 7.775a14.091 14.091 0 0 0-.819 3.41c-.097 4.7 2.92 4.001 3.626 4.656.194-.02.423.056.69.16z"/>
        <path fill="#564442" d="M8.553 17.192c.126-.429.28-.851.447-1.27v.001c-.26-.106-.484-.183-.674-.164-.69-.667-3.644.046-3.549-4.75.121-1.176.397-2.35.802-3.48.223-.624.49-1.232.79-1.82C4.838 4.52 3.542 4.1 2.965 4 2.228 4.618.247 6.972 0 11.763c.038 1.183.228 2.373.552 3.527a14.953 14.953 0 0 0 1.36 3.31c2.706 3.995 4.72 1.758 5.674 1.921.2-.168.562-.223.986-.31-.24-.687-.302-1.642-.019-3.02z"/>
        <path fill="#56413E" d="M15.81 13.82L17.764 8c-1.495.355-3.6 1.233-5.918 3.271a15.362 15.362 0 0 0-2.2 2.916 15.106 15.106 0 0 0-1.454 3.33c-.988 4.767 2.115 4.58 2.686 5.368.988.075 2.408 2.767 6.117-.494a15.346 15.346 0 0 0 2.2-2.916 15.106 15.106 0 0 0 1.454-3.33c.552-2.664.371-4.713.005-6.14l-4.846 3.815z"/>
        <path fill="#F9EA80" d="M16 14l4-3.201c-.241-.904-.564-1.504-.768-1.79-.312-.025-.884-.005-1.64.178L16 14z"/>
    </g>
</svg>
