<svg xmlns="http://www.w3.org/2000/svg" width="22" height="24" viewBox="0 0 22 24">
    <g fill="none" fill-rule="nonzero">
        <g fill="#FFCD6B" transform="translate(0 2)">
            <ellipse cx="16.563" cy="1.251" rx="1.21" ry="1.219"/>
            <ellipse cx="1.238" cy="12.221" rx="1.21" ry="1.219"/>
            <ellipse cx="9.304" cy="15.878" rx="1.21" ry="1.219"/>
            <ellipse cx="6.884" cy="6.939" rx="1.21" ry="1.219"/>
            <ellipse cx="17.773" cy="8.564" rx="1.21" ry="1.219"/>
            <ellipse cx="15.757" cy="13.44" rx="1.21" ry="1.219"/>
            <ellipse cx="10.514" cy="20.754" rx="1.21" ry="1.219"/>
        </g>
        <g fill="#BF7341">
            <path d="M20.972 7.734c0 .408-.313.739-.7.739a2.18 2.18 0 0 1-1.581-.69l-.318-.334a2.42 2.42 0 0 1-.655-1.665v-.739h.701a2.18 2.18 0 0 1 1.58.69l.319.335c.419.441.654 1.04.654 1.664zM11.319 8.68c-.387 0-.7-.33-.701-.738 0-.624.235-1.223.655-1.665l.317-.334c.42-.442.988-.69 1.58-.69h.702v.739c0 .624-.236 1.223-.655 1.664l-.317.335a2.18 2.18 0 0 1-1.581.69zM11.319 13.932c-.387 0-.7-.331-.701-.739 0-.624.235-1.223.655-1.665l.317-.334c.42-.442.988-.69 1.58-.69h.702v.739c0 .624-.236 1.223-.655 1.664l-.317.335a2.18 2.18 0 0 1-1.581.69zM2.677 9.774a.677.677 0 0 1-.992 0 2.419 2.419 0 0 1-.654-1.665v-.473c0-.624.235-1.223.654-1.664l.496-.523.496.523c.42.441.655 1.04.655 1.664v.473c0 .625-.236 1.224-.655 1.665zM5.435 20.256c0 .407-.313.738-.7.738h-.001a2.18 2.18 0 0 1-1.58-.69l-.318-.334a2.42 2.42 0 0 1-.655-1.665v-.738h.701a2.18 2.18 0 0 1 1.58.69l.318.334c.42.442.655 1.04.655 1.665z"/>
        </g>
        <g fill="#F09E3E">
            <path d="M7.123 6.095a1.407 1.407 0 0 1-1.377-1.197 7.669 7.669 0 0 1 0-2.46A1.407 1.407 0 0 1 7.123 1.24c.585.004 1.055.495 1.05 1.095a1.107 1.107 0 0 1-.177.595l-.025.038a1.287 1.287 0 0 0 0 1.398l.025.038c.324.5.193 1.175-.294 1.508a1.04 1.04 0 0 1-.58.182zM10.438 3.88a1.46 1.46 0 0 1-.149-1.846 7.382 7.382 0 0 1 1.695-1.74 1.37 1.37 0 0 1 1.799.152c.41.428.405 1.117-.012 1.538-.147.149-.333.25-.536.291l-.043.01c-.486.1-.866.49-.963.988l-.009.045c-.115.589-.673.97-1.247.853a1.055 1.055 0 0 1-.535-.291zM20.92 17.828a1.407 1.407 0 0 1-1.378-1.197 7.669 7.669 0 0 1 0-2.46 1.407 1.407 0 0 1 1.377-1.198c.585.005 1.055.495 1.051 1.096a1.107 1.107 0 0 1-.178.594l-.025.038a1.287 1.287 0 0 0 0 1.399l.025.038c.325.5.193 1.174-.293 1.507a1.04 1.04 0 0 1-.58.183zM13.882 18.247a1.37 1.37 0 0 1 1.798-.152 7.382 7.382 0 0 1 1.695 1.74c.397.57.334 1.35-.148 1.846a1.04 1.04 0 0 1-1.498-.013 1.098 1.098 0 0 1-.284-.55l-.009-.044c-.097-.499-.477-.889-.963-.989l-.044-.008c-.574-.118-.946-.691-.831-1.28a1.1 1.1 0 0 1 .284-.55zM8.672 11.668a1.46 1.46 0 0 1 .149 1.846 7.382 7.382 0 0 1-1.695 1.74 1.369 1.369 0 0 1-1.799-.153 1.107 1.107 0 0 1 .013-1.538c.147-.148.333-.25.535-.29l.043-.01c.486-.1.866-.49.963-.989l.009-.044c.115-.59.673-.97 1.247-.853.202.042.388.143.535.291z"/>
        </g>
        <path fill="#000" d="M7.78 3.457c.402-.726.238-1.708-.366-2.192A1.168 1.168 0 0 0 6.693 1c-.793-.003-1.47.686-1.598 1.626a9.984 9.984 0 0 0 0 2.748c.128.94.805 1.629 1.598 1.626h.002C7.422 6.993 8.006 6.28 8 5.406a1.81 1.81 0 0 0-.222-.865l-.021-.038a1.06 1.06 0 0 1 0-1.004l.022-.042zM7.163 4.98l.022.038c.184.333.11.782-.168 1.004a.534.534 0 0 1-.327.12c-.443 0-.82-.384-.892-.91a8.976 8.976 0 0 1 0-2.465c.071-.525.448-.91.89-.91.333.004.6.33.598.73a.83.83 0 0 1-.1.393l-.024.043a2.063 2.063 0 0 0 .001 1.957zM16.5 2a1.5 1.5 0 1 0 0 3 1.5 1.5 0 0 0 0-3zm0 2.25a.75.75 0 1 1 0-1.5.75.75 0 0 1 0 1.5zM0 14.5a1.5 1.5 0 1 0 3 0 1.5 1.5 0 0 0-3 0zm1.5-.75a.75.75 0 1 1 0 1.5.75.75 0 0 1 0-1.5zM8 17.5a1.5 1.5 0 1 0 3 0 1.5 1.5 0 0 0-3 0zm1.5-.75a.75.75 0 1 1 0 1.5.75.75 0 0 1 0-1.5zM7.5 7a1.5 1.5 0 1 0 0 3 1.5 1.5 0 0 0 0-3zm0 2.25a.75.75 0 1 1 0-1.5.75.75 0 0 1 0 1.5zM19 10.5a1.5 1.5 0 1 0-3 0 1.5 1.5 0 0 0 3 0zm-2.25 0a.75.75 0 1 1 1.5 0 .75.75 0 0 1-1.5 0zM15.5 17a1.5 1.5 0 1 0 0-3 1.5 1.5 0 0 0 0 3zm0-2.25a.75.75 0 1 1 0 1.5.75.75 0 0 1 0-1.5zM10.5 21a1.5 1.5 0 1 0 0 3 1.5 1.5 0 0 0 0-3zm0 2.25a.75.75 0 1 1 0-1.5.75.75 0 0 1 0 1.5zM20.921 5.763A2.588 2.588 0 0 0 19.08 5h-.697c-.211 0-.382.17-.382.382v.697a2.588 2.588 0 0 0 .763 1.842l.316.316c.487.49 1.15.765 1.842.763A1.08 1.08 0 0 0 22 7.921a2.588 2.588 0 0 0-.763-1.842l-.316-.316zm0 2.474a1.833 1.833 0 0 1-1.303-.54l-.316-.315a1.832 1.832 0 0 1-.539-1.303v-.316h.316c.489-.001.958.193 1.303.54l.316.315c.346.345.54.814.539 1.303a.316.316 0 0 1-.316.316zM14.618 5h-.697a2.588 2.588 0 0 0-1.842.763l-.316.316A2.588 2.588 0 0 0 11 7.92 1.08 1.08 0 0 0 12.079 9a2.588 2.588 0 0 0 1.842-.763l.316-.316c.49-.487.765-1.15.763-1.842v-.697C15 5.17 14.83 5 14.618 5zm-.381 1.079c.001.489-.193.958-.54 1.303l-.315.316c-.345.346-.814.54-1.303.539a.316.316 0 0 1-.316-.316 1.833 1.833 0 0 1 .54-1.303l.315-.316c.345-.346.814-.54 1.303-.539h.316v.316zM14.237 12.921c.49-.487.765-1.15.763-1.842v-.697c0-.211-.17-.382-.382-.382h-.697a2.588 2.588 0 0 0-1.842.763l-.316.316A2.588 2.588 0 0 0 11 12.92 1.08 1.08 0 0 0 12.079 14a2.588 2.588 0 0 0 1.842-.763l.316-.316zm-.855-.223c-.345.346-.814.54-1.303.539a.316.316 0 0 1-.316-.316 1.833 1.833 0 0 1 .54-1.303l.315-.316c.345-.346.814-.54 1.303-.539h.316v.316c.001.489-.193.958-.54 1.303l-.315.316zM2.5 10c.281 0 .551-.112.75-.312A2.57 2.57 0 0 0 4 7.864v-.442a2.57 2.57 0 0 0-.75-1.823l-.485-.489a.373.373 0 0 0-.53 0L1.75 5.6A2.57 2.57 0 0 0 1 7.422v.442a2.57 2.57 0 0 0 .75 1.824c.199.2.469.313.75.312zm-.75-2.578a1.82 1.82 0 0 1 .53-1.29l.22-.22.22.22c.34.342.531.806.53 1.29v.442a1.82 1.82 0 0 1-.53 1.29.31.31 0 0 1-.44 0 1.82 1.82 0 0 1-.53-1.29v-.442zM3.079 20.237c.487.49 1.15.765 1.842.763A1.08 1.08 0 0 0 6 19.921a2.588 2.588 0 0 0-.763-1.842l-.316-.316A2.588 2.588 0 0 0 3.08 17h-.697c-.211 0-.382.17-.382.382v.697a2.588 2.588 0 0 0 .763 1.842l.316.316zm-.316-2.474h.316c.489-.001.958.193 1.303.54l.316.315c.346.345.54.814.539 1.303a.316.316 0 0 1-.316.316 1.833 1.833 0 0 1-1.303-.54l-.316-.315a1.832 1.832 0 0 1-.539-1.303v-.316zM11.188.346a7.878 7.878 0 0 0-1.842 1.841 1.839 1.839 0 0 0 .196 2.378l.003.002a1.476 1.476 0 0 0 1.488.365 1.477 1.477 0 0 0 1.03-1.138l.01-.047a.857.857 0 0 1 .678-.673l.044-.01a1.499 1.499 0 0 0 .772-2.522 1.841 1.841 0 0 0-2.379-.196zm1.969 1.451a.677.677 0 0 1-.523.471l-.043.01a1.666 1.666 0 0 0-1.314 1.31l-.01.046a.686.686 0 0 1-1.152.355 1.028 1.028 0 0 1-.11-1.33 7.075 7.075 0 0 1 1.654-1.652 1.03 1.03 0 0 1 1.33.107c.179.179.243.442.168.683zM20.693 19h.002c.727-.007 1.31-.72 1.305-1.594a1.81 1.81 0 0 0-.222-.865l-.021-.038a1.06 1.06 0 0 1 0-1.004l.023-.043c.402-.727.238-1.708-.367-2.192a1.167 1.167 0 0 0-.72-.264c-.793-.003-1.47.686-1.598 1.626a9.984 9.984 0 0 0 0 2.748c.128.94.805 1.629 1.598 1.626zm-.895-4.233c.072-.525.449-.91.892-.91.332.004.6.33.597.73a.83.83 0 0 1-.1.393l-.024.043a2.064 2.064 0 0 0 0 1.958l.021.039c.184.333.108.781-.168 1.002a.533.533 0 0 1-.325.12c-.443 0-.82-.384-.892-.91a8.975 8.975 0 0 1 0-2.465zM17.654 20.188a7.878 7.878 0 0 0-1.843-1.842 1.84 1.84 0 0 0-2.378.196l-.003.003a1.498 1.498 0 0 0 .773 2.52l.046.009a.857.857 0 0 1 .675.675l.009.044c.104.543.502.982 1.032 1.139a1.48 1.48 0 0 0 1.493-.367c.64-.637.723-1.644.196-2.377zm-.769 1.8a.687.687 0 0 1-1.155-.355l-.009-.044a1.667 1.667 0 0 0-1.31-1.312l-.047-.01a.685.685 0 0 1-.355-1.151 1.03 1.03 0 0 1 1.33-.11 7.076 7.076 0 0 1 1.653 1.653c.296.41.25.972-.107 1.33zM4.069 13.963a1.482 1.482 0 0 0 .366 1.494c.636.641 1.644.724 2.377.197a7.88 7.88 0 0 0 1.842-1.844 1.843 1.843 0 0 0-.196-2.38h-.003a1.497 1.497 0 0 0-2.52.773l-.009.047a.857.857 0 0 1-.675.675l-.044.009c-.542.103-.98.5-1.138 1.029zm.777.238a.677.677 0 0 1 .522-.471l.044-.01a1.667 1.667 0 0 0 1.313-1.31l.01-.047a.677.677 0 0 1 .47-.522.676.676 0 0 1 .68.166c.358.357.403.92.109 1.33a7.077 7.077 0 0 1-1.653 1.655 1.03 1.03 0 0 1-1.329-.107.679.679 0 0 1-.166-.684z"/>
    </g>
</svg>
