<svg xmlns="http://www.w3.org/2000/svg" width="31" height="7" viewBox="0 0 31 7">
    <path fill="#403F3D" fill-rule="nonzero" d="M4.68 4.825c-.113.702-.378 1.24-.795 1.614C3.468 6.813 2.956 7 2.35 7a2.256 2.256 0 0 1-1.706-.725 2.061 2.061 0 0 1-.54-1.04C.034 4.858 0 4.28 0 3.5c0-.78.034-1.358.103-1.735.068-.378.248-.724.54-1.04A2.256 2.256 0 0 1 2.349 0c.607 0 1.12.187 1.536.56.417.375.682.913.795 1.615H3.412c-.143-.65-.497-.976-1.063-.976-.34 0-.604.12-.795.358-.12.148-.2.35-.246.604-.044.255-.067.7-.067 1.339 0 .638.023 1.084.067 1.34.045.254.127.455.246.603.19.239.456.358.795.358.571 0 .929-.325 1.072-.976H4.68zm4.751.125c0 .658-.192 1.164-.576 1.518C8.471 6.823 7.99 7 7.413 7c-.566 0-1.044-.17-1.434-.508-.39-.338-.588-.846-.594-1.522h1.162c.005.296.09.52.254.672a.866.866 0 0 0 .612.227.813.813 0 0 0 .62-.252c.158-.167.237-.402.237-.705 0-.29-.079-.52-.236-.692-.158-.17-.377-.256-.657-.256h-.17V2.872h.17c.268 0 .469-.08.603-.237.134-.158.2-.366.2-.624 0-.277-.073-.493-.222-.648a.737.737 0 0 0-.554-.232.739.739 0 0 0-.55.223c-.145.148-.224.35-.236.609H5.457c.012-.6.202-1.077.572-1.431C6.398.177 6.856 0 7.404 0c.566 0 1.03.184 1.393.551.363.368.545.841.545 1.421 0 .658-.244 1.128-.732 1.412.547.316.821.838.821 1.566zm5.806 1.992h-1.242V4.061h-2.152v2.881H10.6V.058h1.242v2.814h2.152V.058h1.242v6.884zm4.403-3.548c.535.386.803.902.803 1.547 0 .644-.192 1.149-.576 1.513-.384.364-.87.546-1.46.546s-1.076-.182-1.46-.546c-.384-.364-.576-.869-.576-1.513 0-.651.265-1.167.795-1.547-.477-.361-.715-.838-.715-1.431 0-.593.19-1.069.567-1.426.378-.358.841-.537 1.39-.537.547 0 1.008.179 1.383.537.376.357.563.833.563 1.426s-.238 1.07-.714 1.43zm-.617 2.204a.962.962 0 0 0 .26-.677.971.971 0 0 0-.255-.677.807.807 0 0 0-.62-.28.807.807 0 0 0-.622.28.971.971 0 0 0-.254.677c0 .265.085.489.254.672.17.184.377.276.621.276s.45-.09.616-.27zm.17-3.597a.898.898 0 0 0-.223-.618.72.72 0 0 0-.563-.252.734.734 0 0 0-.567.252.888.888 0 0 0-.228.618c0 .252.076.46.228.624a.74.74 0 0 0 .567.247.727.727 0 0 0 .563-.247.894.894 0 0 0 .223-.624zm6.752-.232c.071.38.107.958.107 1.731 0 .773-.036 1.35-.107 1.73-.071.381-.253.729-.545 1.045-.446.483-1.012.725-1.697.725-.69 0-1.259-.242-1.706-.725a2.061 2.061 0 0 1-.54-1.04c-.068-.377-.103-.955-.103-1.735 0-.78.035-1.358.103-1.735.069-.378.249-.724.54-1.04C22.444.242 23.013 0 23.703 0c.685 0 1.25.242 1.697.725.292.316.474.664.545 1.044zM24.811 3.5c0-.638-.023-1.083-.067-1.334-.045-.252-.127-.451-.246-.6a.966.966 0 0 0-.795-.367c-.327 0-.595.122-.804.367-.119.149-.199.348-.24.6-.042.251-.063.696-.063 1.334 0 .638.02 1.081.062 1.33.042.248.122.446.241.594.215.251.483.377.804.377a.972.972 0 0 0 .795-.377c.12-.155.201-.356.246-.604.044-.248.067-.688.067-1.32zM31 4.95c0 .658-.192 1.164-.576 1.518-.384.355-.865.532-1.442.532-.566 0-1.044-.17-1.434-.508-.39-.338-.588-.846-.594-1.522h1.161c.006.296.091.52.255.672a.867.867 0 0 0 .612.227.813.813 0 0 0 .62-.252c.158-.167.237-.402.237-.705 0-.29-.079-.52-.237-.692-.158-.17-.376-.256-.656-.256h-.17V2.872h.17c.268 0 .469-.08.603-.237.134-.158.2-.366.2-.624 0-.277-.074-.493-.223-.648a.737.737 0 0 0-.553-.232.739.739 0 0 0-.55.223c-.146.148-.224.35-.236.609h-1.161c.012-.6.202-1.077.571-1.431.37-.355.828-.532 1.376-.532.565 0 1.03.184 1.393.551.363.368.545.841.545 1.421 0 .658-.244 1.128-.733 1.412.548.316.822.838.822 1.566z"/>
</svg>
