<?xml version="1.0" standalone="no"?>
<!DOCTYPE svg PUBLIC "-//W3C//DTD SVG 1.1//EN" "http://www.w3.org/Graphics/SVG/1.1/DTD/svg11.dtd" >
<svg>
<metadata>
Created by FontForge 20090914 at Thu Jun 11 15:20:14 2020
 By www-data
Copyright (c) 2019 by Oleh Lishchuk. All rights reserved. |DCNT
</metadata>
<defs>
<font id="MazzardH-ExtraLight" horiz-adv-x="669" >
  <font-face 
    font-family="Mazzard H ExtraLight"
    font-weight="275"
    font-stretch="semi-condensed"
    units-per-em="1000"
    panose-1="0 0 0 0 0 0 0 0 0 0"
    ascent="755"
    descent="-245"
    x-height="519.999"
    cap-height="700"
    bbox="-114 -232.002 1211 959.001"
    underline-thickness="50"
    underline-position="-175"
    unicode-range="U+000D-U+FB04"
  />
<missing-glyph horiz-adv-x="333" 
 />
    <glyph glyph-name="f_f" unicode="ff" horiz-adv-x="652" 
d="M122 483h-95.998v37h96v90c0 38.667 12 71.667 36 99s53.667 41 89 41h67v-39h-65c-24.667 0 -45.334 -10 -62.001 -30s-25 -44.667 -25 -74v-87h271v90c0 38.667 12 71.667 36 99s53.667 41 89 41h68v-39h-66c-24.667 0 -45.334 -10 -62.001 -30s-25 -44.667 -25 -74
v-87h153v-37h-153v-483h-40v483h-271v-483h-40v483z" />
    <glyph glyph-name="fi" unicode="fi" horiz-adv-x="563" 
d="M162 607l0.000976562 -87h153v-37h-153v-483h-40v483h-96v37h96v90c0 38.667 12 71.667 36 99s53.667 41 89 41h67v-39h-65c-24.667 0 -45.334 -10 -62.001 -30s-25 -44.667 -25 -74zM472.001 0h-40v520h40v-520zM417.001 650c0 10 3.16699 18.333 9.5 25
s14.833 10 25.5 10c10 0 18.5 -3.33301 25.5 -10s10.5 -15 10.5 -25c0 -10.667 -3.5 -19.334 -10.5 -26.001s-15.5 -10 -25.5 -10c-10.667 0 -19.167 3.33301 -25.5 10s-9.5 15.334 -9.5 26.001z" />
    <glyph glyph-name="fl" unicode="fl" horiz-adv-x="563" 
d="M162 607l0.000976562 -87h153v-37h-153v-483h-40v483h-96v37h96v90c0 38.667 12 71.667 36 99s53.667 41 89 41h67v-39h-65c-24.667 0 -45.334 -10 -62.001 -30s-25 -44.667 -25 -74zM472.001 0h-40v750h40v-750z" />
    <glyph glyph-name="f_f_i" unicode="ffi" horiz-adv-x="874" 
d="M122 0l0.00195312 483h-96v37h96v90c0 38.667 12 71.667 36 99s53.667 41 89 41h67v-39h-65c-24.667 0 -45.334 -10 -62.001 -30s-25 -44.667 -25 -74v-87h271v90c0 38.667 12 71.667 36 99s53.667 41 89 41h68v-39h-66c-24.667 0 -45.334 -10 -62.001 -30
s-25 -44.667 -25 -74v-87h310v-520h-40v483h-270v-483h-40v483h-271v-483h-40zM728.002 650c-1.33301 14 4.16895 24 16.502 30s24.666 6 36.999 0s18.166 -16 17.499 -30c0 -14.667 -5.83301 -25 -17.5 -31s-23.5 -6 -35.5 0s-18 16.333 -18 31z" />
    <glyph glyph-name="f_f_l" unicode="ffl" horiz-adv-x="874" 
d="M122 0l0.00195312 483h-96v37h96v90c0 38.667 12 71.667 36 99s53.667 41 89 41h67v-39h-65c-24.667 0 -45.334 -10 -62.001 -30s-25 -44.667 -25 -74v-87h271v90c0 38.667 12 71.667 36 99s53.667 41 89 41h68v-39h-66c-24.667 0 -45.334 -10 -62.001 -30
s-25 -44.667 -25 -74v-87h153v-37h-153v-483h-40v483h-271v-483h-40zM783.002 750v-750h-40v750h40z" />
    <glyph glyph-name="afii10104_afii10104" unicode="&#x457;&#x457;" horiz-adv-x="444" 
d="M131 0h-40v520h40v-520zM13 682c14 0.666992 23.833 -4.99805 29.5 -16.998s5.66699 -24 0 -36s-15.5 -17.333 -29.5 -16c-10.667 0 -19.167 3.66699 -25.5 11s-9.5 15.166 -9.5 23.499s3.16699 16.166 9.5 23.499s14.833 11 25.5 11zM353 0.00195312h-40v520h40v-520z
M197 622.002c-6.66699 6.66699 -10 15 -10 25s3.33301 18.333 10 25s15 10 25 10s18.333 -3.33301 25 -10s10 -15 10 -25s-3.33301 -18.333 -10 -25c-6.66699 -6 -15 -9 -25 -9s-18.333 3 -25 9zM405 622.002c-6 6.66699 -9 15 -9 25s3 18.333 9 25
c6.66699 6.66699 15 10 25 10s18.333 -3.33301 25 -10s10 -15 10 -25s-3.33301 -18.333 -10 -25c-6.66699 -6 -15 -9 -25 -9s-18.333 3 -25 9z" />
    <glyph glyph-name=".notdef" horiz-adv-x="333" 
 />
    <glyph glyph-name="uni0000" horiz-adv-x="0" 
 />
    <glyph glyph-name="uni0000" horiz-adv-x="0" 
 />
    <glyph glyph-name="uni000D" unicode="&#xd;" horiz-adv-x="250" 
 />
    <glyph glyph-name="space" unicode=" " horiz-adv-x="292" 
 />
    <glyph glyph-name="exclam" unicode="!" horiz-adv-x="242" 
d="M81 32c-0.666992 16 5.83008 27.502 19.4971 34.502s27.334 7 41.001 0s19.834 -18.5 18.501 -34.5c0 -10.667 -3.66699 -19.834 -11 -27.501s-16.666 -11.5 -27.999 -11.5s-20.833 3.66699 -28.5 11s-11.5 16.666 -11.5 27.999zM138.997 196.002h-36l-3 504h42z" />
    <glyph glyph-name="quotedbl" unicode="&#x22;" horiz-adv-x="342" 
d="M117 487h-31l-4 213h39zM256 487h-31l-4 213h39z" />
    <glyph glyph-name="numbersign" unicode="#" horiz-adv-x="713" 
d="M29 211l-1 36h177l36 206h-170v36h177l37 211h36l-37 -211h195l37 211h37l-37 -211h169v-36h-176l-36 -206h170v-36h-177l-37 -211h-36l37 211h-195l-37 -211h-37l37 211h-169zM278 453l-37 -206h195l37 206h-195z" />
    <glyph glyph-name="dollar" unicode="$" horiz-adv-x="625" 
d="M297 -122l-0.00195312 114.999c-61.333 3.33301 -113 20 -155 50c-42.667 31.333 -68.667 70.333 -78 117l42 11c7.33301 -40.667 30 -73.667 68 -99c39.333 -25.333 86.333 -38 141 -38c58.667 0 107.334 14.333 146.001 43s58 66 58 112c0 44 -20.667 77.667 -62 101
c-28.667 16 -75 31.667 -139 47c-52.667 11.333 -96 24.333 -130 39c-33.333 14 -58.666 32.333 -75.999 55s-27.333 52.334 -30 89.001c0 52.667 19.667 96 59 130c40 35.333 91.333 54.333 154 57v115h34v-115c56 -2.66699 104 -19 144 -49
c40 -29.333 64.333 -65.333 73 -108l-42 -11c-6.66699 36.667 -27.667 67 -63 91s-78 36 -128 36c-53.333 0 -98.333 -13.667 -135 -41c-36 -27.333 -54 -61.666 -54 -102.999c0 -34 13.333 -62 40 -84c8 -6.66699 23.333 -15.334 46 -26.001c25.333 -10.667 64 -22 116 -34
c51.333 -10.667 95 -24 131 -40c65.333 -28 100 -77 104 -147c0 -54.667 -21.667 -100.667 -65 -138c-42.667 -36.667 -97.667 -56.667 -165 -60v-115h-34z" />
    <glyph glyph-name="percent" unicode="%" horiz-adv-x="809" 
d="M134 0l-24 20l567 680l25 -21zM209 707c46.667 0 85.667 -15.668 117 -47.001s47 -70 47 -116c0 -47.333 -15.667 -86.666 -47 -117.999c-30.667 -30.667 -69.667 -46 -117 -46c-46 0 -84.667 15.667 -116 47s-47 70.333 -47 117c0 46 15.667 84.667 47 116s70 47 116 47
zM119 633.999c-24 -24 -36 -54 -36 -90s12 -66 36 -90s54 -36 90 -36c35.333 0 65.333 11.667 90 35c24 24 36 54 36 90s-12 66 -36 90c-24 24.667 -54 37 -90 37s-66 -12 -90 -36zM483 38.999c-30.667 30.667 -45.999 69.667 -45.999 117s15.333 86.333 46 117
c31.333 31.333 70.333 47 117 47c46 0 84.667 -15.667 116 -47s47 -70.333 47 -117s-15.667 -85.667 -47 -117c-30.667 -30.667 -69.334 -46 -116.001 -46c-47.333 0 -86.333 15.333 -117 46zM474.001 155.999c0 -36 12 -66 36 -90s54 -36 90 -36s66 12 90 36s36 54 36 90
s-12 66.167 -36 90.5s-54 36.5 -90 36.5s-66 -12 -90 -36s-36 -54.333 -36 -91z" />
    <glyph glyph-name="ampersand" unicode="&#x26;" horiz-adv-x="688" 
d="M64 195c0 43.333 13.002 80.0039 39.002 110.004s66 60 120 90c-50.667 63.333 -76 121.333 -76 174c0 41.333 14 74.666 42 99.999s64.333 38 109 38c45.333 0 83.666 -13.667 114.999 -41s47 -61 47 -101c0 -32.667 -12 -62.334 -36 -89.001
c-8.66699 -10.667 -22.334 -22.334 -41.001 -35.001c-13.333 -9.33301 -28.333 -19 -45 -29l-53 -28c12 -13.333 26 -28 42 -44l177 -180c30 49.333 45 106.666 45 171.999h40c0 -76.667 -18.667 -143.667 -56 -201l129 -131h-57l-96 97
c-57.333 -69.333 -130 -104 -218 -104c-66 0 -120.333 19.333 -163 58s-64 86.667 -64 144zM105.002 193.004c0 -44.667 17.667 -82.667 53 -114c34.667 -30.667 79 -46 133 -46c76.667 0 140 31 190 93l-180 182c-22 22 -39.333 40.667 -52 56
c-50 -27.333 -86.5 -53.833 -109.5 -79.5s-34.5 -56.167 -34.5 -91.5zM259.002 414.004c32 16.667 52.667 27.667 62 33c16 9.33301 31.667 19.666 47 30.999c34.667 24.667 52 53.667 52 87c0 28.667 -11.5 52.834 -34.5 72.501s-51.5 29.5 -85.5 29.5
c-32.667 0 -59.5 -9.33301 -80.5 -28s-31.5 -43 -31.5 -73c0 -42 23.667 -92.667 71 -152z" />
    <glyph glyph-name="quotesingle" unicode="'" horiz-adv-x="203" 
d="M117 487h-31l-4 213h39z" />
    <glyph glyph-name="parenleft" unicode="(" horiz-adv-x="282" 
d="M198 780l15.998 20.002h42c-8.66699 -10.667 -14.334 -18 -17.001 -22c-5.33301 -6.66699 -17.666 -27.334 -36.999 -62.001c-17.333 -31.333 -33 -64.666 -47 -99.999c-14 -38 -26.333 -83.333 -37 -136c-10.667 -53.333 -16 -109 -16 -167c0 -110 18 -211.667 54 -305
c34 -79.333 62 -133.333 84 -162l16 -21h-42l-16 21c-6 7.33301 -18 27.666 -36 60.999c-38 68 -65.333 146.333 -82 235c-21.333 114 -21.666 227.333 -0.999023 340c20.667 105.333 60.334 204.666 119.001 297.999z" />
    <glyph glyph-name="parenright" unicode=")" horiz-adv-x="282" 
d="M42 780l-15.999 19.998h42l16 -21c6 -7.33301 18 -27.666 36 -60.999c38 -68 65.333 -146.333 82 -235c21.333 -113.333 21.333 -226.666 0 -339.999c-10 -56.667 -22.333 -102.667 -37 -138c-28.667 -72.667 -55.667 -126 -81 -160l-16 -20h-42l16 22
c8.66699 10.667 21 31.334 37 62.001c18 31.333 33.667 64.666 47 99.999c13.333 33.333 25.666 78.333 36.999 135s17 113 17 169c0 116 -18.333 217.333 -55 304c-29.333 74 -57 128.333 -83 163z" />
    <glyph glyph-name="asterisk" unicode="*" horiz-adv-x="470" 
d="M222 512l-120 -77l-20 34l127 66l-127 65l20 34l120 -77l-7 143h39l-6 -143l120 77l20 -34l-127 -65l127 -66l-20 -34l-120 77l6 -143h-39z" />
    <glyph glyph-name="plus" unicode="+" horiz-adv-x="600" 
d="M281 353h-205v38h205v205h38v-205h205v-38h-205v-205h-38v205z" />
    <glyph glyph-name="comma" unicode="," horiz-adv-x="204" 
d="M145 10c0 -29.333 -7.83301 -54.6689 -23.5 -76.002s-30.167 -35.333 -43.5 -42l-4 -3l-14 15l12 12c6.66699 5.33301 13.5 15.833 20.5 31.5s9.83301 30.834 8.5 45.501c-15.333 0 -26.333 6.66699 -33 20s-6.66699 26.5 0 39.5s18 18.833 34 17.5
c12.667 0 23 -5.16699 31 -15.5s12 -25.166 12 -44.499z" />
    <glyph glyph-name="hyphen" unicode="-" horiz-adv-x="400" 
d="M76 241v38h248v-38h-248z" />
    <glyph glyph-name="period" unicode="." horiz-adv-x="205" 
d="M63 32c-1.33301 16 4.83301 27.498 18.5 34.498s27.334 7 41.001 0s20.167 -18.5 19.5 -34.5c0 -11.333 -3.83301 -20.666 -11.5 -27.999s-17.167 -11 -28.5 -11c-10.667 0 -19.834 3.83301 -27.501 11.5s-11.5 16.834 -11.5 27.501z" />
    <glyph glyph-name="slash" unicode="/" horiz-adv-x="494" 
d="M40 -175h-40l455 975h39z" />
    <glyph glyph-name="zero" unicode="0" horiz-adv-x="667" 
d="M77 237v226c0 69.333 24.333 127.333 73 174s109.667 70 183 70s134.333 -23.333 183 -70c49.333 -47.333 74 -105.333 74 -174v-226c0 -68.667 -24.667 -126.667 -74 -174c-48.667 -46.667 -109.667 -70 -183 -70s-134.333 23.333 -183 70s-73 104.667 -73 174zM117 464
l-0.00195312 -228c0 -57.333 20.667 -105.666 62 -144.999c40.667 -38.667 92 -58 154 -58s113.333 19.333 154 58c42 39.333 63 87.666 63 144.999v228c0 57.333 -21 105.333 -63 144c-41.333 39.333 -92.666 59 -153.999 59s-112.666 -19.667 -153.999 -59
s-62 -87.333 -62 -144z" />
    <glyph glyph-name="one" unicode="1" horiz-adv-x="414" 
d="M239 644l-163 -92l-19 36l197 112h26v-700h-41v644z" />
    <glyph glyph-name="two" unicode="2" horiz-adv-x="586" 
d="M465 502c0 45.333 -18 83.999 -54 115.999c-35.333 32.667 -78.666 49 -129.999 49c-42 0 -79.667 -12.167 -113 -36.5s-58 -56.833 -74 -97.5l-38 18c18.667 48 48 86 88 114s85.667 42 137 42c62.667 0 116 -20 160 -60s66 -88 66 -144
c0 -28.667 -7.66699 -57.667 -23 -87c-15.333 -30 -31 -53.333 -47 -70c-14 -15.333 -38 -39.666 -72 -72.999l-242 -233h398v-40h-464v28l274 270l23 22l25 24l21 23c6.66699 6.66699 14 15 22 25c17.333 24 27.666 41.333 30.999 52c8 18 12 37.333 12 58z" />
    <glyph glyph-name="three" unicode="3" horiz-adv-x="592" 
d="M471 523c0 40.667 -17.665 74.665 -52.998 101.998c-34.667 28 -78 42 -130 42c-42 0 -78.833 -9 -110.5 -27s-54.834 -43 -69.501 -75l-36 18c17.333 38 45.166 68.167 83.499 90.5s82.5 33.5 132.5 33.5c63.333 0 116.666 -17.667 159.999 -53s65 -78.666 65 -129.999
c0 -36 -11.833 -68.833 -35.5 -98.5s-55.5 -51.5 -95.5 -65.5c44.667 -13.333 80.167 -35.833 106.5 -67.5s39.5 -67.5 39.5 -107.5c0 -54 -23 -99.667 -69 -137c-45.333 -36.667 -102.666 -55 -171.999 -55c-52 0 -98.167 10.833 -138.5 32.5s-69.5 50.834 -87.5 87.501
l39 16c15.333 -30 39.5 -53.5 72.5 -70.5s71.167 -25.5 114.5 -25.5c56 0 103.333 14.667 142 44c38 28.667 57 65 57 109c0 43.333 -18.333 79.333 -55 108c-37.333 29.333 -83.333 44 -138 44h-52v39h40c54 0 99 14 135 42c36.667 28 55 62.667 55 104z" />
    <glyph glyph-name="four" unicode="4" horiz-adv-x="664" 
d="M463 0v156h-412v40l417 504h36v-503h114v-41h-114v-156h-41zM463 634l-360 -437h360v437z" />
    <glyph glyph-name="five" unicode="5" horiz-adv-x="605" 
d="M541 216c0 -63.333 -24.333 -116.332 -73 -158.999c-47.333 -42.667 -107 -64 -179 -64c-51.333 0 -97.5 11.833 -138.5 35.5s-71.5 55.5 -91.5 95.5l39 14c18 -32.667 44 -58.334 78 -77.001s71.667 -28 113 -28c60 0 109.667 17.333 149 52c40.667 34.667 61 78 61 130
s-20.333 95.333 -61 130s-91 52 -151 52h-179l31 303h350v-39h-315l-23 -225h137c72.667 0 132.667 -21.333 180 -64c48.667 -42 73 -94 73 -156z" />
    <glyph glyph-name="six" unicode="6" horiz-adv-x="625" 
d="M550 596l-36.9971 -19.999c-18.667 28.667 -43.834 51 -75.501 67s-66.834 24 -105.501 24c-60.667 0 -111.667 -19.667 -153 -59s-62 -87.333 -62 -144v-136c18.667 34.667 46.334 62.167 83.001 82.5s78 30.5 124 30.5c69.333 0 127.666 -21.667 174.999 -65
s71 -96.333 71 -159c0 -63.333 -23.667 -116.666 -71 -159.999c-46.667 -42.667 -105 -64 -175 -64c-70.667 0 -129.334 21.333 -176.001 64c-47.333 43.333 -71 96.666 -71 159.999v246c0 69.333 24.333 127.333 73 174s109.667 70 183 70c46 0 88 -9.83301 126 -29.5
s68.333 -46.834 91 -81.501zM324.003 401.001c-58 0 -106.667 -17.667 -146 -53s-59 -79 -59 -131s19.667 -95.667 59 -131s88 -53 146 -53c57.333 0 105.666 17.667 144.999 53s59 79 59 131s-19.667 95.667 -59 131s-87.666 53 -144.999 53z" />
    <glyph glyph-name="seven" unicode="7" horiz-adv-x="525" 
d="M170 0l251 661h-393v39h436v-40l-250 -660h-44z" />
    <glyph glyph-name="eight" unicode="8" horiz-adv-x="617" 
d="M309 -7c-70 0 -128.332 18.333 -174.999 55s-70 83 -70 139c0 41.333 13.5 78 40.5 110s63.5 55 109.5 69c-38.667 14 -69.5 35.667 -92.5 65s-34.5 62 -34.5 98c0 50.667 21 93 63 127c42.667 34 95.667 51 159 51c62.667 0 115 -17 157 -51
c42.667 -34 64 -76.333 64 -127c0 -36 -11.5 -68.667 -34.5 -98s-53.833 -51 -92.5 -65c45.333 -14 81.666 -37.167 108.999 -69.5s41 -68.833 41 -109.5c0 -55.333 -23.333 -101.333 -70 -138c-47.333 -37.333 -105.333 -56 -174 -56zM309.001 33
c56.667 0 104.667 15 144 45c38.667 30 58 67.333 58 112c0 45.333 -19.333 82.333 -58 111c-39.333 30 -87.333 45 -144 45c-58 0 -106.333 -15 -145 -45c-38.667 -28.667 -58 -65.667 -58 -111c0 -44.667 19.333 -82 58 -112s87 -45 145 -45zM309.001 385
c51.333 0 93.667 13.332 127 39.999c34.667 26.667 52 60.334 52 101.001c0 40 -17.333 73.333 -52 100c-34.667 27.333 -77 41 -127 41c-51.333 0 -94.333 -13.333 -129 -40c-34 -27.333 -51 -61 -51 -101s17 -73.667 51 -101c34.667 -26.667 77.667 -40 129 -40z" />
    <glyph glyph-name="nine" unicode="9" horiz-adv-x="610" 
d="M74 105l36.002 20.002c20 -28.667 46 -51.167 78 -67.5s67 -24.5 105 -24.5c62 0 113.333 19.333 154 58c41.333 39.333 62 87.666 62 144.999v134c-18.667 -40 -46.334 -71.5 -83.001 -94.5s-77.667 -34.5 -123 -34.5c-70 0 -128.333 22.333 -175 67
c-47.333 45.333 -71 100.666 -71 165.999s23.667 120.666 71 165.999c46.667 44.667 105 67 175 67c69.333 0 127.666 -21.667 174.999 -65s71 -96.666 71 -159.999v-246c0 -68.667 -24.667 -126.667 -74 -174c-48.667 -46 -109.667 -69 -183 -69
c-46 0 -88.167 10 -126.5 30s-68.833 47.333 -91.5 82zM158.002 336.002c38.667 -36.667 86.998 -55 144.998 -55s106.333 18.333 145 55c39.333 37.333 59 83.333 59 138c0 54 -19.667 99.667 -59 137s-87.666 56 -144.999 56s-105.666 -18.667 -144.999 -56
s-59 -83 -59 -137c0 -54.667 19.667 -100.667 59 -138z" />
    <glyph glyph-name="colon" unicode=":" horiz-adv-x="205" 
d="M63 32c-1.33301 16 4.83301 27.498 18.5 34.498s27.334 7 41.001 0s20.167 -18.5 19.5 -34.5c0 -11.333 -3.83301 -20.666 -11.5 -27.999s-17.167 -11 -28.5 -11c-10.667 0 -19.834 3.83301 -27.501 11.5s-11.5 16.834 -11.5 27.501zM73.999 458.998
c-7.33301 8 -11 17.667 -11 29s3.66699 20.666 11 27.999s16.666 11 27.999 11s20.666 -3.66699 27.999 -11c8 -7.33301 12 -16.666 12 -27.999s-4 -21 -12 -29c-7.33301 -7.33301 -16.666 -11 -27.999 -11s-20.666 3.66699 -27.999 11z" />
    <glyph glyph-name="semicolon" unicode=";" horiz-adv-x="205" 
d="M74 459c-7.33301 8 -11 17.667 -11 29s3.66699 20.666 11 27.999s16.666 11 27.999 11s20.666 -3.66699 27.999 -11c8 -7.33301 12 -16.666 12 -27.999s-4 -21 -12 -29c-7.33301 -7.33301 -16.666 -11 -27.999 -11s-20.666 3.66699 -27.999 11zM145 10
c0 -29.333 -7.83301 -54.6689 -23.5 -76.002s-30.167 -35.333 -43.5 -42l-4 -3l-14 15l12 12c6.66699 5.33301 13.5 15.833 20.5 31.5s9.83301 30.834 8.5 45.501c-15.333 0 -26.333 6.66699 -33 20s-6.66699 26.5 0 39.5s18 18.833 34 17.5c12.667 0 23 -5.16699 31 -15.5
s12 -25.166 12 -44.499z" />
    <glyph glyph-name="less" unicode="&#x3c;" horiz-adv-x="600" 
d="M514 125l-448 209v32l448 210v-42l-394 -184l394 -184v-41z" />
    <glyph glyph-name="equal" unicode="=" horiz-adv-x="600" 
d="M76 446v38h448v-38h-448zM76 216v38h448v-38h-448z" />
    <glyph glyph-name="greater" unicode="&#x3e;" horiz-adv-x="600" 
d="M534 366v-32l-448 -209v41l394 184l-394 184v42z" />
    <glyph glyph-name="question" unicode="?" horiz-adv-x="518" 
d="M428 520c0 40 -18 74.668 -54 104.001c-34.667 28.667 -77.667 43 -129 43c-42 0 -79.167 -10 -111.5 -30s-54.166 -46.333 -65.499 -79l-40 13c14.667 40.667 41.667 73.5 81 98.5s84.333 37.5 135 37.5c63.333 0 116.333 -18.333 159 -55c44 -36 66 -79.667 66 -131
c0 -52.667 -22.667 -99.334 -68 -140.001c-38.667 -33.333 -73.334 -56.333 -104.001 -69l-20 -9l-2 -107h-35l-3 131c16.667 6 38.667 16.667 66 32c20.667 12 40 25 58 39c18.667 15.333 34.5 34 47.5 56s19.5 44 19.5 66zM229 4.00098c-7.33301 8 -11 17.667 -11 29
s3.66699 20.666 11 27.999s16.666 11 27.999 11s20.666 -3.66699 27.999 -11c8 -7.33301 12 -16.666 12 -27.999s-4 -21 -12 -29c-7.33301 -7.33301 -16.666 -11 -27.999 -11s-20.666 3.66699 -27.999 11z" />
    <glyph glyph-name="at" unicode="@" horiz-adv-x="1005" 
d="M55 260c0 126.667 42.667 232.667 128 318c86 86 192.333 129 319 129c127.333 0 233.666 -42.333 318.999 -127c86 -84 129 -187.333 129 -310c0 -68.667 -14 -125 -42 -169c-27.333 -43.333 -64 -65 -110 -65c-32 0 -59.5 10.333 -82.5 31s-35.833 46.334 -38.5 77.001
c-18.667 -33.333 -44.5 -59.666 -77.5 -78.999s-69.5 -29 -109.5 -29c-62 0 -113.333 21.333 -154 64c-41.333 43.333 -62 96.666 -62 159.999s20.667 116.666 62 159.999c40.667 42.667 92 64 154 64c40 0 76.333 -9.5 109 -28.5s58.334 -45.167 77.001 -78.5v101h35v-322
c0 -24 8.5 -44.333 25.5 -61s37.5 -25 61.5 -25c35.333 0 63.666 18.167 84.999 54.5s32 83.833 32 142.5c0 114 -39.667 210 -119 288c-78.667 78 -176.667 117 -294 117s-215.333 -39.333 -294 -118s-118 -176.667 -118 -294s39 -215.333 117 -294
c78.667 -78.667 175.334 -118 290.001 -118c73.333 0 140.333 18.333 201 55l15 -30c-63.333 -40 -135.333 -60 -216 -60c-124.667 0 -229.667 42.667 -315 128c-84.667 84.667 -127 191 -127 319zM493 71c52.667 0 96.334 18 131.001 54c34.667 35.333 52 80.333 52 135
s-17.333 99.667 -52 135c-34.667 36 -78.334 54 -131.001 54s-96.334 -18 -131.001 -54c-34.667 -35.333 -52 -80.333 -52 -135s17.333 -99.667 52 -135c34.667 -36 78.334 -54 131.001 -54z" />
    <glyph glyph-name="A" unicode="A" horiz-adv-x="715" 
d="M71 0h-45l316 700h31l316 -700h-45l-83 184h-407zM543 224l-186 413l-185 -413h371z" />
    <glyph glyph-name="B" unicode="B" horiz-adv-x="701" 
d="M444 0h-343.999v700h324c51.333 0 94.666 -16.667 129.999 -50s53 -74.666 53 -123.999c0 -34 -8.83301 -64.667 -26.5 -92s-41.5 -48 -71.5 -62c40.667 -12 73.5 -34.5 98.5 -67.5s37.5 -70.5 37.5 -112.5c0 -54.667 -19.333 -100.334 -58 -137.001
c-37.333 -36.667 -85 -55 -143 -55zM444.001 348l-302 -0.000976562v-308h302c44.667 0 82.334 14.667 113.001 44c30 28.667 45 65.334 45 110.001c0 44 -15 80.667 -45 110c-30.667 29.333 -68.334 44 -113.001 44zM424.001 659.999h-282v-272h282
c38.667 0 71.667 13 99 39s41 58.333 41 97s-13.667 71 -41 97s-60.333 39 -99 39z" />
    <glyph glyph-name="C" unicode="C" horiz-adv-x="788" 
d="M64 350c0 102 34 186.999 102 254.999s153 102 255 102c65.333 0 124.666 -14.667 177.999 -44s95.333 -70 126 -122l-39 -16c-28 44 -65.167 78.5 -111.5 103.5s-97.5 37.5 -153.5 37.5c-89.333 0 -164 -30.333 -224 -91c-60 -60 -90 -135 -90 -225
c0 -89.333 30 -164.666 90 -225.999c60 -60 134.667 -90 224 -90c56 0 107.167 12.5 153.5 37.5s83.5 59.5 111.5 103.5l39 -16c-30.667 -52 -72.667 -92.667 -126 -122s-112.666 -44 -177.999 -44c-102 0 -187 34 -255 102c-68 68.667 -102 153.667 -102 255z" />
    <glyph glyph-name="D" unicode="D" horiz-adv-x="790" 
d="M369 0h-269v700h269c100.667 0 185.334 -33.667 254.001 -101c68.667 -66.667 103 -149.667 103 -249s-34.333 -182.333 -103 -249c-68.667 -67.333 -153.334 -101 -254.001 -101zM384 660l-15 -0.000976562h-227v-620h227c88.667 0 163.334 29.667 224.001 89
c60 58.667 90 132.334 90 221.001c0 81.333 -26.667 151.333 -80 210c-52.667 58.667 -120 91.667 -202 99c-8.66699 0 -14.334 0.333008 -17.001 1z" />
    <glyph glyph-name="E" unicode="E" horiz-adv-x="639" 
d="M100 700h491v-40h-449v-285h402v-40h-402v-295h454v-40h-496v700z" />
    <glyph glyph-name="F" unicode="F" horiz-adv-x="633" 
d="M100 700h491v-40h-449v-277h402v-40h-402v-343h-42v700z" />
    <glyph glyph-name="G" unicode="G" horiz-adv-x="837" 
d="M64 350c0 102 34.668 186.999 104.001 254.999s155.666 102 258.999 102c66 0 126.167 -14.667 180.5 -44s96.833 -70 127.5 -122l-39 -16c-28 44 -65.5 78.5 -112.5 103.5s-99.167 37.5 -156.5 37.5c-92 0 -168.333 -30.333 -229 -91c-60.667 -60 -91 -135 -91 -225
c0 -89.333 29.667 -164.666 89 -225.999c59.333 -60 132.666 -90 219.999 -90c82.667 0 153.334 26.667 212.001 80c58 52 90.667 119.333 98 202h-344v40h391c0 -104 -33.667 -190.667 -101 -260c-66.667 -68.667 -151.667 -103 -255 -103c-100 0 -184 34 -252 102
c-67.333 69.333 -101 154.333 -101 255z" />
    <glyph glyph-name="H" unicode="H" horiz-adv-x="778" 
d="M142 0h-42v700h42v-325h494v325h42v-700h-42v335h-494v-335z" />
    <glyph glyph-name="I" unicode="I" horiz-adv-x="242" 
d="M142 0h-42v700h42v-700z" />
    <glyph glyph-name="J" unicode="J" horiz-adv-x="610" 
d="M512 700l0.000976562 -453.001c0 -71.333 -24.667 -131.666 -74 -180.999c-48.667 -48.667 -109.334 -73 -182.001 -73c-46 0 -88 10.333 -126 31s-68.333 49 -91 85l35 22c18.667 -30.667 44 -54.667 76 -72s67.333 -26 106 -26c61.333 0 112.333 20.333 153 61
c41.333 41.333 62 92.333 62 153v453h41z" />
    <glyph glyph-name="K" unicode="K" horiz-adv-x="629" 
d="M603 0h-55l-350 356l330 344h55l-330 -344zM100 0v700h42v-700h-42z" />
    <glyph glyph-name="L" unicode="L" horiz-adv-x="586" 
d="M100 700h42v-660h407v-40h-449v700z" />
    <glyph glyph-name="M" unicode="M" horiz-adv-x="915" 
d="M142 0h-42v700h42l315 -546l316 546h42v-700h-42v620l-302 -524h-27l-302 523v-619z" />
    <glyph glyph-name="N" unicode="N" horiz-adv-x="779" 
d="M141 0h-41v700h35l503 -625v625h41v-700h-35l-503 626v-626z" />
    <glyph glyph-name="O" unicode="O" horiz-adv-x="842" 
d="M64 350c0 102 34 187 102 255s153 102 255 102c101.333 0 186 -34 254 -102c68.667 -68 103 -153 103 -255c0 -101.333 -34.333 -186.333 -103 -255c-68 -68 -152.667 -102 -254 -102c-102 0 -187 34 -255 102c-68 68.667 -102 153.667 -102 255zM197 575
c-60 -60 -90 -135 -90 -225c0 -89.333 30 -164.666 90 -225.999c60 -60 134.667 -90 224 -90s164 30 224 90c60 61.333 90 136.666 90 225.999c0 90 -30 165 -90 225c-60 60.667 -134.667 91 -224 91s-164 -30.333 -224 -91z" />
    <glyph glyph-name="P" unicode="P" horiz-adv-x="663" 
d="M142 290l-0.000976562 -289.999h-42v700h299c60 0 110.333 -19.667 151 -59c40.667 -38.667 61 -87.334 61 -146.001c0 -59.333 -20.333 -108.333 -61 -147c-39.333 -38.667 -89.666 -58 -150.999 -58h-257zM398.999 660.001h-257v-330h257
c47.333 0 87.333 15.667 120 47c32.667 32 49 71.333 49 118c0 47.333 -16.333 86.333 -49 117c-32 32 -72 48 -120 48z" />
    <glyph glyph-name="Q" unicode="Q" horiz-adv-x="842" 
d="M421 -7c-102 0 -187 34 -255 102c-68 68.667 -102 153.667 -102 255c0 102 34 187 102 255s153 102 255 102c101.333 0 186 -34 254 -102c68.667 -68 103 -153 103 -255c0 -105.333 -36.333 -192.333 -109 -261l112 -111l-29 -29l-114 114
c-62.667 -46.667 -135 -70 -217 -70zM421 34c70 0 132.333 19.666 187 58.999l-133 133l28 29l137 -136c63.333 61.333 95 138.333 95 231c0 90 -30 165 -90 225c-60 60.667 -134.667 91 -224 91s-164 -30.333 -224 -91c-60 -60 -90 -135 -90 -225
c0 -89.333 30 -164.666 90 -225.999c60 -60 134.667 -90 224 -90z" />
    <glyph glyph-name="R" unicode="R" horiz-adv-x="682" 
d="M142 0l-42 0.000976562v700h309c60 0 110.333 -19.667 151 -59c40.667 -38.667 61 -87.334 61 -146.001c0 -48.667 -15 -91.667 -45 -129c-29.333 -36 -68.333 -59.667 -117 -71l186 -295h-49l-183 290h-4h-267v-290zM409 660.001h-267v-330h267
c47.333 0 87.333 15.667 120 47c32.667 32 49 71.333 49 118c0 47.333 -16.333 86.333 -49 117c-32 32 -72 48 -120 48z" />
    <glyph glyph-name="S" unicode="S" horiz-adv-x="625" 
d="M546 550l-42 -11c-6.66699 36.667 -27.667 67 -63 91s-78 36 -128 36c-53.333 0 -98.333 -13.667 -135 -41c-36 -27.333 -54 -61.666 -54 -102.999c0 -34 13.333 -62 40 -84c8 -6.66699 23.333 -15.334 46 -26.001c25.333 -10.667 64 -22 116 -34
c51.333 -10.667 95 -24 131 -40c65.333 -28 100 -77 104 -147c0 -58.667 -23.333 -106.334 -70 -143.001s-105.667 -55 -177 -55c-64.667 0 -120.334 15.667 -167.001 47s-74.334 71.333 -83.001 120l42 11c7.33301 -40.667 30 -73.667 68 -99
c39.333 -25.333 86.333 -38 141 -38c58.667 0 107.334 14.333 146.001 43s58 66 58 112c0 44 -20.667 77.667 -62 101c-28.667 16 -75 31.667 -139 47c-52.667 11.333 -96 24.333 -130 39c-33.333 14 -58.666 32.333 -75.999 55s-27.333 52.334 -30 89.001
c0 54 21.667 98.667 65 134s98 53 164 53c60.667 0 112.667 -14.667 156 -44c44 -29.333 70.333 -67 79 -113z" />
    <glyph glyph-name="T" unicode="T" horiz-adv-x="690" 
d="M29 700h632v-40h-295v-660h-42v660h-295v40z" />
    <glyph glyph-name="U" unicode="U" horiz-adv-x="758" 
d="M626 280l0.000976562 420h42v-420c0 -81.333 -27.667 -149.666 -83 -204.999c-54.667 -54.667 -123.334 -82 -206.001 -82s-151.334 27.333 -206.001 82c-55.333 55.333 -83 123.666 -83 204.999v420h42v-420c0 -71.333 23.333 -130.333 70 -177s105.667 -70 177 -70
c70.667 0 129.334 23.333 176.001 70c47.333 47.333 71 106.333 71 177z" />
    <glyph glyph-name="V" unicode="V" horiz-adv-x="705" 
d="M368 0h-31l-311 700h45l281 -636l282 636h45z" />
    <glyph glyph-name="W" unicode="W" horiz-adv-x="1027" 
d="M302 0h-31l-245 700h43l217 -628l212 628h31l212 -630l216 630h44l-245 -700h-31l-212 625z" />
    <glyph glyph-name="X" unicode="X" horiz-adv-x="655" 
d="M302 356l-266 344h51l241 -311l240 311h51l-266 -344l276 -356h-51l-250 324l-251 -324h-51z" />
    <glyph glyph-name="Y" unicode="Y" horiz-adv-x="653" 
d="M306 284l-280 416h49l252 -376l251 376h49l-279 -413v-287h-42v284z" />
    <glyph glyph-name="Z" unicode="Z" horiz-adv-x="646" 
d="M603 40v-40h-551v32l490 628h-488v40h547v-32l-490 -628h492z" />
    <glyph glyph-name="bracketleft" unicode="[" horiz-adv-x="292" 
d="M120 -139h146v-36h-184v975h184v-36h-146v-903z" />
    <glyph glyph-name="backslash" unicode="\" horiz-adv-x="494" 
d="M40 800l454 -975h-39l-455 975h40z" />
    <glyph glyph-name="bracketright" unicode="]" horiz-adv-x="292" 
d="M210 -175h-184v36h146v903h-146v36h184v-975z" />
    <glyph glyph-name="asciicircum" unicode="^" horiz-adv-x="600" 
d="M76 437l207 263h33l208 -263h-46l-179 220l-177 -220h-46z" />
    <glyph glyph-name="underscore" unicode="_" horiz-adv-x="292" 
d="M0 -88v38h292v-38h-292z" />
    <glyph glyph-name="grave" unicode="`" horiz-adv-x="324" 
d="M236 706l-164 99l22 33l158 -109z" />
    <glyph glyph-name="a" unicode="a" 
d="M313 527c48 0 92.001 -11.8301 132.001 -35.4971s71 -55.834 93 -96.501v125h40v-520h-40v125c-22 -40.667 -53 -72.834 -93 -96.501s-84 -35.5 -132 -35.5c-74 0 -135.333 25.333 -184 76c-49.333 51.333 -74 115 -74 191c0 75.333 24.667 138.666 74 189.999
s110.666 77 183.999 77zM473.001 422.003c-42 43.333 -94.333 65 -157 65s-115 -21.667 -157 -65c-42 -42.667 -63 -96.667 -63 -162s21 -119.333 63 -162c42 -43.333 94.333 -65 157 -65s115 21.667 157 65c42 42.667 63 96.667 63 162s-21 119.333 -63 162z" />
    <glyph glyph-name="b" unicode="b" 
d="M91 0l0.000976562 749.997h40v-355c22 40.667 53 72.834 93 96.501s84 35.5 132 35.5c73.333 0 134.666 -25.667 183.999 -77s74 -114.666 74 -189.999c0 -76 -24.667 -139.667 -74 -191c-48.667 -50.667 -110 -76 -184 -76c-48 0 -92 11.833 -132 35.5
s-71 55.834 -93 96.501v-125h-40zM510.001 421.997c-42 43.333 -94.333 65 -157 65s-115 -21.667 -157 -65c-42 -42.667 -63 -96.667 -63 -162s21 -119.333 63 -162c42 -43.333 94.333 -65 157 -65s115 21.667 157 65c42 42.667 63 96.667 63 162s-21 119.333 -63 162z" />
    <glyph glyph-name="c" unicode="c" horiz-adv-x="608" 
d="M559 386l-39.999 -12.999c-18.667 35.333 -45.334 63.166 -80.001 83.499s-73.667 30.5 -117 30.5c-64.667 0 -118.667 -21.667 -162 -65c-42.667 -42.667 -64 -96.667 -64 -162s21.333 -119.333 64 -162c43.333 -43.333 97.333 -65 162 -65
c43.333 0 82.333 10.167 117 30.5s61.334 48.166 80.001 83.499l40 -13c-22 -44 -54 -78.5 -96 -103.5s-89 -37.5 -141 -37.5c-76.667 0 -140.334 25.333 -191.001 76s-76 114.334 -76 191.001c0 76 25.333 139.333 76 190c51.333 51.333 115 77 191 77
c52 0 99 -12.5 141 -37.5s74 -59.5 96 -103.5z" />
    <glyph glyph-name="d" unicode="d" 
d="M313 527c48 0 92.001 -11.8301 132.001 -35.4971s71 -55.834 93 -96.501v355h40v-750h-40v125c-22 -40.667 -53 -72.834 -93 -96.501s-84 -35.5 -132 -35.5c-74 0 -135.333 25.333 -184 76c-49.333 51.333 -74 115 -74 191c0 75.333 24.667 138.666 74 189.999
s110.666 77 183.999 77zM473.001 422.003c-42 43.333 -94.333 65 -157 65s-115 -21.667 -157 -65c-42 -42.667 -63 -96.667 -63 -162s21 -119.333 63 -162c42 -43.333 94.333 -65 157 -65s115 21.667 157 65c42 42.667 63 96.667 63 162s-21 119.333 -63 162z" />
    <glyph glyph-name="e" unicode="e" horiz-adv-x="629" 
d="M579 251l-482.998 0.000976562c2 -63.333 24.667 -116 68 -158c43.333 -41.333 97.666 -62 162.999 -62c83.333 0 146.666 33 189.999 99l39 -14c-24 -38.667 -56.167 -68.834 -96.5 -90.501s-84.5 -32.5 -132.5 -32.5c-78.667 0 -143.667 25.333 -195 76
c-51.333 51.333 -77 115 -77 191c0 75.333 25 138.666 75 189.999c51.333 51.333 114 77 188 77c74.667 0 137 -25.667 187 -77s75 -114.666 75 -189.999c0 -4.66699 -0.333008 -7.66699 -1 -9zM97.002 286.001h441.001c-4.66699 58 -28.334 106.333 -71.001 145
c-40.667 38.667 -90.667 58 -150 58s-109.333 -19.333 -150 -58c-42 -38.667 -65.333 -87 -70 -145z" />
    <glyph glyph-name="f" unicode="f" horiz-adv-x="341" 
d="M162 607l0.000976562 -87h153v-37h-153v-483h-40v483h-96v37h96v90c0 38.667 12 71.667 36 99s53.667 41 89 41h67v-39h-65c-24.667 0 -45.334 -10 -62.001 -30s-25 -44.667 -25 -74z" />
    <glyph glyph-name="g" unicode="g" 
d="M313 527c48 0 92.001 -11.8311 132.001 -35.498s71 -55.834 93 -96.501v125h40v-489c0 -75.333 -25.667 -138 -77 -188s-115 -75 -191 -75c-45.333 0 -87.5 9.83301 -126.5 29.5s-69.833 46.5 -92.5 80.5l39 15c42 -56.667 101.667 -85 179 -85
c67.333 0 122.333 21.333 165 64c44 42 66 95 66 159l-1 97c-22 -42 -52.833 -75 -92.5 -99s-84.167 -36 -133.5 -36c-74 0 -135.333 25.333 -184 76c-49.333 51.333 -74 115 -74 191c0 75.333 24.667 138.666 74 189.999s110.666 77 183.999 77zM473.001 422.002
c-42 43.333 -94.333 65 -157 65s-115 -21.667 -157 -65c-42 -42.667 -63 -96.667 -63 -162s21 -119.333 63 -162c42 -43.333 94.333 -65 157 -65s115 21.667 157 65c42 42.667 63 96.667 63 162s-21 119.333 -63 162z" />
    <glyph glyph-name="h" unicode="h" horiz-adv-x="641" 
d="M91 0v750.001h40v-345c12 25.333 33 50.666 63 75.999c36 30.667 86 46 150 46c60 0 110 -20.333 150 -61c40 -41.333 60 -92 60 -152v-314h-40v307c0 51.333 -17 94.333 -51 129c-32.667 34.667 -74.667 52 -126 52c-57.333 0 -106.333 -17.667 -147 -53
c-39.333 -35.333 -59 -79 -59 -131v-304h-40z" />
    <glyph glyph-name="i" unicode="i" horiz-adv-x="222" 
d="M131 0h-40v520h40v-520zM76 650c0 10 3.16699 18.333 9.5 25s14.833 10 25.5 10c10 0 18.333 -3.33301 25 -10s10 -15 10 -25c0 -10.667 -3.33301 -19.334 -10 -26.001s-15 -10 -25 -10c-10.667 0 -19.167 3.33301 -25.5 10s-9.5 15.334 -9.5 26.001z" />
    <glyph glyph-name="j" unicode="j" horiz-adv-x="231" 
d="M100 520h40v-605c0 -40 -11.833 -73.333 -35.5 -100s-53.5 -40 -89.5 -40h-38v39h37c24.667 0 45.167 10 61.5 30s24.5 44.667 24.5 74v602zM85 650c0 10 3.16699 18.333 9.5 25s14.833 10 25.5 10c10 0 18.5 -3.33301 25.5 -10s10.5 -15 10.5 -25
c0 -10.667 -3.5 -19.334 -10.5 -26.001s-15.5 -10 -25.5 -10c-10.667 0 -19.167 3.33301 -25.5 10s-9.5 15.334 -9.5 26.001z" />
    <glyph glyph-name="k" unicode="k" horiz-adv-x="495" 
d="M91 0v750h40v-750h-40zM469 0h-52l-254 269l233 251h51l-232 -251z" />
    <glyph glyph-name="l" unicode="l" horiz-adv-x="222" 
d="M131 0h-40v750h40v-750z" />
    <glyph glyph-name="m" unicode="m" horiz-adv-x="1004" 
d="M131 0h-39.998v520h40v-100c14.667 26.667 38 51 70 73c31.333 22.667 74 34 128 34c41.333 0 78.666 -11.333 111.999 -34s56.666 -52.334 69.999 -89.001c9.33301 20.667 26.666 43.667 51.999 69c36 36 88 54 156 54c56.667 0 103.667 -18.667 141 -56
c38 -37.333 57 -83.666 57 -138.999v-332h-40v325c0 46 -15.667 84.667 -47 116s-69.666 47 -114.999 47c-54 0 -99.667 -16 -137 -48c-36 -30.667 -54 -70 -54 -118v-322h-40v325c0 46 -15.667 84.667 -47 116s-69.666 47 -114.999 47c-54.667 0 -100.334 -16 -137.001 -48
c-36 -30.667 -54 -70 -54 -118v-322z" />
    <glyph glyph-name="n" unicode="n" horiz-adv-x="647" 
d="M91 0l0.000976562 520h40v-115c13.333 26 34.666 51.333 63.999 76c36 30.667 86.667 46 152 46c60.667 0 111.334 -20.333 152.001 -61c40.667 -40 61 -90.667 61 -152v-314h-40v307c0 51.333 -17.333 94.333 -52 129c-34 34.667 -76.667 52 -128 52
c-58.667 0 -108.334 -17.667 -149.001 -53c-40 -35.333 -60 -79 -60 -131v-304h-40z" />
    <glyph glyph-name="o" unicode="o" horiz-adv-x="644" 
d="M131 69c-50.667 50.667 -75.998 114.332 -75.998 190.999c0 76 25.333 139.333 76 190c51.333 51.333 115 77 191 77c75.333 0 138.666 -25.667 189.999 -77s77 -114.666 77 -189.999c0 -76 -25.667 -139.667 -77 -191c-50.667 -50.667 -114 -76 -190 -76
c-76.667 0 -140.334 25.333 -191.001 76zM160.002 421.998c-42.667 -42.667 -64 -96.667 -64 -162s21.333 -119.333 64 -162c43.333 -43.333 97.333 -65 162 -65c64 0 117.667 21.667 161 65s65 97.333 65 162s-21.667 118.667 -65 162s-97 65 -161 65
c-64.667 0 -118.667 -21.667 -162 -65z" />
    <glyph glyph-name="p" unicode="p" 
d="M131 -225l-39.999 -0.00292969v745h40v-125c22 40.667 53 72.834 93 96.501s84 35.5 132 35.5c73.333 0 134.666 -25.667 183.999 -77s74 -114.666 74 -189.999c0 -76 -24.667 -139.667 -74 -191c-48.667 -50.667 -110 -76 -184 -76c-48 0 -92 11.833 -132 35.5
s-71 55.834 -93 96.501v-350zM510.001 421.997c-42 43.333 -94.333 65 -157 65s-115 -21.667 -157 -65c-42 -42.667 -63 -96.667 -63 -162s21 -119.333 63 -162c42 -43.333 94.333 -65 157 -65s115 21.667 157 65c42 42.667 63 96.667 63 162s-21 119.333 -63 162z" />
    <glyph glyph-name="q" unicode="q" 
d="M313 527c48 0 92.001 -11.8301 132.001 -35.4971s71 -55.834 93 -96.501v125h40v-745h-40v350c-22 -40.667 -53 -72.834 -93 -96.501s-84 -35.5 -132 -35.5c-74 0 -135.333 25.333 -184 76c-49.333 51.333 -74 115 -74 191c0 75.333 24.667 138.666 74 189.999
s110.666 77 183.999 77zM473.001 422.003c-42 43.333 -94.333 65 -157 65s-115 -21.667 -157 -65c-42 -42.667 -63 -96.667 -63 -162s21 -119.333 63 -162c42 -43.333 94.333 -65 157 -65s115 21.667 157 65c42 42.667 63 96.667 63 162s-21 119.333 -63 162z" />
    <glyph glyph-name="r" unicode="r" horiz-adv-x="388" 
d="M131 302l0.000976562 -301.999h-40v520h40v-116c12 25.333 33 50.666 63 75.999c36.667 31.333 87.667 47 153 47h14v-43c-12 1.33301 -19 2 -21 2c-58.667 0 -108.334 -17.667 -149.001 -53c-40 -35.333 -60 -79 -60 -131z" />
    <glyph glyph-name="s" unicode="s" horiz-adv-x="480" 
d="M409 421l-38.0029 -9.99707c-5.33301 23.333 -20.166 42.333 -44.499 57s-53.833 22 -88.5 22c-37.333 0 -68.5 -8.83301 -93.5 -26.5s-37.5 -39.834 -37.5 -66.501c0 -39.333 22 -67.333 66 -84l148 -53c67.333 -25.333 101 -67.333 101 -126
c0 -42 -17.333 -76 -52 -102s-78.667 -39 -132 -39c-49.333 0 -90.666 10.667 -123.999 32s-53.666 50 -60.999 86l38 9c5.33301 -26.667 21.333 -48.334 48 -65.001s59.667 -25 99 -25c42 0 76.667 9.66699 104 29s41 44 41 74c0 42 -26.667 72.667 -80 92l-142 54
c-62 23.333 -93 62 -93 116c0 39.333 16 71.166 48 95.499s73.333 36.5 124 36.5c44 0 81.333 -9.66699 112 -29s49.667 -45 57 -77z" />
    <glyph glyph-name="t" unicode="t" horiz-adv-x="364" 
d="M22 483l-0.000976562 37h95v106h40v-106h162v-37h-162v-340c0 -29.333 8.33301 -54 25 -74s37.334 -30 62.001 -30h74v-39h-76c-35.333 -0 -65 13.333 -89 40s-36 60 -36 100v343h-95z" />
    <glyph glyph-name="u" unicode="u" horiz-adv-x="647" 
d="M87 206l-0.000976562 314h40v-307c0 -51.333 17 -94.333 51 -129c34.667 -34.667 77.667 -52 129 -52c60 0 109.667 17.333 149 52c40 34.667 60 78.667 60 132v304h40v-520h-40v115c-13.333 -26 -34.666 -51.333 -63.999 -76c-36 -30.667 -86.667 -46 -152 -46
c-61.333 0 -112.333 20 -153 60c-40 40.667 -60 91.667 -60 153z" />
    <glyph glyph-name="v" unicode="v" horiz-adv-x="538" 
d="M253 0l-235 520h42l209 -464l209 464h42l-235 -520h-32z" />
    <glyph glyph-name="w" unicode="w" horiz-adv-x="781" 
d="M235 0h-31l-186 520h41l160 -453l156 453h31l156 -455l160 455h41l-186 -520h-31l-155 449z" />
    <glyph glyph-name="x" unicode="x" horiz-adv-x="529" 
d="M450 0l-185 233l-186 -233h-49l210 265l-202 255h49l178 -223l178 223h49l-202 -255l209 -265h-49z" />
    <glyph glyph-name="y" unicode="y" horiz-adv-x="518" 
d="M236 15l-217.999 504.999h42l197 -457l201 457h42l-279 -633c-17.333 -39.333 -37.833 -67.833 -61.5 -85.5s-53.167 -26.5 -88.5 -26.5h-28v39h28c26.667 0 49.167 6.83301 67.5 20.5s34.166 35.834 47.499 66.501z" />
    <glyph glyph-name="z" unicode="z" horiz-adv-x="520" 
d="M47 0v34l367 448h-362v38h416v-34l-367 -448h372v-38h-426z" />
    <glyph glyph-name="braceleft" unicode="{" horiz-adv-x="305" 
d="M204 800l75 0.00195312v-36h-72c-18.667 0 -34 -6.33301 -46 -19s-18 -28.667 -18 -48v-293c0 -24.667 -7 -44.834 -21 -60.501s-32.333 -25.834 -55 -30.501c22.667 -6 41 -16.667 55 -32s21 -35.333 21 -60v-293c0 -19.333 6 -35.333 18 -48s27.333 -19 46 -19h72v-36
h-75c-28 0 -51.5 9.83301 -70.5 29.5s-28.5 44.167 -28.5 73.5v293c0 17.333 -6.83301 32.5 -20.5 45.5s-28.5 20.833 -44.5 23.5l-22 5v36c6.66699 0 16.667 2.33301 30 7c38 13.333 57 35.333 57 66v293c0 29.333 9.5 53.833 28.5 73.5s42.5 29.5 70.5 29.5z" />
    <glyph glyph-name="bar" unicode="|" horiz-adv-x="200" 
d="M118 -175h-36v975h36v-975z" />
    <glyph glyph-name="braceright" unicode="}" horiz-adv-x="305" 
d="M26 764v35.998h75c28.667 0 52.334 -9.83301 71.001 -29.5s28 -44.167 28 -73.5v-293c0 -17.333 7 -32.5 21 -45.5s29 -20.833 45 -23.5l21 -4v-36c-4.66699 0 -14.667 -2.66699 -30 -8c-38 -13.333 -57 -35.333 -57 -66v-293c0 -29.333 -9.33301 -53.833 -28 -73.5
s-42.334 -29.5 -71.001 -29.5h-75v36h72c18.667 0 34 6.33301 46 19s18 28.667 18 48v293c0 24.667 7 44.667 21 60s32.333 26 55 32c-22.667 4.66699 -41 14.834 -55 30.501s-21 35.834 -21 60.501v293c0 19.333 -6 35.333 -18 48s-27.333 19 -46 19h-72z" />
    <glyph glyph-name="asciitilde" unicode="~" horiz-adv-x="600" 
d="M396 285c-38.667 0 -73.332 15.334 -103.999 46.001s-61.334 46 -92.001 46c-25.333 0 -46 -8.16699 -62 -24.5s-24 -36.833 -24 -61.5h-38c0 35.333 12 64.833 36 88.5s54 35.5 90 35.5c40 0 74 -15.333 102 -46c30.667 -30.667 62 -46 94 -46
c25.333 0 46.333 8.16699 63 24.5s25 37.166 25 62.499h38c0 -35.333 -12.333 -65 -37 -89c-24 -24 -54.333 -36 -91 -36z" />
    <glyph glyph-name="exclamdown" unicode="&#xa1;" horiz-adv-x="242" 
d="M81 488c0 11.333 3.83594 20.668 11.5029 28.001s17.167 11 28.5 11s20.666 -3.83301 27.999 -11.5s11 -16.834 11 -27.501c1.33301 -16 -4.83398 -27.5 -18.501 -34.5s-27.334 -7 -41.001 0s-20.167 18.5 -19.5 34.5zM100.003 -179.998l3 504h36l3 -504h-42z" />
    <glyph glyph-name="cent" unicode="&#xa2;" horiz-adv-x="608" 
d="M305 -30l0.000976562 113.003c-72.667 5.33301 -132.334 32.666 -179.001 81.999c-47.333 51.333 -71 113 -71 185s23.667 133.333 71 184c46 50 105.667 77.667 179 83v113h34v-113c48 -2.66699 91.5 -16.667 130.5 -42s68.833 -58.333 89.5 -99l-40 -13
c-18.667 35.333 -45.334 63.166 -80.001 83.499s-73.667 30.5 -117 30.5c-64.667 0 -118.667 -21.667 -162 -65c-42.667 -42.667 -64 -96.667 -64 -162s21.333 -119.333 64 -162c43.333 -43.333 97.333 -65 162 -65c43.333 0 82.333 10.167 117 30.5
s61.334 48.166 80.001 83.499l40 -13c-20.667 -40.667 -50.5 -73.667 -89.5 -99s-82.5 -39.333 -130.5 -42v-113h-34z" />
    <glyph glyph-name="sterling" unicode="&#xa3;" horiz-adv-x="577" 
d="M531 0l-492.998 -0.000976562v40h96v265h-70v34h70v174c0 55.333 19 101.333 57 138c39.333 37.333 85.666 56 138.999 56c46 0 88.667 -13.667 128 -41c40 -27.333 67.667 -61.666 83 -102.999l-39 -13c-12.667 34 -35.334 62 -68.001 84c-30.667 22 -64.667 33 -102 33
c-42.667 0 -79.667 -15 -111 -45c-30.667 -30 -46 -66.667 -46 -110v-173h234v-34h-234v-265h356v-40z" />
    <glyph glyph-name="currency" unicode="&#xa4;" horiz-adv-x="617" 
d="M107 125l-25 24.999l77 77c-28.667 34.667 -43 75.667 -43 123c0 46 14.667 87.333 44 124l-77 77l25 25l77 -77c34.667 28.667 76 43 124 43c47.333 0 88.333 -14.333 123 -43l78 77l25 -25l-78 -78c29.333 -33.333 44 -74.333 44 -123
c0 -47.333 -14.667 -88.666 -44 -123.999l77 -78l-25 -25l-77 78c-34.667 -28.667 -75.667 -43 -123 -43c-48 0 -89.667 14.667 -125 44zM309 193.999c44.667 0 81.666 14.668 110.999 44.001c30 30 45 67.333 45 112c0 45.333 -15 82.666 -45 111.999
c-29.333 29.333 -66.333 44 -111 44c-45.333 0 -83 -15 -113 -45c-29.333 -29.333 -44 -66.333 -44 -111c0 -44 14.667 -81.333 44 -112c30.667 -29.333 68.334 -44 113.001 -44z" />
    <glyph glyph-name="yen" unicode="&#xa5;" horiz-adv-x="653" 
d="M306 243v42l-280 415h49l251 -374l252 374h49l-279 -414v-43h178v-34h-178v-88h178v-34h-178v-87h-42v87h-178v34h178v88h-178v34h178z" />
    <glyph glyph-name="brokenbar" unicode="&#xa6;" horiz-adv-x="200" 
d="M118 800v-406h-36v406h36zM82 -175v406h36v-406h-36z" />
    <glyph glyph-name="section" unicode="&#xa7;" horiz-adv-x="475" 
d="M237 -182c-47.333 0 -88.001 11.166 -122.001 33.499s-54.667 51.166 -62 86.499l37 14c5.33301 -28.667 21.833 -52.167 49.5 -70.5s60.5 -27.5 98.5 -27.5c42 0 76.667 11.333 104 34s41 51.334 41 86.001c0 48.667 -26 85 -78 109l-144 65
c-29.333 13.333 -52 32.666 -68 57.999s-24 54 -24 86c0 59.333 24.333 104 73 134c-48.667 26 -73 67.667 -73 125c0 44.667 16 81.667 48 111c32 30 72.667 45 122 45c43.333 0 80.5 -10.167 111.5 -30.5s50.5 -46.5 58.5 -78.5l-37 -14c-6 26 -21.167 47 -45.5 63
s-53.5 24 -87.5 24c-38 0 -69.333 -11.167 -94 -33.5s-37 -50.166 -37 -83.499c0 -23.333 5.83301 -44.5 17.5 -63.5s26.834 -32.5 45.501 -40.5l153 -65c30.667 -13.333 54.667 -33.166 72 -59.499s26 -55.5 26 -87.5c0 -60 -25.333 -105.333 -76 -136
c50.667 -28 76 -69.667 76 -125c0 -46 -17.667 -84 -53 -114s-79.333 -45 -132 -45zM302.999 353.999l-122 52.001c-22 -10 -39.667 -25 -53 -45s-20 -42.667 -20 -68c0 -24.667 6 -46.834 18 -66.501s28 -34.167 48 -43.5l134 -61c50 24 75 62.333 75 115
c0 54 -26.667 93 -80 117z" />
    <glyph glyph-name="dieresis" unicode="&#xa8;" horiz-adv-x="415" 
d="M107 778c14 0.666992 23.833 -4.99805 29.5 -16.998s5.66699 -24 0 -36s-15.5 -17.333 -29.5 -16c-10.667 0 -19.167 3.66699 -25.5 11s-9.5 15.166 -9.5 23.499s3.16699 16.166 9.5 23.499s14.833 11 25.5 11zM283 718.002c-6 6.66699 -9 15 -9 25s3 18.333 9 25
c6.66699 6.66699 15 10 25 10s18.333 -3.33301 25 -10s10 -15 10 -25s-3.33301 -18.333 -10 -25c-6.66699 -6 -15 -9 -25 -9s-18.333 3 -25 9z" />
    <glyph glyph-name="copyright" unicode="&#xa9;" horiz-adv-x="839" 
d="M420 706c98.667 0 182.333 -35 251 -105c69.333 -69.333 104 -153 104 -251c0 -97.333 -34.667 -181.333 -104 -252c-69.333 -69.333 -153 -104 -251 -104c-98.667 0 -182.667 34.667 -252 104c-69.333 70.667 -104 154.667 -104 252c0 98 34.667 181.667 104 251
c69.333 70 153.333 105 252 105zM186.999 583c-64.667 -64.667 -97 -142.332 -97 -232.999s32.333 -168.334 97 -233.001s142.334 -97 233.001 -97s168 32 232 96c64.667 64.667 97 142.667 97 234s-32.333 169 -97 233c-64 64.667 -141.333 97 -232 97
s-168.334 -32.333 -233.001 -97zM424.999 531.002c34 0 64.8311 -7.66797 92.498 -23.001s49.167 -36.666 64.5 -63.999l-30 -11c-29.333 45.333 -71.666 68 -126.999 68c-42.667 0 -78.334 -14.333 -107.001 -43s-43 -64.667 -43 -108s14.333 -79.333 43 -108
s64.334 -43 107.001 -43c56.667 0 99 22.667 127 68l30 -12c-35.333 -58 -87.666 -87 -156.999 -87c-52 0 -95.333 17.333 -130 52s-52 78 -52 130s17.333 95 52 129c34.667 34.667 78 52 130 52z" />
    <glyph glyph-name="ordfeminine" unicode="&#xaa;" horiz-adv-x="464" 
d="M215 704c32.667 0 62.5 -7.83301 89.5 -23.5s48.5 -37.167 64.5 -64.5v84h35v-364h-35v84c-16 -27.333 -37.5 -48.833 -64.5 -64.5s-56.833 -23.5 -89.5 -23.5c-50.667 0 -93 17.667 -127 53c-34 36 -51 80.333 -51 133c0 53.333 17 97.333 51 132
c34 36 76.333 54 127 54zM324 626c-28 29.333 -62.667 44 -104 44c-40.667 0 -75.667 -14.667 -105 -44c-28 -29.333 -42 -65.333 -42 -108s14 -78.667 42 -108c29.333 -29.333 64.333 -44 105 -44c41.333 0 76 14.667 104 44c28.667 28.667 43 64.667 43 108
s-14.333 79.333 -43 108z" />
    <glyph glyph-name="guillemotleft" unicode="&#xab;" horiz-adv-x="497" 
d="M222 84l-176 176l176 176l26 -25l-152 -151l152 -151zM408 84l-176 176l176 176l25 -25l-151 -151l151 -151z" />
    <glyph glyph-name="logicalnot" unicode="&#xac;" horiz-adv-x="600" 
d="M487 175v156h-411v38h448v-194h-37z" />
    <glyph glyph-name="uni00AD" unicode="&#xad;" horiz-adv-x="400" 
d="M76 241v38h248v-38h-248z" />
    <glyph glyph-name="registered" unicode="&#xae;" horiz-adv-x="839" 
d="M420 706c98.667 0 182.333 -35 251 -105c69.333 -69.333 104 -153 104 -251c0 -97.333 -34.667 -181.333 -104 -252c-69.333 -69.333 -153 -104 -251 -104c-98.667 0 -182.667 34.667 -252 104c-69.333 70.667 -104 154.667 -104 252c0 98 34.667 181.667 104 251
c69.333 70 153.333 105 252 105zM186.999 117c64.667 -64.667 142.334 -96.998 233.001 -96.998s168 32 232 96c64.667 64.667 97 142.667 97 234s-32.333 169 -97 233c-64 64.667 -141.333 97 -232 97s-168.334 -32.333 -233.001 -97s-97 -142.334 -97 -233.001
s32.333 -168.334 97 -233.001zM326.999 172.002l-31 0.00195312v356h158c32 0 58.667 -10.167 80 -30.5s32 -45.833 32 -76.5c0 -24.667 -7.16699 -46.334 -21.5 -65.001s-33.5 -31.334 -57.5 -38.001l90 -146h-35l-88 142h-127v-142zM453.999 499.004l-127 -0.000976562
v-155h127c22.667 0 41.5 7.16699 56.5 21.5s22.5 32.833 22.5 55.5s-7.5 41.334 -22.5 56.001s-33.833 22 -56.5 22z" />
    <glyph glyph-name="overscore" unicode="&#xaf;" horiz-adv-x="406" 
d="M334 731h-262v36h262v-36z" />
    <glyph glyph-name="degree" unicode="&#xb0;" horiz-adv-x="370" 
d="M185 757c40 0 73 -13.333 99 -40c26.667 -26.667 40 -59.667 40 -99s-13.333 -72.333 -40 -99c-26 -26.667 -59 -40 -99 -40c-39.333 0 -72.333 13.333 -99 40s-40 59.667 -40 99s13.333 72.333 40 99s59.667 40 99 40zM112 691c-19.333 -19.333 -29 -43.666 -29 -72.999
s9.66699 -53.666 29 -72.999c20.667 -19.333 45 -29 73 -29c28.667 0 52.667 9.66699 72 29c20 19.333 30 43.666 30 72.999s-10 53.666 -30 72.999c-19.333 19.333 -43.333 29 -72 29c-28 0 -52.333 -9.66699 -73 -29z" />
    <glyph glyph-name="plusminus" unicode="&#xb1;" horiz-adv-x="600" 
d="M281 407h-205v38h205v205h38v-205h205v-38h-205v-183h-38v183zM76 90v38h448v-38h-448z" />
    <glyph glyph-name="twosuperior" unicode="&#xb2;" horiz-adv-x="322" 
d="M249 640c0 22.667 -9.33203 42.333 -27.999 59s-41 25 -67 25c-21.333 0 -40.666 -6.5 -57.999 -19.5s-30.333 -30.167 -39 -51.5l-29 14c11.333 26.667 28.166 47.834 50.499 63.501s47.5 23.5 75.5 23.5c34.667 0 64.667 -11 90 -33c24.667 -22 37 -48.667 37 -80
c0 -20.667 -6 -40.334 -18 -59.001s-32.333 -41.667 -61 -69l-123 -118h209v-30h-258v22l149 145c5.33301 4.66699 10.166 9.33398 14.499 14.001l12.5 13l8 8c23.333 23.333 35 47.666 35 72.999z" />
    <glyph glyph-name="threesuperior" unicode="&#xb3;" horiz-adv-x="326" 
d="M252 650c0 20.667 -8.99902 38.168 -26.999 52.501s-40.333 21.5 -67 21.5c-45.333 0 -76.666 -17.667 -93.999 -53l-27 12c10 22 25.833 39.333 47.5 52s46.5 19 74.5 19c35.333 0 65.166 -9.83301 89.499 -29.5s36.5 -44.167 36.5 -73.5
c0 -19.333 -6.16699 -37 -18.5 -53s-29.166 -27.667 -50.499 -35c24 -7.33301 42.833 -19.333 56.5 -36s20.5 -36 20.5 -58c0 -30.667 -12.833 -56.334 -38.5 -77.001s-57.834 -31 -96.501 -31c-29.333 0 -55.333 6.33301 -78 19s-39 29.667 -49 51l30 11
c17.333 -33.333 49.666 -50 96.999 -50c29.333 0 53.833 7.33301 73.5 22s29.5 33.334 29.5 56.001c0 22 -9.5 40.5 -28.5 55.5s-42.833 22.5 -71.5 22.5h-29v27h22c27.333 0 50.5 7.16699 69.5 21.5s28.5 32.166 28.5 53.499z" />
    <glyph glyph-name="acute" unicode="&#xb4;" horiz-adv-x="324" 
d="M88 706l-16 23l158 109l22 -33z" />
    <glyph glyph-name="mu" unicode="&#xb5;" horiz-adv-x="647" 
d="M87 -225v745h40v-307c0 -51.333 17 -94.333 51 -129c34.667 -34.667 77.667 -52 129 -52c60 0 109.667 17.333 149 52c40 34.667 60 78.667 60 132v304h40v-520h-40v115c-13.333 -26 -34.666 -51.333 -63.999 -76c-36 -30.667 -86.667 -46 -152 -46
c-74.667 0 -132.334 28.333 -173.001 85v-303h-40z" />
    <glyph glyph-name="paragraph" unicode="&#xb6;" horiz-adv-x="678" 
d="M261 700h372v-34h-116v-841h-36v841h-184v-841h-36v479c-56.667 0 -104 19 -142 57c-37.333 38.667 -56 85.667 -56 141c0 56.667 18.667 103.667 56 141c38 38 85.333 57 142 57z" />
    <glyph glyph-name="middot" unicode="&#xb7;" horiz-adv-x="205" 
d="M63 350c0 17.333 8 29.499 24 36.499s30.333 4.16699 43 -8.5c13.333 -12.667 16.333 -27 9 -43s-19.666 -24 -36.999 -24c-10.667 0 -19.834 3.83301 -27.501 11.5s-11.5 16.834 -11.5 27.501z" />
    <glyph glyph-name="cedilla" unicode="&#xb8;" horiz-adv-x="242" 
d="M105 -84l19.998 84.001h35l-15 -63c2 0 4.66699 -0.5 8 -1.5s9.33301 -3.16699 18 -6.5s16.334 -7.33301 23.001 -12s12.667 -11.334 18 -20.001s8 -18.667 8 -30c0 -21.333 -8.83301 -39.5 -26.5 -54.5s-39.834 -22.5 -66.501 -22.5c-34 0 -61.667 10.667 -83 32l-10 10
l14 24c18.667 -24 43.334 -36 74.001 -36c18 0 33.167 4.66699 45.5 14s18.5 20.333 18.5 33c0 11.333 -6.16699 21.5 -18.5 30.5s-26.166 14.5 -41.499 16.5z" />
    <glyph glyph-name="onesuperior" unicode="&#xb9;" horiz-adv-x="229" 
d="M129 710l-87 -48l-13 27l110 61h21v-385h-31v345z" />
    <glyph glyph-name="ordmasculine" unicode="&#xba;" horiz-adv-x="448" 
d="M90 385c-35.333 35.333 -52.999 79.668 -52.999 133.001s17.667 97.666 53 132.999c36.667 35.333 81.334 53 134.001 53c53.333 0 98 -18 134 -54c36 -34.667 54 -78.667 54 -132c0 -52.667 -18 -97 -54 -133c-36.667 -35.333 -81.334 -53 -134.001 -53
s-97.334 17.667 -134.001 53zM225.001 366.002c42 0 77.666 14.666 106.999 43.999s44 65.333 44 108s-14.667 78.667 -44 108s-65.333 44 -108 44c-43.333 0 -79.666 -14.667 -108.999 -44c-28.667 -28.667 -43 -64.667 -43 -108s14.667 -79.666 44 -108.999
c28.667 -28.667 65 -43 109 -43z" />
    <glyph glyph-name="guillemotright" unicode="&#xbb;" horiz-adv-x="497" 
d="M275 436l176 -176l-176 -176l-25 25l151 151l-151 151zM89 436l177 -176l-177 -176l-25 25l151 151l-151 151z" />
    <glyph glyph-name="onequarter" unicode="&#xbc;" horiz-adv-x="758" 
d="M642 337l-184 -223h184v223zM642 0v83h-222v31l225 271h28v-271h61v-31h-61v-83h-31zM129 315v345l-87 -48l-13 27l110 61h21v-385h-31zM624 700l-493 -700h-40l492 700h41z" />
    <glyph glyph-name="onehalf" unicode="&#xbd;" horiz-adv-x="781" 
d="M129 315v345l-87 -48l-13 27l110 61h21v-385h-31zM624 700l-493 -700h-40l492 700h41zM709 275c0 22.667 -9.33398 42.333 -28.001 59s-41 25 -67 25c-22 0 -41.667 -6.33301 -59 -19s-30.333 -30 -39 -52l-29 14c11.333 26.667 28.333 47.834 51 63.501s48 23.5 76 23.5
c34.667 0 64.334 -11 89.001 -33s37 -48.667 37 -80c0 -20.667 -6 -40.334 -18 -59.001s-32.333 -41.667 -61 -69l-122 -118h209v-30h-258v22l148 145c34 32.667 54.333 56.334 61 71.001c6.66699 11.333 10 23.666 10 36.999z" />
    <glyph glyph-name="threequarters" unicode="&#xbe;" horiz-adv-x="861" 
d="M523 83v31l225 271h28v-271h61v-31h-61v-83h-31v83h-222zM226 0h-41l493 700h41zM158 311c-29.333 0 -55.332 6.33398 -77.999 19.001s-39 29.667 -49 51l30 11c17.333 -33.333 49.666 -50 96.999 -50c29.333 0 53.833 7.33301 73.5 22s29.5 33.334 29.5 56.001
c0 22 -9.5 40.5 -28.5 55.5s-42.833 22.5 -71.5 22.5h-29v27h22c27.333 0 50.5 7.16699 69.5 21.5s28.5 32.166 28.5 53.499c0 20.667 -9 38.167 -27 52.5s-40.333 21.5 -67 21.5c-45.333 0 -76.666 -17.667 -93.999 -53l-27 12c10 22 25.833 39.333 47.5 52
s46.5 19 74.5 19c35.333 0 65.166 -9.83301 89.499 -29.5s36.5 -44.167 36.5 -73.5c0 -19.333 -6.16699 -37 -18.5 -53s-29.166 -27.667 -50.499 -35c24 -7.33301 42.833 -19.333 56.5 -36s20.5 -36 20.5 -58c0 -30.667 -12.833 -56.334 -38.5 -77.001
s-57.834 -31 -96.501 -31zM745.001 337.001l-184 -223h184v223z" />
    <glyph glyph-name="questiondown" unicode="&#xbf;" horiz-adv-x="516" 
d="M88 0c0 -40 17.6641 -74.666 52.9971 -103.999c35.333 -28.667 79 -43 131 -43c42 0 79 10 111 30s54 46.333 66 79l39 -13c-14 -40.667 -40.667 -73.5 -80 -98.5s-84.666 -37.5 -135.999 -37.5c-63.333 0 -116.666 18.333 -159.999 55c-43.333 36 -65 79.667 -65 131
c0 53.333 22.667 99.666 68 138.999c38 34 72.667 57.333 104 70l20 9l2 107h35l4 -131c-16.667 -6 -39 -17 -67 -33c-21.333 -11.333 -40.666 -24.333 -57.999 -39c-18.667 -15.333 -34.5 -33.833 -47.5 -55.5s-19.5 -43.5 -19.5 -65.5zM286.997 515.001
c7.33301 -7.33301 11 -16.666 11 -27.999s-3.66699 -20.666 -11 -27.999s-16.666 -11 -27.999 -11s-20.666 3.66699 -27.999 11s-11 16.666 -11 27.999s3.66699 20.666 11 27.999c7.33301 8 16.666 12 27.999 12s20.666 -4 27.999 -12z" />
    <glyph glyph-name="Agrave" unicode="&#xc0;" horiz-adv-x="715" 
d="M71 0h-45l316 700h31l316 -700h-45l-83 184h-407zM543 224l-186 413l-185 -413h371zM383 772l-164 99l22 33l158 -109z" />
    <glyph glyph-name="Aacute" unicode="&#xc1;" horiz-adv-x="715" 
d="M71 0h-45l316 700h31l316 -700h-45l-83 184h-407zM543 224l-186 413l-185 -413h371zM336 772l-16 23l158 109l22 -33z" />
    <glyph glyph-name="Acircumflex" unicode="&#xc2;" horiz-adv-x="715" 
d="M71 0h-45l316 700h31l316 -700h-45l-83 184h-407zM543 224l-186 413l-185 -413h371zM228 772l-19 22l146 117h5l145 -117l-18 -22l-130 94z" />
    <glyph glyph-name="Atilde" unicode="&#xc3;" horiz-adv-x="715" 
d="M154 184l-83 -184h-45l316 700h31l316 -700h-45l-83 184h-407zM543 224l-186 413l-185 -413h371zM250 776l-34.999 0.000976562c0 24 8.33301 44.5 25 61.5s37 25.5 61 25.5c20 0 40.333 -9.66699 61 -29s37.667 -29 51 -29c14 0 26 5.16699 36 15.5s15 23.5 15 39.5h35
c0 -26 -8.16699 -47.167 -24.5 -63.5s-36.5 -24.5 -60.5 -24.5c-20.667 0 -41.334 9.66699 -62.001 29c-19.333 19.333 -36 29 -50 29s-26.167 -5.33301 -36.5 -16s-15.5 -23.334 -15.5 -38.001z" />
    <glyph glyph-name="Adieresis" unicode="&#xc4;" horiz-adv-x="715" 
d="M154 184l-83 -184h-45l316 700h31l316 -700h-45l-83 184h-407zM543 224l-186 413l-185 -413h371zM231 784c-6.66699 6.66699 -10 15 -10 25s3.33301 18.333 10 25s15 10 25 10s18.333 -3.33301 25 -10s10 -15 10 -25s-3.33301 -18.333 -10 -25c-6.66699 -6 -15 -9 -25 -9
s-18.333 3 -25 9zM458 844c14 0.666992 24.001 -5 30.001 -17s6.16699 -24 0.5 -36s-15.834 -17.333 -30.501 -16c-14 -1.33301 -24 4 -30 16s-6 24 0 36s16 17.667 30 17z" />
    <glyph glyph-name="Aring" unicode="&#xc5;" horiz-adv-x="715" 
d="M154 184l-83 -184h-45l316 700h31l316 -700h-45l-83 184h-407zM543 224l-186 413l-185 -413h371zM453 853c0 -26 -9.33301 -48.333 -28 -67s-41.334 -28 -68.001 -28s-49.167 9.33301 -67.5 28s-27.5 41 -27.5 67c0 26.667 9.16699 49.167 27.5 67.5
s40.833 27.5 67.5 27.5s49.334 -9.16699 68.001 -27.5s28 -40.833 28 -67.5zM313 808c12 -12 26.667 -18 44 -18s32 6 44 18c12.667 12.667 19 27.667 19 45s-6.33301 32 -19 44c-12 12.667 -26.667 19 -44 19s-32 -6.33301 -44 -19c-12 -12 -18 -26.667 -18 -44
s6 -32.333 18 -45z" />
    <glyph glyph-name="AE" unicode="&#xc6;" horiz-adv-x="988" 
d="M197 184l-122 -184h-49l464 700h450v-40h-387v-285h340v-40h-340v-295h392v-40h-434v184h-314zM223 224h288v435z" />
    <glyph glyph-name="Ccedilla" unicode="&#xc7;" horiz-adv-x="788" 
d="M64 350c0 102 34.001 186.999 102.001 254.999s153 102 255 102c65.333 0 124.666 -14.667 177.999 -44s95.333 -70 126 -122l-39 -16c-28 44 -65.167 78.5 -111.5 103.5s-97.5 37.5 -153.5 37.5c-89.333 0 -164 -30.333 -224 -91c-60 -60 -90 -135 -90 -225
c0 -89.333 30 -164.666 90 -225.999c60 -60 134.667 -90 224 -90c56 0 107.167 12.5 153.5 37.5s83.5 59.5 111.5 103.5l39 -16c-28.667 -48 -67.667 -86.667 -117 -116s-104 -45.666 -164 -48.999l-13 -57c2 0 4.66699 -0.5 8 -1.5s9.5 -3.16699 18.5 -6.5
s16.833 -7.33301 23.5 -12s12.667 -11.334 18 -20.001s8 -18.667 8 -30c0 -21.333 -9 -39.5 -27 -54.5s-40.333 -22.5 -67 -22.5c-15.333 0 -30.833 3.33301 -46.5 10s-27.167 14 -34.5 22l-11 10l14 24c18 -24 42.667 -36 74 -36c18 0 33.167 4.66699 45.5 14
s18.5 20.333 18.5 33c0 11.333 -6.33301 21.5 -19 30.5s-26.667 14.5 -42 16.5l-20 2l18 77c-98.667 2.66699 -181 38 -247 106s-99 151.667 -99 251z" />
    <glyph glyph-name="Egrave" unicode="&#xc8;" horiz-adv-x="639" 
d="M100 700h491v-40h-449v-285h402v-40h-402v-295h454v-40h-496v700zM361 772l-164 99l22 33l158 -109z" />
    <glyph glyph-name="Eacute" unicode="&#xc9;" horiz-adv-x="639" 
d="M100 700h491v-40h-449v-285h402v-40h-402v-295h454v-40h-496v700zM314 772l-16 23l158 109l22 -33z" />
    <glyph glyph-name="Ecircumflex" unicode="&#xca;" horiz-adv-x="639" 
d="M100 700h491v-40h-449v-285h402v-40h-402v-295h454v-40h-496v700zM206 772l-19 22l146 117h5l145 -117l-18 -22l-130 94z" />
    <glyph glyph-name="Edieresis" unicode="&#xcb;" horiz-adv-x="639" 
d="M100 700h491v-40h-449v-285h402v-40h-402v-295h454v-40h-496v700zM209 784c-6.66699 6.66699 -10 15 -10 25s3.33301 18.333 10 25s15 10 25 10s18.333 -3.33301 25 -10s10 -15 10 -25s-3.33301 -18.333 -10 -25c-6.66699 -6 -15 -9 -25 -9s-18.333 3 -25 9zM436 844
c14 0.666992 24.001 -5 30.001 -17s6.16699 -24 0.5 -36s-15.834 -17.333 -30.501 -16c-14 -1.33301 -24 4 -30 16s-6 24 0 36s16 17.667 30 17z" />
    <glyph glyph-name="Igrave" unicode="&#xcc;" horiz-adv-x="242" 
d="M142 0h-42v700h42v-700zM146 772l-163 99l22 33l158 -109z" />
    <glyph glyph-name="Iacute" unicode="&#xcd;" horiz-adv-x="242" 
d="M142 0h-42v700h42v-700zM100 772l-16 23l157 109l23 -33z" />
    <glyph glyph-name="Icircumflex" unicode="&#xce;" horiz-adv-x="242" 
d="M142 0h-42v700h42v-700zM121 866l-130 -94l-18 22l145 117h5l146 -117l-19 -22z" />
    <glyph glyph-name="Idieresis" unicode="&#xcf;" horiz-adv-x="242" 
d="M142 0h-42v700h42v-700zM20 844c14 0.666992 23.833 -4.99805 29.5 -16.998s5.66699 -24 0 -36s-15.5 -17.333 -29.5 -16c-10.667 0 -19.167 3.66699 -25.5 11s-9.5 15.166 -9.5 23.499s3.16699 16.166 9.5 23.499s14.833 11 25.5 11zM196 784.002
c-6 6.66699 -9 15 -9 25s3 18.333 9 25c6.66699 6.66699 15 10 25 10s18.333 -3.33301 25 -10s10 -15 10 -25s-3.33301 -18.333 -10 -25c-6.66699 -6 -15 -9 -25 -9s-18.333 3 -25 9z" />
    <glyph glyph-name="Eth" unicode="&#xd0;" horiz-adv-x="794" 
d="M10 331v38h94v331h269c100.667 0 185.334 -33.667 254.001 -101c68.667 -66.667 103 -149.667 103 -249s-34.333 -182.333 -103 -249c-68.667 -67.333 -153.334 -101 -254.001 -101h-269v331h-94zM146 660v-291.001h230v-38h-230v-291h227
c88.667 0 163.334 29.667 224.001 89c60 58.667 90 132.334 90 221.001c0 88 -30 161.667 -90 221c-60.667 59.333 -135.334 89 -224.001 89h-227z" />
    <glyph glyph-name="Ntilde" unicode="&#xd1;" horiz-adv-x="779" 
d="M141 0h-41v700h35l503 -625v625h41v-700h-35l-503 626v-626zM282 776l-35.001 0.000976562c0 24 8.33301 44.5 25 61.5s37 25.5 61 25.5c20 0 40.333 -9.66699 61 -29s37.667 -29 51 -29c14 0 26 5.16699 36 15.5s15 23.5 15 39.5h35c0 -26 -8 -47.167 -24 -63.5
s-36 -24.5 -60 -24.5c-21.333 0 -42.333 9.66699 -63 29c-19.333 19.333 -35.666 29 -48.999 29c-14.667 0 -27.167 -5.33301 -37.5 -16s-15.5 -23.334 -15.5 -38.001z" />
    <glyph glyph-name="Ograve" unicode="&#xd2;" horiz-adv-x="842" 
d="M64 350c0 102 34 187 102 255s153 102 255 102c101.333 0 186 -34 254 -102c68.667 -68 103 -153 103 -255c0 -101.333 -34.333 -186.333 -103 -255c-68 -68 -152.667 -102 -254 -102c-102 0 -187 34 -255 102c-68 68.667 -102 153.667 -102 255zM197 575
c-60 -60 -90 -135 -90 -225c0 -89.333 30 -164.666 90 -225.999c60 -60 134.667 -90 224 -90s164 30 224 90c60 61.333 90 136.666 90 225.999c0 90 -30 165 -90 225c-60 60.667 -134.667 91 -224 91s-164 -30.333 -224 -91zM446 772l-163 99l22 33l158 -109z" />
    <glyph glyph-name="Oacute" unicode="&#xd3;" horiz-adv-x="842" 
d="M64 350c0 102 34 187 102 255s153 102 255 102c101.333 0 186 -34 254 -102c68.667 -68 103 -153 103 -255c0 -101.333 -34.333 -186.333 -103 -255c-68 -68 -152.667 -102 -254 -102c-102 0 -187 34 -255 102c-68 68.667 -102 153.667 -102 255zM197 575
c-60 -60 -90 -135 -90 -225c0 -89.333 30 -164.666 90 -225.999c60 -60 134.667 -90 224 -90s164 30 224 90c60 61.333 90 136.666 90 225.999c0 90 -30 165 -90 225c-60 60.667 -134.667 91 -224 91s-164 -30.333 -224 -91zM400 772l-16 23l157 109l23 -33z" />
    <glyph glyph-name="Ocircumflex" unicode="&#xd4;" horiz-adv-x="842" 
d="M64 350c0 102 34 187 102 255s153 102 255 102c101.333 0 186 -34 254 -102c68.667 -68 103 -153 103 -255c0 -101.333 -34.333 -186.333 -103 -255c-68 -68 -152.667 -102 -254 -102c-102 0 -187 34 -255 102c-68 68.667 -102 153.667 -102 255zM197 575
c-60 -60 -90 -135 -90 -225c0 -89.333 30 -164.666 90 -225.999c60 -60 134.667 -90 224 -90s164 30 224 90c60 61.333 90 136.666 90 225.999c0 90 -30 165 -90 225c-60 60.667 -134.667 91 -224 91s-164 -30.333 -224 -91zM421 866l-130 -94l-18 22l145 117h5l146 -117
l-19 -22z" />
    <glyph glyph-name="Otilde" unicode="&#xd5;" horiz-adv-x="842" 
d="M64 350c0 102 34 187 102 255s153 102 255 102c101.333 0 186 -34 254 -102c68.667 -68 103 -153 103 -255c0 -101.333 -34.333 -186.333 -103 -255c-68 -68 -152.667 -102 -254 -102c-102 0 -187 34 -255 102c-68 68.667 -102 153.667 -102 255zM197 575
c-60 -60 -90 -135 -90 -225c0 -89.333 30 -164.666 90 -225.999c60 -60 134.667 -90 224 -90s164 30 224 90c60 61.333 90 136.666 90 225.999c0 90 -30 165 -90 225c-60 60.667 -134.667 91 -224 91s-164 -30.333 -224 -91zM313 776l-34.999 0.000976562
c0 24 8.5 44.5 25.5 61.5s37.5 25.5 61.5 25.5c18 0 38.167 -9.66699 60.5 -29s39.5 -29 51.5 -29c14 0 26 5.16699 36 15.5s15 23.5 15 39.5h35c0 -26 -8.16699 -47.167 -24.5 -63.5s-36.5 -24.5 -60.5 -24.5c-20.667 0 -41.334 9.66699 -62.001 29
c-19.333 19.333 -36 29 -50 29c-14.667 0 -27.167 -5.33301 -37.5 -16s-15.5 -23.334 -15.5 -38.001z" />
    <glyph glyph-name="Odieresis" unicode="&#xd6;" horiz-adv-x="842" 
d="M64 350c0 102 34 187 102 255s153 102 255 102c101.333 0 186 -34 254 -102c68.667 -68 103 -153 103 -255c0 -101.333 -34.333 -186.333 -103 -255c-68 -68 -152.667 -102 -254 -102c-102 0 -187 34 -255 102c-68 68.667 -102 153.667 -102 255zM197 575
c-60 -60 -90 -135 -90 -225c0 -89.333 30 -164.666 90 -225.999c60 -60 134.667 -90 224 -90s164 30 224 90c60 61.333 90 136.666 90 225.999c0 90 -30 165 -90 225c-60 60.667 -134.667 91 -224 91s-164 -30.333 -224 -91zM320 844
c14 0.666992 23.833 -4.99805 29.5 -16.998s5.66699 -24 0 -36s-15.5 -17.333 -29.5 -16c-10.667 0 -19.167 3.66699 -25.5 11s-9.5 15.166 -9.5 23.499s3.16699 16.166 9.5 23.499s14.833 11 25.5 11zM496 784.002c-6 6.66699 -9 15 -9 25s3 18.333 9 25
c6.66699 6.66699 15 10 25 10s18.333 -3.33301 25 -10s10 -15 10 -25s-3.33301 -18.333 -10 -25c-6.66699 -6 -15 -9 -25 -9s-18.333 3 -25 9z" />
    <glyph glyph-name="multiply" unicode="&#xd7;" horiz-adv-x="600" 
d="M273 350l-162 162l27 27l162 -162l162 162l27 -27l-162 -162l162 -162l-27 -27l-162 162l-162 -162l-27 27z" />
    <glyph glyph-name="Oslash" unicode="&#xd8;" horiz-adv-x="842" 
d="M165 13l36.999 51.999c-44 32.667 -78 73.834 -102 123.501s-36 103.5 -36 161.5c0 102 34 187 102 255s153 102 255 102c70.667 0 134.667 -17.333 192 -52l37 52l30 -21l-37 -52c42.667 -34 75.834 -75.333 99.501 -124s35.5 -102 35.5 -160
c0 -101.333 -34.333 -186.333 -103 -255c-68 -68 -152.667 -102 -254 -102c-70 0 -133.333 17.333 -190 52l-37 -52zM617.999 597.999l-362.998 -518.999c51.333 -30 106.666 -45 165.999 -45c89.333 0 164 30 224 90c60 61.333 90 136.666 90 225.999
c0 50 -10.333 96.667 -31 140s-49.334 79.333 -86.001 108zM226.001 100l363 519.999c-50.667 30.667 -106.667 46 -168 46c-89.333 0 -164 -30.333 -224 -91c-60 -60 -90 -135 -90 -225c0 -51.333 10.333 -98.666 31 -141.999s50 -79.333 88 -108z" />
    <glyph glyph-name="Ugrave" unicode="&#xd9;" horiz-adv-x="758" 
d="M626 280l0.000976562 420h42v-420c0 -81.333 -27.667 -149.666 -83 -204.999c-54.667 -54.667 -123.334 -82 -206.001 -82s-151.334 27.333 -206.001 82c-55.333 55.333 -83 123.666 -83 204.999v420h42v-420c0 -71.333 23.333 -130.333 70 -177s105.667 -70 177 -70
c70.667 0 129.334 23.333 176.001 70c47.333 47.333 71 106.333 71 177zM404.001 772l-163 99l22 33l158 -109z" />
    <glyph glyph-name="Uacute" unicode="&#xda;" horiz-adv-x="758" 
d="M626 280l0.000976562 420h42v-420c0 -81.333 -27.667 -149.666 -83 -204.999c-54.667 -54.667 -123.334 -82 -206.001 -82s-151.334 27.333 -206.001 82c-55.333 55.333 -83 123.666 -83 204.999v420h42v-420c0 -71.333 23.333 -130.333 70 -177s105.667 -70 177 -70
c70.667 0 129.334 23.333 176.001 70c47.333 47.333 71 106.333 71 177zM358.001 772l-16 23l157 109l23 -33z" />
    <glyph glyph-name="Ucircumflex" unicode="&#xdb;" horiz-adv-x="758" 
d="M626 280l0.000976562 420h42v-420c0 -81.333 -27.667 -149.666 -83 -204.999c-54.667 -54.667 -123.334 -82 -206.001 -82s-151.334 27.333 -206.001 82c-55.333 55.333 -83 123.666 -83 204.999v420h42v-420c0 -71.333 23.333 -130.333 70 -177s105.667 -70 177 -70
c70.667 0 129.334 23.333 176.001 70c47.333 47.333 71 106.333 71 177zM379.001 866l-130 -94l-18 22l145 117h5l146 -117l-19 -22z" />
    <glyph glyph-name="Udieresis" unicode="&#xdc;" horiz-adv-x="758" 
d="M626 280l0.000976562 420h42v-420c0 -81.333 -27.667 -149.666 -83 -204.999c-54.667 -54.667 -123.334 -82 -206.001 -82s-151.334 27.333 -206.001 82c-55.333 55.333 -83 123.666 -83 204.999v420h42v-420c0 -71.333 23.333 -130.333 70 -177s105.667 -70 177 -70
c70.667 0 129.334 23.333 176.001 70c47.333 47.333 71 106.333 71 177zM278.001 844c14 0.666992 23.833 -4.99805 29.5 -16.998s5.66699 -24 0 -36s-15.5 -17.333 -29.5 -16c-10.667 0 -19.167 3.66699 -25.5 11s-9.5 15.166 -9.5 23.499s3.16699 16.166 9.5 23.499
s14.833 11 25.5 11zM454.001 784.002c-6 6.66699 -9 15 -9 25s3 18.333 9 25c6.66699 6.66699 15 10 25 10s18.333 -3.33301 25 -10s10 -15 10 -25s-3.33301 -18.333 -10 -25c-6.66699 -6 -15 -9 -25 -9s-18.333 3 -25 9z" />
    <glyph glyph-name="Yacute" unicode="&#xdd;" horiz-adv-x="653" 
d="M306 0v284l-280 416h49l252 -376l251 376h49l-279 -413v-287h-42zM470 871l-164 -99l-16 23l157 109z" />
    <glyph glyph-name="Thorn" unicode="&#xde;" horiz-adv-x="663" 
d="M100 0l-0.000976562 700.001h42v-145h257c60 0 110.333 -19.667 151 -59c40.667 -38.667 61 -87.334 61 -146.001c0 -59.333 -20.333 -108.333 -61 -147c-39.333 -38.667 -89.666 -58 -150.999 -58h-257v-145h-42zM398.999 515.001h-257v-330h257
c47.333 0 87.333 15.667 120 47c32.667 32 49 71.333 49 118c0 47.333 -16.333 86.333 -49 117c-32 32 -72 48 -120 48z" />
    <glyph glyph-name="germandbls" unicode="&#xdf;" horiz-adv-x="570" 
d="M257 717c-36 0 -66.001 -12.335 -90.001 -37.002s-36 -55.334 -36 -92.001v-588h-40v592c0 48 15.333 87.333 46 118c31.333 31.333 70.666 47 117.999 47s86.333 -15.333 117 -46s46 -66 46 -106c0 -39.333 -16 -71.666 -48 -96.999c-31.333 -26 -47 -51 -47 -75
c0 -27.333 23.333 -55.333 70 -84c17.333 -10 32 -19.333 44 -28s25.167 -20.5 39.5 -35.5s25.166 -32.333 32.499 -52s11 -41.834 11 -66.501c0 -56 -19.333 -98.833 -58 -128.5s-94.667 -44.5 -168 -44.5v40c123.333 0 185 44.333 185 133c0 54 -23.333 96 -70 126
l-28 17.5c-15.333 9.66699 -25.666 16.334 -30.999 20.001s-13.666 10 -24.999 19s-19.166 17 -23.499 24s-8.66602 15.667 -12.999 26s-6.5 20.833 -6.5 31.5c0 33.333 15.667 63 47 89c32 26.667 48 55.334 48 86.001c0 28.667 -11.333 54.334 -34 77.001
s-51.334 34 -86.001 34z" />
    <glyph glyph-name="agrave" unicode="&#xe0;" 
d="M313 -7c-74 0 -135.332 25.3359 -183.999 76.0029c-49.333 51.333 -74 115 -74 191c0 75.333 24.667 138.666 74 189.999s110.666 77 183.999 77c48 0 92 -11.833 132 -35.5s71 -55.834 93 -96.501v125h40v-520h-40v125c-22 -40.667 -53 -72.834 -93 -96.501
s-84 -35.5 -132 -35.5zM159.001 422.003c-42 -42.667 -63 -96.667 -63 -162s21 -119.333 63 -162c42 -43.333 94.333 -65 157 -65s115 21.667 157 65c42 42.667 63 96.667 63 162s-21 119.333 -63 162c-42 43.333 -94.333 65 -157 65s-115 -21.667 -157 -65z
M376.001 633.003l-16 -23l-164 99l22 33z" />
    <glyph glyph-name="aacute" unicode="&#xe1;" 
d="M313 -7c-74 0 -135.332 25.3359 -183.999 76.0029c-49.333 51.333 -74 115 -74 191c0 75.333 24.667 138.666 74 189.999s110.666 77 183.999 77c48 0 92 -11.833 132 -35.5s71 -55.834 93 -96.501v125h40v-520h-40v125c-22 -40.667 -53 -72.834 -93 -96.501
s-84 -35.5 -132 -35.5zM159.001 422.003c-42 -42.667 -63 -96.667 -63 -162s21 -119.333 63 -162c42 -43.333 94.333 -65 157 -65s115 21.667 157 65c42 42.667 63 96.667 63 162s-21 119.333 -63 162c-42 43.333 -94.333 65 -157 65s-115 -21.667 -157 -65z
M477.001 709.003l-163 -99l-17 23l158 109z" />
    <glyph glyph-name="acircumflex" unicode="&#xe2;" 
d="M313 -7c-74 0 -135.332 25.3359 -183.999 76.0029c-49.333 51.333 -74 115 -74 191c0 75.333 24.667 138.666 74 189.999s110.666 77 183.999 77c48 0 92 -11.833 132 -35.5s71 -55.834 93 -96.501v125h40v-520h-40v125c-22 -40.667 -53 -72.834 -93 -96.501
s-84 -35.5 -132 -35.5zM159.001 422.003c-42 -42.667 -63 -96.667 -63 -162s21 -119.333 63 -162c42 -43.333 94.333 -65 157 -65s115 21.667 157 65c42 42.667 63 96.667 63 162s-21 119.333 -63 162c-42 43.333 -94.333 65 -157 65s-115 -21.667 -157 -65z
M205.001 610.003l-19 22l146 117h5l145 -117l-18 -22l-130 94z" />
    <glyph glyph-name="atilde" unicode="&#xe3;" 
d="M313 -7c-74 0 -135.332 25.3359 -183.999 76.0029c-49.333 51.333 -74 115 -74 191c0 75.333 24.667 138.666 74 189.999s110.666 77 183.999 77c48 0 92 -11.833 132 -35.5s71 -55.834 93 -96.501v125h40v-520h-40v125c-22 -40.667 -53 -72.834 -93 -96.501
s-84 -35.5 -132 -35.5zM473.001 422.003c-42 43.333 -94.333 65 -157 65s-115 -21.667 -157 -65c-42 -42.667 -63 -96.667 -63 -162s21 -119.333 63 -162c42 -43.333 94.333 -65 157 -65s115 21.667 157 65c42 42.667 63 96.667 63 162s-21 119.333 -63 162z
M227.001 614.003l-35.001 0.000976562c0 24 8.33301 44.5 25 61.5s37 25.5 61 25.5c20 0 40.333 -9.66699 61 -29s37.667 -29 51 -29c14 0 26 5.16699 36 15.5s15 23.5 15 39.5h35c0 -26 -8 -47.167 -24 -63.5s-36 -24.5 -60 -24.5c-21.333 0 -42.333 9.66699 -63 29
c-19.333 19.333 -35.666 29 -48.999 29c-14.667 0 -27.167 -5.33301 -37.5 -16s-15.5 -23.334 -15.5 -38.001z" />
    <glyph glyph-name="adieresis" unicode="&#xe4;" 
d="M313 527c48 0 92.001 -11.8301 132.001 -35.4971s71 -55.834 93 -96.501v125h40v-520h-40v125c-22 -40.667 -53 -72.834 -93 -96.501s-84 -35.5 -132 -35.5c-74 0 -135.333 25.333 -184 76c-49.333 51.333 -74 115 -74 191c0 75.333 24.667 138.666 74 189.999
s110.666 77 183.999 77zM159.001 422.003c-42 -42.667 -63 -96.667 -63 -162s21 -119.333 63 -162c42 -43.333 94.333 -65 157 -65s115 21.667 157 65c42 42.667 63 96.667 63 162s-21 119.333 -63 162c-42 43.333 -94.333 65 -157 65s-115 -21.667 -157 -65z
M410.001 622.003c-6.66699 6.66699 -10 15 -10 25s3.33301 18.333 10 25s15 10 25 10s18.333 -3.33301 25 -10s10 -15 10 -25s-3.33301 -18.333 -10 -25c-6.66699 -6 -15 -9 -25 -9s-18.333 3 -25 9zM208.001 622.003c-6 6.66699 -9 15 -9 25s3 18.333 9 25
c6.66699 6.66699 15 10 25 10s18.333 -3.33301 25 -10s10 -15 10 -25s-3.33301 -18.333 -10 -25c-6.66699 -6 -15 -9 -25 -9s-18.333 3 -25 9z" />
    <glyph glyph-name="aring" unicode="&#xe5;" 
d="M313 527c48 0 92.001 -11.8301 132.001 -35.4971s71 -55.834 93 -96.501v125h40v-520h-40v125c-22 -40.667 -53 -72.834 -93 -96.501s-84 -35.5 -132 -35.5c-74 0 -135.333 25.333 -184 76c-49.333 51.333 -74 115 -74 191c0 75.333 24.667 138.666 74 189.999
s110.666 77 183.999 77zM159.001 422.003c-42 -42.667 -63 -96.667 -63 -162s21 -119.333 63 -162c42 -43.333 94.333 -65 157 -65s115 21.667 157 65c42 42.667 63 96.667 63 162s-21 119.333 -63 162c-42 43.333 -94.333 65 -157 65s-115 -21.667 -157 -65z
M239.001 691.003c0 26.667 9.33301 49.167 28 67.5s41.334 27.5 68.001 27.5c26 0 48.333 -9.16699 67 -27.5s28 -40.833 28 -67.5c0 -26 -9.33301 -48.333 -28 -67s-41 -28 -67 -28c-26.667 0 -49.334 9.33301 -68.001 28s-28 41 -28 67zM290.001 735.003
c-12 -12 -18 -26.667 -18 -44s6 -32.333 18 -45c12.667 -12 27.667 -18 45 -18s32 6 44 18c12 12.667 18 27.667 18 45s-6 32 -18 44c-12 12.667 -26.667 19 -44 19s-32.333 -6.33301 -45 -19z" />
    <glyph glyph-name="ae" unicode="&#xe6;" horiz-adv-x="1112" 
d="M313 -7c-74 0 -135.33 25.335 -183.997 76.002c-49.333 51.333 -74 115 -74 191c0 75.333 24.667 138.666 74 189.999s110.666 77 183.999 77c48 0 92 -11.833 132 -35.5s71 -55.834 93 -96.501v125h40v-126c22 41.333 53 73.833 93 97.5s84.333 35.5 133 35.5
c73.333 0 134.666 -25.667 183.999 -77c50 -51.333 75 -114.666 75 -189.999c0 -4.66699 -0.333008 -7.66699 -1 -9h-483c2 -63.333 24.667 -116 68 -158c43.333 -41.333 97.666 -62 162.999 -62c84 0 147.333 33 190 99l39 -14c-24 -38 -55.833 -68 -95.5 -90
s-83.5 -33 -131.5 -33c-51.333 0 -97.5 11.833 -138.5 35.5s-72.833 56.5 -95.5 98.5v-127h-40v125c-22 -40.667 -53 -72.834 -93 -96.501s-84 -35.5 -132 -35.5zM159.003 422.002c-42 -42.667 -63 -96.667 -63 -162s21 -119.333 63 -162c42 -43.333 94.333 -65 157 -65
s115 21.667 157 65c42 42.667 63 96.667 63 162s-21 119.333 -63 162c-42 43.333 -94.333 65 -157 65s-115 -21.667 -157 -65zM580.003 286.002h441.001c-4.66699 58 -28.334 106.333 -71.001 145c-40.667 38.667 -90.667 58 -150 58s-109.333 -19.333 -150 -58
c-42 -38.667 -65.333 -87 -70 -145z" />
    <glyph glyph-name="ccedilla" unicode="&#xe7;" horiz-adv-x="608" 
d="M293 -84l17.9971 77.0029c-74 3.33301 -135 30 -183 80c-48.667 50.667 -73 113 -73 187c0 76 25.333 139.333 76 190c51.333 51.333 115 77 191 77c52 0 99 -12.5 141 -37.5s74 -59.5 96 -103.5l-40 -13c-18.667 35.333 -45.334 63.166 -80.001 83.499
s-73.667 30.5 -117 30.5c-64.667 0 -118.667 -21.667 -162 -65c-42.667 -42.667 -64 -96.667 -64 -162s21.333 -119.333 64 -162c43.333 -43.333 97.333 -65 162 -65c43.333 0 82.333 10.167 117 30.5s61.334 48.166 80.001 83.499l40 -13c-20 -40 -48.667 -72.333 -86 -97
s-79.666 -39 -126.999 -43l-14 -57c2 0 4.66699 -0.5 8 -1.5s9.5 -3.16699 18.5 -6.5s16.833 -7.33301 23.5 -12s12.667 -11.334 18 -20.001s8 -18.667 8 -30c0 -21.333 -9 -39.5 -27 -54.5s-40.333 -22.5 -67 -22.5c-33.333 0 -60.666 10.667 -81.999 32l-10 10l14 24
c18 -24 42.667 -36 74 -36c18 0 33.167 4.66699 45.5 14s18.5 20.333 18.5 33c0 11.333 -6.16699 21.5 -18.5 30.5s-26.166 14.5 -41.499 16.5z" />
    <glyph glyph-name="egrave" unicode="&#xe8;" horiz-adv-x="629" 
d="M579 251l-482.998 0.000976562c2 -63.333 24.667 -116 68 -158c43.333 -41.333 97.666 -62 162.999 -62c83.333 0 146.666 33 189.999 99l39 -14c-24 -38.667 -56.167 -68.834 -96.5 -90.501s-84.5 -32.5 -132.5 -32.5c-78.667 0 -143.667 25.333 -195 76
c-51.333 51.333 -77 115 -77 191c0 75.333 25 138.666 75 189.999c51.333 51.333 114 77 188 77c74.667 0 137 -25.667 187 -77s75 -114.666 75 -189.999c0 -4.66699 -0.333008 -7.66699 -1 -9zM97.002 286.001h441.001c-4.66699 58 -28.334 106.333 -71.001 145
c-40.667 38.667 -90.667 58 -150 58s-109.333 -19.333 -150 -58c-42 -38.667 -65.333 -87 -70 -145zM347.003 610.001l-164 99l22 33l158 -109z" />
    <glyph glyph-name="eacute" unicode="&#xe9;" horiz-adv-x="629" 
d="M579 251l-482.998 0.000976562c2 -63.333 24.667 -116 68 -158c43.333 -41.333 97.666 -62 162.999 -62c83.333 0 146.666 33 189.999 99l39 -14c-24 -38.667 -56.167 -68.834 -96.5 -90.501s-84.5 -32.5 -132.5 -32.5c-78.667 0 -143.667 25.333 -195 76
c-51.333 51.333 -77 115 -77 191c0 75.333 25 138.666 75 189.999c51.333 51.333 114 77 188 77c74.667 0 137 -25.667 187 -77s75 -114.666 75 -189.999c0 -4.66699 -0.333008 -7.66699 -1 -9zM97.002 286.001h441.001c-4.66699 58 -28.334 106.333 -71.001 145
c-40.667 38.667 -90.667 58 -150 58s-109.333 -19.333 -150 -58c-42 -38.667 -65.333 -87 -70 -145zM301.003 610.001l-17 23l158 109l22 -33z" />
    <glyph glyph-name="ecircumflex" unicode="&#xea;" horiz-adv-x="629" 
d="M579 251l-482.998 0.000976562c2 -63.333 24.667 -116 68 -158c43.333 -41.333 97.666 -62 162.999 -62c83.333 0 146.666 33 189.999 99l39 -14c-24 -38.667 -56.167 -68.834 -96.5 -90.501s-84.5 -32.5 -132.5 -32.5c-78.667 0 -143.667 25.333 -195 76
c-51.333 51.333 -77 115 -77 191c0 75.333 25 138.666 75 189.999c51.333 51.333 114 77 188 77c74.667 0 137 -25.667 187 -77s75 -114.666 75 -189.999c0 -4.66699 -0.333008 -7.66699 -1 -9zM97.002 286.001h441.001c-4.66699 58 -28.334 106.333 -71.001 145
c-40.667 38.667 -90.667 58 -150 58s-109.333 -19.333 -150 -58c-42 -38.667 -65.333 -87 -70 -145zM321.003 704.001l-129 -94l-19 22l146 117h5l145 -117l-18 -22z" />
    <glyph glyph-name="edieresis" unicode="&#xeb;" horiz-adv-x="629" 
d="M579 251l-482.998 0.000976562c2 -63.333 24.667 -116 68 -158c43.333 -41.333 97.666 -62 162.999 -62c83.333 0 146.666 33 189.999 99l39 -14c-24 -38.667 -56.167 -68.834 -96.5 -90.501s-84.5 -32.5 -132.5 -32.5c-78.667 0 -143.667 25.333 -195 76
c-51.333 51.333 -77 115 -77 191c0 75.333 25 138.666 75 189.999c51.333 51.333 114 77 188 77c74.667 0 137 -25.667 187 -77s75 -114.666 75 -189.999c0 -4.66699 -0.333008 -7.66699 -1 -9zM97.002 286.001h441.001c-4.66699 58 -28.334 106.333 -71.001 145
c-40.667 38.667 -90.667 58 -150 58s-109.333 -19.333 -150 -58c-42 -38.667 -65.333 -87 -70 -145zM195.003 622.001c-6 6.66699 -9 15 -9 25s3 18.333 9 25c6.66699 6.66699 15 10 25 10s18.333 -3.33301 25 -10s10 -15 10 -25s-3.33301 -18.333 -10 -25
c-6.66699 -6 -15 -9 -25 -9s-18.333 3 -25 9zM397.003 622.001c-6.66699 6.66699 -10 15 -10 25s3.33301 18.333 10 25s15 10 25 10s18.333 -3.33301 25 -10s10 -15 10 -25s-3.33301 -18.333 -10 -25c-6.66699 -6 -15 -9 -25 -9s-18.333 3 -25 9z" />
    <glyph glyph-name="igrave" unicode="&#xec;" horiz-adv-x="222" 
d="M131 0h-40v520h40v-520zM-24 709l22 33l158 -109l-17 -23z" />
    <glyph glyph-name="iacute" unicode="&#xed;" horiz-adv-x="222" 
d="M131 0h-40v520h40v-520zM71 633l158 109l22 -33l-164 -99z" />
    <glyph glyph-name="icircumflex" unicode="&#xee;" horiz-adv-x="222" 
d="M131 0h-40v520h40v-520zM-19 610l-18 22l146 117h4l146 -117l-19 -22l-129 95z" />
    <glyph glyph-name="idieresis" unicode="&#xef;" horiz-adv-x="222" 
d="M131 0h-40v520h40v-520zM13 682c14 0.666992 23.833 -4.99805 29.5 -16.998s5.66699 -24 0 -36s-15.5 -17.333 -29.5 -16c-10.667 0 -19.167 3.66699 -25.5 11s-9.5 15.166 -9.5 23.499s3.16699 16.166 9.5 23.499s14.833 11 25.5 11zM183 622.002
c-6 6.66699 -9 15 -9 25s3 18.333 9 25c6.66699 6.66699 15 10 25 10s18.333 -3.33301 25 -10s10 -15 10 -25s-3.33301 -18.333 -10 -25c-6.66699 -6 -15 -9 -25 -9s-18.333 3 -25 9z" />
    <glyph glyph-name="eth" unicode="&#xf0;" horiz-adv-x="644" 
d="M160 422c-42.667 -42.667 -64 -96.667 -64 -162s21.333 -119.333 64 -162c43.333 -43.333 97.333 -65 162 -65c64 0 117.667 21.667 161 65s65 97.333 65 162s-21.667 118.667 -65 162s-97 65 -161 65c-64.667 0 -118.667 -21.667 -162 -65zM303 695l-59 -96.001l-30 18
l54 87c-39.333 8.66699 -85.666 13 -138.999 13v40c60 0 113.667 -5.66699 161 -17l52 85l30 -18l-47 -77c176 -56 264 -212.667 264 -470c0 -76 -25.667 -139.667 -77 -191c-50.667 -50.667 -114 -76 -190 -76c-76.667 0 -140.334 25.333 -191.001 76
s-76 114.334 -76 191.001c0 76 25.333 139.333 76 190c51.333 51.333 115 77 191 77c43.333 0 83.5 -8.83301 120.5 -26.5s67.5 -42.167 91.5 -73.5c-30.667 142.667 -107.667 232 -231 268z" />
    <glyph glyph-name="ntilde" unicode="&#xf1;" horiz-adv-x="647" 
d="M131 0h-39.999v520h40v-115c13.333 26 34.666 51.333 63.999 76c36 30.667 86.667 46 152 46c60.667 0 111.334 -20.333 152.001 -61c40.667 -40 61 -90.667 61 -152v-314h-40v307c0 51.333 -17.333 94.333 -52 129c-34 34.667 -76.667 52 -128 52
c-58.667 0 -108.334 -17.667 -149.001 -53c-40 -35.333 -60 -79 -60 -131v-304zM219.001 614l-34.999 0.000976562c0 24 8.5 44.5 25.5 61.5s37.5 25.5 61.5 25.5c17.333 0 37.333 -9.66699 60 -29s40 -29 52 -29c14 0 26 5.16699 36 15.5s15 23.5 15 39.5h35
c0 -26 -8.16699 -47.167 -24.5 -63.5s-36.5 -24.5 -60.5 -24.5c-20.667 0 -41.334 9.66699 -62.001 29c-19.333 19.333 -36 29 -50 29c-14.667 0 -27.167 -5.33301 -37.5 -16s-15.5 -23.334 -15.5 -38.001z" />
    <glyph glyph-name="ograve" unicode="&#xf2;" horiz-adv-x="644" 
d="M131 69c-50.667 50.667 -75.998 114.332 -75.998 190.999c0 76 25.333 139.333 76 190c51.333 51.333 115 77 191 77c75.333 0 138.666 -25.667 189.999 -77s77 -114.666 77 -189.999c0 -76 -25.667 -139.667 -77 -191c-50.667 -50.667 -114 -76 -190 -76
c-76.667 0 -140.334 25.333 -191.001 76zM160.002 421.998c-42.667 -42.667 -64 -96.667 -64 -162s21.333 -119.333 64 -162c43.333 -43.333 97.333 -65 162 -65c64 0 117.667 21.667 161 65s65 97.333 65 162s-21.667 118.667 -65 162s-97 65 -161 65
c-64.667 0 -118.667 -21.667 -162 -65zM347.002 609.998l-163 99l22 33l158 -109z" />
    <glyph glyph-name="oacute" unicode="&#xf3;" horiz-adv-x="644" 
d="M131 69c-50.667 50.667 -75.998 114.332 -75.998 190.999c0 76 25.333 139.333 76 190c51.333 51.333 115 77 191 77c75.333 0 138.666 -25.667 189.999 -77s77 -114.666 77 -189.999c0 -76 -25.667 -139.667 -77 -191c-50.667 -50.667 -114 -76 -190 -76
c-76.667 0 -140.334 25.333 -191.001 76zM160.002 421.998c-42.667 -42.667 -64 -96.667 -64 -162s21.333 -119.333 64 -162c43.333 -43.333 97.333 -65 162 -65c64 0 117.667 21.667 161 65s65 97.333 65 162s-21.667 118.667 -65 162s-97 65 -161 65
c-64.667 0 -118.667 -21.667 -162 -65zM301.002 609.998l-16 23l157 109l23 -33z" />
    <glyph glyph-name="ocircumflex" unicode="&#xf4;" horiz-adv-x="644" 
d="M131 69c-50.667 50.667 -75.998 114.332 -75.998 190.999c0 76 25.333 139.333 76 190c51.333 51.333 115 77 191 77c75.333 0 138.666 -25.667 189.999 -77s77 -114.666 77 -189.999c0 -76 -25.667 -139.667 -77 -191c-50.667 -50.667 -114 -76 -190 -76
c-76.667 0 -140.334 25.333 -191.001 76zM160.002 421.998c-42.667 -42.667 -64 -96.667 -64 -162s21.333 -119.333 64 -162c43.333 -43.333 97.333 -65 162 -65c64 0 117.667 21.667 161 65s65 97.333 65 162s-21.667 118.667 -65 162s-97 65 -161 65
c-64.667 0 -118.667 -21.667 -162 -65zM322.002 703.998l-130 -94l-18 22l145 117h5l146 -117l-19 -22z" />
    <glyph glyph-name="otilde" unicode="&#xf5;" horiz-adv-x="644" 
d="M131 69c-50.667 50.667 -75.998 114.332 -75.998 190.999c0 76 25.333 139.333 76 190c51.333 51.333 115 77 191 77c75.333 0 138.666 -25.667 189.999 -77s77 -114.666 77 -189.999c0 -76 -25.667 -139.667 -77 -191c-50.667 -50.667 -114 -76 -190 -76
c-76.667 0 -140.334 25.333 -191.001 76zM160.002 421.998c-42.667 -42.667 -64 -96.667 -64 -162s21.333 -119.333 64 -162c43.333 -43.333 97.333 -65 162 -65c64 0 117.667 21.667 161 65s65 97.333 65 162s-21.667 118.667 -65 162s-97 65 -161 65
c-64.667 0 -118.667 -21.667 -162 -65zM214.002 613.998l-34.999 0.000976562c0 24 8.5 44.5 25.5 61.5s37.5 25.5 61.5 25.5c19.333 0 39.333 -9.66699 60 -29s38 -29 52 -29s26 5.16699 36 15.5s15 23.5 15 39.5h35c0 -26 -8.16699 -47.167 -24.5 -63.5
s-36.5 -24.5 -60.5 -24.5c-20.667 0 -41.334 9.66699 -62.001 29c-19.333 19.333 -36 29 -50 29c-14.667 0 -27.167 -5.33301 -37.5 -16s-15.5 -23.334 -15.5 -38.001z" />
    <glyph glyph-name="odieresis" unicode="&#xf6;" horiz-adv-x="644" 
d="M131 69c-50.667 50.667 -75.998 114.332 -75.998 190.999c0 76 25.333 139.333 76 190c51.333 51.333 115 77 191 77c75.333 0 138.666 -25.667 189.999 -77s77 -114.666 77 -189.999c0 -76 -25.667 -139.667 -77 -191c-50.667 -50.667 -114 -76 -190 -76
c-76.667 0 -140.334 25.333 -191.001 76zM160.002 421.998c-42.667 -42.667 -64 -96.667 -64 -162s21.333 -119.333 64 -162c43.333 -43.333 97.333 -65 162 -65c64 0 117.667 21.667 161 65s65 97.333 65 162s-21.667 118.667 -65 162s-97 65 -161 65
c-64.667 0 -118.667 -21.667 -162 -65zM221.002 681.998c14 0.666992 23.833 -4.99805 29.5 -16.998s5.66699 -24 0 -36s-15.5 -17.333 -29.5 -16c-10.667 0 -19.167 3.66699 -25.5 11s-9.5 15.166 -9.5 23.499s3.16699 16.166 9.5 23.499s14.833 11 25.5 11zM397.002 622
c-6 6.66699 -9 15 -9 25s3 18.333 9 25c6.66699 6.66699 15 10 25 10s18.333 -3.33301 25 -10s10 -15 10 -25s-3.33301 -18.333 -10 -25c-6.66699 -6 -15 -9 -25 -9s-18.333 3 -25 9z" />
    <glyph glyph-name="divide" unicode="&#xf7;" horiz-adv-x="600" 
d="M76 331v38h448v-38h-448zM272 145c-7.33301 8 -11 17.667 -11 29s3.66699 20.666 11 27.999s16.666 11 27.999 11s20.666 -3.66699 27.999 -11s11 -16.666 11 -27.999s-3.66699 -21 -11 -29c-7.33301 -7.33301 -16.666 -11 -27.999 -11s-20.666 3.66699 -27.999 11z
M261 526c0 16.667 6.49707 28.334 19.4971 35.001s26 6.66699 39 0s19.5 -18.334 19.5 -35.001c0.666992 -16 -5.66602 -27.167 -18.999 -33.5s-26.666 -6.33301 -39.999 0s-19.666 17.5 -18.999 33.5z" />
    <glyph glyph-name="oslash" unicode="&#xf8;" horiz-adv-x="644" 
d="M322 527c50 0 96.334 -12.333 139.001 -37l26 37l29 -21l-25 -36c65.333 -53.333 98 -123.333 98 -210c0 -76 -25.667 -139.667 -77 -191c-50.667 -50.667 -114 -76 -190 -76c-50 0 -96.333 12.333 -139 37l-26 -37l-30 20l27 38c-30.667 24 -54.834 54.333 -72.501 91
s-26.5 76 -26.5 118c0 76 25.333 139.333 76 190c51.333 51.333 115 77 191 77zM467.001 435l-259.999 -371c33.333 -20.667 71.666 -31 114.999 -31c64 0 117.667 21.667 161 65s65 97.333 65 162c0 74 -27 132.333 -81 175zM177.002 84l259.999 372
c-33.333 20.667 -71.666 31 -114.999 31c-64.667 0 -118.667 -21.667 -162 -65c-42.667 -42.667 -64 -96.667 -64 -162c0 -73.333 27 -132 81 -176z" />
    <glyph glyph-name="ugrave" unicode="&#xf9;" horiz-adv-x="647" 
d="M87 206l-0.000976562 314h40v-307c0 -51.333 17 -94.333 51 -129c34.667 -34.667 77.667 -52 129 -52c60 0 109.667 17.333 149 52c40 34.667 60 78.667 60 132v304h40v-520h-40v115c-13.333 -26 -34.666 -51.333 -63.999 -76c-36 -30.667 -86.667 -46 -152 -46
c-61.333 0 -112.333 20 -153 60c-40 40.667 -60 91.667 -60 153zM363.999 633l-17 -23l-163 99l22 33z" />
    <glyph glyph-name="uacute" unicode="&#xfa;" horiz-adv-x="647" 
d="M87 206l-0.000976562 314h40v-307c0 -51.333 17 -94.333 51 -129c34.667 -34.667 77.667 -52 129 -52c60 0 109.667 17.333 149 52c40 34.667 60 78.667 60 132v304h40v-520h-40v115c-13.333 -26 -34.666 -51.333 -63.999 -76c-36 -30.667 -86.667 -46 -152 -46
c-61.333 0 -112.333 20 -153 60c-40 40.667 -60 91.667 -60 153zM464.999 709l-164 -99l-16 23l157 109z" />
    <glyph glyph-name="ucircumflex" unicode="&#xfb;" horiz-adv-x="647" 
d="M87 206l-0.000976562 314h40v-307c0 -51.333 17 -94.333 51 -129c34.667 -34.667 77.667 -52 129 -52c60 0 109.667 17.333 149 52c40 34.667 60 78.667 60 132v304h40v-520h-40v115c-13.333 -26 -34.666 -51.333 -63.999 -76c-36 -30.667 -86.667 -46 -152 -46
c-61.333 0 -112.333 20 -153 60c-40 40.667 -60 91.667 -60 153zM321.999 704l-130 -94l-18 22l145 117h5l146 -117l-19 -22z" />
    <glyph glyph-name="udieresis" unicode="&#xfc;" horiz-adv-x="647" 
d="M300 -7c-61.333 0 -112.334 20 -153.001 60c-40 40.667 -60 91.667 -60 153v314h40v-307c0 -51.333 17 -94.333 51 -129c34.667 -34.667 77.667 -52 129 -52c60 0 109.667 17.333 149 52c40 34.667 60 78.667 60 132v304h40v-520h-40v115
c-13.333 -26 -34.666 -51.333 -63.999 -76c-36 -30.667 -86.667 -46 -152 -46zM396.999 622c-6 6.66699 -9 15 -9 25s3 18.333 9 25c6.66699 6.66699 15 10 25 10s18.333 -3.33301 25 -10s10 -15 10 -25s-3.33301 -18.333 -10 -25c-6.66699 -6 -15 -9 -25 -9
s-18.333 3 -25 9zM220.999 613c-10.667 0 -19.167 3.66895 -25.5 11.002s-9.5 15.166 -9.5 23.499s3.16699 16.166 9.5 23.499s14.833 11 25.5 11c14 0.666992 23.833 -5 29.5 -17s5.66699 -24 0 -36s-15.5 -17.333 -29.5 -16z" />
    <glyph glyph-name="yacute" unicode="&#xfd;" horiz-adv-x="518" 
d="M186 -99l50.001 113.999l-218 505h42l197 -457l201 457h42l-279 -633c-17.333 -39.333 -37.833 -67.833 -61.5 -85.5s-53.167 -26.5 -88.5 -26.5h-28v39h28c26.667 0 49.167 6.83301 67.5 20.5s34.166 35.834 47.499 66.501zM238.001 609.999l-16 23l158 109l22 -33z" />
    <glyph glyph-name="thorn" unicode="&#xfe;" 
d="M131 -225l-39.999 -0.00292969v975h40v-355c22 40.667 53 72.834 93 96.501s84 35.5 132 35.5c73.333 0 134.666 -25.667 183.999 -77s74 -114.666 74 -189.999c0 -76 -24.667 -139.667 -74 -191c-48.667 -50.667 -110 -76 -184 -76c-48 0 -92 11.833 -132 35.5
s-71 55.834 -93 96.501v-350zM510.001 421.997c-42 43.333 -94.333 65 -157 65s-115 -21.667 -157 -65c-42 -42.667 -63 -96.667 -63 -162s21 -119.333 63 -162c42 -43.333 94.333 -65 157 -65s115 21.667 157 65c42 42.667 63 96.667 63 162s-21 119.333 -63 162z" />
    <glyph glyph-name="ydieresis" unicode="&#xff;" horiz-adv-x="518" 
d="M236 15l-217.999 504.999h42l197 -457l201 457h42l-279 -633c-17.333 -39.333 -37.833 -67.833 -61.5 -85.5s-53.167 -26.5 -88.5 -26.5h-28v39h28c26.667 0 49.167 6.83301 67.5 20.5s34.166 35.834 47.499 66.501zM158.001 681.999c14 0.666992 24.001 -5 30.001 -17
s6.16699 -24 0.5 -36s-15.834 -17.333 -30.501 -16c-14 -1.33301 -24 4 -30 16s-6 24 0 36s16 17.667 30 17zM360.002 681.999c14 0.666992 23.833 -4.99805 29.5 -16.998s5.66699 -24 0 -36s-15.5 -17.333 -29.5 -16c-10.667 0 -19.167 3.66699 -25.5 11
s-9.5 15.166 -9.5 23.499s3.16699 16.166 9.5 23.499s14.833 11 25.5 11z" />
    <glyph glyph-name="Amacron" unicode="&#x100;" horiz-adv-x="715" 
d="M71 0h-45l316 700h31l316 -700h-45l-83 184h-407zM543 224l-186 413l-185 -413h371zM226 797v36h262v-36h-262z" />
    <glyph glyph-name="amacron" unicode="&#x101;" 
d="M313 527c48 0 92.001 -11.8301 132.001 -35.4971s71 -55.834 93 -96.501v125h40v-520h-40v125c-22 -40.667 -53 -72.834 -93 -96.501s-84 -35.5 -132 -35.5c-74 0 -135.333 25.333 -184 76c-49.333 51.333 -74 115 -74 191c0 75.333 24.667 138.666 74 189.999
s110.666 77 183.999 77zM473.001 422.003c-42 43.333 -94.333 65 -157 65s-115 -21.667 -157 -65c-42 -42.667 -63 -96.667 -63 -162s21 -119.333 63 -162c42 -43.333 94.333 -65 157 -65s115 21.667 157 65c42 42.667 63 96.667 63 162s-21 119.333 -63 162z
M466.001 671.003v-36h-262v36h262z" />
    <glyph glyph-name="Abreve" unicode="&#x102;" horiz-adv-x="715" 
d="M154 184l-83 -184h-45l316 700h31l316 -700h-45l-83 184h-407zM543 224l-186 413l-185 -413h371zM225 890h35c0 -28.667 9.33301 -52.334 28 -71.001s42 -28 70 -28c27.333 0 50.333 9.33301 69 28s28 42.334 28 71.001h35c0 -38 -12.667 -69.5 -38 -94.5
s-57 -37.5 -95 -37.5s-69.5 12.5 -94.5 37.5s-37.5 56.5 -37.5 94.5z" />
    <glyph glyph-name="abreve" unicode="&#x103;" 
d="M313 -7c-74 0 -135.332 25.3359 -183.999 76.0029c-49.333 51.333 -74 115 -74 191c0 75.333 24.667 138.666 74 189.999s110.666 77 183.999 77c48 0 92 -11.833 132 -35.5s71 -55.834 93 -96.501v125h40v-520h-40v125c-22 -40.667 -53 -72.834 -93 -96.501
s-84 -35.5 -132 -35.5zM159.001 422.003c-42 -42.667 -63 -96.667 -63 -162s21 -119.333 63 -162c42 -43.333 94.333 -65 157 -65s115 21.667 157 65c42 42.667 63 96.667 63 162s-21 119.333 -63 162c-42 43.333 -94.333 65 -157 65s-115 -21.667 -157 -65z
M335.001 596.003c-38.667 0 -70.5 12.5 -95.5 37.5s-37.5 56.5 -37.5 94.5h35c0 -28.667 9.33301 -52.334 28 -71.001s42 -28 70 -28s51.167 9.33301 69.5 28s27.5 42.334 27.5 71.001h35c0 -38 -12.667 -69.667 -38 -95c-24.667 -24.667 -56 -37 -94 -37z" />
    <glyph glyph-name="Aogonek" unicode="&#x104;" horiz-adv-x="715" 
d="M154 184l-83.001 -184.001h-45l316 700h31l316 -700h-4c-6.66699 -5.33301 -12.667 -10.666 -18 -15.999c-7.33301 -7.33301 -16.666 -20 -27.999 -38c-11.333 -19.333 -17 -36.666 -17 -51.999c0 -16.667 4.83301 -30.167 14.5 -40.5s21.834 -15.5 36.501 -15.5
c21.333 0 40 8 56 24l8 7l18 -19l-12 -12c-5.33301 -6.66699 -16 -13.667 -32 -21s-31 -11 -45 -11c-22.667 0 -41.334 7.66699 -56.001 23s-22 34.666 -22 57.999c0 17.333 5 35.333 15 54s21 33.667 33 45l15 14h-7l-83 184h-407zM542.999 223.999l-186 413l-185 -413h371
z" />
    <glyph glyph-name="aogonek" unicode="&#x105;" 
d="M313 -7c-74 0 -135.331 25.335 -183.998 76.002c-49.333 51.333 -74 115 -74 191c0 75.333 24.667 138.666 74 189.999s110.666 77 183.999 77c48 0 92 -11.833 132 -35.5s71 -55.834 93 -96.501v125h40v-520h-3c-6.66699 -5.33301 -12.667 -10.666 -18 -15.999
c-8 -8 -17 -20.667 -27 -38c-11.333 -19.333 -17 -36.666 -17 -51.999c0 -16.667 4.66699 -30.167 14 -40.5s21.666 -15.5 36.999 -15.5c21.333 0 40 8 56 24l8 7l17 -19l-12 -12c-5.33301 -6.66699 -15.833 -13.667 -31.5 -21s-30.5 -11 -44.5 -11
c-22.667 0 -41.5 7.66699 -56.5 23s-22.5 34.666 -22.5 57.999c0 17.333 4.83301 35.333 14.5 54s20.5 33.667 32.5 45l16 14h-3v125c-22 -40.667 -53 -72.834 -93 -96.501s-84 -35.5 -132 -35.5zM159.002 422.002c-42 -42.667 -63 -96.667 -63 -162s21 -119.333 63 -162
c42 -43.333 94.333 -65 157 -65s115 21.667 157 65c42 42.667 63 96.667 63 162s-21 119.333 -63 162c-42 43.333 -94.333 65 -157 65s-115 -21.667 -157 -65z" />
    <glyph glyph-name="Cacute" unicode="&#x106;" horiz-adv-x="788" 
d="M64 350c0 102 34 186.999 102 254.999s153 102 255 102c65.333 0 124.666 -14.667 177.999 -44s95.333 -70 126 -122l-39 -16c-28 44 -65.167 78.5 -111.5 103.5s-97.5 37.5 -153.5 37.5c-89.333 0 -164 -30.333 -224 -91c-60 -60 -90 -135 -90 -225
c0 -89.333 30 -164.666 90 -225.999c60 -60 134.667 -90 224 -90c56 0 107.167 12.5 153.5 37.5s83.5 59.5 111.5 103.5l39 -16c-30.667 -52 -72.667 -92.667 -126 -122s-112.666 -44 -177.999 -44c-102 0 -187 34 -255 102c-68 68.667 -102 153.667 -102 255zM393 771.999
l-16 23l157 109l23 -33z" />
    <glyph glyph-name="cacute" unicode="&#x107;" horiz-adv-x="608" 
d="M559 386l-39.999 -12.999c-18.667 35.333 -45.334 63.166 -80.001 83.499s-73.667 30.5 -117 30.5c-64.667 0 -118.667 -21.667 -162 -65c-42.667 -42.667 -64 -96.667 -64 -162s21.333 -119.333 64 -162c43.333 -43.333 97.333 -65 162 -65
c43.333 0 82.333 10.167 117 30.5s61.334 48.166 80.001 83.499l40 -13c-22 -44 -54 -78.5 -96 -103.5s-89 -37.5 -141 -37.5c-76.667 0 -140.334 25.333 -191.001 76s-76 114.334 -76 191.001c0 76 25.333 139.333 76 190c51.333 51.333 115 77 191 77
c52 0 99 -12.5 141 -37.5s74 -59.5 96 -103.5zM308.001 610.001l-17 23l158 109l22 -33z" />
    <glyph glyph-name="Ccircumflex" unicode="&#x108;" horiz-adv-x="788" 
d="M64 350c0 102 34 186.999 102 254.999s153 102 255 102c65.333 0 124.666 -14.667 177.999 -44s95.333 -70 126 -122l-39 -16c-28 44 -65.167 78.5 -111.5 103.5s-97.5 37.5 -153.5 37.5c-89.333 0 -164 -30.333 -224 -91c-60 -60 -90 -135 -90 -225
c0 -89.333 30 -164.666 90 -225.999c60 -60 134.667 -90 224 -90c56 0 107.167 12.5 153.5 37.5s83.5 59.5 111.5 103.5l39 -16c-30.667 -52 -72.667 -92.667 -126 -122s-112.666 -44 -177.999 -44c-102 0 -187 34 -255 102c-68 68.667 -102 153.667 -102 255zM414 865.999
l-130 -94l-18 22l145 117h5l146 -117l-19 -22z" />
    <glyph glyph-name="ccircumflex" unicode="&#x109;" horiz-adv-x="608" 
d="M559 386l-39.999 -12.999c-18.667 35.333 -45.334 63.166 -80.001 83.499s-73.667 30.5 -117 30.5c-64.667 0 -118.667 -21.667 -162 -65c-42.667 -42.667 -64 -96.667 -64 -162s21.333 -119.333 64 -162c43.333 -43.333 97.333 -65 162 -65
c43.333 0 82.333 10.167 117 30.5s61.334 48.166 80.001 83.499l40 -13c-22 -44 -54 -78.5 -96 -103.5s-89 -37.5 -141 -37.5c-76.667 0 -140.334 25.333 -191.001 76s-76 114.334 -76 191.001c0 76 25.333 139.333 76 190c51.333 51.333 115 77 191 77
c52 0 99 -12.5 141 -37.5s74 -59.5 96 -103.5zM329.001 704.001l-130 -94l-18 22l145 117h5l145 -117l-18 -22z" />
    <glyph glyph-name="Cdotaccent" unicode="&#x10a;" horiz-adv-x="788" 
d="M64 350c0 102 34 186.999 102 254.999s153 102 255 102c65.333 0 124.666 -14.667 177.999 -44s95.333 -70 126 -122l-39 -16c-28 44 -65.167 78.5 -111.5 103.5s-97.5 37.5 -153.5 37.5c-89.333 0 -164 -30.333 -224 -91c-60 -60 -90 -135 -90 -225
c0 -89.333 30 -164.666 90 -225.999c60 -60 134.667 -90 224 -90c56 0 107.167 12.5 153.5 37.5s83.5 59.5 111.5 103.5l39 -16c-30.667 -52 -72.667 -92.667 -126 -122s-112.666 -44 -177.999 -44c-102 0 -187 34 -255 102c-68 68.667 -102 153.667 -102 255zM414 774.999
c-14.667 0 -25 5.83105 -31 17.498s-5.83301 23.5 0.5 35.5s16.5 18 30.5 18c14 0.666992 24 -5.16602 30 -17.499s6 -24.666 0 -36.999s-16 -17.833 -30 -16.5z" />
    <glyph glyph-name="cdotaccent" unicode="&#x10b;" horiz-adv-x="608" 
d="M559 386l-39.999 -12.999c-18.667 35.333 -45.334 63.166 -80.001 83.499s-73.667 30.5 -117 30.5c-64.667 0 -118.667 -21.667 -162 -65c-42.667 -42.667 -64 -96.667 -64 -162s21.333 -119.333 64 -162c43.333 -43.333 97.333 -65 162 -65
c43.333 0 82.333 10.167 117 30.5s61.334 48.166 80.001 83.499l40 -13c-22 -44 -54 -78.5 -96 -103.5s-89 -37.5 -141 -37.5c-76.667 0 -140.334 25.333 -191.001 76s-76 114.334 -76 191.001c0 76 25.333 139.333 76 190c51.333 51.333 115 77 191 77
c52 0 99 -12.5 141 -37.5s74 -59.5 96 -103.5zM329.001 684.001c14 0.666992 24 -5.16797 30 -17.501s6 -24.666 0 -36.999s-16 -17.833 -30 -16.5c-14.667 0 -25 5.83301 -31 17.5s-6 23.5 0 35.5s16.333 18 31 18z" />
    <glyph glyph-name="Ccaron" unicode="&#x10c;" horiz-adv-x="788" 
d="M64 350c0 102 34 186.999 102 254.999s153 102 255 102c65.333 0 124.666 -14.667 177.999 -44s95.333 -70 126 -122l-39 -16c-28 44 -65.167 78.5 -111.5 103.5s-97.5 37.5 -153.5 37.5c-89.333 0 -164 -30.333 -224 -91c-60 -60 -90 -135 -90 -225
c0 -89.333 30 -164.666 90 -225.999c60 -60 134.667 -90 224 -90c56 0 107.167 12.5 153.5 37.5s83.5 59.5 111.5 103.5l39 -16c-30.667 -52 -72.667 -92.667 -126 -122s-112.666 -44 -177.999 -44c-102 0 -187 34 -255 102c-68 68.667 -102 153.667 -102 255zM414 815.999
l129 94l19 -21l-146 -117h-5l-145 117l18 22z" />
    <glyph glyph-name="ccaron" unicode="&#x10d;" horiz-adv-x="608" 
d="M559 386l-39.999 -12.999c-18.667 35.333 -45.334 63.166 -80.001 83.499s-73.667 30.5 -117 30.5c-64.667 0 -118.667 -21.667 -162 -65c-42.667 -42.667 -64 -96.667 -64 -162s21.333 -119.333 64 -162c43.333 -43.333 97.333 -65 162 -65
c43.333 0 82.333 10.167 117 30.5s61.334 48.166 80.001 83.499l40 -13c-22 -44 -54 -78.5 -96 -103.5s-89 -37.5 -141 -37.5c-76.667 0 -140.334 25.333 -191.001 76s-76 114.334 -76 191.001c0 76 25.333 139.333 76 190c51.333 51.333 115 77 191 77
c52 0 99 -12.5 141 -37.5s74 -59.5 96 -103.5zM329.001 654.001l129 94l18 -21l-145 -117h-5l-145 117l18 22z" />
    <glyph glyph-name="Dcaron" unicode="&#x10e;" horiz-adv-x="790" 
d="M369 0h-269v700h269c100.667 0 185.334 -33.667 254.001 -101c68.667 -66.667 103 -149.667 103 -249s-34.333 -182.333 -103 -249c-68.667 -67.333 -153.334 -101 -254.001 -101zM369 660l-227 -0.000976562v-620h227c88.667 0 163.334 29.667 224.001 89
c60 58.667 90 132.334 90 221.001c0 88 -30 161.667 -90 221c-60.667 59.333 -135.334 89 -224.001 89zM258 771.999l-145 117l18 22l130 -95l129 94l18 -21l-145 -117h-5z" />
    <glyph glyph-name="dcaron" unicode="&#x10f;" horiz-adv-x="751" 
d="M313 527c50 0 95.168 -12.832 135.501 -38.499s70.166 -60.5 89.499 -104.5v366h40v-750h-40v136c-19.333 -44 -49.166 -78.833 -89.499 -104.5s-85.5 -38.5 -135.5 -38.5c-74 0 -135.333 25.333 -184 76c-49.333 51.333 -74 115 -74 191
c0 75.333 24.667 138.666 74 189.999s110.666 77 183.999 77zM159.001 422.001c-42 -42.667 -63 -96.667 -63 -162s21 -119.333 63 -162c42 -43.333 94.667 -65 158 -65s116 21.667 158 65c42 42.667 63 96.667 63 162s-21 119.333 -63 162c-42 43.333 -94.667 65 -158 65
s-116 -21.667 -158 -65zM677.001 606.001l-12.001 13c4 2.66699 7.66699 5.66699 11 9c6 5.33301 12.167 14 18.5 26s8.83301 23.667 7.5 35c-13.333 0.666992 -23 6.66699 -29 18s-6.16699 22.5 -0.5 33.5s15.834 16.5 30.501 16.5c25.333 0 38 -16.667 38 -50
c0 -18.667 -5.33301 -36.5 -16 -53.5s-21.167 -29.667 -31.5 -38s-15.833 -11.5 -16.5 -9.5z" />
    <glyph glyph-name="Dcroat" unicode="&#x110;" horiz-adv-x="794" 
d="M10 331v38h94v331h269c100.667 0 185.334 -33.667 254.001 -101c68.667 -66.667 103 -149.667 103 -249s-34.333 -182.333 -103 -249c-68.667 -67.333 -153.334 -101 -254.001 -101h-269v331h-94zM146 660v-291.001h230v-38h-230v-291h227
c88.667 0 163.334 29.667 224.001 89c60 58.667 90 132.334 90 221.001c0 88 -30 161.667 -90 221c-60.667 59.333 -135.334 89 -224.001 89h-227z" />
    <glyph glyph-name="dslash" unicode="&#x111;" 
d="M313 527c48 0 92.001 -11.8301 132.001 -35.4971s71 -55.834 93 -96.501v217h-226v34h226v104h40v-104h74v-34h-74v-612h-40v125c-22 -40.667 -53 -72.834 -93 -96.501s-84 -35.5 -132 -35.5c-74 0 -135.333 25.333 -184 76c-49.333 51.333 -74 115 -74 191
c0 75.333 24.667 138.666 74 189.999s110.666 77 183.999 77zM473.001 422.003c-42 43.333 -94.333 65 -157 65s-115 -21.667 -157 -65c-42 -42.667 -63 -96.667 -63 -162s21 -119.333 63 -162c42 -43.333 94.333 -65 157 -65s115 21.667 157 65c42 42.667 63 96.667 63 162
s-21 119.333 -63 162z" />
    <glyph glyph-name="Emacron" unicode="&#x112;" horiz-adv-x="639" 
d="M100 700h491v-40h-449v-285h402v-40h-402v-295h454v-40h-496v700zM204 797v36h262v-36h-262z" />
    <glyph glyph-name="emacron" unicode="&#x113;" horiz-adv-x="629" 
d="M579 251l-482.998 0.000976562c2 -63.333 24.667 -116 68 -158c43.333 -41.333 97.666 -62 162.999 -62c83.333 0 146.666 33 189.999 99l39 -14c-24 -38.667 -56.167 -68.834 -96.5 -90.501s-84.5 -32.5 -132.5 -32.5c-78.667 0 -143.667 25.333 -195 76
c-51.333 51.333 -77 115 -77 191c0 75.333 25 138.666 75 189.999c51.333 51.333 114 77 188 77c74.667 0 137 -25.667 187 -77s75 -114.666 75 -189.999c0 -4.66699 -0.333008 -7.66699 -1 -9zM97.002 286.001h441.001c-4.66699 58 -28.334 106.333 -71.001 145
c-40.667 38.667 -90.667 58 -150 58s-109.333 -19.333 -150 -58c-42 -38.667 -65.333 -87 -70 -145zM453.003 635.001h-262v36h262v-36z" />
    <glyph glyph-name="Ebreve" unicode="&#x114;" horiz-adv-x="639" 
d="M100 700h491v-40h-449v-285h402v-40h-402v-295h454v-40h-496v700zM203 890h35c0 -28.667 9.33301 -52.334 28 -71.001s42 -28 70 -28c27.333 0 50.333 9.33301 69 28s28 42.334 28 71.001h35c0 -38 -12.667 -69.5 -38 -94.5s-57 -37.5 -95 -37.5s-69.5 12.5 -94.5 37.5
s-37.5 56.5 -37.5 94.5z" />
    <glyph glyph-name="ebreve" unicode="&#x115;" horiz-adv-x="629" 
d="M579 251l-482.998 0.000976562c2 -63.333 24.667 -116 68 -158c43.333 -41.333 97.666 -62 162.999 -62c83.333 0 146.666 33 189.999 99l39 -14c-24 -38.667 -56.167 -68.834 -96.5 -90.501s-84.5 -32.5 -132.5 -32.5c-78.667 0 -143.667 25.333 -195 76
c-51.333 51.333 -77 115 -77 191c0 75.333 25 138.666 75 189.999c51.333 51.333 114 77 188 77c74.667 0 137 -25.667 187 -77s75 -114.666 75 -189.999c0 -4.66699 -0.333008 -7.66699 -1 -9zM97.002 286.001h441.001c-4.66699 58 -28.334 106.333 -71.001 145
c-40.667 38.667 -90.667 58 -150 58s-109.333 -19.333 -150 -58c-42 -38.667 -65.333 -87 -70 -145zM189.003 728.001h35c0 -28.667 9.33301 -52.334 28 -71.001s42 -28 70 -28s51.167 9.33301 69.5 28s27.5 42.334 27.5 71.001h35c0 -38 -12.667 -69.667 -38 -95
c-24.667 -24.667 -56 -37 -94 -37c-38.667 0 -70.5 12.5 -95.5 37.5s-37.5 56.5 -37.5 94.5z" />
    <glyph glyph-name="Edotaccent" unicode="&#x116;" horiz-adv-x="639" 
d="M100 700h491v-40h-449v-285h402v-40h-402v-295h454v-40h-496v700zM310 785c-6.66699 6.66699 -10 15 -10 25s3.33301 18.333 10 25c6.66699 7.33301 15 11 25 11s18.333 -3.66699 25 -11c7.33301 -6.66699 11 -15 11 -25s-3.66699 -18.333 -11 -25
c-6.66699 -6.66699 -15 -10 -25 -10s-18.333 3.33301 -25 10z" />
    <glyph glyph-name="edotaccent" unicode="&#x117;" horiz-adv-x="629" 
d="M579 251l-482.998 0.000976562c2 -63.333 24.667 -116 68 -158c43.333 -41.333 97.666 -62 162.999 -62c83.333 0 146.666 33 189.999 99l39 -14c-24 -38.667 -56.167 -68.834 -96.5 -90.501s-84.5 -32.5 -132.5 -32.5c-78.667 0 -143.667 25.333 -195 76
c-51.333 51.333 -77 115 -77 191c0 75.333 25 138.666 75 189.999c51.333 51.333 114 77 188 77c74.667 0 137 -25.667 187 -77s75 -114.666 75 -189.999c0 -4.66699 -0.333008 -7.66699 -1 -9zM97.002 286.001h441.001c-4.66699 58 -28.334 106.333 -71.001 145
c-40.667 38.667 -90.667 58 -150 58s-109.333 -19.333 -150 -58c-42 -38.667 -65.333 -87 -70 -145zM322.003 684.001c14 0.666992 24 -5.16797 30 -17.501s6 -24.666 0 -36.999s-16 -17.833 -30 -16.5c-14.667 0 -25 5.83301 -31 17.5s-6 23.5 0 35.5s16.333 18 31 18z" />
    <glyph glyph-name="Eogonek" unicode="&#x118;" horiz-adv-x="639" 
d="M525 0l-425.002 -0.000976562v700h491v-40h-449v-285h402v-40h-402v-295h454v-40h-37c-6.66699 -5.33301 -12.667 -10.666 -18 -15.999c-7.33301 -7.33301 -16.666 -20 -27.999 -38c-11.333 -19.333 -17 -36.666 -17 -51.999c0 -16.667 4.83301 -30.167 14.5 -40.5
s21.834 -15.5 36.501 -15.5c22 0 41 8 57 24l8 7l17 -19l-12 -12c-5.33301 -6.66699 -15.833 -13.667 -31.5 -21s-30.5 -11 -44.5 -11c-22.667 0 -41.5 7.66699 -56.5 23s-22.5 34.666 -22.5 57.999c0 17.333 5 35.333 15 54s21 33.667 33 45z" />
    <glyph glyph-name="eogonek" unicode="&#x119;" horiz-adv-x="629" 
d="M55 260c0 75.333 25.002 138.667 75.002 190c51.333 51.333 114 77 188 77c74.667 0 137 -25.667 187 -77s75 -114.666 75 -189.999c0 -4.66699 -0.333008 -7.66699 -1 -9h-483c2 -63.333 24.667 -116 68 -158c43.333 -41.333 97.666 -62 162.999 -62
c83.333 0 146.666 33 189.999 99l39 -14c-43.333 -67.333 -104.666 -107.333 -183.999 -120c-38.667 -32.667 -58 -66.667 -58 -102c0 -16.667 4.66699 -30.167 14 -40.5s21.666 -15.5 36.999 -15.5c21.333 0 40 8 56 24l8 7l17 -19l-12 -12
c-5.33301 -6.66699 -15.833 -13.667 -31.5 -21s-30.5 -11 -44.5 -11c-22.667 0 -41.5 7.66699 -56.5 23s-22.5 34.666 -22.5 57.999c0 36 18.333 71.333 55 106c-80 0 -146.667 24.667 -200 74c-52.667 48.667 -79 113 -79 193zM97.002 286.001h441.001
c-4.66699 58 -28.334 106.333 -71.001 145c-40.667 38.667 -90.667 58 -150 58s-109.333 -19.333 -150 -58c-42 -38.667 -65.333 -87 -70 -145z" />
    <glyph glyph-name="Ecaron" unicode="&#x11a;" horiz-adv-x="639" 
d="M100 700h491v-40h-449v-285h402v-40h-402v-295h454v-40h-496v700zM333 772l-146 117l19 22l129 -95l130 94l18 -21l-145 -117h-5z" />
    <glyph glyph-name="ecaron" unicode="&#x11b;" horiz-adv-x="629" 
d="M579 251l-482.998 0.000976562c2 -63.333 24.667 -116 68 -158c43.333 -41.333 97.666 -62 162.999 -62c83.333 0 146.666 33 189.999 99l39 -14c-24 -38.667 -56.167 -68.834 -96.5 -90.501s-84.5 -32.5 -132.5 -32.5c-78.667 0 -143.667 25.333 -195 76
c-51.333 51.333 -77 115 -77 191c0 75.333 25 138.666 75 189.999c51.333 51.333 114 77 188 77c74.667 0 137 -25.667 187 -77s75 -114.666 75 -189.999c0 -4.66699 -0.333008 -7.66699 -1 -9zM97.002 286.001h441.001c-4.66699 58 -28.334 106.333 -71.001 145
c-40.667 38.667 -90.667 58 -150 58s-109.333 -19.333 -150 -58c-42 -38.667 -65.333 -87 -70 -145zM321.003 654.001l130 94l18 -21l-145 -117h-5l-146 117l19 22z" />
    <glyph glyph-name="Gcircumflex" unicode="&#x11c;" horiz-adv-x="837" 
d="M64 350c0 102 34.668 186.999 104.001 254.999s155.666 102 258.999 102c66 0 126.167 -14.667 180.5 -44s96.833 -70 127.5 -122l-39 -16c-28 44 -65.5 78.5 -112.5 103.5s-99.167 37.5 -156.5 37.5c-92 0 -168.333 -30.333 -229 -91c-60.667 -60 -91 -135 -91 -225
c0 -89.333 29.667 -164.666 89 -225.999c59.333 -60 132.666 -90 219.999 -90c82.667 0 153.334 26.667 212.001 80c58 52 90.667 119.333 98 202h-344v40h391c0 -104 -33.667 -190.667 -101 -260c-66.667 -68.667 -151.667 -103 -255 -103c-100 0 -184 34 -252 102
c-67.333 69.333 -101 154.333 -101 255zM414.001 865.999l-130 -94l-18 22l145 117h5l146 -117l-19 -22z" />
    <glyph glyph-name="gcircumflex" unicode="&#x11d;" 
d="M313 -7c-74 0 -135.332 25.335 -183.999 76.002c-49.333 51.333 -74 115 -74 191c0 75.333 24.667 138.666 74 189.999s110.666 77 183.999 77c48 0 92 -11.833 132 -35.5s71 -55.834 93 -96.501v125h40v-489c0 -75.333 -25.667 -138 -77 -188s-115 -75 -191 -75
c-45.333 0 -87.5 9.83301 -126.5 29.5s-69.833 46.5 -92.5 80.5l39 15c42 -56.667 101.667 -85 179 -85c67.333 0 122.333 21.333 165 64c44 42 66 95 66 159l-1 97c-22 -42 -52.833 -75 -92.5 -99s-84.167 -36 -133.5 -36zM473.001 422.002c-42 43.333 -94.333 65 -157 65
s-115 -21.667 -157 -65c-42 -42.667 -63 -96.667 -63 -162s21 -119.333 63 -162c42 -43.333 94.333 -65 157 -65s115 21.667 157 65c42 42.667 63 96.667 63 162s-21 119.333 -63 162zM328.001 704.002l-129 -94l-19 22l146 117h5l145 -117l-18 -22z" />
    <glyph glyph-name="Gbreve" unicode="&#x11e;" horiz-adv-x="837" 
d="M64 350c0 102 34.668 186.999 104.001 254.999s155.666 102 258.999 102c66 0 126.167 -14.667 180.5 -44s96.833 -70 127.5 -122l-39 -16c-28 44 -65.5 78.5 -112.5 103.5s-99.167 37.5 -156.5 37.5c-92 0 -168.333 -30.333 -229 -91c-60.667 -60 -91 -135 -91 -225
c0 -89.333 29.667 -164.666 89 -225.999c59.333 -60 132.666 -90 219.999 -90c82.667 0 153.334 26.667 212.001 80c58 52 90.667 119.333 98 202h-344v40h391c0 -104 -33.667 -190.667 -101 -260c-66.667 -68.667 -151.667 -103 -255 -103c-100 0 -184 34 -252 102
c-67.333 69.333 -101 154.333 -101 255zM282.001 889.999h35c0 -28.667 9.16699 -52.334 27.5 -71.001s41.5 -28 69.5 -28s51.167 9.33301 69.5 28s27.5 42.334 27.5 71.001h35c0 -38 -12.667 -69.667 -38 -95c-24.667 -24.667 -56 -37 -94 -37s-69.5 12.5 -94.5 37.5
s-37.5 56.5 -37.5 94.5z" />
    <glyph glyph-name="gbreve" unicode="&#x11f;" 
d="M313 -7c-74 0 -135.332 25.335 -183.999 76.002c-49.333 51.333 -74 115 -74 191c0 75.333 24.667 138.666 74 189.999s110.666 77 183.999 77c48 0 92 -11.833 132 -35.5s71 -55.834 93 -96.501v125h40v-489c0 -75.333 -25.667 -138 -77 -188s-115 -75 -191 -75
c-45.333 0 -87.5 9.83301 -126.5 29.5s-69.833 46.5 -92.5 80.5l39 15c42 -56.667 101.667 -85 179 -85c67.333 0 122.333 21.333 165 64c44 42 66 95 66 159l-1 97c-22 -42 -52.833 -75 -92.5 -99s-84.167 -36 -133.5 -36zM473.001 422.002c-42 43.333 -94.333 65 -157 65
s-115 -21.667 -157 -65c-42 -42.667 -63 -96.667 -63 -162s21 -119.333 63 -162c42 -43.333 94.333 -65 157 -65s115 21.667 157 65c42 42.667 63 96.667 63 162s-21 119.333 -63 162zM329.001 596.002c-38.667 0 -70.5 12.5 -95.5 37.5s-37.5 56.5 -37.5 94.5h35
c0 -28.667 9.33301 -52.334 28 -71.001s42 -28 70 -28s51.167 9.33301 69.5 28s27.5 42.334 27.5 71.001h35c0 -38 -12.667 -69.667 -38 -95c-24.667 -24.667 -56 -37 -94 -37z" />
    <glyph glyph-name="Gdotaccent" unicode="&#x120;" horiz-adv-x="837" 
d="M64 350c0 102 34.668 186.999 104.001 254.999s155.666 102 258.999 102c66 0 126.167 -14.667 180.5 -44s96.833 -70 127.5 -122l-39 -16c-28 44 -65.5 78.5 -112.5 103.5s-99.167 37.5 -156.5 37.5c-92 0 -168.333 -30.333 -229 -91c-60.667 -60 -91 -135 -91 -225
c0 -89.333 29.667 -164.666 89 -225.999c59.333 -60 132.666 -90 219.999 -90c82.667 0 153.334 26.667 212.001 80c58 52 90.667 119.333 98 202h-344v40h391c0 -104 -33.667 -190.667 -101 -260c-66.667 -68.667 -151.667 -103 -255 -103c-100 0 -184 34 -252 102
c-67.333 69.333 -101 154.333 -101 255zM414.001 774.999c-14.667 0 -25 5.83105 -31 17.498s-5.83301 23.5 0.5 35.5s16.5 18 30.5 18c14 0.666992 24 -5.16602 30 -17.499s6 -24.666 0 -36.999s-16 -17.833 -30 -16.5z" />
    <glyph glyph-name="gdotaccent" unicode="&#x121;" 
d="M313 -7c-74 0 -135.332 25.335 -183.999 76.002c-49.333 51.333 -74 115 -74 191c0 75.333 24.667 138.666 74 189.999s110.666 77 183.999 77c48 0 92 -11.833 132 -35.5s71 -55.834 93 -96.501v125h40v-489c0 -75.333 -25.667 -138 -77 -188s-115 -75 -191 -75
c-45.333 0 -87.5 9.83301 -126.5 29.5s-69.833 46.5 -92.5 80.5l39 15c42 -56.667 101.667 -85 179 -85c67.333 0 122.333 21.333 165 64c44 42 66 95 66 159l-1 97c-22 -42 -52.833 -75 -92.5 -99s-84.167 -36 -133.5 -36zM473.001 422.002c-42 43.333 -94.333 65 -157 65
s-115 -21.667 -157 -65c-42 -42.667 -63 -96.667 -63 -162s21 -119.333 63 -162c42 -43.333 94.333 -65 157 -65s115 21.667 157 65c42 42.667 63 96.667 63 162s-21 119.333 -63 162zM329.001 684.002c14 0.666992 24 -5.16797 30 -17.501s6 -24.666 0 -36.999
s-16 -17.833 -30 -16.5c-14.667 0 -25 5.83301 -31 17.5s-6 23.5 0 35.5s16.333 18 31 18z" />
    <glyph glyph-name="uni0122" unicode="&#x122;" horiz-adv-x="837" 
d="M64 350c0 102 34.668 186.999 104.001 254.999s155.666 102 258.999 102c66 0 126.167 -14.667 180.5 -44s96.833 -70 127.5 -122l-39 -16c-28 44 -65.5 78.5 -112.5 103.5s-99.167 37.5 -156.5 37.5c-92 0 -168.333 -30.333 -229 -91c-60.667 -60 -91 -135 -91 -225
c0 -89.333 29.667 -164.666 89 -225.999c59.333 -60 132.666 -90 219.999 -90c82.667 0 153.334 26.667 212.001 80c58 52 90.667 119.333 98 202h-344v40h391c0 -104 -33.667 -190.667 -101 -260c-66.667 -68.667 -151.667 -103 -255 -103c-100 0 -184 34 -252 102
c-67.333 69.333 -101 154.333 -101 255zM468.001 -117.001c0 -19.333 -5.66797 -37.665 -17.001 -54.998c-6.66699 -10 -13.5 -18.667 -20.5 -26s-12.667 -12.333 -17 -15s-7.5 -4 -9.5 -4l-12 12c4 2.66699 7.66699 5.66699 11 9c6 5.33301 12.167 14.166 18.5 26.499
s8.83301 24.166 7.5 35.499c-13.333 0 -23 5.66699 -29 17s-6.16699 22.833 -0.5 34.5s15.834 17.167 30.501 16.5c25.333 0 38 -17 38 -51z" />
    <glyph glyph-name="uni0123" unicode="&#x123;" 
d="M313 -7c-74 0 -135.333 25.3359 -184 76.0029c-49.333 51.333 -74 115 -74 191c0 75.333 24.667 138.666 74 189.999s110.666 77 183.999 77c48 0 92 -11.833 132 -35.5s71 -55.834 93 -96.501v125h40v-489c0 -75.333 -25.667 -138 -77 -188s-115 -75 -191 -75
c-45.333 0 -87.5 9.83301 -126.5 29.5s-69.833 46.5 -92.5 80.5l39 15c42 -56.667 101.667 -85 179 -85c66.667 0 121.334 21.333 164.001 64c43.333 42 65 95 65 159v94c-22 -40.667 -53 -72.834 -93 -96.501s-84 -35.5 -132 -35.5zM159 422.003
c-42 -42.667 -63 -96.667 -63 -162s21 -119.333 63 -162c42 -43.333 94.333 -65 157 -65s115 21.667 157 65c42 42.667 63 96.667 63 162s-21 119.333 -63 162c-42 43.333 -94.333 65 -157 65s-115 -21.667 -157 -65zM290 645.003c0 24.667 7.66797 46.5 23.001 65.5
s28.333 30.167 39 33.5l2 2l12 -13l-12 -9c-6 -6 -12 -15 -18 -27s-8.33301 -23.333 -7 -34c13.333 -0.666992 23 -6.66699 29 -18s6.16699 -22.5 0.5 -33.5s-15.834 -16.5 -30.501 -16.5c-25.333 0 -38 16.667 -38 50z" />
    <glyph glyph-name="Hcircumflex" unicode="&#x124;" horiz-adv-x="778" 
d="M142 0h-42v700h42v-325h494v325h42v-700h-42v335h-494v-335zM259 772l-18 22l145 117h5l146 -117l-19 -22l-129 94z" />
    <glyph glyph-name="hcircumflex" unicode="&#x125;" horiz-adv-x="641" 
d="M131 304v-303.999h-40v750h40v-345c12 25.333 33 50.666 63 75.999c36 30.667 86 46 150 46c60 0 110 -20.333 150 -61c40 -41.333 60 -92 60 -152v-314h-40v307c0 51.333 -17 94.333 -51 129c-32.667 34.667 -74.667 52 -126 52c-57.333 0 -106.333 -17.667 -147 -53
c-39.333 -35.333 -59 -79 -59 -131zM108 914.001l-130 -94l-18 22l145 117h5l145 -117l-18 -22z" />
    <glyph glyph-name="Hbar" unicode="&#x126;" horiz-adv-x="782" 
d="M678 700v-132h94v-38h-94v-530h-42v335h-494v-335h-42v530h-90v38h90v132h42v-132h494v132h42zM636 375v155h-494v-155h494z" />
    <glyph glyph-name="hbar" unicode="&#x127;" horiz-adv-x="641" 
d="M131 750v-103.999h226v-34h-226v-207c12 25.333 33 50.666 63 75.999c36 30.667 86 46 150 46c60 0 110 -20.333 150 -61c40 -41.333 60 -92 60 -152v-314h-40v307c0 51.333 -17 94.333 -51 129c-32.667 34.667 -74.667 52 -126 52c-57.333 0 -106.333 -17.667 -147 -53
c-39.333 -35.333 -59 -79 -59 -131v-304h-40v612h-74v34h74v104h40z" />
    <glyph glyph-name="Itilde" unicode="&#x128;" horiz-adv-x="242" 
d="M142 0h-42v700h42v-700zM13 776l-34.999 0.000976562c0 24 8.5 44.5 25.5 61.5s37.5 25.5 61.5 25.5c17.333 0 37.333 -9.66699 60 -29s40 -29 52 -29c14 0 26 5.16699 36 15.5s15 23.5 15 39.5h35c0 -26 -8.16699 -47.167 -24.5 -63.5s-36.5 -24.5 -60.5 -24.5
c-20.667 0 -41.334 9.66699 -62.001 29c-19.333 19.333 -36 29 -50 29c-14.667 0 -27.167 -5.33301 -37.5 -16s-15.5 -23.334 -15.5 -38.001z" />
    <glyph glyph-name="itilde" unicode="&#x129;" horiz-adv-x="224" 
d="M132 0h-40v520h40v-520zM4 614l-34.999 0.000976562c0 24 8.5 44.5 25.5 61.5s37.5 25.5 61.5 25.5c20.667 0 40.667 -9.66699 60 -29c20.667 -19.333 38 -29 52 -29s26 5.16699 36 15.5s15 23.5 15 39.5h35c0 -26 -8.16699 -47.167 -24.5 -63.5s-36.5 -24.5 -60.5 -24.5
c-20.667 0 -41.334 9.66699 -62.001 29c-19.333 19.333 -36 29 -50 29c-14.667 0 -27.167 -5.33301 -37.5 -16s-15.5 -23.334 -15.5 -38.001z" />
    <glyph glyph-name="Imacron" unicode="&#x12a;" horiz-adv-x="242" 
d="M142 0h-42v700h42v-700zM252 797h-262v36h262v-36z" />
    <glyph glyph-name="imacron" unicode="&#x12b;" horiz-adv-x="222" 
d="M131 0h-40v520h40v-520zM-20 635v36h262v-36h-262z" />
    <glyph glyph-name="Ibreve" unicode="&#x12c;" horiz-adv-x="242" 
d="M142 0h-42v700h42v-700zM-11 890h35c0 -28.667 9.16699 -52.334 27.5 -71.001s41.5 -28 69.5 -28s51.167 9.33301 69.5 28s27.5 42.334 27.5 71.001h35c0 -38 -12.667 -69.667 -38 -95c-24.667 -24.667 -56 -37 -94 -37s-69.5 12.5 -94.5 37.5s-37.5 56.5 -37.5 94.5z
" />
    <glyph glyph-name="ibreve" unicode="&#x12d;" horiz-adv-x="222" 
d="M131 0h-40v520h40v-520zM-21 728h35c0 -28.667 9.16699 -52.334 27.5 -71.001s41.5 -28 69.5 -28s51.167 9.33301 69.5 28s27.5 42.334 27.5 71.001h35c0 -38 -12.667 -69.667 -38 -95c-24.667 -24.667 -56 -37 -94 -37s-69.5 12.5 -94.5 37.5s-37.5 56.5 -37.5 94.5z
" />
    <glyph glyph-name="Iogonek" unicode="&#x12e;" horiz-adv-x="242" 
d="M42 -113c0 17.333 4.83203 35.332 14.499 53.999s20.5 33.667 32.5 45l16 14h-5v700h42v-700h-3c-6.66699 -5.33301 -12.667 -10.666 -18 -15.999c-8 -8 -17 -20.667 -27 -38c-11.333 -19.333 -17 -36.666 -17 -51.999c0 -16.667 4.83301 -30.167 14.5 -40.5
s21.834 -15.5 36.501 -15.5c21.333 0 40 8 56 24l8 7l17 -19l-12 -12c-5.33301 -6.66699 -15.833 -13.667 -31.5 -21s-30.5 -11 -44.5 -11c-22.667 0 -41.5 7.66699 -56.5 23s-22.5 34.666 -22.5 57.999z" />
    <glyph glyph-name="iogonek" unicode="&#x12f;" horiz-adv-x="222" 
d="M33 -113c0 17.333 4.83203 35.332 14.499 53.999s20.5 33.667 32.5 45l16 14h-5v520h40v-520h-1c-6.66699 -5.33301 -12.667 -10.666 -18 -15.999c-7.33301 -7.33301 -16.666 -20 -27.999 -38c-11.333 -19.333 -17 -36.666 -17 -51.999
c0 -16.667 4.83301 -30.167 14.5 -40.5s21.834 -15.5 36.501 -15.5c21.333 0 40 8 56 24l8 7l18 -19l-12 -12c-5.33301 -6.66699 -16 -13.667 -32 -21s-31 -11 -45 -11c-22.667 0 -41.334 7.66699 -56.001 23s-22 34.666 -22 57.999zM75.999 649.999
c0 10 3.16602 18.333 9.49902 25s14.833 10 25.5 10c14 0.666992 24 -5 30 -17s6.33301 -24 1 -36s-14.666 -18 -27.999 -18c-25.333 0 -38 12 -38 36z" />
    <glyph glyph-name="Idot" unicode="&#x130;" horiz-adv-x="242" 
d="M142 0h-42v700h42v-700zM121 775c-14.667 0 -25 5.83105 -31 17.498s-5.83301 23.5 0.5 35.5s16.5 18 30.5 18c14 0.666992 24 -5.16602 30 -17.499s6 -24.666 0 -36.999s-16 -17.833 -30 -16.5z" />
    <glyph glyph-name="dotlessi" unicode="&#x131;" horiz-adv-x="222" 
d="M131 0h-40v520h40v-520z" />
    <glyph glyph-name="IJ" unicode="&#x132;" horiz-adv-x="852" 
d="M142 0h-42v700h42v-700zM754 700l0.000976562 -453.001c0 -71.333 -24.667 -131.666 -74 -180.999c-48.667 -48.667 -109.334 -73 -182.001 -73c-46 0 -88 10.333 -126 31s-68.333 49 -91 85l35 22c18.667 -30.667 44 -54.667 76 -72s67.333 -26 106 -26
c61.333 0 112.333 20.333 153 61c41.333 41.333 62 92.333 62 153v453h41z" />
    <glyph glyph-name="ij" unicode="&#x133;" horiz-adv-x="453" 
d="M131 0h-40v520h40v-520zM76 650c0 10 3.16699 18.333 9.5 25s14.833 10 25.5 10c10 0 18.333 -3.33301 25 -10s10 -15 10 -25c0 -10.667 -3.33301 -19.334 -10 -26.001s-15 -10 -25 -10c-10.667 0 -19.167 3.33301 -25.5 10s-9.5 15.334 -9.5 26.001zM322 520h40v-605
c0 -40 -11.833 -73.333 -35.5 -100s-53.5 -40 -89.5 -40h-38v39h37c24.667 0 45.167 10 61.5 30s24.5 44.667 24.5 74v602zM307 650c0 10 3.16699 18.333 9.5 25s14.833 10 25.5 10c10 0 18.5 -3.33301 25.5 -10s10.5 -15 10.5 -25c0 -10.667 -3.5 -19.334 -10.5 -26.001
s-15.5 -10 -25.5 -10c-10.667 0 -19.167 3.33301 -25.5 10s-9.5 15.334 -9.5 26.001z" />
    <glyph glyph-name="Jcircumflex" unicode="&#x134;" horiz-adv-x="610" 
d="M512 700l0.000976562 -453.001c0 -71.333 -24.667 -131.666 -74 -180.999c-48.667 -48.667 -109.334 -73 -182.001 -73c-46 0 -88 10.333 -126 31s-68.333 49 -91 85l35 22c18.667 -30.667 44 -54.667 76 -72s67.333 -26 106 -26c61.333 0 112.333 20.333 153 61
c41.333 41.333 62 92.333 62 153v453h41zM490.001 865.999l-129 -94l-19 22l146 117h5l145 -117l-18 -22z" />
    <glyph glyph-name="jcircumflex" unicode="&#x135;" horiz-adv-x="231" 
d="M100 520h40v-605c0 -40 -11.833 -73.333 -35.5 -100s-53.5 -40 -89.5 -40h-38v39h37c24.667 0 45.167 10 61.5 30s24.5 44.667 24.5 74v602zM122 704l-130 -94l-18 22l145 117h5l145 -117l-18 -22z" />
    <glyph glyph-name="uni0136" unicode="&#x136;" horiz-adv-x="629" 
d="M548 0l-350 356l330 344h55l-330 -344l350 -356h-55zM142 0h-42v700h42v-700zM316 -217l-12.001 12.002c4 2.66699 7.66699 5.66699 11 9c6 5.33301 12 14.166 18 26.499s8.33301 24.166 7 35.499c-13.333 0 -22.833 5.66699 -28.5 17s-5.66699 22.833 0 34.5
s15.834 17.167 30.501 16.5c25.333 0 38 -17 38 -51c0 -18.667 -5 -36.5 -15 -53.5s-21 -29.167 -33 -36.5z" />
    <glyph glyph-name="uni0137" unicode="&#x137;" horiz-adv-x="495" 
d="M131 0h-40v750h40v-750zM417 0l-254 269l233 251h51l-232 -251l254 -269h-52zM245 -217l-12.001 12.001c4 2.66699 7.66699 5.66699 11 9c6 5.33301 12.167 14.166 18.5 26.499s8.83301 24.166 7.5 35.499c-13.333 0 -23 5.66699 -29 17s-6.16699 22.833 -0.5 34.5
s15.834 17.167 30.501 16.5c25.333 0 38 -17 38 -51c0 -19.333 -5.66699 -37.666 -17 -54.999c-6.66699 -10 -13.5 -18.667 -20.5 -26s-12.667 -12.333 -17 -15s-7.5 -4 -9.5 -4z" />
    <glyph glyph-name="Lacute" unicode="&#x139;" horiz-adv-x="586" 
d="M549 0h-449v700h42v-660h407v-40zM83 795l158 109l22 -33l-163 -99z" />
    <glyph glyph-name="lacute" unicode="&#x13a;" horiz-adv-x="222" 
d="M131 0h-40v750h40v-750zM90 820l-16 23l157 109l23 -33z" />
    <glyph glyph-name="uni013B" unicode="&#x13b;" horiz-adv-x="586" 
d="M100 0v700h42v-660h407v-40h-449zM302 -217l-12.001 12.001c4 2.66699 7.66699 5.66699 11 9c6 5.33301 12.167 14.166 18.5 26.499s8.83301 24.166 7.5 35.499c-13.333 0 -23 5.66699 -29 17s-6.16699 22.833 -0.5 34.5s15.834 17.167 30.501 16.5
c25.333 0 38 -17 38 -51c0 -19.333 -5.66699 -37.666 -17 -54.999c-6.66699 -10 -13.5 -18.667 -20.5 -26s-12.667 -12.333 -17 -15s-7.5 -4 -9.5 -4z" />
    <glyph glyph-name="uni013C" unicode="&#x13c;" horiz-adv-x="222" 
d="M131 0h-40v750h40v-750zM149 -117c0 -22.667 -6.33301 -42.498 -19 -59.498s-25.334 -29.167 -38.001 -36.5l-6 -4l-12 12c4 2.66699 7.66699 5.66699 11 9c6 5.33301 12 14.166 18 26.499s8.33301 24.166 7 35.499c-13.333 0 -22.833 5.66699 -28.5 17
s-5.66699 22.833 0 34.5s15.834 17.167 30.501 16.5c10.667 0 19.5 -4.5 26.5 -13.5s10.5 -21.5 10.5 -37.5z" />
    <glyph glyph-name="Lcaron" unicode="&#x13d;" horiz-adv-x="586" 
d="M100 0v700h42v-660h407v-40h-449zM349 556l-12.001 13c4 2.66699 7.66699 5.66699 11 9c6 5.33301 12.167 14 18.5 26s8.83301 23.667 7.5 35c-13.333 0.666992 -23 6.66699 -29 18s-6.16699 22.5 -0.5 33.5s15.834 16.5 30.501 16.5c25.333 0 38 -16.667 38 -50
c0 -18.667 -5.33301 -36.5 -16 -53.5s-21.167 -29.667 -31.5 -38s-15.833 -11.5 -16.5 -9.5z" />
    <glyph glyph-name="lcaron" unicode="&#x13e;" horiz-adv-x="304" 
d="M131 0h-40v750h40v-750zM256 757c25.333 0 37.999 -16.667 37.999 -50c0 -18.667 -5.33301 -36.5 -16 -53.5s-21.167 -29.667 -31.5 -38s-15.833 -11.5 -16.5 -9.5l-12 13c4 2.66699 7.66699 5.66699 11 9c6 5.33301 12.167 14 18.5 26s8.83301 23.667 7.5 35
c-13.333 0.666992 -23 6.66699 -29 18s-6.16699 22.5 -0.5 33.5s15.834 16.5 30.501 16.5z" />
    <glyph glyph-name="Ldot" unicode="&#x13f;" horiz-adv-x="586" 
d="M100 0v700h42v-660h407v-40h-449zM375 350c-1.33301 16 4.82812 27.333 18.4951 34s27.334 6.66699 41.001 0s19.834 -18 18.501 -34c0.666992 -16 -5.66602 -27.167 -18.999 -33.5s-26.666 -6.33301 -39.999 0s-19.666 17.5 -18.999 33.5z" />
    <glyph glyph-name="ldot" unicode="&#x140;" horiz-adv-x="427" 
d="M131 0h-40v750h40v-750zM285 350c0 17.333 8 29.499 24 36.499s30.333 4.16699 43 -8.5c13.333 -12.667 16.333 -27 9 -43s-19.666 -24 -36.999 -24c-10.667 0 -19.834 3.83301 -27.501 11.5s-11.5 16.834 -11.5 27.501z" />
    <glyph glyph-name="Lslash" unicode="&#x141;" horiz-adv-x="594" 
d="M108 265l-73 -43l-19 33l92 54v391h42v-367l165 96l19 -32l-184 -108v-249h407v-40h-449v265z" />
    <glyph glyph-name="lslash" unicode="&#x142;" horiz-adv-x="222" 
d="M131 750v-382l91 52v-38l-91 -52v-330h-40v306l-91 -52v40l91 52v404h40z" />
    <glyph glyph-name="Nacute" unicode="&#x143;" horiz-adv-x="779" 
d="M100 0v700h35l503 -625v625h41v-700h-35l-503 626v-626h-41zM532 871l-163 -99l-17 23l158 109z" />
    <glyph glyph-name="nacute" unicode="&#x144;" horiz-adv-x="647" 
d="M131 304l0.000976562 -304h-40v520h40v-115c13.333 26 34.666 51.333 63.999 76c36 30.667 86.667 46 152 46c60.667 0 111.334 -20.333 152.001 -61c40.667 -40 61 -90.667 61 -152v-314h-40v307c0 51.333 -17.333 94.333 -52 129c-34 34.667 -76.667 52 -128 52
c-58.667 0 -108.334 -17.667 -149.001 -53c-40 -35.333 -60 -79 -60 -131zM470.001 709l-164 -99l-16 23l157 109z" />
    <glyph glyph-name="uni0145" unicode="&#x145;" horiz-adv-x="779" 
d="M141 626v-626h-41v700h35l503 -625v625h41v-700h-35zM383 -207l-16.001 -9.99805l-12 12c4 2.66699 7.66699 5.66699 11 9c6 5.33301 12 14.166 18 26.499s8.33301 24.166 7 35.499c-13.333 0 -22.833 5.66699 -28.5 17s-5.66699 22.833 0 34.5
s15.834 17.167 30.501 16.5c25.333 0 38 -17 38 -51c0 -18.667 -5 -36.5 -15 -53.5s-21 -29.167 -33 -36.5z" />
    <glyph glyph-name="uni0146" unicode="&#x146;" horiz-adv-x="647" 
d="M131 0h-39.999v520h40v-115c13.333 26 34.666 51.333 63.999 76c36 30.667 86.667 46 152 46c60.667 0 111.334 -20.333 152.001 -61c40.667 -40 61 -90.667 61 -152v-314h-40v307c0 51.333 -17.333 94.333 -52 129c-34 34.667 -76.667 52 -128 52
c-58.667 0 -108.334 -17.667 -149.001 -53c-40 -35.333 -60 -79 -60 -131v-304zM320.001 -207l-16.001 -9.99805l-12 12c4 2.66699 7.66699 5.66699 11 9c6 5.33301 12 14.166 18 26.499s8.33301 24.166 7 35.499c-13.333 0 -22.833 5.66699 -28.5 17
s-5.66699 22.833 0 34.5s15.834 17.167 30.501 16.5c25.333 0 38 -17 38 -51c0 -18.667 -5 -36.5 -15 -53.5s-21 -29.167 -33 -36.5z" />
    <glyph glyph-name="Ncaron" unicode="&#x147;" horiz-adv-x="779" 
d="M141 0h-41v700h35l503 -625v625h41v-700h-35l-503 626v-626zM387 772l-146 117l19 22l129 -95l130 94l18 -21l-145 -117h-5z" />
    <glyph glyph-name="ncaron" unicode="&#x148;" horiz-adv-x="647" 
d="M91 0l0.000976562 520h40v-115c13.333 26 34.666 51.333 63.999 76c36 30.667 86.667 46 152 46c60.667 0 111.334 -20.333 152.001 -61c40.667 -40 61 -90.667 61 -152v-314h-40v307c0 51.333 -17.333 94.333 -52 129c-34 34.667 -76.667 52 -128 52
c-58.667 0 -108.334 -17.667 -149.001 -53c-40 -35.333 -60 -79 -60 -131v-304h-40zM324.001 610l-145 117l18 22l130 -95l129 94l19 -21l-146 -117h-5z" />
    <glyph glyph-name="Eng" unicode="&#x14a;" horiz-adv-x="779" 
d="M638 700l41.001 -0.000976562v-678c0 -71.333 -24.667 -131.666 -74 -180.999c-48.667 -48.667 -109.334 -73 -182.001 -73v40c58 0 107.667 19 149 57c40.667 38 62.667 85.667 66 143l-497 618v-626h-41v700h35l503 -625v625z" />
    <glyph glyph-name="eng" unicode="&#x14b;" horiz-adv-x="647" 
d="M91 0v520h40v-115c13.333 26 34.666 51.333 63.999 76c36 30.667 86.667 46 152 46c60.667 0 111.334 -20.333 152.001 -61c40.667 -40 61 -90.667 61 -152v-399c0 -39.333 -12 -72.333 -36 -99c-24 -27.333 -53.667 -41 -89 -41h-38v39h36c24.667 0 45.334 10 62.001 30
s25 44.667 25 74v389c0 51.333 -17.333 94.333 -52 129c-34 34.667 -76.667 52 -128 52c-58.667 0 -108.334 -17.667 -149.001 -53c-40 -35.333 -60 -79 -60 -131v-304h-40z" />
    <glyph glyph-name="Omacron" unicode="&#x14c;" horiz-adv-x="842" 
d="M64 350c0 102 34 187 102 255s153 102 255 102c101.333 0 186 -34 254 -102c68.667 -68 103 -153 103 -255c0 -101.333 -34.333 -186.333 -103 -255c-68 -68 -152.667 -102 -254 -102c-102 0 -187 34 -255 102c-68 68.667 -102 153.667 -102 255zM197 575
c-60 -60 -90 -135 -90 -225c0 -89.333 30 -164.666 90 -225.999c60 -60 134.667 -90 224 -90s164 30 224 90c60 61.333 90 136.666 90 225.999c0 90 -30 165 -90 225c-60 60.667 -134.667 91 -224 91s-164 -30.333 -224 -91zM552 797h-262v36h262v-36z" />
    <glyph glyph-name="omacron" unicode="&#x14d;" horiz-adv-x="644" 
d="M131 69c-50.667 50.667 -75.998 114.332 -75.998 190.999c0 76 25.333 139.333 76 190c51.333 51.333 115 77 191 77c75.333 0 138.666 -25.667 189.999 -77s77 -114.666 77 -189.999c0 -76 -25.667 -139.667 -77 -191c-50.667 -50.667 -114 -76 -190 -76
c-76.667 0 -140.334 25.333 -191.001 76zM160.002 421.998c-42.667 -42.667 -64 -96.667 -64 -162s21.333 -119.333 64 -162c43.333 -43.333 97.333 -65 162 -65c64 0 117.667 21.667 161 65s65 97.333 65 162s-21.667 118.667 -65 162s-97 65 -161 65
c-64.667 0 -118.667 -21.667 -162 -65zM453.002 634.998h-262v36h262v-36z" />
    <glyph glyph-name="Obreve" unicode="&#x14e;" horiz-adv-x="842" 
d="M64 350c0 102 34 187 102 255s153 102 255 102c101.333 0 186 -34 254 -102c68.667 -68 103 -153 103 -255c0 -101.333 -34.333 -186.333 -103 -255c-68 -68 -152.667 -102 -254 -102c-102 0 -187 34 -255 102c-68 68.667 -102 153.667 -102 255zM197 575
c-60 -60 -90 -135 -90 -225c0 -89.333 30 -164.666 90 -225.999c60 -60 134.667 -90 224 -90s164 30 224 90c60 61.333 90 136.666 90 225.999c0 90 -30 165 -90 225c-60 60.667 -134.667 91 -224 91s-164 -30.333 -224 -91zM289 890h35
c0 -28.667 9.16699 -52.334 27.5 -71.001s41.5 -28 69.5 -28s51.167 9.33301 69.5 28s27.5 42.334 27.5 71.001h35c0 -38 -12.667 -69.667 -38 -95c-24.667 -24.667 -56 -37 -94 -37s-69.5 12.5 -94.5 37.5s-37.5 56.5 -37.5 94.5z" />
    <glyph glyph-name="obreve" unicode="&#x14f;" horiz-adv-x="644" 
d="M131 69c-50.667 50.667 -75.998 114.332 -75.998 190.999c0 76 25.333 139.333 76 190c51.333 51.333 115 77 191 77c75.333 0 138.666 -25.667 189.999 -77s77 -114.666 77 -189.999c0 -76 -25.667 -139.667 -77 -191c-50.667 -50.667 -114 -76 -190 -76
c-76.667 0 -140.334 25.333 -191.001 76zM160.002 421.998c-42.667 -42.667 -64 -96.667 -64 -162s21.333 -119.333 64 -162c43.333 -43.333 97.333 -65 162 -65c64 0 117.667 21.667 161 65s65 97.333 65 162s-21.667 118.667 -65 162s-97 65 -161 65
c-64.667 0 -118.667 -21.667 -162 -65zM190.002 727.998h35c0 -28.667 9.16699 -52.334 27.5 -71.001s41.5 -28 69.5 -28s51.167 9.33301 69.5 28s27.5 42.334 27.5 71.001h35c0 -38 -12.667 -69.667 -38 -95c-24.667 -24.667 -56 -37 -94 -37s-69.5 12.5 -94.5 37.5
s-37.5 56.5 -37.5 94.5z" />
    <glyph glyph-name="Ohungarumlaut" unicode="&#x150;" horiz-adv-x="842" 
d="M64 350c0 102 34 187 102 255s153 102 255 102c101.333 0 186 -34 254 -102c68.667 -68 103 -153 103 -255c0 -101.333 -34.333 -186.333 -103 -255c-68 -68 -152.667 -102 -254 -102c-102 0 -187 34 -255 102c-68 68.667 -102 153.667 -102 255zM197 575
c-60 -60 -90 -135 -90 -225c0 -89.333 30 -164.666 90 -225.999c60 -60 134.667 -90 224 -90s164 30 224 90c60 61.333 90 136.666 90 225.999c0 90 -30 165 -90 225c-60 60.667 -134.667 91 -224 91s-164 -30.333 -224 -91zM339 755l-21 19l121 145l29 -28zM499 755l-22 19
l121 145l30 -28z" />
    <glyph glyph-name="ohungarumlaut" unicode="&#x151;" horiz-adv-x="644" 
d="M131 69c-50.667 50.667 -75.998 114.332 -75.998 190.999c0 76 25.333 139.333 76 190c51.333 51.333 115 77 191 77c75.333 0 138.666 -25.667 189.999 -77s77 -114.666 77 -189.999c0 -76 -25.667 -139.667 -77 -191c-50.667 -50.667 -114 -76 -190 -76
c-76.667 0 -140.334 25.333 -191.001 76zM160.002 421.998c-42.667 -42.667 -64 -96.667 -64 -162s21.333 -119.333 64 -162c43.333 -43.333 97.333 -65 162 -65c64 0 117.667 21.667 161 65s65 97.333 65 162s-21.667 118.667 -65 162s-97 65 -161 65
c-64.667 0 -118.667 -21.667 -162 -65zM240.002 592.998l-21 19l121 145l29 -28zM400.002 592.998l-22 19l121 145l30 -28z" />
    <glyph glyph-name="OE" unicode="&#x152;" horiz-adv-x="1254" 
d="M421 -7c-102 0 -187 34.001 -255 102.001c-68 68.667 -102 153.667 -102 255c0 102 34 187 102 255s153 102 255 102c69.333 0 132.166 -16.833 188.499 -50.5s99.5 -79.834 129.5 -138.501v182h467v-40h-425v-285h378v-40h-378v-295h430v-40h-472v183
c-30 -58.667 -73.167 -105 -129.5 -139s-119.166 -51 -188.499 -51zM197 575.001c-60 -60 -90 -135 -90 -225c0 -89.333 30 -164.666 90 -225.999c60 -60 134.667 -90 224 -90s164 30 224 90c60 61.333 90 136.666 90 225.999c0 90 -30 165 -90 225
c-60 60.667 -134.667 91 -224 91s-164 -30.333 -224 -91z" />
    <glyph glyph-name="oe" unicode="&#x153;" horiz-adv-x="1122" 
d="M322 527c56 0 106.169 -14.668 150.502 -44.001s76.5 -69 96.5 -119c20 50 51.833 89.667 95.5 119s93.167 44 148.5 44c74.667 0 136.667 -25.667 186 -77s74 -114.666 74 -189.999c0 -4.66699 -0.333008 -7.66699 -1 -9h-483c2 -63.333 24.667 -116 68 -158
c43.333 -41.333 97.666 -62 162.999 -62c84 0 147.333 33 190 99l39 -14c-24 -38.667 -55.833 -68.834 -95.5 -90.501s-83.5 -32.5 -131.5 -32.5c-58 0 -109.5 14.667 -154.5 44s-77.5 69 -97.5 119c-20 -50 -52.333 -89.667 -97 -119s-95 -44 -151 -44
c-76.667 0 -140.334 25.333 -191.001 76s-76 114.334 -76 191.001c0 76 25.333 139.333 76 190c51.333 51.333 115 77 191 77zM160.002 97.999c43.333 -43.333 97.333 -65 162 -65c64 0 117.667 21.667 161 65s65 97.333 65 162s-21.667 118.667 -65 162s-97 65 -161 65
c-64.667 0 -118.667 -21.667 -162 -65c-42.667 -42.667 -64 -96.667 -64 -162s21.333 -119.333 64 -162zM590.002 285.999h441.001c-4.66699 58 -28.334 106.333 -71.001 145c-40.667 38.667 -90.667 58 -150 58s-109.333 -19.333 -150 -58
c-42 -38.667 -65.333 -87 -70 -145z" />
    <glyph glyph-name="Racute" unicode="&#x154;" horiz-adv-x="682" 
d="M142 0l-42 0.000976562v700h309c60 0 110.333 -19.667 151 -59c40.667 -38.667 61 -87.334 61 -146.001c0 -48.667 -15 -91.667 -45 -129c-29.333 -36 -68.333 -59.667 -117 -71l186 -295h-49l-183 290h-4h-267v-290zM409 660.001h-267v-330h267
c47.333 0 87.333 15.667 120 47c32.667 32 49 71.333 49 118c0 47.333 -16.333 86.333 -49 117c-32 32 -72 48 -120 48zM447 871.001l-163 -99l-17 23l158 109z" />
    <glyph glyph-name="racute" unicode="&#x155;" horiz-adv-x="388" 
d="M131 0l-39.999 0.000976562v520h40v-116c12 25.333 33 50.666 63 75.999c36.667 31.333 87.667 47 153 47h14v-43c-12 1.33301 -19 2 -21 2c-58.667 0 -108.334 -17.667 -149.001 -53c-40 -35.333 -60 -79 -60 -131v-302zM344.001 709.001l-164 -99l-16 23l157 109z" />
    <glyph glyph-name="uni0156" unicode="&#x156;" horiz-adv-x="682" 
d="M142 290v-289.999h-42v700h309c60 0 110.333 -19.667 151 -59c40.667 -38.667 61 -87.334 61 -146.001c0 -48.667 -15 -91.667 -45 -129c-29.333 -36 -68.333 -59.667 -117 -71l186 -295h-49l-183 290h-4h-267zM409 660.001h-267v-330h267c47.333 0 87.333 15.667 120 47
c32.667 32 49 71.333 49 118c0 47.333 -16.333 86.333 -49 117c-32 32 -72 48 -120 48zM356 -206.999l-15.001 -9.99805l-12 12c4 2.66699 7.66699 5.66699 11 9c6 5.33301 12 14.166 18 26.499s8.33301 24.166 7 35.499c-13.333 0 -22.833 5.66699 -28.5 17
s-5.66699 22.833 0 34.5s15.834 17.167 30.501 16.5c10.667 0 19.5 -4.5 26.5 -13.5s10.5 -21.5 10.5 -37.5c0 -18.667 -5 -36.5 -15 -53.5s-21 -29.167 -33 -36.5z" />
    <glyph glyph-name="uni0157" unicode="&#x157;" horiz-adv-x="388" 
d="M131 302l0.000976562 -301.999h-40v520h40v-116c12 25.333 33 50.666 63 75.999c36.667 31.333 87.667 47 153 47h14v-43c-12 1.33301 -19 2 -21 2c-58.667 0 -108.334 -17.667 -149.001 -53c-40 -35.333 -60 -79 -60 -131zM89.001 -216.999l-11.001 12.001
c4 2.66699 7.66699 5.66699 11 9c6 5.33301 12 14.166 18 26.499s8.33301 24.166 7 35.499c-13.333 0 -23 5.66699 -29 17s-6.16699 22.833 -0.5 34.5s15.834 17.167 30.501 16.5c25.333 0 38 -17 38 -51c0 -19.333 -5.66699 -37.666 -17 -54.999
c-6.66699 -10 -13.5 -18.667 -20.5 -26s-12.667 -12.333 -17 -15s-7.5 -4 -9.5 -4z" />
    <glyph glyph-name="Rcaron" unicode="&#x158;" horiz-adv-x="682" 
d="M142 290v-289.999h-42v700h309c60 0 110.333 -19.667 151 -59c40.667 -38.667 61 -87.334 61 -146.001c0 -48.667 -15 -91.667 -45 -129c-29.333 -36 -68.333 -59.667 -117 -71l186 -295h-49l-183 290h-4h-267zM409 660.001h-267v-330h267c47.333 0 87.333 15.667 120 47
c32.667 32 49 71.333 49 118c0 47.333 -16.333 86.333 -49 117c-32 32 -72 48 -120 48zM302 772.001l-146 117l19 22l129 -95l130 94l18 -21l-145 -117h-5z" />
    <glyph glyph-name="rcaron" unicode="&#x159;" horiz-adv-x="388" 
d="M131 302l0.000976562 -301.999h-40v520h40v-116c12 25.333 33 50.666 63 75.999c36.667 31.333 87.667 47 153 47h14v-43c-12 1.33301 -19 2 -21 2c-58.667 0 -108.334 -17.667 -149.001 -53c-40 -35.333 -60 -79 -60 -131zM203.001 610.001h-5l-145 117l18 22l130 -95
l129 94l19 -21z" />
    <glyph glyph-name="Sacute" unicode="&#x15a;" horiz-adv-x="625" 
d="M546 550l-42 -11c-6.66699 36.667 -27.667 67 -63 91s-78 36 -128 36c-53.333 0 -98.333 -13.667 -135 -41c-36 -27.333 -54 -61.666 -54 -102.999c0 -34 13.333 -62 40 -84c8 -6.66699 23.333 -15.334 46 -26.001c25.333 -10.667 64 -22 116 -34
c51.333 -10.667 95 -24 131 -40c65.333 -28 100 -77 104 -147c0 -58.667 -23.333 -106.334 -70 -143.001s-105.667 -55 -177 -55c-64.667 0 -120.334 15.667 -167.001 47s-74.334 71.333 -83.001 120l42 11c7.33301 -40.667 30 -73.667 68 -99
c39.333 -25.333 86.333 -38 141 -38c58.667 0 107.334 14.333 146.001 43s58 66 58 112c0 44 -20.667 77.667 -62 101c-28.667 16 -75 31.667 -139 47c-52.667 11.333 -96 24.333 -130 39c-33.333 14 -58.666 32.333 -75.999 55s-27.333 52.334 -30 89.001
c0 54 21.667 98.667 65 134s98 53 164 53c60.667 0 112.667 -14.667 156 -44c44 -29.333 70.333 -67 79 -113zM293 772l-16 23l157 109l23 -33z" />
    <glyph glyph-name="sacute" unicode="&#x15b;" horiz-adv-x="480" 
d="M409 421l-38.0029 -9.99707c-5.33301 23.333 -20.166 42.333 -44.499 57s-53.833 22 -88.5 22c-37.333 0 -68.5 -8.83301 -93.5 -26.5s-37.5 -39.834 -37.5 -66.501c0 -39.333 22 -67.333 66 -84l148 -53c67.333 -25.333 101 -67.333 101 -126
c0 -42 -17.333 -76 -52 -102s-78.667 -39 -132 -39c-49.333 0 -90.666 10.667 -123.999 32s-53.666 50 -60.999 86l38 9c5.33301 -26.667 21.333 -48.334 48 -65.001s59.667 -25 99 -25c42 0 76.667 9.66699 104 29s41 44 41 74c0 42 -26.667 72.667 -80 92l-142 54
c-62 23.333 -93 62 -93 116c0 39.333 16 71.166 48 95.499s73.333 36.5 124 36.5c44 0 81.333 -9.66699 112 -29s49.667 -45 57 -77zM216.997 610.003l-16 23l158 109l22 -33z" />
    <glyph glyph-name="Scircumflex" unicode="&#x15c;" horiz-adv-x="625" 
d="M546 550l-42 -11c-6.66699 36.667 -27.667 67 -63 91s-78 36 -128 36c-53.333 0 -98.333 -13.667 -135 -41c-36 -27.333 -54 -61.666 -54 -102.999c0 -34 13.333 -62 40 -84c8 -6.66699 23.333 -15.334 46 -26.001c25.333 -10.667 64 -22 116 -34
c51.333 -10.667 95 -24 131 -40c65.333 -28 100 -77 104 -147c0 -58.667 -23.333 -106.334 -70 -143.001s-105.667 -55 -177 -55c-64.667 0 -120.334 15.667 -167.001 47s-74.334 71.333 -83.001 120l42 11c7.33301 -40.667 30 -73.667 68 -99
c39.333 -25.333 86.333 -38 141 -38c58.667 0 107.334 14.333 146.001 43s58 66 58 112c0 44 -20.667 77.667 -62 101c-28.667 16 -75 31.667 -139 47c-52.667 11.333 -96 24.333 -130 39c-33.333 14 -58.666 32.333 -75.999 55s-27.333 52.334 -30 89.001
c0 54 21.667 98.667 65 134s98 53 164 53c60.667 0 112.667 -14.667 156 -44c44 -29.333 70.333 -67 79 -113zM314 866l-130 -94l-18 22l145 117h5l146 -117l-19 -22z" />
    <glyph glyph-name="scircumflex" unicode="&#x15d;" horiz-adv-x="480" 
d="M409 421l-38.0029 -9.99707c-5.33301 23.333 -20.166 42.333 -44.499 57s-53.833 22 -88.5 22c-37.333 0 -68.5 -8.83301 -93.5 -26.5s-37.5 -39.834 -37.5 -66.501c0 -39.333 22 -67.333 66 -84l148 -53c67.333 -25.333 101 -67.333 101 -126
c0 -42 -17.333 -76 -52 -102s-78.667 -39 -132 -39c-49.333 0 -90.666 10.667 -123.999 32s-53.666 50 -60.999 86l38 9c5.33301 -26.667 21.333 -48.334 48 -65.001s59.667 -25 99 -25c42 0 76.667 9.66699 104 29s41 44 41 74c0 42 -26.667 72.667 -80 92l-142 54
c-62 23.333 -93 62 -93 116c0 39.333 16 71.166 48 95.499s73.333 36.5 124 36.5c44 0 81.333 -9.66699 112 -29s49.667 -45 57 -77zM237.997 704.003l-130 -94l-18 22l146 117h4l146 -117l-18 -22z" />
    <glyph glyph-name="Scedilla" unicode="&#x15e;" horiz-adv-x="625" 
d="M64 160l41.998 11c7.33301 -40.667 30 -73.667 68 -99c39.333 -25.333 86.333 -38 141 -38c58.667 0 107.334 14.333 146.001 43s58 66 58 112c0 44 -20.667 77.667 -62 101c-28.667 16 -75 31.667 -139 47c-52.667 11.333 -96 24.333 -130 39
c-33.333 14 -58.666 32.333 -75.999 55s-27.333 52.334 -30 89.001c0 54 21.667 98.667 65 134s98 53 164 53c60.667 0 112.667 -14.667 156 -44c44 -29.333 70.333 -67 79 -113l-42 -11c-6.66699 36.667 -27.667 67 -63 91s-78 36 -128 36
c-53.333 0 -98.333 -13.667 -135 -41c-36 -27.333 -54 -61.666 -54 -102.999c0 -34 13.333 -62 40 -84c8 -6.66699 23.333 -15.334 46 -26.001c25.333 -10.667 64 -22 116 -34c51.333 -10.667 95 -24 131 -40c65.333 -28 100 -77 104 -147c0 -52.667 -19.667 -97 -59 -133
c-38.667 -36 -89.334 -57 -152.001 -63l-14 -58c2 0 4.66699 -0.5 8 -1.5s9.5 -3.16699 18.5 -6.5s16.833 -7.33301 23.5 -12s12.667 -11.334 18 -20.001s8 -18.667 8 -30c0 -21.333 -9 -39.5 -27 -54.5s-40.333 -22.5 -67 -22.5c-33.333 0 -60.666 10.667 -81.999 32
l-10 10l14 24c18 -24 42.667 -36 74 -36c18 0 33.167 4.66699 45.5 14s18.5 20.333 18.5 33c0 11.333 -6.16699 21.5 -18.5 30.5s-26.166 14.5 -41.499 16.5l-21 2l18 77c-64.667 0 -120.667 15.667 -168 47c-46.667 31.333 -74.334 71.333 -83.001 120z" />
    <glyph glyph-name="scedilla" unicode="&#x15f;" horiz-adv-x="480" 
d="M53 111l37.9961 9.00195c5.33301 -26.667 21.333 -48.334 48 -65.001s59.667 -25 99 -25c42 0 76.667 9.66699 104 29s41 44 41 74c0 42 -26.667 72.667 -80 92l-142 54c-62 23.333 -93 62 -93 116c0 39.333 16 71.166 48 95.499s73.333 36.5 124 36.5
c44 0 81.333 -9.66699 112 -29s49.667 -45 57 -77l-38 -10c-5.33301 23.333 -20.166 42.333 -44.499 57s-53.833 22 -88.5 22c-37.333 0 -68.5 -8.83301 -93.5 -26.5s-37.5 -39.834 -37.5 -66.501c0 -39.333 22 -67.333 66 -84l148 -53c67.333 -25.333 101 -67.333 101 -126
c0 -38 -14.167 -69.5 -42.5 -94.5s-65.5 -39.833 -111.5 -44.5l-14 -58c2 0 4.66699 -0.5 8 -1.5s9.33301 -3.16699 18 -6.5s16.334 -7.33301 23.001 -12s12.667 -11.334 18 -20.001s8 -18.667 8 -30c0 -21.333 -8.83301 -39.5 -26.5 -54.5s-39.834 -22.5 -66.501 -22.5
c-16.667 0 -32.667 3.33301 -48 10s-26.666 14 -33.999 22l-11 10l14 24c19.333 -24 44 -36 74 -36c18 0 33.167 4.66699 45.5 14s18.5 20.333 18.5 33c0 11.333 -6.33301 21.5 -19 30.5s-26.667 14.5 -42 16.5l-20 2l18 77
c-47.333 0.666992 -87.166 11.834 -119.499 33.501s-52.166 49.834 -59.499 84.501z" />
    <glyph glyph-name="Scaron" unicode="&#x160;" horiz-adv-x="625" 
d="M546 550l-42 -11c-6.66699 36.667 -27.667 67 -63 91s-78 36 -128 36c-53.333 0 -98.333 -13.667 -135 -41c-36 -27.333 -54 -61.666 -54 -102.999c0 -34 13.333 -62 40 -84c8 -6.66699 23.333 -15.334 46 -26.001c25.333 -10.667 64 -22 116 -34
c51.333 -10.667 95 -24 131 -40c65.333 -28 100 -77 104 -147c0 -58.667 -23.333 -106.334 -70 -143.001s-105.667 -55 -177 -55c-64.667 0 -120.334 15.667 -167.001 47s-74.334 71.333 -83.001 120l42 11c7.33301 -40.667 30 -73.667 68 -99
c39.333 -25.333 86.333 -38 141 -38c58.667 0 107.334 14.333 146.001 43s58 66 58 112c0 44 -20.667 77.667 -62 101c-28.667 16 -75 31.667 -139 47c-52.667 11.333 -96 24.333 -130 39c-33.333 14 -58.666 32.333 -75.999 55s-27.333 52.334 -30 89.001
c0 54 21.667 98.667 65 134s98 53 164 53c60.667 0 112.667 -14.667 156 -44c44 -29.333 70.333 -67 79 -113zM314 816l129 94l19 -21l-146 -117h-5l-145 117l18 22z" />
    <glyph glyph-name="scaron" unicode="&#x161;" horiz-adv-x="480" 
d="M409 421l-38.0029 -9.99707c-5.33301 23.333 -20.166 42.333 -44.499 57s-53.833 22 -88.5 22c-37.333 0 -68.5 -8.83301 -93.5 -26.5s-37.5 -39.834 -37.5 -66.501c0 -39.333 22 -67.333 66 -84l148 -53c67.333 -25.333 101 -67.333 101 -126
c0 -42 -17.333 -76 -52 -102s-78.667 -39 -132 -39c-49.333 0 -90.666 10.667 -123.999 32s-53.666 50 -60.999 86l38 9c5.33301 -26.667 21.333 -48.334 48 -65.001s59.667 -25 99 -25c42 0 76.667 9.66699 104 29s41 44 41 74c0 42 -26.667 72.667 -80 92l-142 54
c-62 23.333 -93 62 -93 116c0 39.333 16 71.166 48 95.499s73.333 36.5 124 36.5c44 0 81.333 -9.66699 112 -29s49.667 -45 57 -77zM237.997 654.003l130 94l18 -21l-146 -117h-4l-146 117l18 22z" />
    <glyph glyph-name="uni0162" unicode="&#x162;" horiz-adv-x="690" 
d="M29 700h632v-40h-295v-660h-42v660h-295v40zM322 -217l-12.001 12.001c4 2.66699 7.66699 5.66699 11 9c6 5.33301 12.167 14.166 18.5 26.499s8.83301 24.166 7.5 35.499c-13.333 0 -23 5.66699 -29 17s-6.16699 22.833 -0.5 34.5s15.834 17.167 30.501 16.5
c25.333 0 38 -17 38 -51c0 -19.333 -5.66699 -37.666 -17 -54.999c-6.66699 -10 -13.5 -18.667 -20.5 -26s-12.667 -12.333 -17 -15s-7.5 -4 -9.5 -4z" />
    <glyph glyph-name="uni0163" unicode="&#x163;" horiz-adv-x="364" 
d="M22 483l-0.000976562 37h95v106h40v-106h162v-37h-162v-340c0 -29.333 8.33301 -54 25 -74s37.334 -30 62.001 -30h74v-39h-76c-35.333 -0 -65 13.333 -89 40s-36 60 -36 100v343h-95zM241.999 -117c0 -19.333 -5.66797 -37.665 -17.001 -54.998
c-6.66699 -10 -13.5 -18.667 -20.5 -26s-12.667 -12.333 -17 -15s-7.5 -4 -9.5 -4l-11 12c4 2.66699 7.66699 5.66699 11 9c6 5.33301 12 14.166 18 26.499s8.33301 24.166 7 35.499c-13.333 0 -23 5.66699 -29 17s-6.16699 22.833 -0.5 34.5s15.834 17.167 30.501 16.5
c25.333 0 38 -17 38 -51z" />
    <glyph glyph-name="Tcaron" unicode="&#x164;" horiz-adv-x="690" 
d="M324 660h-295v40h632v-40h-295v-660h-42v660zM342 772l-145 117l18 22l130 -95l129 94l19 -21l-146 -117h-5z" />
    <glyph glyph-name="tcaron" unicode="&#x165;" horiz-adv-x="369" 
d="M22 483l-0.000976562 37h95v106h40v-106h162v-37h-162v-340c0 -29.333 8.33301 -54 25 -74s37.334 -30 62.001 -30h74v-39h-76c-35.333 -0 -65 13.333 -89 40s-36 60 -36 100v343h-95zM319.999 676c0 -18.667 -5.00098 -36.5 -15.001 -53.5s-21 -29.167 -33 -36.5
l-16 -11l-12 13c4 2.66699 7.66699 5.66699 11 9c6 5.33301 12 14 18 26s8.33301 23.667 7 35c-13.333 0.666992 -22.833 6.66699 -28.5 18s-5.66699 22.5 0 33.5s15.834 16.5 30.501 16.5c25.333 0 38 -16.667 38 -50z" />
    <glyph glyph-name="Tbar" unicode="&#x166;" horiz-adv-x="690" 
d="M526 334h-160v-334h-42v334h-160v40h160v286h-295v40h632v-40h-295v-286h160v-40z" />
    <glyph glyph-name="tbar" unicode="&#x167;" horiz-adv-x="364" 
d="M117 483h-95.001v37h95v106h40v-106h162v-37h-162v-162h114v-34h-114v-144c0 -29.333 8.33301 -54 25 -74s37.334 -30 62.001 -30h74v-39h-76c-35.333 -0 -65 13.333 -89 40s-36 60 -36 100v147h-76v34h76v162z" />
    <glyph glyph-name="Utilde" unicode="&#x168;" horiz-adv-x="758" 
d="M626 280l0.000976562 420h42v-420c0 -81.333 -27.667 -149.666 -83 -204.999c-54.667 -54.667 -123.334 -82 -206.001 -82s-151.334 27.333 -206.001 82c-55.333 55.333 -83 123.666 -83 204.999v420h42v-420c0 -71.333 23.333 -130.333 70 -177s105.667 -70 177 -70
c70.667 0 129.334 23.333 176.001 70c47.333 47.333 71 106.333 71 177zM271.001 776l-34.999 0.000976562c0 24 8.5 44.5 25.5 61.5s37.5 25.5 61.5 25.5c17.333 0 37.333 -9.66699 60 -29s40 -29 52 -29c14 0 26 5.16699 36 15.5s15 23.5 15 39.5h35
c0 -26 -8.16699 -47.167 -24.5 -63.5s-36.5 -24.5 -60.5 -24.5c-20.667 0 -41.334 9.66699 -62.001 29c-19.333 19.333 -36 29 -50 29c-14.667 0 -27.167 -5.33301 -37.5 -16s-15.5 -23.334 -15.5 -38.001z" />
    <glyph glyph-name="utilde" unicode="&#x169;" horiz-adv-x="647" 
d="M87 206l-0.000976562 314h40v-307c0 -51.333 17 -94.333 51 -129c34.667 -34.667 77.667 -52 129 -52c60 0 109.667 17.333 149 52c40 34.667 60 78.667 60 132v304h40v-520h-40v115c-13.333 -26 -34.666 -51.333 -63.999 -76c-36 -30.667 -86.667 -46 -152 -46
c-61.333 0 -112.333 20 -153 60c-40 40.667 -60 91.667 -60 153zM213.999 614l-34.999 0.000976562c0 24 8.5 44.5 25.5 61.5s37.5 25.5 61.5 25.5c19.333 0 39.333 -9.66699 60 -29s38 -29 52 -29s26 5.16699 36 15.5s15 23.5 15 39.5h35
c0 -26 -8.16699 -47.167 -24.5 -63.5s-36.5 -24.5 -60.5 -24.5c-20.667 0 -41.334 9.66699 -62.001 29c-19.333 19.333 -36 29 -50 29c-14.667 0 -27.167 -5.33301 -37.5 -16s-15.5 -23.334 -15.5 -38.001z" />
    <glyph glyph-name="Umacron" unicode="&#x16a;" horiz-adv-x="758" 
d="M626 280l0.000976562 420h42v-420c0 -81.333 -27.667 -149.666 -83 -204.999c-54.667 -54.667 -123.334 -82 -206.001 -82s-151.334 27.333 -206.001 82c-55.333 55.333 -83 123.666 -83 204.999v420h42v-420c0 -71.333 23.333 -130.333 70 -177s105.667 -70 177 -70
c70.667 0 129.334 23.333 176.001 70c47.333 47.333 71 106.333 71 177zM510.001 797h-262v36h262v-36z" />
    <glyph glyph-name="umacron" unicode="&#x16b;" horiz-adv-x="647" 
d="M87 206l-0.000976562 314h40v-307c0 -51.333 17 -94.333 51 -129c34.667 -34.667 77.667 -52 129 -52c60 0 109.667 17.333 149 52c40 34.667 60 78.667 60 132v304h40v-520h-40v115c-13.333 -26 -34.666 -51.333 -63.999 -76c-36 -30.667 -86.667 -46 -152 -46
c-61.333 0 -112.333 20 -153 60c-40 40.667 -60 91.667 -60 153zM452.999 671v-36h-262v36h262z" />
    <glyph glyph-name="Ubreve" unicode="&#x16c;" horiz-adv-x="758" 
d="M626 280l0.000976562 420h42v-420c0 -81.333 -27.667 -149.666 -83 -204.999c-54.667 -54.667 -123.334 -82 -206.001 -82s-151.334 27.333 -206.001 82c-55.333 55.333 -83 123.666 -83 204.999v420h42v-420c0 -71.333 23.333 -130.333 70 -177s105.667 -70 177 -70
c70.667 0 129.334 23.333 176.001 70c47.333 47.333 71 106.333 71 177zM247.001 890h35c0 -28.667 9.16699 -52.334 27.5 -71.001s41.5 -28 69.5 -28s51.167 9.33301 69.5 28s27.5 42.334 27.5 71.001h35c0 -38 -12.667 -69.667 -38 -95c-24.667 -24.667 -56 -37 -94 -37
s-69.5 12.5 -94.5 37.5s-37.5 56.5 -37.5 94.5z" />
    <glyph glyph-name="ubreve" unicode="&#x16d;" horiz-adv-x="647" 
d="M87 206l-0.000976562 314h40v-307c0 -51.333 17 -94.333 51 -129c34.667 -34.667 77.667 -52 129 -52c60 0 109.667 17.333 149 52c40 34.667 60 78.667 60 132v304h40v-520h-40v115c-13.333 -26 -34.666 -51.333 -63.999 -76c-36 -30.667 -86.667 -46 -152 -46
c-61.333 0 -112.333 20 -153 60c-40 40.667 -60 91.667 -60 153zM189.999 728h35c0 -28.667 9.16699 -52.334 27.5 -71.001s41.5 -28 69.5 -28s51.167 9.33301 69.5 28s27.5 42.334 27.5 71.001h35c0 -38 -12.667 -69.667 -38 -95c-24.667 -24.667 -56 -37 -94 -37
s-69.5 12.5 -94.5 37.5s-37.5 56.5 -37.5 94.5z" />
    <glyph glyph-name="Uring" unicode="&#x16e;" horiz-adv-x="758" 
d="M626 280l0.000976562 420h42v-420c0 -81.333 -27.667 -149.666 -83 -204.999c-54.667 -54.667 -123.334 -82 -206.001 -82s-151.334 27.333 -206.001 82c-55.333 55.333 -83 123.666 -83 204.999v420h42v-420c0 -71.333 23.333 -130.333 70 -177s105.667 -70 177 -70
c70.667 0 129.334 23.333 176.001 70c47.333 47.333 71 106.333 71 177zM284.001 853c0 26.667 9.16699 49.167 27.5 67.5s40.833 27.5 67.5 27.5s49.167 -9.16699 67.5 -27.5s27.5 -40.833 27.5 -67.5c0 -26 -9.16699 -48.333 -27.5 -67s-40.833 -28 -67.5 -28
s-49.167 9.33301 -67.5 28s-27.5 41 -27.5 67zM334.001 897c-12 -12 -18 -26.667 -18 -44s6 -32.333 18 -45c12.667 -12 27.667 -18 45 -18s32 6 44 18c12.667 12.667 19 27.667 19 45s-6.33301 32 -19 44c-12 12.667 -26.667 19 -44 19s-32.333 -6.33301 -45 -19z" />
    <glyph glyph-name="uring" unicode="&#x16f;" horiz-adv-x="647" 
d="M300 -7c-61.333 0 -112.334 20 -153.001 60c-40 40.667 -60 91.667 -60 153v314h40v-307c0 -51.333 17 -94.333 51 -129c34.667 -34.667 77.667 -52 129 -52c60 0 109.667 17.333 149 52c40 34.667 60 78.667 60 132v304h40v-520h-40v115
c-13.333 -26 -34.666 -51.333 -63.999 -76c-36 -30.667 -86.667 -46 -152 -46zM226.999 691c0 26.667 9.16699 49.167 27.5 67.5s40.833 27.5 67.5 27.5s49.167 -9.16699 67.5 -27.5s27.5 -40.833 27.5 -67.5c0 -26 -9.16699 -48.333 -27.5 -67s-40.833 -28 -67.5 -28
s-49.167 9.33301 -67.5 28s-27.5 41 -27.5 67zM365.999 735c-12 12.667 -26.667 19 -44 19s-32.333 -6.33301 -45 -19c-12 -12 -18 -26.667 -18 -44s6 -32.333 18 -45c12.667 -12 27.667 -18 45 -18s32 6 44 18c12.667 12.667 19 27.667 19 45s-6.33301 32 -19 44z" />
    <glyph glyph-name="Uhungarumlaut" unicode="&#x170;" horiz-adv-x="758" 
d="M626 280l0.000976562 420h42v-420c0 -81.333 -27.667 -149.666 -83 -204.999c-54.667 -54.667 -123.334 -82 -206.001 -82s-151.334 27.333 -206.001 82c-55.333 55.333 -83 123.666 -83 204.999v420h42v-420c0 -71.333 23.333 -130.333 70 -177s105.667 -70 177 -70
c70.667 0 129.334 23.333 176.001 70c47.333 47.333 71 106.333 71 177zM297.001 755l-21 19l121 145l29 -28zM457.001 755l-22 19l121 145l30 -28z" />
    <glyph glyph-name="uhungarumlaut" unicode="&#x171;" horiz-adv-x="647" 
d="M87 206l-0.000976562 314h40v-307c0 -51.333 17 -94.333 51 -129c34.667 -34.667 77.667 -52 129 -52c60 0 109.667 17.333 149 52c40 34.667 60 78.667 60 132v304h40v-520h-40v115c-13.333 -26 -34.666 -51.333 -63.999 -76c-36 -30.667 -86.667 -46 -152 -46
c-61.333 0 -112.333 20 -153 60c-40 40.667 -60 91.667 -60 153zM528.999 729l-129 -136l-22 19l121 145zM239.999 593l-21 19l121 145l29 -28z" />
    <glyph glyph-name="Uogonek" unicode="&#x172;" horiz-adv-x="758" 
d="M90 280l-0.000976562 420.001h42v-420c0 -71.333 23.333 -130.333 70 -177s105.667 -70 177 -70c70.667 0 129.334 23.333 176.001 70c47.333 47.333 71 106.333 71 177v420h42v-420c0 -75.333 -23.667 -139.666 -71 -192.999c-46 -52 -106.667 -82.667 -182 -92
c-38 -35.333 -57 -69 -57 -101c0 -16.667 4.83301 -30.167 14.5 -40.5s21.834 -15.5 36.501 -15.5c22 0 41 8 57 24l8 7l17 -19l-12 -12c-5.33301 -6.66699 -15.833 -13.667 -31.5 -21s-30.5 -11 -44.5 -11c-22.667 0 -41.5 7.66699 -56.5 23s-22.5 34.666 -22.5 57.999
c0 36 18.333 71.333 55 106c-82.667 0 -151.334 27.333 -206.001 82c-55.333 55.333 -83 123.666 -83 204.999z" />
    <glyph glyph-name="uogonek" unicode="&#x173;" horiz-adv-x="647" 
d="M87 206v313.999h40v-307c0 -51.333 17 -94.333 51 -129c34.667 -34.667 77.667 -52 129 -52c60 0 109.667 17.333 149 52c40 34.667 60 78.667 60 132v304h40v-520h-2c-6.66699 -5.33301 -12.667 -10.666 -18 -15.999c-8 -8 -17 -20.667 -27 -38
c-11.333 -19.333 -17 -36.666 -17 -51.999c0 -16.667 4.66699 -30.167 14 -40.5s21.666 -15.5 36.999 -15.5c21.333 0 40 8 56 24l8 7l17 -19l-12 -12c-5.33301 -6.66699 -15.833 -13.667 -31.5 -21s-30.5 -11 -44.5 -11c-22.667 0 -41.5 7.66699 -56.5 23
s-22.5 34.666 -22.5 57.999c0 17.333 4.83301 35.333 14.5 54s20.5 33.667 32.5 45l16 14h-4v115c-13.333 -26 -34.666 -51.333 -63.999 -76c-36 -30.667 -86.667 -46 -152 -46c-61.333 0 -112.333 20 -153 60c-40 40.667 -60 91.667 -60 153z" />
    <glyph glyph-name="Wcircumflex" unicode="&#x174;" horiz-adv-x="1027" 
d="M302 0h-31l-245 700h43l217 -628l212 628h31l212 -630l216 630h44l-245 -700h-31l-212 625zM384 772l-19 22l146 117h5l145 -117l-18 -22l-130 94z" />
    <glyph glyph-name="wcircumflex" unicode="&#x175;" horiz-adv-x="781" 
d="M204 0l-186 520h41l160 -453l156 453h31l156 -455l160 455h41l-186 -520h-31l-155 449l-156 -449h-31zM261 610l-18 22l145 117h5l145 -117l-18 -22l-129 94z" />
    <glyph glyph-name="Ycircumflex" unicode="&#x176;" horiz-adv-x="653" 
d="M306 0v284l-280 416h49l252 -376l251 376h49l-279 -413v-287h-42zM197 772l-18 22l145 117h5l146 -117l-19 -22l-129 94z" />
    <glyph glyph-name="ycircumflex" unicode="&#x177;" horiz-adv-x="518" 
d="M236 15l-217.999 504.999h42l197 -457l201 457h42l-279 -633c-17.333 -39.333 -37.833 -67.833 -61.5 -85.5s-53.167 -26.5 -88.5 -26.5h-28v39h28c26.667 0 49.167 6.83301 67.5 20.5s34.166 35.834 47.499 66.501zM259.001 703.999l-130 -94l-18 22l146 117h4l146 -117
l-18 -22z" />
    <glyph glyph-name="Ydieresis" unicode="&#x178;" horiz-adv-x="653" 
d="M306 284l-280 416h49l252 -376l251 376h49l-279 -413v-287h-42v284zM402 834c6.66699 6.66699 15 10 25 10s18.333 -3.33301 25 -10s10 -15 10 -25s-3.33301 -18.333 -10 -25c-6.66699 -6 -15 -9 -25 -9s-18.333 3 -25 9c-6 6.66699 -9 15 -9 25s3 18.333 9 25zM226 844
c14 0.666992 23.833 -4.99805 29.5 -16.998s5.66699 -24 0 -36s-15.5 -17.333 -29.5 -16c-10.667 0 -19.167 3.66699 -25.5 11s-9.5 15.166 -9.5 23.499s3.16699 16.166 9.5 23.499s14.833 11 25.5 11z" />
    <glyph glyph-name="Zacute" unicode="&#x179;" horiz-adv-x="646" 
d="M603 40v-40h-551v32l490 628h-488v40h547v-32l-490 -628h492zM471 871l-164 -99l-16 23l157 109z" />
    <glyph glyph-name="zacute" unicode="&#x17a;" horiz-adv-x="520" 
d="M473 38v-38h-426v34l367 448h-362v38h416v-34l-367 -448h372zM403 709l-164 -99l-16 23l158 109z" />
    <glyph glyph-name="Zdotaccent" unicode="&#x17b;" horiz-adv-x="646" 
d="M603 0h-551v32l490 628h-488v40h547v-32l-490 -628h492v-40zM328 775c-14.667 0 -25 5.83105 -31 17.498s-5.83301 23.5 0.5 35.5s16.5 18 30.5 18c14 0.666992 24 -5.16602 30 -17.499s6 -24.666 0 -36.999s-16 -17.833 -30 -16.5z" />
    <glyph glyph-name="zdotaccent" unicode="&#x17c;" horiz-adv-x="520" 
d="M47 0v34l367 448h-362v38h416v-34l-367 -448h372v-38h-426zM285 623c-6.66699 -6.66699 -15 -10 -25 -10s-18.333 3.33301 -25 10s-10 15 -10 25s3.33301 18.333 10 25c6.66699 7.33301 15 11 25 11s18.333 -3.66699 25 -11c7.33301 -6.66699 11 -15 11 -25
s-3.66699 -18.333 -11 -25z" />
    <glyph glyph-name="Zcaron" unicode="&#x17d;" horiz-adv-x="646" 
d="M603 0h-551v32l490 628h-488v40h547v-32l-490 -628h492v-40zM330 772h-5l-145 117l18 22l130 -95l129 94l19 -21z" />
    <glyph glyph-name="zcaron" unicode="&#x17e;" horiz-adv-x="520" 
d="M473 38v-38h-426v34l367 448h-362v38h416v-34l-367 -448h372zM263 610h-5l-146 117l19 22l129 -95l130 94l18 -21z" />
    <glyph glyph-name="uni018F" unicode="&#x18f;" horiz-adv-x="842" 
d="M421 707c102 0 187.002 -33.999 255.002 -101.999s102 -153 102 -255c0 -101.333 -34 -186.333 -102 -255c-68 -68 -153 -102 -255 -102c-100.667 0 -185.334 34 -254.001 102c-68.667 68.667 -103 153.667 -103 255c0 10 0.333008 16.333 1 19h669
c-5.33301 85.333 -37.333 156 -96 212c-58.667 56.667 -131 85 -217 85c-54 0 -103.833 -11.833 -149.5 -35.5s-82.834 -56.834 -111.501 -99.501l-40 16c32 50.667 74.333 90 127 118s110.667 42 174 42zM421.002 34.001c85.333 0 157.667 27.666 217 82.999
c58 55.333 89.667 126 95 212h-624c5.33301 -85.333 37 -155.666 95 -210.999c58.667 -56 131 -84 217 -84z" />
    <glyph glyph-name="florin" unicode="&#x192;" horiz-adv-x="345" 
d="M-47 -225l-67 -0.000976562l7 39h65c24.667 0 47.167 10 67.5 30s33.166 44.667 38.499 74l82 469h-96l7 37h96l33 186c6.66699 38.667 24.334 71.667 53.001 99c29.333 27.333 61.333 41 96 41h68l-7 -39h-66c-24.667 0 -47.167 -10 -67.5 -30
s-32.833 -44.667 -37.5 -74l-32 -183h153l-7 -37h-153l-83 -472c-6.66699 -39.333 -24.667 -72.666 -54 -99.999c-27.333 -26.667 -59.333 -40 -96 -40z" />
    <glyph glyph-name="uni01DD" unicode="&#x1dd;" horiz-adv-x="629" 
d="M50 269l482.999 -0.000976562c-2 63.333 -24.667 115.666 -68 156.999c-43.333 42 -97.666 63 -162.999 63c-84 0 -147.333 -33 -190 -99l-39 14c24 38.667 56.167 68.834 96.5 90.501s84.5 32.5 132.5 32.5c78 0 142.667 -25.667 194 -77
c52 -51.333 78 -114.666 78 -189.999c0 -76.667 -25.333 -140.334 -76 -191.001c-50 -50.667 -112.333 -76 -187 -76s-137 25.333 -187 76s-75 114.334 -75 191.001c0 4.66699 0.333008 7.66699 1 9zM531.999 233.999h-441c4.66699 -57.333 28 -106 70 -146
c42 -38 92.333 -57 151 -57s108.667 19 150 57c42 40 65.333 88.667 70 146z" />
    <glyph glyph-name="Aringacute" unicode="&#x1fa;" horiz-adv-x="715" 
d="M154 184l-83.001 -184h-45l311 690c-21.333 4.66699 -39.166 15.667 -53.499 33s-21.5 37.333 -21.5 60c0 26.667 9.16699 49.167 27.5 67.5s40.833 27.5 67.5 27.5c28.667 0 52 -10 70 -30l142 98l22 -33l-147 -89c6 -12.667 9 -26.334 9 -41.001
c0 -22 -7.16699 -41.667 -21.5 -59s-32.5 -28.666 -54.5 -33.999l312 -690h-45l-83 184h-407zM542.999 224l-186 413l-185 -413h371zM312.999 738c12 -12 26.667 -18 44 -18s32 6 44 18c12.667 12.667 19 27.667 19 45s-6.33301 32 -19 44c-12 12.667 -26.667 19 -44 19
s-32 -6.33301 -44 -19c-12 -12 -18 -26.667 -18 -44s6 -32.333 18 -45z" />
    <glyph glyph-name="aringacute" unicode="&#x1fb;" 
d="M313 527c48 0 92.001 -11.8301 132.001 -35.4971s71 -55.834 93 -96.501v125h40v-520h-40v125c-22 -40.667 -53 -72.834 -93 -96.501s-84 -35.5 -132 -35.5c-74 0 -135.333 25.333 -184 76c-49.333 51.333 -74 115 -74 191c0 75.333 24.667 138.666 74 189.999
s110.666 77 183.999 77zM159.001 422.003c-42 -42.667 -63 -96.667 -63 -162s21 -119.333 63 -162c42 -43.333 94.333 -65 157 -65s115 21.667 157 65c42 42.667 63 96.667 63 162s-21 119.333 -63 162c-42 43.333 -94.333 65 -157 65s-115 -21.667 -157 -65z
M239.001 691.003c0 26.667 9.33301 49.166 28 67.499s41.334 27.5 68.001 27.5c20 0 37.667 -5.33301 53 -16l142 98l23 -33l-143 -86c13.333 -17.333 20 -36.666 20 -57.999c0 -26 -9.33301 -48.333 -28 -67s-41 -28 -67 -28c-26.667 0 -49.334 9.33301 -68.001 28
s-28 41 -28 67zM290.001 735.002c-12 -12 -18 -26.667 -18 -44s6 -32.333 18 -45c12.667 -12 27.667 -18 45 -18s32 6 44 18c12 12.667 18 27.667 18 45s-6 32 -18 44c-12 12.667 -26.667 19 -44 19s-32.333 -6.33301 -45 -19z" />
    <glyph glyph-name="AEacute" unicode="&#x1fc;" horiz-adv-x="988" 
d="M197 184l-122 -184h-49l464 700h450v-40h-387v-285h340v-40h-340v-295h392v-40h-434v184h-314zM223 224h288v435zM706 871l-163 -99l-17 23l158 109z" />
    <glyph glyph-name="aeacute" unicode="&#x1fd;" horiz-adv-x="1112" 
d="M313 -7c-74 0 -135.33 25.335 -183.997 76.002c-49.333 51.333 -74 115 -74 191c0 75.333 24.667 138.666 74 189.999s110.666 77 183.999 77c48 0 92 -11.833 132 -35.5s71 -55.834 93 -96.501v125h40v-126c22 41.333 53 73.833 93 97.5s84.333 35.5 133 35.5
c73.333 0 134.666 -25.667 183.999 -77c50 -51.333 75 -114.666 75 -189.999c0 -4.66699 -0.333008 -7.66699 -1 -9h-483c2 -63.333 24.667 -116 68 -158c43.333 -41.333 97.666 -62 162.999 -62c84 0 147.333 33 190 99l39 -14c-24 -38 -55.833 -68 -95.5 -90
s-83.5 -33 -131.5 -33c-51.333 0 -97.5 11.833 -138.5 35.5s-72.833 56.5 -95.5 98.5v-127h-40v125c-22 -40.667 -53 -72.834 -93 -96.501s-84 -35.5 -132 -35.5zM159.003 422.002c-42 -42.667 -63 -96.667 -63 -162s21 -119.333 63 -162c42 -43.333 94.333 -65 157 -65
s115 21.667 157 65c42 42.667 63 96.667 63 162s-21 119.333 -63 162c-42 43.333 -94.333 65 -157 65s-115 -21.667 -157 -65zM580.003 286.002h441.001c-4.66699 58 -28.334 106.333 -71.001 145c-40.667 38.667 -90.667 58 -150 58s-109.333 -19.333 -150 -58
c-42 -38.667 -65.333 -87 -70 -145zM700.004 709.002l-164 -99l-16 23l157 109z" />
    <glyph glyph-name="Oslashacute" unicode="&#x1fe;" horiz-adv-x="842" 
d="M165 13l36.999 51.999c-44 32.667 -78 73.834 -102 123.501s-36 103.5 -36 161.5c0 102 34 187 102 255s153 102 255 102c70.667 0 134.667 -17.333 192 -52l37 52l30 -21l-37 -52c42.667 -34 75.834 -75.333 99.501 -124s35.5 -102 35.5 -160
c0 -101.333 -34.333 -186.333 -103 -255c-68 -68 -152.667 -102 -254 -102c-70 0 -133.333 17.333 -190 52l-37 -52zM617.999 597.999l-362.998 -518.999c51.333 -30 106.666 -45 165.999 -45c89.333 0 164 30 224 90c60 61.333 90 136.666 90 225.999
c0 50 -10.333 96.667 -31 140s-49.334 79.333 -86.001 108zM226.001 100l363 519.999c-50.667 30.667 -106.667 46 -168 46c-89.333 0 -164 -30.333 -224 -91c-60 -60 -90 -135 -90 -225c0 -51.333 10.333 -98.666 31 -141.999s50 -79.333 88 -108zM400.001 771.999l-16 23
l157 109l23 -33z" />
    <glyph glyph-name="oslashacute" unicode="&#x1ff;" horiz-adv-x="644" 
d="M322 527c50 0 96.334 -12.333 139.001 -37l26 37l29 -21l-25 -36c65.333 -53.333 98 -123.333 98 -210c0 -76 -25.667 -139.667 -77 -191c-50.667 -50.667 -114 -76 -190 -76c-50 0 -96.333 12.333 -139 37l-26 -37l-30 20l27 38c-30.667 24 -54.834 54.333 -72.501 91
s-26.5 76 -26.5 118c0 76 25.333 139.333 76 190c51.333 51.333 115 77 191 77zM467.001 435l-259.999 -371c33.333 -20.667 71.666 -31 114.999 -31c64 0 117.667 21.667 161 65s65 97.333 65 162c0 74 -27 132.333 -81 175zM177.002 84l259.999 372
c-33.333 20.667 -71.666 31 -114.999 31c-64.667 0 -118.667 -21.667 -162 -65c-42.667 -42.667 -64 -96.667 -64 -162c0 -73.333 27 -132 81 -176zM301.001 610l-16 23l157 109l23 -33z" />
    <glyph glyph-name="uni0218" unicode="&#x218;" horiz-adv-x="625" 
d="M546 550l-42 -11c-6.66699 36.667 -27.667 67 -63 91s-78 36 -128 36c-53.333 0 -98.333 -13.667 -135 -41c-36 -27.333 -54 -61.666 -54 -102.999c0 -34 13.333 -62 40 -84c8 -6.66699 23.333 -15.334 46 -26.001c25.333 -10.667 64 -22 116 -34
c51.333 -10.667 95 -24 131 -40c65.333 -28 100 -77 104 -147c0 -58.667 -23.333 -106.334 -70 -143.001s-105.667 -55 -177 -55c-64.667 0 -120.334 15.667 -167.001 47s-74.334 71.333 -83.001 120l42 11c7.33301 -40.667 30 -73.667 68 -99
c39.333 -25.333 86.333 -38 141 -38c58.667 0 107.334 14.333 146.001 43s58 66 58 112c0 44 -20.667 77.667 -62 101c-28.667 16 -75 31.667 -139 47c-52.667 11.333 -96 24.333 -130 39c-33.333 14 -58.666 32.333 -75.999 55s-27.333 52.334 -30 89.001
c0 54 21.667 98.667 65 134s98 53 164 53c60.667 0 112.667 -14.667 156 -44c44 -29.333 70.333 -67 79 -113zM374 -117c0 -19.333 -5.66797 -37.665 -17.001 -54.998c-6.66699 -10 -13.5 -18.667 -20.5 -26s-12.667 -12.333 -17 -15s-7.5 -4 -9.5 -4l-12 12
c4 2.66699 7.66699 5.66699 11 9c6 5.33301 12.167 14.166 18.5 26.499s8.83301 24.166 7.5 35.499c-13.333 0 -23 5.66699 -29 17s-6.16699 22.833 -0.5 34.5s15.834 17.167 30.501 16.5c25.333 0 38 -17 38 -51z" />
    <glyph glyph-name="uni0219" unicode="&#x219;" horiz-adv-x="480" 
d="M409 421l-38.0029 -9.99707c-5.33301 23.333 -20.166 42.333 -44.499 57s-53.833 22 -88.5 22c-37.333 0 -68.5 -8.83301 -93.5 -26.5s-37.5 -39.834 -37.5 -66.501c0 -39.333 22 -67.333 66 -84l148 -53c67.333 -25.333 101 -67.333 101 -126
c0 -42 -17.333 -76 -52 -102s-78.667 -39 -132 -39c-49.333 0 -90.666 10.667 -123.999 32s-53.666 50 -60.999 86l38 9c5.33301 -26.667 21.333 -48.334 48 -65.001s59.667 -25 99 -25c42 0 76.667 9.66699 104 29s41 44 41 74c0 42 -26.667 72.667 -80 92l-142 54
c-62 23.333 -93 62 -93 116c0 39.333 16 71.166 48 95.499s73.333 36.5 124 36.5c44 0 81.333 -9.66699 112 -29s49.667 -45 57 -77zM291.997 -116.997c0 -19.333 -5.66797 -37.665 -17.001 -54.998c-6.66699 -10 -13.5 -18.667 -20.5 -26s-12.667 -12.333 -17 -15
s-7.5 -4 -9.5 -4l-12 12c4 2.66699 7.66699 5.66699 11 9c6 5.33301 12.167 14.166 18.5 26.499s8.83301 24.166 7.5 35.499c-13.333 0 -23 5.66699 -29 17s-6.16699 22.833 -0.5 34.5s15.834 17.167 30.501 16.5c25.333 0 38 -17 38 -51z" />
    <glyph glyph-name="uni021A" unicode="&#x21a;" horiz-adv-x="690" 
d="M29 700h632v-40h-295v-660h-42v660h-295v40zM322 -217l-12.001 12.001c4 2.66699 7.66699 5.66699 11 9c6 5.33301 12.167 14.166 18.5 26.499s8.83301 24.166 7.5 35.499c-13.333 0 -23 5.66699 -29 17s-6.16699 22.833 -0.5 34.5s15.834 17.167 30.501 16.5
c25.333 0 38 -17 38 -51c0 -19.333 -5.66699 -37.666 -17 -54.999c-6.66699 -10 -13.5 -18.667 -20.5 -26s-12.667 -12.333 -17 -15s-7.5 -4 -9.5 -4z" />
    <glyph glyph-name="uni021B" unicode="&#x21b;" horiz-adv-x="364" 
d="M22 483l-0.000976562 37h95v106h40v-106h162v-37h-162v-340c0 -29.333 8.33301 -54 25 -74s37.334 -30 62.001 -30h74v-39h-76c-35.333 -0 -65 13.333 -89 40s-36 60 -36 100v343h-95zM241.999 -117c0 -19.333 -5.66797 -37.665 -17.001 -54.998
c-6.66699 -10 -13.5 -18.667 -20.5 -26s-12.667 -12.333 -17 -15s-7.5 -4 -9.5 -4l-11 12c4 2.66699 7.66699 5.66699 11 9c6 5.33301 12 14.166 18 26.499s8.33301 24.166 7 35.499c-13.333 0 -23 5.66699 -29 17s-6.16699 22.833 -0.5 34.5s15.834 17.167 30.501 16.5
c25.333 0 38 -17 38 -51z" />
    <glyph glyph-name="uni0237" unicode="&#x237;" horiz-adv-x="231" 
d="M100 520h40v-605c0 -40 -11.833 -73.333 -35.5 -100s-53.5 -40 -89.5 -40h-38v39h37c24.667 0 45.167 10 61.5 30s24.5 44.667 24.5 74v602z" />
    <glyph glyph-name="uni0259" unicode="&#x259;" horiz-adv-x="629" 
d="M50 269l482.999 -0.000976562c-2 63.333 -24.667 115.666 -68 156.999c-43.333 42 -97.666 63 -162.999 63c-84 0 -147.333 -33 -190 -99l-39 14c24 38.667 56.167 68.834 96.5 90.501s84.5 32.5 132.5 32.5c78 0 142.667 -25.667 194 -77
c52 -51.333 78 -114.666 78 -189.999c0 -76.667 -25.333 -140.334 -76 -191.001c-50 -50.667 -112.333 -76 -187 -76s-137 25.333 -187 76s-75 114.334 -75 191.001c0 4.66699 0.333008 7.66699 1 9zM531.999 233.999h-441c4.66699 -57.333 28 -106 70 -146
c42 -38 92.333 -57 151 -57s108.667 19 150 57c42 40 65.333 88.667 70 146z" />
    <glyph glyph-name="circumflex" unicode="&#x2c6;" horiz-adv-x="440" 
d="M220 800l-130 -94l-18 22l146 117h4l146 -117l-18 -22z" />
    <glyph glyph-name="caron" unicode="&#x2c7;" horiz-adv-x="440" 
d="M220 750l130 94l18 -21l-146 -117h-4l-146 117l18 22z" />
    <glyph glyph-name="breve" unicode="&#x2d8;" horiz-adv-x="409" 
d="M72 824h35c0 -28.667 9.33301 -52.334 28 -71.001s42 -28 70 -28c27.333 0 50.333 9.33301 69 28s28 42.334 28 71.001h35c0 -38 -12.667 -69.5 -38 -94.5s-57 -37.5 -95 -37.5s-69.5 12.5 -94.5 37.5s-37.5 56.5 -37.5 94.5z" />
    <glyph glyph-name="dotaccent" unicode="&#x2d9;" horiz-adv-x="215" 
d="M82 719c-6.66699 6.66699 -10 15 -10 25s3.33301 18.333 10 25c6.66699 7.33301 15 11 25 11s18.333 -3.66699 25 -11c7.33301 -6.66699 11 -15 11 -25s-3.66699 -18.333 -11 -25c-6.66699 -6.66699 -15 -10 -25 -10s-18.333 3.33301 -25 10z" />
    <glyph glyph-name="ring" unicode="&#x2da;" horiz-adv-x="335" 
d="M72 787c0 26.667 9.16699 49.167 27.5 67.5s40.833 27.5 67.5 27.5s49.334 -9.16699 68.001 -27.5s28 -40.833 28 -67.5c0 -26 -9.33301 -48.333 -28 -67s-41.334 -28 -68.001 -28s-49.167 9.33301 -67.5 28s-27.5 41 -27.5 67zM123 831c-12 -12 -18 -26.667 -18 -44
s6 -32.333 18 -45c12 -12 26.667 -18 44 -18s32 6 44 18c12.667 12.667 19 27.667 19 45s-6.33301 32 -19 44c-12 12.667 -26.667 19 -44 19s-32 -6.33301 -44 -19z" />
    <glyph glyph-name="ogonek" unicode="&#x2db;" horiz-adv-x="311" 
d="M119 -14l16.001 13.999h34c-6.66699 -5.33301 -12.667 -10.666 -18 -15.999c-8 -8 -17 -20.667 -27 -38c-11.333 -19.333 -17 -36.666 -17 -51.999c0 -16.667 4.66699 -30.167 14 -40.5s21.666 -15.5 36.999 -15.5c21.333 0 40 8 56 24l8 7l17 -19l-12 -12
c-5.33301 -6.66699 -15.833 -13.667 -31.5 -21s-30.5 -11 -44.5 -11c-22.667 0 -41.5 7.66699 -56.5 23s-22.5 34.666 -22.5 57.999c0 17.333 4.83301 35.333 14.5 54s20.5 33.667 32.5 45z" />
    <glyph glyph-name="tilde" unicode="&#x2dc;" horiz-adv-x="428" 
d="M107 710l-35.001 0.000976562c0 24 8.33301 44.5 25 61.5s37 25.5 61 25.5c20 0 40.333 -9.66699 61 -29s37.667 -29 51 -29c14 0 26 5.16699 36 15.5s15 23.5 15 39.5h35c0 -26 -8 -47.167 -24 -63.5s-36 -24.5 -60 -24.5c-21.333 0 -42.333 9.66699 -63 29
c-19.333 19.333 -35.666 29 -48.999 29c-14.667 0 -27.167 -5.33301 -37.5 -16s-15.5 -23.334 -15.5 -38.001z" />
    <glyph glyph-name="hungarumlaut" unicode="&#x2dd;" horiz-adv-x="453" 
d="M93 689l-21 19l121 145l29 -28zM252 689l-21 19l121 145l29 -28z" />
    <glyph glyph-name="uni0394" unicode="&#x394;" horiz-adv-x="711" 
d="M685 0h-659l314 700h31zM622 40l-267 597l-266 -597h533z" />
    <glyph glyph-name="uni03A9" unicode="&#x3a9;" horiz-adv-x="842" 
d="M64 351c0 101.333 34.001 186.002 102.001 254.002s153 102 255 102c101.333 0 186 -34 254 -102c68.667 -68 103 -152.667 103 -254c0 -67.333 -15.5 -128.333 -46.5 -183s-73.833 -97.334 -128.5 -128.001h175v-40h-268v40c67.333 18 121.666 54.667 162.999 110
c41.333 56.667 62 122 62 196c0 90.667 -30 166.667 -90 228s-134.667 92 -224 92s-164 -30.667 -224 -92s-90 -137 -90 -227c0 -75.333 21 -141 63 -197c42 -56.667 97 -93.334 165 -110.001v-40h-269v40h174c-54.667 30.667 -97.667 73.5 -129 128.5
s-47 115.833 -47 182.5z" />
    <glyph glyph-name="uni0400" unicode="&#x400;" horiz-adv-x="639" 
d="M100 700h491v-40h-449v-285h402v-40h-402v-295h454v-40h-496v700zM361 772l-164 99l22 33l158 -109z" />
    <glyph glyph-name="uni0401" unicode="&#x401;" horiz-adv-x="639" 
d="M100 700h491v-40h-449v-285h402v-40h-402v-295h454v-40h-496v700zM209 784c-6.66699 6.66699 -10 15 -10 25s3.33301 18.333 10 25s15 10 25 10s18.333 -3.33301 25 -10s10 -15 10 -25s-3.33301 -18.333 -10 -25c-6.66699 -6 -15 -9 -25 -9s-18.333 3 -25 9zM436 844
c14 0.666992 24.001 -5 30.001 -17s6.16699 -24 0.5 -36s-15.834 -17.333 -30.501 -16c-14 -1.33301 -24 4 -30 16s-6 24 0 36s16 17.667 30 17z" />
    <glyph glyph-name="uni0402" unicode="&#x402;" horiz-adv-x="926" 
d="M324 0l-0.000976562 660.001h-295v40h632v-40h-295v-260c56.667 16.667 116.334 25 179.001 25c93.333 0 164.833 -19.5 214.5 -58.5s74.5 -94.833 74.5 -167.5c0 -68 -22.667 -119.333 -68 -154s-108 -52 -188 -52v40c142.667 0 214 55.333 214 166
c0 61.333 -21 107.666 -63 138.999s-103.333 47 -184 47c-59.333 0 -119 -8.33301 -179 -25v-360h-42z" />
    <glyph glyph-name="uni0403" unicode="&#x403;" horiz-adv-x="562" 
d="M142 660v-660h-42v700h433v-40h-391zM449 871l-164 -99l-16 23l158 109z" />
    <glyph glyph-name="uni0404" unicode="&#x404;" horiz-adv-x="788" 
d="M64 350c0 102 34 187 102 255s153 102 255 102c65.333 0 124.666 -14.667 177.999 -44s95.333 -70 126 -122l-39 -16c-28 44 -65.167 78.5 -111.5 103.5s-97.5 37.5 -153.5 37.5c-84.667 0 -156.667 -27.667 -216 -83c-58.667 -54.667 -91 -124 -97 -208h419v-40h-420
c4 -86.667 35.667 -158.667 95 -216c58.667 -56.667 131.667 -85 219 -85c56 0 107.167 12.5 153.5 37.5s83.5 59.5 111.5 103.5l39 -16c-30.667 -52 -72.667 -92.667 -126 -122s-112.666 -44 -177.999 -44c-102 0 -187 34 -255 102c-68 68.667 -102 153.667 -102 255z" />
    <glyph glyph-name="uni0405" unicode="&#x405;" horiz-adv-x="625" 
d="M546 550l-42 -11c-6.66699 36.667 -27.667 67 -63 91s-78 36 -128 36c-53.333 0 -98.333 -13.667 -135 -41c-36 -27.333 -54 -61.666 -54 -102.999c0 -34 13.333 -62 40 -84c8 -6.66699 23.333 -15.334 46 -26.001c25.333 -10.667 64 -22 116 -34
c51.333 -10.667 95 -24 131 -40c65.333 -28 100 -77 104 -147c0 -58.667 -23.333 -106.334 -70 -143.001s-105.667 -55 -177 -55c-64.667 0 -120.334 15.667 -167.001 47s-74.334 71.333 -83.001 120l42 11c7.33301 -40.667 30 -73.667 68 -99
c39.333 -25.333 86.333 -38 141 -38c58.667 0 107.334 14.333 146.001 43s58 66 58 112c0 44 -20.667 77.667 -62 101c-28.667 16 -75 31.667 -139 47c-52.667 11.333 -96 24.333 -130 39c-33.333 14 -58.666 32.333 -75.999 55s-27.333 52.334 -30 89.001
c0 54 21.667 98.667 65 134s98 53 164 53c60.667 0 112.667 -14.667 156 -44c44 -29.333 70.333 -67 79 -113z" />
    <glyph glyph-name="uni0406" unicode="&#x406;" horiz-adv-x="242" 
d="M142 0h-42v700h42v-700z" />
    <glyph glyph-name="uni0407" unicode="&#x407;" horiz-adv-x="242" 
d="M142 0h-42v700h42v-700zM20 844c14 0.666992 23.833 -4.99805 29.5 -16.998s5.66699 -24 0 -36s-15.5 -17.333 -29.5 -16c-10.667 0 -19.167 3.66699 -25.5 11s-9.5 15.166 -9.5 23.499s3.16699 16.166 9.5 23.499s14.833 11 25.5 11zM196 784.002
c-6 6.66699 -9 15 -9 25s3 18.333 9 25c6.66699 6.66699 15 10 25 10s18.333 -3.33301 25 -10s10 -15 10 -25s-3.33301 -18.333 -10 -25c-6.66699 -6 -15 -9 -25 -9s-18.333 3 -25 9z" />
    <glyph glyph-name="uni0408" unicode="&#x408;" horiz-adv-x="610" 
d="M512 700l0.000976562 -453.001c0 -71.333 -24.667 -131.666 -74 -180.999c-48.667 -48.667 -109.334 -73 -182.001 -73c-46 0 -88 10.333 -126 31s-68.333 49 -91 85l35 22c18.667 -30.667 44 -54.667 76 -72s67.333 -26 106 -26c61.333 0 112.333 20.333 153 61
c41.333 41.333 62 92.333 62 153v453h41z" />
    <glyph glyph-name="uni0409" unicode="&#x409;" horiz-adv-x="1168" 
d="M47 0h-21v40h21c87.333 0 131 106.333 131 319v341h479v-298h253c59.333 0 108.333 -19.333 147 -58c39.333 -38 59 -85.667 59 -143c0 -56.667 -19.667 -104.667 -59 -144c-39.333 -38 -88.333 -57 -147 -57h-295v660h-395v-301c0 -239.333 -57.667 -359 -173 -359z
M657 362v-321.998h253c46.667 0 85.334 15.333 116.001 46c31.333 31.333 47 69.666 47 114.999s-15.667 83.666 -47 114.999c-30.667 30.667 -69.334 46 -116.001 46h-253z" />
    <glyph glyph-name="uni040A" unicode="&#x40a;" horiz-adv-x="1191" 
d="M142 0l-42 -0.00195312v700h42v-310h494v310h42v-310h253c59.333 0 108.666 -18.667 147.999 -56c40 -37.333 60 -83.666 60 -138.999s-20 -101.666 -60 -138.999c-39.333 -37.333 -88.666 -56 -147.999 -56h-295v350h-494v-350zM931 349.998l-253 -0.000976562v-310h253
c46.667 0 85.667 14.667 117 44c32 30 48 67 48 111c0 44.667 -16 81.334 -48 110.001c-30.667 30 -69.667 45 -117 45z" />
    <glyph glyph-name="uni040B" unicode="&#x40b;" horiz-adv-x="926" 
d="M324 0v660h-295v40h632v-40h-295v-259c54.667 16 113.667 24 177 24c94 0 166 -19.5 216 -58.5s75 -95.167 75 -168.5v-198h-42v198c0 124.667 -83 187 -249 187c-63.333 0 -122.333 -8 -177 -24v-361h-42z" />
    <glyph glyph-name="uni040C" unicode="&#x40c;" horiz-adv-x="629" 
d="M603 0h-55l-350 356l330 344h55l-330 -344zM100 0v700h42v-700h-42zM465 871l-164 -99l-16 23l157 109z" />
    <glyph glyph-name="uni040D" unicode="&#x40d;" horiz-adv-x="779" 
d="M100 0v700h42v-626l501 626h36v-700h-42v626l-501 -626h-36zM431 795l-16 -23l-164 99l22 33z" />
    <glyph glyph-name="uni040E" unicode="&#x40e;" 
d="M343 164l-317 536h47l291 -492l233 492h46l-277 -584c-17.333 -35.333 -40.333 -63.5 -69 -84.5s-59 -31.5 -91 -31.5h-77v40h75c24 0 47.333 8.5 70 25.5s40.667 39.5 54 67.5zM335 790c-46.667 0 -84.998 12.667 -114.998 38s-45 57.333 -45 96h37
c0 -28 11.667 -51.333 35 -70s52.666 -28 87.999 -28s64.666 9.33301 87.999 28s35 42 35 70h37c0 -39.333 -15.333 -71.333 -46 -96c-30.667 -25.333 -68.667 -38 -114 -38z" />
    <glyph glyph-name="uni040F" unicode="&#x40f;" horiz-adv-x="752" 
d="M100 0v700h42v-660h468v660h42v-700h-255v-170h-42v170h-255z" />
    <glyph glyph-name="uni0410" unicode="&#x410;" horiz-adv-x="715" 
d="M71 0h-45l316 700h31l316 -700h-45l-83 184h-407zM543 224l-186 413l-185 -413h371z" />
    <glyph glyph-name="uni0411" unicode="&#x411;" horiz-adv-x="668" 
d="M100 700h439.001v-40h-397v-258h253c59.333 0 108.666 -19.333 147.999 -58c40 -38 60 -85.667 60 -143c0 -56.667 -20 -104.667 -60 -144c-40 -38 -89.333 -57 -148 -57h-295v700zM142.001 362v-321.998h253c48 0 87.333 15.333 118 46
c31.333 31.333 47 69.666 47 114.999s-15.667 83.666 -47 114.999c-30.667 30.667 -70 46 -118 46h-253z" />
    <glyph glyph-name="uni0412" unicode="&#x412;" horiz-adv-x="701" 
d="M444 0h-343.999v700h324c51.333 0 94.666 -16.667 129.999 -50s53 -74.666 53 -123.999c0 -34 -8.83301 -64.667 -26.5 -92s-41.5 -48 -71.5 -62c40.667 -12 73.5 -34.5 98.5 -67.5s37.5 -70.5 37.5 -112.5c0 -54.667 -19.333 -100.334 -58 -137.001
c-37.333 -36.667 -85 -55 -143 -55zM444.001 348l-302 -0.000976562v-308h302c44.667 0 82.334 14.667 113.001 44c30 28.667 45 65.334 45 110.001c0 44 -15 80.667 -45 110c-30.667 29.333 -68.334 44 -113.001 44zM424.001 659.999h-282v-272h282
c38.667 0 71.667 13 99 39s41 58.333 41 97s-13.667 71 -41 97s-60.333 39 -99 39z" />
    <glyph glyph-name="uni0413" unicode="&#x413;" horiz-adv-x="562" 
d="M142 660v-660h-42v700h433v-40h-391z" />
    <glyph glyph-name="uni0414" unicode="&#x414;" horiz-adv-x="841" 
d="M70 0v-170h-42v210h78c70 18 105 124 105 318v342h480v-660h122v-210h-42v170h-701zM175 40h474v620h-396v-300c0 -161.333 -26 -268 -78 -320z" />
    <glyph glyph-name="uni0415" unicode="&#x415;" horiz-adv-x="639" 
d="M100 700h491v-40h-449v-285h402v-40h-402v-295h454v-40h-496v700z" />
    <glyph glyph-name="uni0416" unicode="&#x416;" horiz-adv-x="975" 
d="M81 0h-55l338 356l-318 344h55l318 -344zM949 0h-54l-339 356l319 344h54l-318 -344zM509 700v-700h-42v700h42z" />
    <glyph glyph-name="uni0417" unicode="&#x417;" horiz-adv-x="634" 
d="M314 -7c-124 0 -211.665 53.999 -262.998 161.999l40 16c43.333 -91.333 117.666 -137 222.999 -137c64 0 116.667 15 158 45c42 30.667 63 70 63 118c0 40.667 -15 75.334 -45 104.001c-28.667 28.667 -65.334 43 -110.001 43h-138v40h136c38.667 0 71 13 97 39
c26.667 26.667 40 58.334 40 95.001c0 44 -19.333 79.333 -58 106c-38 28 -86.667 42 -146 42c-102.667 0 -175.667 -45.667 -219 -137l-40 16c50 108 136.333 162 259 162c71.333 0 130.333 -17.667 177 -53c46.667 -34.667 70 -79.334 70 -134.001
c0 -34 -9.33301 -64.833 -28 -92.5s-44 -48.5 -76 -62.5c38 -13.333 68.167 -35.5 90.5 -66.5s33.5 -66.167 33.5 -105.5c0 -58 -25 -106 -75 -144c-50.667 -37.333 -113.667 -56 -189 -56z" />
    <glyph glyph-name="uni0418" unicode="&#x418;" horiz-adv-x="779" 
d="M136 0h-36v700h42v-626l501 626h36v-700h-42v626z" />
    <glyph glyph-name="uni0419" unicode="&#x419;" horiz-adv-x="779" 
d="M136 0h-36v700h42v-626l501 626h36v-700h-42v626zM232 924h37.002c0 -28 11.667 -51.333 35 -70s52.666 -28 87.999 -28s64.666 9.33301 87.999 28s35 42 35 70h37c0 -39.333 -15.333 -71.333 -46 -96c-30.667 -25.333 -68.667 -38 -114 -38c-42.667 0 -80 12 -112 36
s-48 56.667 -48 98z" />
    <glyph glyph-name="uni041A" unicode="&#x41a;" horiz-adv-x="629" 
d="M603 0h-55l-350 356l330 344h55l-330 -344zM100 0v700h42v-700h-42z" />
    <glyph glyph-name="uni041B" unicode="&#x41b;" horiz-adv-x="757" 
d="M47 0h-21v40h21c87.333 0 131 106.333 131 319v341h479v-700h-42v660h-395v-301c0 -239.333 -57.667 -359 -173 -359z" />
    <glyph glyph-name="uni041C" unicode="&#x41c;" horiz-adv-x="915" 
d="M142 0h-42v700h42l315 -546l316 546h42v-700h-42v620l-302 -524h-27l-302 523v-619z" />
    <glyph glyph-name="uni041D" unicode="&#x41d;" horiz-adv-x="778" 
d="M142 0h-42v700h42v-325h494v325h42v-700h-42v335h-494v-335z" />
    <glyph glyph-name="uni041E" unicode="&#x41e;" horiz-adv-x="842" 
d="M64 350c0 102 34 187 102 255s153 102 255 102c101.333 0 186 -34 254 -102c68.667 -68 103 -153 103 -255c0 -101.333 -34.333 -186.333 -103 -255c-68 -68 -152.667 -102 -254 -102c-102 0 -187 34 -255 102c-68 68.667 -102 153.667 -102 255zM197 575
c-60 -60 -90 -135 -90 -225c0 -89.333 30 -164.666 90 -225.999c60 -60 134.667 -90 224 -90s164 30 224 90c60 61.333 90 136.666 90 225.999c0 90 -30 165 -90 225c-60 60.667 -134.667 91 -224 91s-164 -30.333 -224 -91z" />
    <glyph glyph-name="uni041F" unicode="&#x41f;" horiz-adv-x="778" 
d="M142 660v-660h-42v700h578v-700h-42v660h-494z" />
    <glyph glyph-name="uni0420" unicode="&#x420;" horiz-adv-x="663" 
d="M142 290l-0.000976562 -289.999h-42v700h299c60 0 110.333 -19.667 151 -59c40.667 -38.667 61 -87.334 61 -146.001c0 -59.333 -20.333 -108.333 -61 -147c-39.333 -38.667 -89.666 -58 -150.999 -58h-257zM398.999 660.001h-257v-330h257
c47.333 0 87.333 15.667 120 47c32.667 32 49 71.333 49 118c0 47.333 -16.333 86.333 -49 117c-32 32 -72 48 -120 48z" />
    <glyph glyph-name="uni0421" unicode="&#x421;" horiz-adv-x="788" 
d="M64 350c0 102 34 186.999 102 254.999s153 102 255 102c65.333 0 124.666 -14.667 177.999 -44s95.333 -70 126 -122l-39 -16c-28 44 -65.167 78.5 -111.5 103.5s-97.5 37.5 -153.5 37.5c-89.333 0 -164 -30.333 -224 -91c-60 -60 -90 -135 -90 -225
c0 -89.333 30 -164.666 90 -225.999c60 -60 134.667 -90 224 -90c56 0 107.167 12.5 153.5 37.5s83.5 59.5 111.5 103.5l39 -16c-30.667 -52 -72.667 -92.667 -126 -122s-112.666 -44 -177.999 -44c-102 0 -187 34 -255 102c-68 68.667 -102 153.667 -102 255z" />
    <glyph glyph-name="uni0422" unicode="&#x422;" horiz-adv-x="690" 
d="M29 700h632v-40h-295v-660h-42v660h-295v40z" />
    <glyph glyph-name="uni0423" unicode="&#x423;" 
d="M328 133l15 31l-317 536h47l291 -492l233 492h46l-277 -584c-17.333 -35.333 -40.333 -63.5 -69 -84.5s-59 -31.5 -91 -31.5h-77v40h75c24 0 47.333 8.5 70 25.5s40.667 39.5 54 67.5z" />
    <glyph glyph-name="uni0424" unicode="&#x424;" horiz-adv-x="850" 
d="M404 629l-0.000976562 78h42v-78c100.667 -0.666992 182.334 -27 245.001 -79c63.333 -51.333 95 -118 95 -200s-31.667 -149 -95 -201c-63.333 -51.333 -145 -77.333 -245 -78v-78h-42v78c-101.333 0.666992 -183.333 26.667 -246 78c-62.667 52 -94 119 -94 201
c0 82.667 31.333 149.334 94 200.001c62.667 51.333 144.667 77.666 246 78.999zM403.999 112v476c-88.667 -0.666992 -160.334 -23 -215.001 -67s-82 -101 -82 -171s27.333 -127 82 -171s126.334 -66.333 215.001 -67zM445.999 588v-475.998
c88 1.33301 159.333 23.666 214 66.999c55.333 44 83 101 83 171s-27.667 127 -83 171c-54.667 43.333 -126 65.666 -214 66.999z" />
    <glyph glyph-name="uni0425" unicode="&#x425;" horiz-adv-x="655" 
d="M302 356l-266 344h51l241 -311l240 311h51l-266 -344l276 -356h-51l-250 324l-251 -324h-51z" />
    <glyph glyph-name="uni0426" unicode="&#x426;" horiz-adv-x="802" 
d="M100 0v700h42v-660h468v660h42v-660h122v-210h-42v170h-632z" />
    <glyph glyph-name="uni0427" unicode="&#x427;" horiz-adv-x="711" 
d="M375 275c-100.667 0 -177.833 19.5 -231.5 58.5s-80.5 95.167 -80.5 168.5v198h42v-198c0 -124.667 89.667 -187 269 -187c70.667 0 135.667 8.66699 195 26v359h42v-700h-42v300c-62 -16.667 -126.667 -25 -194 -25z" />
    <glyph glyph-name="uni0428" unicode="&#x428;" horiz-adv-x="1122" 
d="M100 0v700h42v-660h397v660h42v-660h399v660h42v-700h-922z" />
    <glyph glyph-name="uni0429" unicode="&#x429;" horiz-adv-x="1172" 
d="M100 700h42v-660h397v660h42v-660h399v660h42v-660h122v-210h-42v170h-1002v700z" />
    <glyph glyph-name="uni042A" unicode="&#x42a;" horiz-adv-x="861" 
d="M306 0l0.000976562 660h-277v40h319v-298h253c59.333 0 108.666 -19.333 147.999 -58c40 -38 60 -85.667 60 -143c0 -56.667 -20 -104.667 -60 -144c-40 -38 -89.333 -57 -148 -57h-295zM348.001 362v-321.998h253c48 0 87.333 15.333 118 46
c31.333 31.333 47 69.666 47 114.999s-15.667 83.666 -47 114.999c-30.667 30.667 -70 46 -118 46h-253z" />
    <glyph glyph-name="uni042B" unicode="&#x42b;" horiz-adv-x="889" 
d="M395 0h-294.999v700h42v-298h253c59.333 0 108.666 -19.333 147.999 -58c40 -38 60 -85.667 60 -143c0 -56.667 -20 -104.667 -60 -144c-40 -38 -89.333 -57 -148 -57zM142.001 362v-321.999h253c48 0 87.333 15.333 118 46c31.333 31.333 47 69.666 47 114.999
c0 44 -14.333 80.667 -43 110c-28 30 -63.667 46.667 -107 50c-1.33301 0.666992 -4.33301 1 -9 1h-6h-253zM789.001 0.000976562h-42v700h42v-700z" />
    <glyph glyph-name="uni042C" unicode="&#x42c;" horiz-adv-x="655" 
d="M100 0l0.000976562 700h42v-298h253c59.333 0 108.666 -19.333 147.999 -58c40 -38 60 -85.667 60 -143c0 -56.667 -20 -104.667 -60 -144c-40 -38 -89.333 -57 -148 -57h-295zM142.001 362l0.000976562 -322h253c43.333 0 80.666 13.667 111.999 41
c32 28.667 49.333 63.667 52 105c0.666992 1.33301 1 4.33301 1 9c0 49.333 -15.333 89.333 -46 120c-31.333 31.333 -71 47 -119 47h-253z" />
    <glyph glyph-name="uni042D" unicode="&#x42d;" horiz-adv-x="788" 
d="M63 159l40.0029 16c28 -44 65.167 -78.5 111.5 -103.5s97.166 -37.5 152.499 -37.5c87.333 0 160.333 28.333 219 85c59.333 57.333 91 129.333 95 216h-374v40h373c-6 84 -38.333 153.333 -97 208c-59.333 55.333 -131.333 83 -216 83
c-55.333 0 -106.166 -12.5 -152.499 -37.5s-83.5 -59.5 -111.5 -103.5l-40 16c30.667 52 72.667 92.667 126 122s112.666 44 177.999 44c102 0 187 -34 255 -102s102 -153 102 -255c0 -101.333 -34 -186.333 -102 -255c-68 -68 -153 -102 -255 -102
c-64.667 0 -123.834 14.833 -177.501 44.5s-95.834 70.167 -126.501 121.5z" />
    <glyph glyph-name="uni042E" unicode="&#x42e;" horiz-adv-x="1090" 
d="M100 0l-0.000976562 700.001h42v-325h172c4.66699 95.333 40.667 174.666 108 237.999c66.667 62.667 149 94 247 94c102 0 187 -34 255 -102s102 -153 102 -255c0 -101.333 -34 -186.333 -102 -255c-68 -68 -153 -102 -255 -102c-99.333 0 -182.666 32.333 -249.999 97
c-68 65.333 -103.333 147 -106 245h-171v-335h-42zM444.999 575.001c-60 -60 -90 -135 -90 -225c0 -89.333 30 -164.666 90 -225.999c60 -60 134.667 -90 224 -90s164 30 224 90c60 61.333 90 136.666 90 225.999c0 90 -30 165 -90 225c-60 60.667 -134.667 91 -224 91
s-164 -30.333 -224 -91z" />
    <glyph glyph-name="uni042F" unicode="&#x42f;" horiz-adv-x="682" 
d="M288 294l-184 -294h-48l184 296c-51.333 6.66699 -94.333 29 -129 67c-33.333 37.333 -50 82 -50 134c0 56.667 20 104.667 60 144c41.333 39.333 92 59 152 59h309v-700h-42v294h-252zM273 334h267v326h-267c-47.333 0 -87.666 -15.667 -120.999 -47
c-32 -31.333 -48 -70 -48 -116s16 -84.667 48 -116c33.333 -31.333 73.666 -47 120.999 -47z" />
    <glyph glyph-name="uni0430" unicode="&#x430;" 
d="M313 527c48 0 92.001 -11.8301 132.001 -35.4971s71 -55.834 93 -96.501v125h40v-520h-40v125c-22 -40.667 -53 -72.834 -93 -96.501s-84 -35.5 -132 -35.5c-74 0 -135.333 25.333 -184 76c-49.333 51.333 -74 115 -74 191c0 75.333 24.667 138.666 74 189.999
s110.666 77 183.999 77zM473.001 422.003c-42 43.333 -94.333 65 -157 65s-115 -21.667 -157 -65c-42 -42.667 -63 -96.667 -63 -162s21 -119.333 63 -162c42 -43.333 94.333 -65 157 -65s115 21.667 157 65c42 42.667 63 96.667 63 162s-21 119.333 -63 162z" />
    <glyph glyph-name="uni0431" unicode="&#x431;" horiz-adv-x="659" 
d="M56 382c0 114 23.5 199.168 70.5 255.501s119.167 89.5 216.5 99.5l105 10l105 10v-40c-25.333 -2 -92 -8.66699 -200 -20c-99.333 -10 -168.666 -45.167 -207.999 -105.5s-54 -150.833 -44 -271.5c9.33301 59.333 36 108.333 80 147c45.333 40 99.666 60 162.999 60
c73.333 0 135 -25.667 185 -77s75 -114.666 75 -189.999c0 -76.667 -25.333 -140.334 -76 -191.001c-50 -50.667 -112.333 -76 -187 -76c-81.333 0 -149.333 32.333 -204 97c-54 65.333 -81 162.666 -81 291.999zM343 33.001c62.667 0 115 21.667 157 65
c42 42.667 63 96.667 63 162s-21 119.333 -63 162c-42 43.333 -94.333 65 -157 65c-63.333 0 -116 -21.667 -158 -65c-42 -42.667 -63 -96.667 -63 -162s21 -119.333 63 -162c42 -43.333 94.667 -65 158 -65z" />
    <glyph glyph-name="uni0432" unicode="&#x432;" horiz-adv-x="567" 
d="M91 520h255c38 0 70.333 -11.5 97 -34.5s41.667 -51.5 45 -85.5c0.666992 -0.666992 1 -3 1 -7c0 -54 -23 -93.667 -69 -119c28 -9.33301 50.667 -26 68 -50s26 -51 26 -81c0 -40.667 -14 -74.667 -42 -102c-28.667 -27.333 -63.667 -41 -105 -41h-276v520zM131 252v-213
h236c30 0 55.167 10.167 75.5 30.5s30.5 45.5 30.5 75.5c0 30.667 -10.167 56.167 -30.5 76.5s-45.5 30.5 -75.5 30.5h-236zM346 481l-215 0.000976562v-193h215c29.333 0 53.666 9.16699 72.999 27.5s29 41.166 29 68.499s-9.66699 50.333 -29 69s-43.666 28 -72.999 28z
" />
    <glyph glyph-name="uni0433" unicode="&#x433;" horiz-adv-x="446" 
d="M131 481v-481h-40v520h329v-39h-289z" />
    <glyph glyph-name="uni0434" unicode="&#x434;" horiz-adv-x="670" 
d="M71 0v-149.999h-40v189h65c20.667 10.667 37 31.667 49 63s18 69.666 18 114.999v303h378v-481h98v-189h-40v150h-528zM152 39.001h349v442h-298v-260c0 -82 -17 -142.667 -51 -182z" />
    <glyph glyph-name="uni0435" unicode="&#x435;" horiz-adv-x="629" 
d="M579 251l-482.998 0.000976562c2 -63.333 24.667 -116 68 -158c43.333 -41.333 97.666 -62 162.999 -62c83.333 0 146.666 33 189.999 99l39 -14c-24 -38.667 -56.167 -68.834 -96.5 -90.501s-84.5 -32.5 -132.5 -32.5c-78.667 0 -143.667 25.333 -195 76
c-51.333 51.333 -77 115 -77 191c0 75.333 25 138.666 75 189.999c51.333 51.333 114 77 188 77c74.667 0 137 -25.667 187 -77s75 -114.666 75 -189.999c0 -4.66699 -0.333008 -7.66699 -1 -9zM97.002 286.001h441.001c-4.66699 58 -28.334 106.333 -71.001 145
c-40.667 38.667 -90.667 58 -150 58s-109.333 -19.333 -150 -58c-42 -38.667 -65.333 -87 -70 -145z" />
    <glyph glyph-name="uni0436" unicode="&#x436;" horiz-adv-x="716" 
d="M76 0h-50l230 269l-212 251h50l212 -251zM690 0h-50l-230 269l213 251h49l-212 -251zM378 520v-520h-40v520h40z" />
    <glyph glyph-name="uni0437" unicode="&#x437;" horiz-adv-x="549" 
d="M61 123l38.999 12.002c30.667 -68.667 88 -103 172 -103c49.333 0 90.666 11 123.999 33c33.333 23.333 50 51.666 50 84.999c0 28.667 -11.333 52.667 -34 72s-51 29 -85 29h-126v36h119c32.667 0 60 9.16699 82 27.5s33 40.5 33 66.5c0 30.667 -15.333 56 -46 76
c-30.667 20.667 -69 31 -115 31c-83.333 0 -140.333 -34.333 -171 -103l-39 12c36.667 86.667 107.334 130 212.001 130c56.667 0 104.334 -13.667 143.001 -41c38 -26.667 57 -60.334 57 -101.001c0 -24.667 -7.33301 -47.167 -22 -67.5s-34.667 -35.833 -60 -46.5
c28.667 -10.667 51.334 -27.167 68.001 -49.5s25 -47.5 25 -75.5c0 -44 -20.333 -80.333 -61 -109c-41.333 -29.333 -92.333 -44 -153 -44c-104.667 0 -175.334 43.333 -212.001 130z" />
    <glyph glyph-name="uni0438" unicode="&#x438;" horiz-adv-x="648" 
d="M517 455l-390 -455h-36v520h40v-455l390 455h36v-520h-40v455z" />
    <glyph glyph-name="uni0439" unicode="&#x439;" horiz-adv-x="648" 
d="M517 455l-390 -455h-36v520h40v-455l390 455h36v-520h-40v455zM173 739h36c0 -28.667 10.833 -52.334 32.5 -71.001s49.167 -28 82.5 -28s60.833 9.33301 82.5 28s32.5 42.334 32.5 71.001h36c0 -39.333 -14.333 -71.333 -43 -96c-29.333 -25.333 -65.333 -38 -108 -38
s-78.667 12.667 -108 38c-28.667 24.667 -43 56.667 -43 96z" />
    <glyph glyph-name="uni043A" unicode="&#x43a;" horiz-adv-x="505" 
d="M479 0h-52l-254 269l233 251h51l-232 -251zM131 520v-520h-40v520h40z" />
    <glyph glyph-name="uni043B" unicode="&#x43b;" horiz-adv-x="606" 
d="M57 0l-26 0.000976562v39h24c57.333 0 86 54.667 86 164v317h374v-520h-40v481h-294v-283c0 -64.667 -11 -113.834 -33 -147.501s-52.333 -50.5 -91 -50.5z" />
    <glyph glyph-name="uni043C" unicode="&#x43c;" horiz-adv-x="722" 
d="M131 443v-443h-40v520h40l230 -404l230 404h40v-520h-40v442l-218 -382h-24z" />
    <glyph glyph-name="uni043D" unicode="&#x43d;" horiz-adv-x="644" 
d="M131 245v-245h-40v520h40v-236h382v236h40v-520h-40v245h-382z" />
    <glyph glyph-name="uni043E" unicode="&#x43e;" horiz-adv-x="644" 
d="M131 69c-50.667 50.667 -75.998 114.332 -75.998 190.999c0 76 25.333 139.333 76 190c51.333 51.333 115 77 191 77c75.333 0 138.666 -25.667 189.999 -77s77 -114.666 77 -189.999c0 -76 -25.667 -139.667 -77 -191c-50.667 -50.667 -114 -76 -190 -76
c-76.667 0 -140.334 25.333 -191.001 76zM160.002 421.998c-42.667 -42.667 -64 -96.667 -64 -162s21.333 -119.333 64 -162c43.333 -43.333 97.333 -65 162 -65c64 0 117.667 21.667 161 65s65 97.333 65 162s-21.667 118.667 -65 162s-97 65 -161 65
c-64.667 0 -118.667 -21.667 -162 -65z" />
    <glyph glyph-name="uni043F" unicode="&#x43f;" horiz-adv-x="638" 
d="M131 481v-481h-40v520h456v-520h-40v481h-376z" />
    <glyph glyph-name="uni0440" unicode="&#x440;" 
d="M131 -225l-39.999 -0.00292969v745h40v-125c22 40.667 53 72.834 93 96.501s84 35.5 132 35.5c73.333 0 134.666 -25.667 183.999 -77s74 -114.666 74 -189.999c0 -76 -24.667 -139.667 -74 -191c-48.667 -50.667 -110 -76 -184 -76c-48 0 -92 11.833 -132 35.5
s-71 55.834 -93 96.501v-350zM510.001 421.997c-42 43.333 -94.333 65 -157 65s-115 -21.667 -157 -65c-42 -42.667 -63 -96.667 -63 -162s21 -119.333 63 -162c42 -43.333 94.333 -65 157 -65s115 21.667 157 65c42 42.667 63 96.667 63 162s-21 119.333 -63 162z" />
    <glyph glyph-name="uni0441" unicode="&#x441;" horiz-adv-x="608" 
d="M559 386l-39.999 -12.999c-18.667 35.333 -45.334 63.166 -80.001 83.499s-73.667 30.5 -117 30.5c-64.667 0 -118.667 -21.667 -162 -65c-42.667 -42.667 -64 -96.667 -64 -162s21.333 -119.333 64 -162c43.333 -43.333 97.333 -65 162 -65
c43.333 0 82.333 10.167 117 30.5s61.334 48.166 80.001 83.499l40 -13c-22 -44 -54 -78.5 -96 -103.5s-89 -37.5 -141 -37.5c-76.667 0 -140.334 25.333 -191.001 76s-76 114.334 -76 191.001c0 76 25.333 139.333 76 190c51.333 51.333 115 77 191 77
c52 0 99 -12.5 141 -37.5s74 -59.5 96 -103.5z" />
    <glyph glyph-name="uni0442" unicode="&#x442;" horiz-adv-x="530" 
d="M245 0v481h-219v39h478v-39h-219v-481h-40z" />
    <glyph glyph-name="uni0443" unicode="&#x443;" horiz-adv-x="518" 
d="M236 15l-217.999 504.999h42l197 -457l201 457h42l-279 -633c-17.333 -39.333 -37.833 -67.833 -61.5 -85.5s-53.167 -26.5 -88.5 -26.5h-28v39h28c26.667 0 49.167 6.83301 67.5 20.5s34.166 35.834 47.499 66.501z" />
    <glyph glyph-name="uni0444" unicode="&#x444;" horiz-adv-x="768" 
d="M445 -7c-13.333 0 -26.998 0.998047 -40.998 2.99805v-221h-40v221c-14 -2 -27.667 -3 -41 -3c-76.667 0 -140.334 25.333 -191.001 76s-76 114.334 -76 191.001c0 76 25.333 139.333 76 190c51.333 51.333 115 77 191 77c13.333 0 27 -1 41 -3v226h40v-226
c14 2 27.667 3 41 3c75.333 0 138.666 -25.667 189.999 -77s77 -114.666 77 -189.999c0 -76 -25.667 -139.667 -77 -191c-50.667 -50.667 -114 -76 -190 -76zM323.002 486.998c-64.667 0 -118.667 -21.667 -162 -65c-42.667 -42.667 -64 -96.667 -64 -162
s21.333 -119.333 64 -162c43.333 -43.333 97.333 -65 162 -65c10.667 0 24.334 1.33301 41.001 4v446c-16.667 2.66699 -30.334 4 -41.001 4zM445.002 486.998c-10.667 0 -24.334 -1.33301 -41.001 -4v-446c16.667 -2.66699 30.334 -4 41.001 -4c64 0 117.667 21.667 161 65
s65 97.333 65 162s-21.667 118.667 -65 162s-97 65 -161 65z" />
    <glyph glyph-name="uni0445" unicode="&#x445;" horiz-adv-x="529" 
d="M450 0l-185 233l-186 -233h-49l210 265l-202 255h49l178 -223l178 223h49l-202 -255l209 -265h-49z" />
    <glyph glyph-name="uni0446" unicode="&#x446;" horiz-adv-x="671" 
d="M91 0v520h40v-481h371v481h40v-481h98v-189h-40v150h-509z" />
    <glyph glyph-name="uni0447" unicode="&#x447;" horiz-adv-x="563" 
d="M59 359l0.000976562 161h41v-161c0 -34.667 13 -62.667 39 -84s62.333 -32 109 -32c48 0 109.333 5.33301 184 16v261h40v-520h-40v220c-74.667 -10.667 -137 -16 -187 -16c-56.667 0 -101.834 14.333 -135.501 43s-50.5 66 -50.5 112z" />
    <glyph glyph-name="uni0448" unicode="&#x448;" horiz-adv-x="898" 
d="M91 0v520h40v-481h298v481h40v-481h298v481h40v-520h-716z" />
    <glyph glyph-name="uni0449" unicode="&#x449;" horiz-adv-x="936" 
d="M91 520h40v-481h298v481h40v-481h298v481h40v-481h98v-189h-40v150h-774v520z" />
    <glyph glyph-name="uni044A" unicode="&#x44a;" horiz-adv-x="673" 
d="M229 0v481h-203v39h243v-210h203c42.667 0 78.667 -15 108 -45c29.333 -29.333 44 -66 44 -110c0 -43.333 -14.667 -80.333 -44 -111c-29.333 -29.333 -65.333 -44 -108 -44h-243zM472 271h-203v-232h203c31.333 0 57.666 11.167 78.999 33.5s32 49.833 32 82.5
s-10.667 60.167 -32 82.5s-47.666 33.5 -78.999 33.5z" />
    <glyph glyph-name="uni044B" unicode="&#x44b;" horiz-adv-x="732" 
d="M334 0h-243v520h40v-210h203c42.667 0 78.667 -15 108 -45c29.333 -29.333 44 -66 44 -110c0 -40.667 -12.667 -75.667 -38 -105c-24.667 -28.667 -57 -45 -97 -49c-2 -0.666992 -5.33301 -1 -10 -1h-7zM334 271h-203v-232h203c31.333 0 57.666 11.167 78.999 33.5
s32 49.833 32 82.5s-10.667 60.167 -32 82.5s-47.666 33.5 -78.999 33.5zM641 0h-40v520h40v-520z" />
    <glyph glyph-name="uni044C" unicode="&#x44c;" horiz-adv-x="535" 
d="M334 0l-242.999 0.000976562v520h40v-210h203c40 0 74.333 -13 103 -39s44.667 -59 48 -99c0.666992 -2 1 -5.33301 1 -10c0 -46.667 -14 -85.334 -42 -116.001c-26.667 -30.667 -63.334 -46 -110.001 -46zM131.001 271.001v-232h203c31.333 0 57.666 11.167 78.999 33.5
s32 49.833 32 82.5s-10.667 60.167 -32 82.5s-47.666 33.5 -78.999 33.5h-203z" />
    <glyph glyph-name="uni044D" unicode="&#x44d;" horiz-adv-x="608" 
d="M49 134l39.002 12.999c19.333 -36 46.333 -64 81 -84s73.667 -30 117 -30c61.333 0 113.666 20 156.999 60c43.333 40.667 66.333 91.667 69 153h-282v38h281c-5.33301 59.333 -29 108 -71 146s-93.333 57 -154 57c-43.333 0 -82.333 -10 -117 -30s-61.667 -48 -81 -84
l-39 13c22 44 54 78.5 96 103.5s89 37.5 141 37.5c75.333 0 138.666 -25.667 189.999 -77s77 -114.666 77 -189.999c0 -76 -25.667 -139.667 -77 -191c-50.667 -50.667 -114 -76 -190 -76c-52 0 -99 12.5 -141 37.5s-74 59.5 -96 103.5z" />
    <glyph glyph-name="uni044E" unicode="&#x44e;" horiz-adv-x="856" 
d="M91 0v520h40v-236h147c4.66699 69.333 32 127.333 82 174c49.333 46 109 69 179 69c74.667 0 137 -25.667 187 -77s75 -114.666 75 -189.999c0 -76.667 -25 -140.334 -75 -191.001s-112.333 -76 -187 -76c-72 0 -132.667 23.667 -182 71c-49.333 48.667 -76 109 -80 181
h-146v-245h-40zM697 422c-42 43.333 -94.667 65 -158 65s-116 -21.667 -158 -65c-42 -42.667 -63 -96.667 -63 -162s21 -119.333 63 -162c42 -43.333 94.667 -65 158 -65s116 21.667 158 65c42 42.667 63 96.667 63 162s-21 119.333 -63 162z" />
    <glyph glyph-name="uni044F" unicode="&#x44f;" horiz-adv-x="582" 
d="M66 367c0 44 14.333 80.332 43 108.999c29.333 29.333 65 44 107 44h275v-520h-40v213h-184l-147 -213h-48l147 213h-3c-42 0 -77.667 14.667 -107 44c-28.667 28.667 -43 65.334 -43 110.001zM216 251.999l235 0.000976562v229h-235
c-31.333 0 -57.333 -10.833 -78 -32.5s-31 -48.834 -31 -81.501s10.333 -60 31 -82s46.667 -33 78 -33z" />
    <glyph glyph-name="uni0450" unicode="&#x450;" horiz-adv-x="629" 
d="M579 251l-482.998 0.000976562c2 -63.333 24.667 -116 68 -158c43.333 -41.333 97.666 -62 162.999 -62c83.333 0 146.666 33 189.999 99l39 -14c-24 -38.667 -56.167 -68.834 -96.5 -90.501s-84.5 -32.5 -132.5 -32.5c-78.667 0 -143.667 25.333 -195 76
c-51.333 51.333 -77 115 -77 191c0 75.333 25 138.666 75 189.999c51.333 51.333 114 77 188 77c74.667 0 137 -25.667 187 -77s75 -114.666 75 -189.999c0 -4.66699 -0.333008 -7.66699 -1 -9zM97.002 286.001h441.001c-4.66699 58 -28.334 106.333 -71.001 145
c-40.667 38.667 -90.667 58 -150 58s-109.333 -19.333 -150 -58c-42 -38.667 -65.333 -87 -70 -145zM347.003 610.001l-164 99l22 33l158 -109z" />
    <glyph glyph-name="uni0451" unicode="&#x451;" horiz-adv-x="629" 
d="M579 251l-482.998 0.000976562c2 -63.333 24.667 -116 68 -158c43.333 -41.333 97.666 -62 162.999 -62c83.333 0 146.666 33 189.999 99l39 -14c-24 -38.667 -56.167 -68.834 -96.5 -90.501s-84.5 -32.5 -132.5 -32.5c-78.667 0 -143.667 25.333 -195 76
c-51.333 51.333 -77 115 -77 191c0 75.333 25 138.666 75 189.999c51.333 51.333 114 77 188 77c74.667 0 137 -25.667 187 -77s75 -114.666 75 -189.999c0 -4.66699 -0.333008 -7.66699 -1 -9zM97.002 286.001h441.001c-4.66699 58 -28.334 106.333 -71.001 145
c-40.667 38.667 -90.667 58 -150 58s-109.333 -19.333 -150 -58c-42 -38.667 -65.333 -87 -70 -145zM195.003 622.001c-6 6.66699 -9 15 -9 25s3 18.333 9 25c6.66699 6.66699 15 10 25 10s18.333 -3.33301 25 -10s10 -15 10 -25s-3.33301 -18.333 -10 -25
c-6.66699 -6 -15 -9 -25 -9s-18.333 3 -25 9zM397.003 622.001c-6.66699 6.66699 -10 15 -10 25s3.33301 18.333 10 25s15 10 25 10s18.333 -3.33301 25 -10s10 -15 10 -25s-3.33301 -18.333 -10 -25c-6.66699 -6 -15 -9 -25 -9s-18.333 3 -25 9z" />
    <glyph glyph-name="uni0452" unicode="&#x452;" horiz-adv-x="641" 
d="M131 750l-0.000976562 -103.999h226v-34h-226v-207c12 25.333 33 50.666 63 75.999c36 30.667 86 46 150 46c60 0 110 -20.333 150 -61c40 -41.333 60 -92 60 -152v-399c0 -39.333 -12 -72.333 -36 -99c-24 -27.333 -53.667 -41 -89 -41h-38v39h36
c24.667 0 45.334 10 62.001 30s25 44.667 25 74v389c0 51.333 -17 94.333 -51 129c-32.667 34.667 -74.667 52 -126 52c-57.333 0 -106.333 -17.667 -147 -53c-39.333 -35.333 -59 -79 -59 -131v-304h-40v612h-74v34h74v104h40z" />
    <glyph glyph-name="uni0453" unicode="&#x453;" horiz-adv-x="446" 
d="M131 481v-481h-40v520h329v-39h-289zM395 709l-164 -99l-16 23l158 109z" />
    <glyph glyph-name="uni0454" unicode="&#x454;" horiz-adv-x="608" 
d="M322 -7c-76.667 0 -140.332 25.334 -190.999 76.001s-76 114.334 -76 191.001c0 76 25.333 139.333 76 190c51.333 51.333 115 77 191 77c52 0 99 -12.5 141 -37.5s74 -59.5 96 -103.5l-40 -13c-18.667 35.333 -45.334 63.166 -80.001 83.499s-73.667 30.5 -117 30.5
c-60.667 0 -112 -19 -154 -57s-65.667 -86.667 -71 -146h301v-38h-302c2.66699 -61.333 25.667 -112.333 69 -153c43.333 -40 95.666 -60 156.999 -60c43.333 0 82.333 10.167 117 30.5s61.334 48.166 80.001 83.499l40 -13c-22 -44 -54 -78.5 -96 -103.5
s-89 -37.5 -141 -37.5z" />
    <glyph glyph-name="uni0455" unicode="&#x455;" horiz-adv-x="480" 
d="M409 421l-38.0029 -9.99707c-5.33301 23.333 -20.166 42.333 -44.499 57s-53.833 22 -88.5 22c-37.333 0 -68.5 -8.83301 -93.5 -26.5s-37.5 -39.834 -37.5 -66.501c0 -39.333 22 -67.333 66 -84l148 -53c67.333 -25.333 101 -67.333 101 -126
c0 -42 -17.333 -76 -52 -102s-78.667 -39 -132 -39c-49.333 0 -90.666 10.667 -123.999 32s-53.666 50 -60.999 86l38 9c5.33301 -26.667 21.333 -48.334 48 -65.001s59.667 -25 99 -25c42 0 76.667 9.66699 104 29s41 44 41 74c0 42 -26.667 72.667 -80 92l-142 54
c-62 23.333 -93 62 -93 116c0 39.333 16 71.166 48 95.499s73.333 36.5 124 36.5c44 0 81.333 -9.66699 112 -29s49.667 -45 57 -77z" />
    <glyph glyph-name="uni0456" unicode="&#x456;" horiz-adv-x="222" 
d="M131 0h-40v520h40v-520zM76 650c0 10 3.16699 18.333 9.5 25s14.833 10 25.5 10c10 0 18.333 -3.33301 25 -10s10 -15 10 -25c0 -10.667 -3.33301 -19.334 -10 -26.001s-15 -10 -25 -10c-10.667 0 -19.167 3.33301 -25.5 10s-9.5 15.334 -9.5 26.001z" />
    <glyph glyph-name="uni0457" unicode="&#x457;" horiz-adv-x="222" 
d="M131 0h-40v520h40v-520zM13 682c14 0.666992 23.833 -4.99805 29.5 -16.998s5.66699 -24 0 -36s-15.5 -17.333 -29.5 -16c-10.667 0 -19.167 3.66699 -25.5 11s-9.5 15.166 -9.5 23.499s3.16699 16.166 9.5 23.499s14.833 11 25.5 11zM183 622.002
c-6 6.66699 -9 15 -9 25s3 18.333 9 25c6.66699 6.66699 15 10 25 10s18.333 -3.33301 25 -10s10 -15 10 -25s-3.33301 -18.333 -10 -25c-6.66699 -6 -15 -9 -25 -9s-18.333 3 -25 9z" />
    <glyph glyph-name="uni0458" unicode="&#x458;" horiz-adv-x="231" 
d="M100 520h40v-605c0 -40 -11.833 -73.333 -35.5 -100s-53.5 -40 -89.5 -40h-38v39h37c24.667 0 45.167 10 61.5 30s24.5 44.667 24.5 74v602zM85 650c0 10 3.16699 18.333 9.5 25s14.833 10 25.5 10c10 0 18.5 -3.33301 25.5 -10s10.5 -15 10.5 -25
c0 -10.667 -3.5 -19.334 -10.5 -26.001s-15.5 -10 -25.5 -10c-10.667 0 -19.167 3.33301 -25.5 10s-9.5 15.334 -9.5 26.001z" />
    <glyph glyph-name="uni0459" unicode="&#x459;" horiz-adv-x="918" 
d="M57 0l-26 0.000976562v39h24c57.333 0 86 54.667 86 164v317h374v-210h202c43.333 0 79.333 -15 108 -45c29.333 -29.333 44 -66 44 -110c0 -43.333 -14.667 -80.333 -44 -111c-29.333 -29.333 -65.333 -44 -108 -44h-242v481h-294v-283
c0 -64.667 -11 -113.834 -33 -147.501s-52.333 -50.5 -91 -50.5zM717 271.001h-202v-232h202c31.333 0 57.666 11.167 78.999 33.5s32 49.833 32 82.5s-10.667 60.167 -32 82.5s-47.666 33.5 -78.999 33.5z" />
    <glyph glyph-name="uni045A" unicode="&#x45a;" horiz-adv-x="957" 
d="M131 256v-256.001h-40v520h40v-225h382v225h40v-225h203c43.333 0 79.333 -14.333 108 -43c29.333 -28 44 -62.667 44 -104s-14.667 -76.666 -44 -105.999c-29.333 -28 -65.333 -42 -108 -42h-243v256h-382zM756 255.999l-203 -0.000976562v-217h203
c31.333 0 57.666 10.5 78.999 31.5s32 46.833 32 77.5s-10.667 56.334 -32 77.001s-47.666 31 -78.999 31z" />
    <glyph glyph-name="uni045B" unicode="&#x45b;" horiz-adv-x="641" 
d="M131 750v-103.999h226v-34h-226v-207c12 25.333 33 50.666 63 75.999c36 30.667 86 46 150 46c60 0 110 -20.333 150 -61c40 -41.333 60 -92 60 -152v-314h-40v307c0 51.333 -17 94.333 -51 129c-32.667 34.667 -74.667 52 -126 52c-57.333 0 -106.333 -17.667 -147 -53
c-39.333 -35.333 -59 -79 -59 -131v-304h-40v612h-74v34h74v104h40z" />
    <glyph glyph-name="uni045C" unicode="&#x45c;" horiz-adv-x="505" 
d="M427 0l-254 269l233 251h51l-232 -251l254 -269h-52zM131 520v-520h-40v520h40zM406 709l-164 -99l-16 23l158 109z" />
    <glyph glyph-name="uni045D" unicode="&#x45d;" horiz-adv-x="648" 
d="M127 0h-36v520h40v-455l390 455h36v-520h-40v455zM362 633l-17 -23l-163 99l22 33z" />
    <glyph glyph-name="uni045E" unicode="&#x45e;" horiz-adv-x="518" 
d="M236 15l-217.999 504.999h42l197 -457l201 457h42l-279 -633c-17.333 -39.333 -37.833 -67.833 -61.5 -85.5s-53.167 -26.5 -88.5 -26.5h-28v39h28c26.667 0 49.167 6.83301 67.5 20.5s34.166 35.834 47.499 66.501zM108.001 738.999h36
c0 -28.667 10.833 -52.334 32.5 -71.001s49.167 -28 82.5 -28s61 9.33301 83 28s33 42.334 33 71.001h36c0 -38.667 -14.667 -70.667 -44 -96s-65.333 -38 -108 -38s-78.667 12.667 -108 38c-28.667 24.667 -43 56.667 -43 96z" />
    <glyph glyph-name="uni045F" unicode="&#x45f;" horiz-adv-x="633" 
d="M91 0v520h40v-481h371v481h40v-520h-206v-150h-40v150h-205z" />
    <glyph glyph-name="uni0490" unicode="&#x490;" horiz-adv-x="542" 
d="M142 660v-660h-42v700h371v158h42v-198h-371z" />
    <glyph glyph-name="uni0491" unicode="&#x491;" horiz-adv-x="434" 
d="M131 481v-481h-40v520h277v144h40v-183h-277z" />
    </font>
</defs>
</svg>
