<svg xmlns="http://www.w3.org/2000/svg" width="27" height="36" viewBox="0 0 27 36">
    <g fill="#E9BD38" fill-rule="nonzero">
        <path d="M21.137 12H5.863C5.386 12 5 12.448 5 13s.386 1 .863 1h15.274c.477 0 .863-.448.863-1s-.386-1-.863-1zM21.137 17H5.863C5.386 17 5 17.448 5 18s.386 1 .863 1h15.274c.477 0 .863-.448.863-1s-.386-1-.863-1z"/>
        <path d="M26.998 7.235a.836.836 0 0 0-.245-.57L20.305.25A.843.843 0 0 0 19.703 0H1.776C.796 0 0 .792 0 1.766v20.939l.001.022c.012.424.233.808.597 1.033l2.908 1.796c.96.592 2.153.592 3.112 0l1.996-1.232a1.263 1.263 0 0 1 1.334 0l1.996 1.232c.48.296 1.018.444 1.556.444s1.076-.148 1.556-.444l1.996-1.233a1.263 1.263 0 0 1 1.334 0l1.996 1.233c.96.592 2.152.592 3.112 0l2.908-1.796c.364-.225.585-.61.597-1.033v-.022L27 7.257l-.002-.022zm-6.452-4.372l3.575 3.556h-3.486a.089.089 0 0 1-.089-.088V2.863zm4.768 19.595l-2.71 1.673a1.263 1.263 0 0 1-1.333 0l-1.996-1.232a2.947 2.947 0 0 0-3.112 0l-1.996 1.232a1.263 1.263 0 0 1-1.334 0l-1.996-1.232a2.946 2.946 0 0 0-3.112 0L5.73 24.13a1.263 1.263 0 0 1-1.333 0l-2.71-1.673V1.766a.09.09 0 0 1 .09-.089H18.86v4.654c0 .973.796 1.765 1.775 1.765h4.679v14.362z"/>
        <path d="M27 27.353v-.007-.006c0-.486-.25-.935-.65-1.171a1.205 1.205 0 0 0-1.282.032l-2.492 1.639a1.147 1.147 0 0 1-1.276 0l-2.054-1.35a2.742 2.742 0 0 0-3.054 0l-2.054 1.35a1.147 1.147 0 0 1-1.276 0l-2.054-1.35a2.743 2.743 0 0 0-3.054 0L5.7 27.84a1.146 1.146 0 0 1-1.277 0l-2.492-1.639A1.205 1.205 0 0 0 .65 26.17c-.4.236-.65.685-.65 1.17v6.78C0 35.156.796 36 1.776 36h23.448c.98 0 1.776-.844 1.776-1.881v-6.766zm-1.775 6.86H1.775c-.048 0-.089-.042-.089-.094v-5.977l1.85 1.216c.941.62 2.112.62 3.054 0l2.053-1.35a1.146 1.146 0 0 1 1.277 0l2.053 1.35c.47.31.999.464 1.527.464.528 0 1.056-.154 1.528-.464l2.053-1.35a1.146 1.146 0 0 1 1.276 0l2.053 1.35c.943.62 2.113.62 3.055 0l1.849-1.216v5.977c0 .052-.04.095-.09.095z"/>
    </g>
</svg>
