<svg xmlns="http://www.w3.org/2000/svg" width="33" height="36" viewBox="0 0 33 36">
    <path fill="#E9BD38" fill-rule="nonzero" d="M13.516 34.594c0 .776-.643 1.406-1.438 1.406H5.752C2.58 36 0 33.477 0 30.375V5.625C0 2.523 2.58 0 5.752 0H23.43c3.171 0 5.752 2.523 5.752 5.625v13.43c0 .776-.644 1.406-1.438 1.406-.794 0-1.438-.63-1.438-1.406V5.625c0-1.55-1.29-2.813-2.876-2.813H5.752c-1.586 0-2.876 1.262-2.876 2.813v24.75c0 1.55 1.29 2.813 2.876 2.813h6.326c.795 0 1.438.629 1.438 1.406zm8.476-26.157H7.182c-.795 0-1.438.63-1.438 1.407 0 .776.643 1.406 1.438 1.406h14.81c.794 0 1.438-.63 1.438-1.406 0-.777-.644-1.406-1.438-1.406zm1.438 7.032c0-.777-.644-1.406-1.438-1.406H7.182c-.795 0-1.438.629-1.438 1.406 0 .776.643 1.406 1.438 1.406h14.81c.794 0 1.438-.63 1.438-1.406zM7.182 19.688c-.795 0-1.438.629-1.438 1.406 0 .776.643 1.406 1.438 1.406h7.557c.794 0 1.438-.63 1.438-1.406 0-.777-.644-1.407-1.438-1.407H7.182zm25.557 10.3c-.05.07-.224.31-.332.443-.481.592-1.609 1.98-3.177 3.203C27.219 35.204 25.15 36 23.078 36c-2.07 0-4.14-.796-6.15-2.366-1.57-1.224-2.697-2.61-3.178-3.203a11.86 11.86 0 0 1-.332-.443 1.38 1.38 0 0 1 0-1.617c.05-.07.224-.31.332-.443.481-.592 1.609-1.979 3.177-3.203 2.011-1.57 4.08-2.366 6.151-2.366 2.071 0 4.14.796 6.152 2.366 1.568 1.224 2.696 2.611 3.177 3.203.108.133.281.373.332.443a1.38 1.38 0 0 1 0 1.617zm-3-.808c-2.286-2.66-4.525-4.008-6.66-4.008-2.136 0-4.375 1.347-6.661 4.008 2.286 2.66 4.525 4.008 6.66 4.008 2.136 0 4.375-1.348 6.661-4.008zm-6.589-2.672c-1.509 0-2.732 1.196-2.732 2.672 0 1.475 1.223 2.672 2.732 2.672 1.51 0 2.732-1.197 2.732-2.672 0-1.476-1.223-2.672-2.732-2.672z"/>
</svg>
