<svg xmlns="http://www.w3.org/2000/svg" width="155" height="32" viewBox="0 0 155 32">
    <g fill="none" fill-rule="nonzero">
        <g>
            <ellipse cx="15.841" cy="15.529" fill="#3E6EFF" rx="15.841" ry="15.529"/>
            <path fill="#FFF" d="M10.683 9.706h.128c.94 0 1.694.727 1.694 1.626v8.86c0 .899-.753 1.626-1.694 1.626h-.128v-1.143h.128a.497.497 0 0 0 .505-.484v-8.86c0-.259-.238-.484-.505-.484h-.128V9.706zm-1.06 1.141a.5.5 0 0 0-.505.485v8.86a.49.49 0 0 0 .505.483h.139v1.143h-.139c-.921 0-1.703-.727-1.703-1.627v-8.86c0-.898.782-1.625 1.703-1.625h.139v1.141h-.139zm7.297 5.85l1.405 5.12h-1.227l-1.406-5.12h1.228zm-3.06-2.822v-4.17h1.189v4.17H13.86zm1.189 1.939v6.004H13.86v-7.06h1.633l1.624-5.052h1.228l-1.862 5.397.208.71H15.05zm7.366.485c.444.518.613 1.158.613 1.833v2.06c0 .899-.772 1.626-1.693 1.626h-.831c-.94 0-1.693-.727-1.693-1.627V18.34h1.188v1.852c0 .277.238.484.505.484h.83a.497.497 0 0 0 .507-.484v-2.06c0-.431-.09-.83-.387-1.158l-.069-.088v-1.782l1.03 1.196zm-1.95-.485l-1.06-1.247c-.436-.518-.594-1.16-.594-1.833v-1.402c0-.883.771-1.626 1.693-1.626h.83c.922 0 1.694.727 1.694 1.626v1.35H21.84v-1.35c0-.26-.239-.485-.506-.485h-.831c-.267 0-.505.225-.505.485v1.402c0 .432.09.813.376 1.159l.09.103v1.818z"/>
        </g>
        <path fill="#3E6EFF" d="M42.606 13V5.19h3.398c.382 0 .731.077 1.05.231.317.154.59.356.818.605.228.25.408.532.538.847.131.315.197.634.197.957 0 .345-.062.675-.185.99a2.816 2.816 0 0 1-.516.847 2.435 2.435 0 0 1-1.845.814h-1.616V13h-1.84zm1.84-4.092h1.502a.716.716 0 0 0 .561-.275c.157-.183.236-.451.236-.803 0-.183-.025-.341-.073-.473a.964.964 0 0 0-.196-.33.751.751 0 0 0-.28-.192.868.868 0 0 0-.315-.061h-1.436v2.134zm6.673 4.202c-.291 0-.562-.046-.813-.137a1.848 1.848 0 0 1-1.071-.968 1.704 1.704 0 0 1-.157-.732c0-.286.062-.546.185-.781s.297-.436.522-.605c.224-.169.49-.3.796-.396a3.428 3.428 0 0 1 1.02-.143c.248 0 .487.02.719.06.231.04.433.101.605.182v-.264c0-.667-.392-1.001-1.177-1.001-.322 0-.629.053-.92.16a4.452 4.452 0 0 0-.92.478l-.527-1.1a4.75 4.75 0 0 1 1.211-.561 4.655 4.655 0 0 1 1.335-.187c.89 0 1.578.205 2.064.616.486.41.73 1.012.73 1.804v1.485c0 .176.027.299.083.369.056.07.155.111.297.126V13c-.157.037-.299.06-.426.072a4.062 4.062 0 0 1-.347.016c-.337 0-.591-.064-.763-.192a.85.85 0 0 1-.326-.545l-.033-.264c-.262.33-.574.583-.937.759a2.6 2.6 0 0 1-1.15.264zm.528-1.265c.194 0 .383-.033.566-.099.183-.066.335-.154.454-.264.172-.132.258-.271.258-.418v-.55a2.952 2.952 0 0 0-.51-.137 2.891 2.891 0 0 0-.51-.05c-.33 0-.6.073-.814.22-.213.147-.32.337-.32.572 0 .213.083.387.247.523a.955.955 0 0 0 .629.203zm4.105-3.982a3.404 3.404 0 0 1 1.06-.567 3.712 3.712 0 0 1 1.139-.181c.269 0 .525.031.768.093.243.063.458.156.645.281.187.125.336.284.449.479.112.194.168.423.168.687 0 .286-.082.548-.247.787a1.057 1.057 0 0 1-.695.445c.418.103.733.284.942.544.21.26.314.574.314.941 0 .257-.062.491-.185.704a1.775 1.775 0 0 1-.505.55 2.428 2.428 0 0 1-.763.357 3.438 3.438 0 0 1-.947.127c-.494 0-.948-.073-1.363-.22-.415-.147-.739-.348-.97-.605l.818-1.122c.127.154.303.275.527.363.225.088.468.132.73.132.284 0 .51-.05.678-.149a.494.494 0 0 0 .253-.456.555.555 0 0 0-.253-.49c-.168-.113-.48-.17-.936-.17h-.505V9.48h.482c.352 0 .615-.06.79-.181.177-.122.265-.277.265-.468 0-.161-.062-.28-.186-.357a.888.888 0 0 0-.476-.116c-.202 0-.42.042-.656.127a1.96 1.96 0 0 0-.623.357l-.718-.979zm9.153 5.247c-.448 0-.837-.092-1.166-.275a1.909 1.909 0 0 1-.763-.77v3.278H61.18V7.225h1.56v.935c.216-.33.487-.587.813-.77.325-.183.712-.275 1.16-.275.397 0 .761.077 1.094.231.333.154.62.365.864.633.243.267.434.582.572.946.138.363.208.753.208 1.171 0 .433-.064.832-.191 1.199a2.988 2.988 0 0 1-.527.951 2.45 2.45 0 0 1-.808.633 2.287 2.287 0 0 1-1.02.231zm-.605-1.485c.194 0 .372-.042.532-.127a1.419 1.419 0 0 0 .696-.824c.063-.188.095-.384.095-.589 0-.213-.035-.409-.106-.589a1.466 1.466 0 0 0-.292-.467 1.28 1.28 0 0 0-.449-.308 1.456 1.456 0 0 0-.566-.11c-.247 0-.484.071-.713.214a1.402 1.402 0 0 0-.521.578v1.188c.12.293.3.539.544.737.243.198.503.297.78.297zm5.72 1.485c-.291 0-.562-.046-.813-.137a1.848 1.848 0 0 1-1.071-.968 1.704 1.704 0 0 1-.157-.732c0-.286.061-.546.185-.781.123-.235.297-.436.521-.605.225-.169.49-.3.797-.396a3.428 3.428 0 0 1 1.02-.143c.247 0 .487.02.718.06.232.04.434.101.606.182v-.264c0-.667-.392-1.001-1.178-1.001-.321 0-.628.053-.92.16a4.452 4.452 0 0 0-.92.478l-.526-1.1a4.75 4.75 0 0 1 1.211-.561 4.655 4.655 0 0 1 1.335-.187c.89 0 1.578.205 2.064.616.486.41.729 1.012.729 1.804v1.485c0 .176.028.299.084.369.056.07.155.111.297.126V13c-.157.037-.299.06-.426.072a4.062 4.062 0 0 1-.348.016c-.336 0-.59-.064-.762-.192a.85.85 0 0 1-.326-.545l-.033-.264c-.262.33-.574.583-.937.759a2.6 2.6 0 0 1-1.15.264zm.527-1.265c.195 0 .384-.033.567-.099.183-.066.335-.154.454-.264.172-.132.258-.271.258-.418v-.55a2.952 2.952 0 0 0-.51-.137 2.891 2.891 0 0 0-.51-.05c-.33 0-.6.073-.814.22-.213.147-.32.337-.32.572 0 .213.083.387.247.523a.955.955 0 0 0 .628.203zm7.336-4.994c-.403.08-.727.247-.97.5-.243.254-.406.622-.488 1.106.21-.257.475-.458.797-.605a2.68 2.68 0 0 1 1.121-.22c.352 0 .685.068.999.204a2.66 2.66 0 0 1 1.396 1.396c.139.32.208.659.208 1.018 0 .389-.07.757-.208 1.105a2.656 2.656 0 0 1-.6.913c-.262.26-.587.466-.976.616a3.65 3.65 0 0 1-1.323.226c-1.017 0-1.788-.295-2.311-.885-.524-.59-.785-1.454-.785-2.591 0-.682.065-1.269.196-1.76.13-.491.325-.907.583-1.248.258-.342.584-.615.976-.82a5.305 5.305 0 0 1 1.385-.473l2.356-.473.056 1.496-2.412.495zm-1.29 3.377c0 .425.118.766.354 1.023.235.257.54.385.914.385.366 0 .666-.126.897-.38.232-.253.348-.584.348-.995 0-.352-.118-.642-.353-.869-.236-.227-.54-.341-.914-.341-.367 0-.666.11-.898.33-.232.22-.348.502-.348.847zm8.077 2.882a3.5 3.5 0 0 1-1.34-.242 2.923 2.923 0 0 1-.993-.655 2.756 2.756 0 0 1-.612-.956 3.17 3.17 0 0 1-.207-1.139c0-.396.069-.775.207-1.139.139-.363.342-.681.612-.956.269-.276.6-.495.992-.66.393-.166.84-.248 1.34-.248.502 0 .947.082 1.336.247.388.166.717.385.987.66.269.276.475.594.617.957.142.364.213.743.213 1.139s-.07.775-.208 1.139a2.756 2.756 0 0 1-.611.957c-.27.275-.6.493-.993.654a3.5 3.5 0 0 1-1.34.242zm-1.313-2.992c0 .455.124.82.37 1.095.247.275.561.412.943.412a1.204 1.204 0 0 0 .925-.418c.116-.132.208-.291.275-.479a1.79 1.79 0 0 0 .101-.61c0-.455-.123-.82-.37-1.095a1.198 1.198 0 0 0-.931-.412 1.242 1.242 0 0 0-.937.418 1.471 1.471 0 0 0-.275.479 1.79 1.79 0 0 0-.1.61zM91.815 13h-1.783V8.754h-1.773V7.225h5.317v1.529h-1.76V13zm6.226-5.775h1.918l-2.3 2.794L100.15 13h-2.064l-1.705-2.057h-.235V13h-1.772V7.225h1.772v2.167h.202l1.694-2.167zm4.273 5.885c-.291 0-.562-.046-.813-.137a1.848 1.848 0 0 1-1.071-.968 1.704 1.704 0 0 1-.157-.732c0-.286.061-.546.185-.781.123-.235.297-.436.521-.605.225-.169.49-.3.797-.396a3.428 3.428 0 0 1 1.02-.143c.247 0 .487.02.719.06.231.04.433.101.605.182v-.264c0-.667-.392-1.001-1.178-1.001-.321 0-.628.053-.92.16a4.452 4.452 0 0 0-.92.478l-.526-1.1a4.75 4.75 0 0 1 1.211-.561 4.655 4.655 0 0 1 1.335-.187c.89 0 1.578.205 2.064.616.486.41.729 1.012.729 1.804v1.485c0 .176.028.299.084.369.056.07.155.111.297.126V13c-.157.037-.299.06-.426.072a4.062 4.062 0 0 1-.348.016c-.336 0-.59-.064-.762-.192a.85.85 0 0 1-.326-.545l-.033-.264c-.262.33-.574.583-.937.759a2.6 2.6 0 0 1-1.15.264zm.527-1.265c.195 0 .384-.033.567-.099.183-.066.335-.154.454-.264.172-.132.258-.271.258-.418v-.55a2.952 2.952 0 0 0-.51-.137 2.891 2.891 0 0 0-.51-.05c-.33 0-.6.073-.814.22-.213.147-.32.337-.32.572 0 .213.083.387.247.523a.955.955 0 0 0 .628.203zm6.652-1.738c0-.396.071-.775.213-1.138.142-.364.348-.682.617-.957.27-.276.6-.494.993-.655a3.5 3.5 0 0 1 1.34-.242c.681 0 1.253.141 1.717.423.463.283.811.651 1.043 1.106l-1.75.517c-.232-.367-.572-.55-1.02-.55-.375 0-.687.136-.937.407-.25.271-.376.634-.376 1.089 0 .227.033.434.1.622.068.187.162.346.281.478.12.132.26.235.42.308.162.073.332.11.511.11.225 0 .43-.053.617-.16.187-.106.325-.243.415-.412l1.75.528c-.217.447-.563.814-1.038 1.1-.474.286-1.052.429-1.733.429-.493 0-.936-.082-1.329-.247a3.054 3.054 0 0 1-.998-.66 2.785 2.785 0 0 1-.623-.957 3.096 3.096 0 0 1-.213-1.139zm8.413 3.003c-.292 0-.563-.046-.813-.137a1.848 1.848 0 0 1-1.071-.968 1.704 1.704 0 0 1-.157-.732c0-.286.061-.546.185-.781.123-.235.297-.436.521-.605.225-.169.49-.3.797-.396a3.428 3.428 0 0 1 1.02-.143c.247 0 .486.02.718.06.232.04.434.101.606.182v-.264c0-.667-.393-1.001-1.178-1.001-.321 0-.628.053-.92.16a4.452 4.452 0 0 0-.92.478l-.527-1.1a4.75 4.75 0 0 1 1.212-.561 4.655 4.655 0 0 1 1.335-.187c.89 0 1.578.205 2.064.616.486.41.729 1.012.729 1.804v1.485c0 .176.028.299.084.369.056.07.155.111.297.126V13c-.157.037-.299.06-.426.072a4.062 4.062 0 0 1-.348.016c-.336 0-.59-.064-.763-.192a.85.85 0 0 1-.325-.545l-.034-.264c-.261.33-.574.583-.936.759a2.6 2.6 0 0 1-1.15.264zm.527-1.265c.195 0 .384-.033.567-.099.183-.066.334-.154.454-.264.172-.132.258-.271.258-.418v-.55a2.952 2.952 0 0 0-.51-.137 2.891 2.891 0 0 0-.51-.05c-.33 0-.6.073-.814.22-.213.147-.32.337-.32.572 0 .213.083.387.247.523a.955.955 0 0 0 .628.203zm9.254-6.875c-.007.491-.187.884-.538 1.177-.352.293-.811.44-1.38.44-.568 0-1.028-.147-1.38-.44-.35-.293-.534-.686-.55-1.177h.954a.84.84 0 0 0 .258.616c.165.154.404.231.718.231.3 0 .53-.073.69-.22.16-.147.252-.356.275-.627h.953zm-3.062 5.511l2.569-3.256h1.29V13h-1.795V9.843L124.154 13h-1.312V7.225h1.783v3.256zM132.847 13h-1.783V8.754h-1.773V7.225h5.317v1.529h-1.76V13zm4.207.11c-.292 0-.563-.046-.814-.137a1.848 1.848 0 0 1-1.071-.968 1.704 1.704 0 0 1-.157-.732c0-.286.062-.546.185-.781.124-.235.297-.436.522-.605.224-.169.49-.3.796-.396a3.428 3.428 0 0 1 1.021-.143c.247 0 .486.02.718.06.232.04.434.101.606.182v-.264c0-.667-.393-1.001-1.178-1.001-.322 0-.628.053-.92.16a4.452 4.452 0 0 0-.92.478l-.527-1.1a4.75 4.75 0 0 1 1.211-.561 4.655 4.655 0 0 1 1.335-.187c.89 0 1.578.205 2.064.616.486.41.73 1.012.73 1.804v1.485c0 .176.027.299.083.369.057.07.156.111.298.126V13c-.157.037-.3.06-.427.072a4.062 4.062 0 0 1-.347.016c-.337 0-.591-.064-.763-.192a.85.85 0 0 1-.325-.545l-.034-.264c-.262.33-.574.583-.937.759a2.6 2.6 0 0 1-1.15.264zm.527-1.265c.194 0 .383-.033.566-.099.184-.066.335-.154.455-.264.172-.132.258-.271.258-.418v-.55a2.952 2.952 0 0 0-.51-.137 2.891 2.891 0 0 0-.511-.05c-.33 0-.6.073-.813.22-.214.147-.32.337-.32.572 0 .213.082.387.247.523a.955.955 0 0 0 .628.203zM46.06 26.066c-.591 0-1.13-.114-1.616-.341a3.978 3.978 0 0 1-2.047-2.167 3.934 3.934 0 0 1-.286-1.474 3.952 3.952 0 0 1 1.127-2.744 4.049 4.049 0 0 1 1.262-.87 3.873 3.873 0 0 1 1.593-.324c.59 0 1.13.114 1.615.341.486.227.902.528 1.246.902.343.374.609.8.796 1.276.187.477.28.96.28 1.452 0 .513-.099 1.008-.297 1.485a4 4 0 0 1-.824 1.26c-.352.363-.77.654-1.257.874-.486.22-1.017.33-1.593.33zm-2.076-3.96c0 .3.045.592.135.874.09.283.222.534.398.754.176.22.395.396.656.528.262.132.561.198.898.198.351 0 .658-.07.92-.209.261-.14.478-.32.65-.545.172-.223.301-.476.387-.758a2.948 2.948 0 0 0-.006-1.739 2.204 2.204 0 0 0-.403-.747 1.998 1.998 0 0 0-.657-.517 1.977 1.977 0 0 0-.891-.193c-.352 0-.656.068-.914.204a2.032 2.032 0 0 0-.651.533 2.24 2.24 0 0 0-.393.753c-.086.283-.129.57-.129.864zM51.097 26v-7.81h1.84v3.366l2.916-3.366h2.064l-2.984 3.487L58.12 26H56.02l-2.254-3.146-.83.847V26h-1.84zm12.395-5.522a1.117 1.117 0 0 0-.236-.165 4.951 4.951 0 0 0-1.167-.484 2.69 2.69 0 0 0-.717-.099c-.658 0-.987.216-.987.649 0 .132.035.242.106.33a.939.939 0 0 0 .314.236c.139.07.313.134.522.193.21.059.452.125.73.198.38.103.724.214 1.031.336.307.12.567.27.78.45.213.18.377.398.493.655.116.257.174.565.174.924 0 .44-.084.812-.252 1.116a2.1 2.1 0 0 1-.668.738 2.849 2.849 0 0 1-.953.407 4.84 4.84 0 0 1-1.11.126 6.603 6.603 0 0 1-1.795-.259 7.221 7.221 0 0 1-.847-.302 4.766 4.766 0 0 1-.757-.407l.807-1.573c.03.037.127.106.292.209.164.103.368.205.611.308.243.103.514.194.813.275.3.08.602.121.909.121.65 0 .976-.194.976-.583a.487.487 0 0 0-.146-.363 1.375 1.375 0 0 0-.404-.258 4.44 4.44 0 0 0-.611-.215c-.236-.066-.492-.14-.768-.22a6.721 6.721 0 0 1-.954-.358 2.521 2.521 0 0 1-.667-.445 1.616 1.616 0 0 1-.393-.583 2.108 2.108 0 0 1-.129-.77c0-.41.079-.774.236-1.089.157-.315.37-.581.639-.797.27-.217.581-.38.937-.49a3.79 3.79 0 0 1 1.127-.165c.277 0 .55.026.819.077.269.051.527.117.774.198.247.08.476.172.69.275.213.103.409.205.589.308l-.808 1.496zm10.802-.704H71.87V26h-1.84v-6.226h-2.434V18.19h6.697v1.584zm6.495 4.642V26H75.19v-7.81h5.497v1.584H77.03v1.518h3.14v1.463h-3.14v1.661h3.758zm.661-2.387c0-.47.09-.937.27-1.402.18-.466.44-.882.785-1.249a3.986 3.986 0 0 1 1.256-.891c.494-.227 1.055-.341 1.683-.341.748 0 1.396.158 1.946.473.55.315.959.726 1.228 1.232l-1.413.968a1.608 1.608 0 0 0-.342-.511 1.857 1.857 0 0 0-.96-.506 2.676 2.676 0 0 0-.504-.05 1.93 1.93 0 0 0-1.57.748c-.173.22-.3.47-.382.748a2.977 2.977 0 0 0-.123.847c0 .308.048.605.146.891.097.286.237.539.42.759.183.22.404.394.662.522.258.129.548.193.87.193.164 0 .334-.02.51-.06.175-.04.344-.103.504-.188.161-.084.309-.194.444-.33.134-.135.243-.302.325-.5l1.503.869c-.12.286-.297.543-.533.77a3.286 3.286 0 0 1-.813.572 4.408 4.408 0 0 1-.976.352c-.344.08-.68.121-1.01.121a3.627 3.627 0 0 1-1.587-.346 4.01 4.01 0 0 1-1.245-.919 4.188 4.188 0 0 1-.808-1.298 3.99 3.99 0 0 1-.286-1.474zm15.031-3.839V26h-1.84v-3.201h-3.174V26h-1.84v-7.81h1.84v3.025h3.175V18.19h1.84zm3.366 3.344V26h-1.84v-7.81h1.436l3.713 4.587V18.19h1.84V26h-1.481l-3.668-4.466zm10.162 4.532c-.59 0-1.129-.114-1.615-.341a3.978 3.978 0 0 1-2.047-2.167 3.934 3.934 0 0 1-.286-1.474 3.952 3.952 0 0 1 1.127-2.744 4.049 4.049 0 0 1 1.262-.87 3.873 3.873 0 0 1 1.593-.324c.59 0 1.129.114 1.615.341.486.227.901.528 1.245.902.344.374.61.8.797 1.276.187.477.28.96.28 1.452 0 .513-.099 1.008-.297 1.485a4 4 0 0 1-.825 1.26c-.351.363-.77.654-1.256.874-.486.22-1.017.33-1.593.33zm-2.075-3.96c0 .3.045.592.135.874.09.283.222.534.398.754.176.22.394.396.656.528s.56.198.897.198c.352 0 .658-.07.92-.209.262-.14.479-.32.65-.545.173-.223.302-.476.388-.758a2.948 2.948 0 0 0-.006-1.739 2.204 2.204 0 0 0-.404-.747 1.998 1.998 0 0 0-.656-.517 1.977 1.977 0 0 0-.892-.193c-.351 0-.656.068-.914.204a2.032 2.032 0 0 0-.65.533 2.24 2.24 0 0 0-.393.753c-.086.283-.129.57-.129.864zM115.046 26v-7.81h1.84v6.226h3.858V26h-5.698zm10.05.066c-.59 0-1.129-.114-1.615-.341a3.978 3.978 0 0 1-2.047-2.167 3.934 3.934 0 0 1-.286-1.474 3.952 3.952 0 0 1 1.127-2.744 4.049 4.049 0 0 1 1.262-.87 3.873 3.873 0 0 1 1.593-.324c.59 0 1.13.114 1.615.341.486.227.901.528 1.245.902.344.374.61.8.797 1.276.187.477.28.96.28 1.452 0 .513-.099 1.008-.297 1.485a4 4 0 0 1-.825 1.26c-.351.363-.77.654-1.256.874-.486.22-1.017.33-1.593.33zm-2.075-3.96c0 .3.045.592.135.874.09.283.222.534.398.754.176.22.394.396.656.528s.56.198.897.198c.352 0 .659-.07.92-.209.262-.14.479-.32.65-.545.173-.223.302-.476.388-.758a2.948 2.948 0 0 0-.006-1.739 2.204 2.204 0 0 0-.404-.747 1.998 1.998 0 0 0-.656-.517 1.977 1.977 0 0 0-.892-.193c-.351 0-.656.068-.914.204a2.032 2.032 0 0 0-.65.533 2.24 2.24 0 0 0-.393.753c-.086.283-.129.57-.129.864zm12.586 3.124c-.606.55-1.305.825-2.098.825a3.791 3.791 0 0 1-1.48-.291 3.707 3.707 0 0 1-1.218-.82 3.856 3.856 0 0 1-.824-1.27 4.286 4.286 0 0 1-.303-1.634c0-.535.101-1.041.303-1.518a3.837 3.837 0 0 1 2.097-2.079 3.994 3.994 0 0 1 1.57-.308c.741 0 1.388.152 1.941.456.554.305.969.721 1.246 1.249l-1.369 1.012a1.936 1.936 0 0 0-.78-.82 2.19 2.19 0 0 0-1.104-.291c-.307 0-.586.06-.836.181-.25.122-.466.29-.645.506-.18.217-.318.468-.415.754a2.853 2.853 0 0 0-.146.924c0 .337.052.649.157.935.105.286.25.533.438.742a1.991 1.991 0 0 0 1.525.666c.718 0 1.365-.326 1.94-.979v-.242h-1.547v-1.309h3.073V26h-1.525v-.77zm2.737.77v-7.81h1.84V26h-1.84zm8.962-1.584V26h-5.597v-7.81h5.496v1.584h-3.657v1.518h3.141v1.463h-3.14v1.661h3.757zm5.9-3.938a1.117 1.117 0 0 0-.235-.165 4.951 4.951 0 0 0-1.167-.484 2.69 2.69 0 0 0-.718-.099c-.658 0-.987.216-.987.649 0 .132.036.242.107.33a.939.939 0 0 0 .314.236c.138.07.312.134.521.193.21.059.453.125.73.198.38.103.725.214 1.031.336.307.12.567.27.78.45.213.18.378.398.494.655.116.257.173.565.173.924 0 .44-.084.812-.252 1.116a2.1 2.1 0 0 1-.667.738 2.849 2.849 0 0 1-.954.407 4.84 4.84 0 0 1-1.11.126 6.603 6.603 0 0 1-1.795-.259 7.221 7.221 0 0 1-.847-.302 4.766 4.766 0 0 1-.757-.407l.808-1.573c.03.037.127.106.291.209.165.103.369.205.612.308.243.103.514.194.813.275.299.08.602.121.908.121.651 0 .976-.194.976-.583a.487.487 0 0 0-.146-.363 1.375 1.375 0 0 0-.403-.258 4.44 4.44 0 0 0-.612-.215 76.5 76.5 0 0 1-.768-.22 6.721 6.721 0 0 1-.954-.358 2.521 2.521 0 0 1-.667-.445 1.616 1.616 0 0 1-.393-.583 2.108 2.108 0 0 1-.129-.77c0-.41.079-.774.236-1.089.157-.315.37-.581.64-.797.269-.217.58-.38.936-.49a3.79 3.79 0 0 1 1.127-.165c.277 0 .55.026.82.077.268.051.526.117.773.198.247.08.477.172.69.275.213.103.41.205.589.308l-.808 1.496z"/>
    </g>
</svg>
