<svg xmlns="http://www.w3.org/2000/svg" width="27" height="27" viewBox="0 0 27 27">
    <g fill="none" fill-rule="nonzero">
        <path fill="#FFDB29" d="M9.5 10c-.276 0-.5.22-.5.492v1.016c0 .272.224.492.5.492s.5-.22.5-.492v-1.016A.496.496 0 0 0 9.5 10zM11.5 10c-.276 0-.5.22-.5.492v1.016c0 .272.224.492.5.492s.5-.22.5-.492v-1.016a.496.496 0 0 0-.5-.492zM13.5 10c-.276 0-.5.22-.5.492v1.016c0 .272.224.492.5.492s.5-.22.5-.492v-1.016a.496.496 0 0 0-.5-.492zM15.5 10c-.276 0-.5.22-.5.492v1.016c0 .272.224.492.5.492s.5-.22.5-.492v-1.016a.496.496 0 0 0-.5-.492zM17.5 10c-.276 0-.5.22-.5.492v1.016c0 .272.224.492.5.492s.5-.22.5-.492v-1.016a.496.496 0 0 0-.5-.492zM6.5 24a.504.504 0 0 0-.5.5.504.504 0 0 0 .5.5.504.504 0 0 0 .5-.5.504.504 0 0 0-.5-.5zM6.5 20c-.276 0-.5.212-.5.474v2.052c0 .262.224.474.5.474s.5-.212.5-.474v-2.052A.487.487 0 0 0 6.5 20zM9.5 20c-.276 0-.5.218-.5.487v4.026c0 .269.224.487.5.487s.5-.218.5-.487v-4.026A.494.494 0 0 0 9.5 20zM12.5 20c-.276 0-.5.218-.5.487v4.026c0 .269.224.487.5.487s.5-.218.5-.487v-4.026a.494.494 0 0 0-.5-.487zM14.5 20c-.276 0-.5.218-.5.487v4.026c0 .269.224.487.5.487s.5-.218.5-.487v-4.026a.494.494 0 0 0-.5-.487zM17.5 20c-.276 0-.5.218-.5.487v4.026c0 .269.224.487.5.487s.5-.218.5-.487v-4.026a.494.494 0 0 0-.5-.487zM20.5 20a.504.504 0 0 0-.5.5.503.503 0 0 0 .5.5.502.502 0 0 0 .354-.853A.504.504 0 0 0 20.5 20zM20.5 22a.49.49 0 0 0-.5.479v2.042a.49.49 0 0 0 .5.479.49.49 0 0 0 .5-.479V22.48a.49.49 0 0 0-.5-.479zM8.5 14c-.276 0-.5.22-.5.492v1.016c0 .272.224.492.5.492s.5-.22.5-.492v-1.016A.496.496 0 0 0 8.5 14zM10.5 14c-.276 0-.5.22-.5.492v1.016c0 .272.224.492.5.492s.5-.22.5-.492v-1.016a.496.496 0 0 0-.5-.492zM12.5 14c-.276 0-.5.22-.5.492v1.016c0 .272.224.492.5.492s.5-.22.5-.492v-1.016a.496.496 0 0 0-.5-.492zM14.5 14c-.276 0-.5.22-.5.492v1.016c0 .272.224.492.5.492s.5-.22.5-.492v-1.016a.496.496 0 0 0-.5-.492zM16.5 14c-.276 0-.5.22-.5.492v1.016c0 .272.224.492.5.492s.5-.22.5-.492v-1.016a.496.496 0 0 0-.5-.492zM18.5 14c-.276 0-.5.22-.5.492v1.016c0 .272.224.492.5.492s.5-.22.5-.492v-1.016a.496.496 0 0 0-.5-.492z"/>
        <path fill="#403F3D" d="M26.473 18.768h-2.11v-1.16a.528.528 0 0 0-.527-.529H21.41v-3.588h.37a.528.528 0 0 0 0-1.055h-1.477V9.689a.528.528 0 0 0-.053-1.053h-1.301V8.18a5.459 5.459 0 0 0-4.922-5.427V.528a.528.528 0 1 0-1.054 0v2.224A5.459 5.459 0 0 0 8.05 8.179v.457H6.75a.528.528 0 0 0-.053 1.053v2.747H5.221a.528.528 0 0 0 0 1.055h.369v3.588H3.164a.528.528 0 0 0-.527.528v1.161H.527a.528.528 0 0 0-.527.528v7.176c0 .292.236.528.527.528h25.946a.528.528 0 0 0 .527-.528v-7.176a.528.528 0 0 0-.527-.528zM9.105 8.18A4.401 4.401 0 0 1 13.5 3.782a4.401 4.401 0 0 1 4.395 4.397v.457h-8.79V8.18zM7.752 9.692h11.496v2.744H7.752V9.692zm-1.107 3.8h13.71v3.587H6.645v-3.588zm-5.59 6.331h1.582v6.122H1.055v-6.122zm2.636-.527v-1.161H23.31V25.945H3.69v-6.65zm22.254 6.649h-1.582v-6.122h1.582v6.122z"/>
    </g>
</svg>
