<svg xmlns="http://www.w3.org/2000/svg" width="25" height="25" viewBox="0 0 25 25">
    <g fill="none" fill-rule="nonzero">
        <path fill="#000" d="M14 18.586l.586-.586.414.414-.586.586zM11.226 21.146a.397.397 0 0 1-.546 0l-1.133-1.091-.547.527 1.133 1.091c.226.218.523.327.82.327.297 0 .594-.109.82-.327L14 19.527 13.453 19l-2.227 2.146z"/>
        <path fill="#000" d="M14.092 0L8.52 5.57 3.654.705a1.85 1.85 0 0 0-1.3-.54 1.85 1.85 0 0 0-1.301.54l-.35.349c-.347.348-.538.81-.538 1.3 0 .491.19.953.539 1.3L5.57 8.522 0 14.09 10.908 25 25 10.908 14.092 0zm-2.857 11.235l-1.472-.21 1.262-1.263.21 1.473zM3.348 3.911l6.202 6.202-.631.63-6.202-6.201.631-.631zm6.765 5.639L3.91 3.348l.63-.631 6.203 6.202-.631.63zM.96 2.353c0-.278.108-.54.305-.737l.35-.35c.388-.389 1.087-.389 1.475 0l.888.888L2.154 3.98l-.888-.888a1.036 1.036 0 0 1-.305-.738zm.164 11.739l5.008-5.008 2.598 2.597 3.442.492-.492-3.442-2.597-2.598 5.008-5.008 9.783 9.783-12.967 12.967-9.783-9.783z"/>
        <path fill="#FFDB29" d="M17.448 8c-.948 0-1.84.37-2.51 1.04l-.842.842 1.74 1.74.841-.84a1.091 1.091 0 0 1 1.542 1.541c-.382.382-.91.6-1.45.6h-2.433l-.377.38L11 16.632 12.366 18l2.974-2.614h1.428c1.206 0 2.339-.47 3.191-1.322A3.526 3.526 0 0 0 21 11.552 3.556 3.556 0 0 0 17.448 8zm1.931 5.483a3.667 3.667 0 0 1-2.61 1.082H15.03l-2.628 2.31-.276-.275 2.43-2.735.119-.12h2.093c.756 0 1.496-.307 2.03-.842a1.913 1.913 0 0 0-2.702-2.702l-.26.26-.58-.58.26-.26a2.714 2.714 0 0 1 1.931-.8 2.734 2.734 0 0 1 2.731 2.731c0 .73-.283 1.415-.8 1.931zM9 18a1.001 1.001 0 0 0 2 0 1.001 1.001 0 0 0-2 0zm1-.333a.334.334 0 1 1 0 .667.334.334 0 0 1 0-.667z"/>
        <path fill="#000" d="M14 3.504L14.504 3 17 5.496 16.496 6zM12 4.504L12.504 4 15 6.496 14.496 7zM11 5.504L11.504 5 14 7.496 13.496 8zM5 11.62l.62-.62L10 15.38l-.62.62zM4 12.62l.62-.62L9 16.38l-.62.62zM3 13.62l.62-.62L8 17.38l-.62.62z"/>
    </g>
</svg>
