<svg xmlns="http://www.w3.org/2000/svg" width="16" height="13" viewBox="0 0 16 13">
    <g fill="#EFC700" fill-rule="nonzero">
        <path d="M6.664 1.153L3.617 3.178H.835c-.46 0-.835.333-.835.74v5.163c0 .408.376.741.835.741h2.782l3.047 2.025c.557.371 1.336.025 1.336-.592v-9.51c0-.617-.793-.963-1.336-.592zM10.85 2.257c-.42-.343-1.117-.343-1.536 0-.419.343-.419.914 0 1.256 2.017 1.65 2.017 4.327 0 5.977-.419.343-.419.914 0 1.256.217.178.496.254.76.254s.559-.089.76-.266c2.885-2.323 2.885-6.13.016-8.477z"/>
        <path d="M12.251.255a.91.91 0 0 0 0 1.256 7.069 7.069 0 0 1 2.024 4.983c0 1.89-.72 3.653-2.024 4.984a.91.91 0 0 0 0 1.256.86.86 0 0 0 .609.266.855.855 0 0 0 .608-.254A8.875 8.875 0 0 0 16 6.507a8.844 8.844 0 0 0-2.532-6.24c-.323-.354-.87-.354-1.217-.012z"/>
    </g>
</svg>
