<svg xmlns="http://www.w3.org/2000/svg" width="11" height="14" viewBox="0 0 11 14">
    <g fill="#EFC700" fill-rule="nonzero">
        <path d="M2.269 5h6.462C8.879 5 9 4.876 9 4.722a.274.274 0 0 0-.27-.277h-.013C8.595 2.92 7.479 1.688 6.038 1.439v-.397h-.47V.069C5.567.032 5.536 0 5.5 0a.069.069 0 0 0-.067.07v.972h-.471v.397c-1.44.25-2.557 1.48-2.68 3.005H2.27A.274.274 0 0 0 2 4.722c0 .154.12.278.269.278zM10.623 13.243h-.376V9.758h.376a.377.377 0 0 0 .377-.38.378.378 0 0 0-.377-.378H.377a.378.378 0 0 0 0 .758h.376v3.485H.377a.378.378 0 0 0 0 .757h10.246a.378.378 0 1 0 0-.757zm-1.431 0h-.633V9.758h.633v3.485zM5.184 9.758h.632v3.485h-.632V9.758zm-1.055 3.485h-.633V9.758h.633v3.485zM6.87 9.758h.633v3.485h-.633V9.758zm-5.063 0h.633v3.485h-.633V9.758zM1.379 6.63h.384l-.003.012V8h.763V6.642c0-.005-.003-.01-.003-.013h.362l-.002.013V8h.762V6.642c0-.005-.003-.01-.003-.013h.363c0 .005-.003.01-.003.013V8h.762V6.642c0-.005-.003-.01-.003-.013h.363c0 .005-.003.01-.003.013V8h.762V6.642c0-.005-.003-.01-.003-.013h.363c0 .005-.004.01-.004.013V8H7V6.642c0-.005-.003-.01-.003-.013h.363c0 .005-.003.01-.003.013V8h.762V6.642c0-.005-.003-.01-.003-.013h.363c0 .005-.003.01-.003.013V8h.762V6.642c0-.005-.003-.01-.003-.013h.385c.21 0 .381-.14.381-.314S9.83 6 9.619 6H1.38C1.171 6 1 6.14 1 6.315c0 .173.168.314.379.314z"/>
    </g>
</svg>
