<svg xmlns="http://www.w3.org/2000/svg" width="14" height="12" viewBox="0 0 14 12">
    <g fill="#EFC700" fill-rule="nonzero">
        <path d="M1.344 3.875c.177.143.71.567 1.601 1.273.89.705 1.573 1.248 2.047 1.629.052.042.163.132.332.272.17.14.31.253.422.34.112.086.247.183.406.29.16.107.309.187.45.24.14.054.27.081.39.081h.016c.12 0 .25-.027.39-.08.141-.054.291-.134.45-.241.159-.107.294-.204.406-.29.112-.087.253-.2.422-.34l.332-.272 3.656-2.902c.38-.303.698-.67.953-1.098.255-.429.383-.878.383-1.348 0-.393-.124-.73-.371-1.01C13.38.14 13.089 0 12.75 0H1.25C.849 0 .54.155.324.464.108.774 0 1.161 0 1.625c0 .375.143.781.43 1.219.286.437.59.781.914 1.031z"/>
        <path d="M13.219 4.73a162.626 162.626 0 0 0-3.89 2.893c-.298.234-.539.418-.724.549-.184.131-.43.265-.738.402a2.119 2.119 0 0 1-.859.206h-.016a2.12 2.12 0 0 1-.86-.206 4.356 4.356 0 0 1-.737-.402 18.564 18.564 0 0 1-.723-.55C3.969 7.07 2.675 6.106.789 4.73A4.237 4.237 0 0 1 0 4v6.658c0 .37.122.685.367.948.245.263.54.394.883.394h11.5c.344 0 .638-.131.883-.394a1.34 1.34 0 0 0 .367-.948V4a4.415 4.415 0 0 1-.781.73z"/>
    </g>
</svg>
