<svg xmlns="http://www.w3.org/2000/svg" width="18" height="11" viewBox="0 0 18 11">
    <path fill="#EFC700" fill-rule="nonzero" d="M9 0a10.103 10.103 0 0 0-9 5.5A10.103 10.103 0 0 0 9 11c3.925 0 7.328-2.235 9-5.5A10.103 10.103 0 0 0 9 0zm4.438 2.917A8.465 8.465 0 0 1 16.064 5.5a8.465 8.465 0 0 1-2.626 2.583A8.376 8.376 0 0 1 9 9.35a8.376 8.376 0 0 1-4.438-1.267A8.466 8.466 0 0 1 1.936 5.5 8.464 8.464 0 0 1 4.77 2.791c-.175.47-.271.977-.271 1.506 0 2.43 2.015 4.4 4.5 4.4s4.5-1.97 4.5-4.4c0-.53-.096-1.036-.27-1.506.07.041.139.083.208.126zM9 3.747c0 .911-.756 1.65-1.688 1.65-.931 0-1.687-.739-1.687-1.65 0-.911.756-1.65 1.688-1.65.931 0 1.687.739 1.687 1.65z"/>
</svg>
