<svg xmlns="http://www.w3.org/2000/svg" width="17" height="13" viewBox="0 0 17 13">
    <g fill="#EFC700" fill-rule="nonzero">
        <path d="M10.416 9H6.588C6.266 9 6 9.317 6 9.71v2.58c0 .388.263.71.588.71h3.824c.322 0 .588-.317.588-.71V9.71c.003-.388-.263-.71-.584-.71zM16.413 9h-3.826c-.32 0-.587.317-.587.71v2.58c0 .388.263.71.587.71h3.826c.32 0 .587-.317.587-.71V9.71c-.003-.388-.266-.71-.587-.71zM4.416 9H.588C.266 9 0 9.317 0 9.71v2.58c0 .388.263.71.588.71h3.824c.322 0 .588-.317.588-.71V9.71C5 9.322 4.737 9 4.416 9zM2.931 7.902h5.103v1.094h.932V7.902h5.103v1.094H15V7.41a.476.476 0 0 0-.464-.488H8.962v-1.62h2.618c.398 0 .724-.343.724-.761V.76c0-.417-.326-.761-.724-.761H5.413c-.398 0-.724.344-.724.762v3.782c0 .418.326.762.724.762H8.03v1.62H2.464A.476.476 0 0 0 2 7.414V9h.931V7.902zM5.87 1.764c0-.122.095-.218.208-.218h4.843c.116 0 .207.1.207.218v.288a.213.213 0 0 1-.207.218H6.077a.213.213 0 0 1-.208-.218v-.288zm.208 1.99a.213.213 0 0 1-.208-.22v-.287c0-.123.095-.219.208-.219h4.843c.116 0 .207.1.207.219v.288a.213.213 0 0 1-.207.218H6.077z"/>
    </g>
</svg>
