<svg xmlns="http://www.w3.org/2000/svg" width="27" height="28" viewBox="0 0 27 28">
    <g fill="none" fill-rule="nonzero">
        <path fill="#000" d="M20.653 16.512h-.526c-.19-.53-.7-.883-1.27-.884h-.975c-.19-.53-.7-.883-1.27-.884h-.898v-4.197A1.56 1.56 0 0 0 14.142 9a1.56 1.56 0 0 0-1.571 1.547v7.741l-.414-.672a1.713 1.713 0 0 0-2.268-.613 1.658 1.658 0 0 0-.716 2.204l2.008 4.654a2.475 2.475 0 0 0 1.839 1.448V28h.898v-2.651h1.347v-.884h-1.796a1.585 1.585 0 0 1-1.46-.95l-2.021-4.68a.782.782 0 0 1 .331-1.038.809.809 0 0 1 1.07.277l1.214 1.973h.866v-9.5c0-.367.301-.663.673-.663.372 0 .674.296.674.663v6.848h.898v-1.767h.898c.248 0 .449.198.449.442v2.21h.898v-1.768h.898c.248 0 .449.197.449.441v2.21h.898v-1.768h.449c.248 0 .449.198.449.442v5.155l-1.347 1.768V28h.898v-2.946L22 23.287v-5.45c0-.732-.603-1.325-1.347-1.325z"/>
        <path fill="#FFDB29" d="M13.499 6.004c2.929-.008 5.34 2.199 5.46 4.996L20 10.958C19.854 7.628 16.987 5 13.5 5S7.146 7.628 7 10.958L8.04 11c.12-2.797 2.53-5.003 5.459-4.996z"/>
        <path fill="#FFDB29" d="M13.498 7.99c1.816-.001 3.322 1.316 3.44 3.01L18 10.94C17.845 8.722 15.876 7 13.5 7 11.123 7 9.155 8.723 9 10.94l1.063.06c.117-1.692 1.62-3.009 3.435-3.01z"/>
        <path fill="#000" d="M21.353 0v1.714H19v.857h2.353v1.715h2.353V6h.941V4.286H27V0h-5.647zm4.706 3.429h-3.765V.857h3.765V3.43zM5.647 0H0v4.286h2.353V6h.941V4.286h2.353V2.57H8v-.857H5.647V0zm-.941 3.429H.94V.857h3.765V3.43zM5.647 11.714H3.294V10h-.941v1.714H0V16h5.647v-1.714H8v-.857H5.647v-1.715zm-.941 3.429H.94V12.57h3.765v2.572zM2 7h1v2H2zM24.647 10h-.941v1.714h-2.353v1.715H19v.857h2.353V16H27v-4.286h-2.353V10zm1.412 2.571v2.572h-3.765V12.57h3.765zM24 7h1v2h-1zM9 1h2v1H9zM14 1h2v1h-2zM11 1h2v1h-2zM16 1h2v1h-2zM9 13h2v1H9zM16 13h2v1h-2z"/>
    </g>
</svg>
