<svg xmlns="http://www.w3.org/2000/svg" width="14" height="14" viewBox="0 0 14 14">
    <path fill="#EFC700" fill-rule="nonzero" d="M6.906 0a7 7 0 1 0 .189 14 7 7 0 0 0-.189-14zm-.02 11.26h-.039c-.595-.017-1.015-.456-.998-1.042a.995.995 0 0 1 1.022-.995h.035c.612.018 1.027.453 1.01 1.056-.018.578-.44.982-1.03.982zM9.39 6.292c-.14.199-.448.446-.836.748l-.427.295c-.235.182-.376.354-.43.523-.041.132-.062.168-.065.438v.068H6l.005-.138c.02-.567.034-.9.269-1.176.369-.433 1.182-.957 1.217-.98.117-.087.215-.187.288-.294.171-.236.247-.422.247-.605 0-.253-.075-.487-.224-.696-.143-.201-.414-.303-.807-.303-.39 0-.656.123-.815.377-.164.26-.247.534-.247.814v.07H4.25l.003-.073c.043-1.03.411-1.772 1.092-2.205.428-.275.961-.415 1.583-.415.813 0 1.5.198 2.04.588.548.395.826.986.826 1.758 0 .432-.136.837-.405 1.206z"/>
</svg>
