<svg xmlns="http://www.w3.org/2000/svg" width="15" height="12" viewBox="0 0 15 12">
    <g fill="#EFC700" fill-rule="nonzero">
        <path d="M13.934 0H4.066C3.474 0 3 .49 3 1.074v6.18c0 .597.487 1.075 1.066 1.075h6.802l1.54 1.565a.328.328 0 0 0 .237.106.341.341 0 0 0 .342-.345V8.33h.947c.592 0 1.066-.49 1.066-1.074v-6.18C15 .476 14.513 0 13.934 0zM5.58 5.318a.998.998 0 0 1-.987-.994c0-.544.447-.995.987-.995s.987.45.987.995a.99.99 0 0 1-.987.994zm3.46 0a.998.998 0 0 1-.986-.994c0-.544.447-.995.986-.995.54 0 .987.45.987.995a.998.998 0 0 1-.987.994zm3.448 0a.998.998 0 0 1-.987-.994c0-.544.447-.995.987-.995s.987.45.987.995a.998.998 0 0 1-.987.994z"/>
        <path d="M2.029 7.24V5H.797C.36 5 0 5.338 0 5.746v4.31c-.015.437.346.775.797.775h.706v.93c0 .126.12.239.255.239a.257.257 0 0 0 .18-.07l1.157-1.085h5.109c.435 0 .796-.338.796-.746v-1.07H3.937c-1.052 0-1.908-.804-1.908-1.79z"/>
    </g>
</svg>
