<svg xmlns="http://www.w3.org/2000/svg" width="741" height="483" viewBox="0 0 741 483">
    <g fill="none" fill-rule="evenodd">
        <g fill="#E2D6B9" fill-rule="nonzero" stroke="#F9F7F2" stroke-width="3">
            <path d="M230.253 253.419l-2.74 4.176-7.31-5.568h-25.581l-5.025-1.856-12.79-9.743-.915-3.248 5.482-6.495-3.197-6.96-1.37-3.711 1.826-2.32 6.853 1.392-6.396-8.351-7.766-1.392.457-3.248h2.741v-5.103l2.284-4.64L169.04 188h3.198l13.704 12.527-.913 3.711 2.74 3.712 5.482 1.392v4.175l2.741 6.032 9.137 10.207 7.765 6.031 6.853 7.424h4.111zM265.187 247.836l-16.117-23.494-3.213-6.913 10.583-6.455.918-2.295-3.672-11.531-.918-14.718 3.672-5.536 6.452-6.454 5.535-11.045 10.124-8.75 5.508-6.913-1.377-1.837-6.912-1.863-7.829-5.968-5.967-7.831 24.4-4.153 25.327-3.685 49.272 5.067 19.8-11.055 12.895 16.122 11.972 7.37 11.973 23.951 12.894-6.909-1.382 31.782-1.842 3.225 1.842 21.648 19.34-.46 3.224 14.279 7.829 31.782 4.604 1.382.921 4.606-4.604 1.842-.46 5.067 4.604 14.74.921 3.224-6.447.921-.92 5.988-2.303 2.764h-2.763l-.46-4.146-3.224-1.381-4.605 5.066h-2.763l-1.381-5.527h-3.684l-2.763 5.988-.46 11.515-3.224 6.91 3.684 4.145-4.145 4.145-2.763-.92-2.763 1.381-6.446-3.224-2.303 3.685-9.21-5.528-2.763 4.606.921 4.607-.46 3.684-4.145.461-3.683-2.303-.921 4.606h-4.145l-2.763.921 1.382 3.225 4.144 2.303.921 3.685-1.842 8.751-8.289-1.842 3.224-3.685v-3.224l-5.526-.922-5.066 1.382-2.762-2.303-7.829-11.976 1.842-3.224 5.987-1.842 3.223-8.752-1.381-2.764 2.762-3.224-.92-5.988 3.223-2.764 5.986 4.146 4.145-4.606 3.684-.46.92-4.146 5.987-4.607.92-4.606-3.683-.46-3.223-1.843h-2.303l-6.907 4.146h-4.145l-3.684-2.303-7.367-9.673v-8.752l-1.842-4.145-2.763.92-1.842 3.686-7.829.921-2.762.46v7.831l-1.382 1.843-12.433 1.381-1.842-2.303 2.302-3.685-1.381-4.145-4.145.46-6.907 6.45-.46 3.684 3.684 5.527-1.842 1.843h-4.605l-3.224-2.764.46-6.448-23.484-14.28-3.224 5.988-3.684.461-1.381-4.606v-5.527l-2.763-2.764-3.223-4.606-.921-7.37-1.842-5.067z"/>
            <path d="M283.41 241.996l-17.527 5.968v.08l8.763 16.05-17.987 6.399 2.76 11.48 3.705 10.995 10.143 7.34 2.3 19.732 2.325 3.656 22.586 19.706 22.613 13.765 7.844 11.936 20.773 13.28 8.304-.913 5.058-5.969 4.626-1.37 5.545.456 3.678-1.37.46-7.797 6.465-5.027 6.004-3.683 2.3-3.657v-1.021l-8.304-1.828 3.218-3.657v-3.226l-5.518-.914-5.085 1.371-2.759-2.285-7.844-11.91 1.84-3.225 6.004-1.829 3.22-8.71-1.38-2.769 2.759-3.2-.92-5.967 3.219-2.743 6.005 4.14 4.165-4.597 3.679-.457.92-4.14 6.004-4.57.92-4.597-3.679-.457-3.246-1.828h-2.299l-6.924 4.113h-4.139l-3.705-2.285-7.385-9.625v-8.71l-1.839-4.14-2.759.94-1.866 3.657-7.817.914-2.786.457v7.796l-1.38 1.829-12.47 1.398-1.839-2.312 2.327-3.657-1.407-4.14-4.138.457-6.925 6.425-.46 3.684 3.679 5.484-1.84 1.828h-4.598l-3.246-2.742.46-6.425-23.532-14.195-3.219 5.941-3.678.457-1.407-4.57v-5.511l-2.759-2.742-3.219-4.597-.92-7.34z"/>
            <path d="M459.035 429.84l6.421-2.271h6.429l3.213-3.75 1.373-5.51 2.316-3.685 3.21-.456 4.122-6.408-1.387-3.678.918-4.118 8.745-.933 1.365-6.418-.011-4.107 2.298-.479 3.674 1.84 3.689-1.843.903-2.752-3.66-3.643 3.204-5.068-1.842-8.241-12.394-2.295.461-5.049-10.084-4.593-6.44 6.42-5.956-5.947-8.735-3.199-3.22 2.738-3.662 6.411-4.135-.91-3.663-4.137 1.831.476-5.497 5.042-3.22-2.299-.454-5.028-3.212 2.28-5.059 3.661-4.121-.454-4.15-9.174-4.131-2.277-3.203 3.198-21.116-.464-.004 1.01-2.295 3.67-5.968 3.668-6.427 5.044-.459 7.796-3.672 1.375-5.509-.458-4.59 1.375-5.05 5.962 11.476 12.38 17.444 8.713 25.248 18.343 7.345.917 4.131-2.751 7.345 1.834 6.426 4.586 10.1 5.502 11.017 2.293z"/>
            <path d="M460.066 433.743l-1.388-4.161 6.471-2.284 6.48-.001 3.238-3.77 1.384-5.54 2.335-3.706 3.235-.458 4.154-6.444-1.398-3.698.926-4.14 8.813-.938 1.376-6.454-.01-4.13 2.316-.482 3.702 1.85 3.718-1.853.91-2.767-3.688-3.663 3.23-5.096.463-.824 5.552 1.845 11.567-1.845 5.089 8.3-5.552 4.15v13.372l4.164 5.994 1.85 5.994 7.403 4.15 2.314 5.072-4.627 11.988-6.477 1.384-.463 4.15-3.701 9.221-7.403 10.606-1.388 6.455 1.85 8.3-2.313 5.072-1.85-1.845-5.552-2.305-2.777 2.766-3.7-4.15-3.24 5.073-6.94 1.844-2.313-4.61-4.627-1.845v-3.228l-6.477-2.305-12.955 4.61-6.94-3.227 2.314-4.611-3.24-2.306.926-17.06 6.478-7.378zM492.44 360.856l-10.183-4.631-6.49 6.473-6.028-5.986-8.797-3.223-3.259 2.763-3.692 6.446-4.155-.921-2.634-2.952-4.779 4.36-3.23-2.329-.462-5.064-3.259 2.302-5.105 3.683-4.154-.46-4.182-9.236-4.154-2.302-3.231 3.223-21.315-.46 1.846-8.775-.923-3.684-4.182-2.329-1.385-3.223 2.797-.92h4.155l.923-4.632 3.72 2.33 4.154-.461.462-3.71-.923-4.605 2.77-4.63 9.286 5.551 2.308-3.71 6.49 3.25 2.769-1.382 2.77.921 4.181-4.17-3.72-4.144 3.258-6.934.462-11.564 2.77-5.986h3.72l1.384 5.525h2.77l4.643-5.064 3.231 1.381.462 4.144h2.797l2.308-2.763.923-6.012 6.49-.921-.47-.833-.464 6.467.926 4.62 2.78 1.386 1.852 3.233-3.242 3.234v5.081l2.315 2.772 6.021.462 2.779 5.543h2.779l1.39 2.772-1.39 4.158 3.242 3.233h2.315l4.632-1.848 8.8 3.696v2.772l-3.243 1.847-2.315 4.158 2.779 8.315-2.78 2.31-2.314 11.453zm-44.749-2.47l1.01-.72-2.401-.48 1.391 1.2z"/>
            <path d="M497.566 346.387l-2.781-8.257 2.322-4.142 3.214-1.83v-2.743l-8.75-3.685-4.618 1.856h-2.296l-3.213-3.227 1.377-4.116-1.377-2.77h-2.782l-2.755-5.487-5.995-.457-2.296-2.77v-5.03l3.214-3.228-1.836-3.2-2.755-1.372-.918-4.6.405-5.513.513-.08-.918-3.201-4.618-14.686.459-5.056 4.618-1.83-.918-4.572.449-.385 12.437 1.835 26.256-5.046 4.145 1.835 3.225-1.835 4.146 7.799 4.606-1.376-1.843 10.551-1.842 2.294v2.294l12.437 7.34v9.175l-9.213 10.093.922 5.964 5.988.458 11.055-3.21 3.224 3.21-2.303 3.212.46 4.129 4.146 1.376 1.843 2.294-5.988 2.752 3.685 4.129 2.303 1.376.921 11.01-4.606 5.964h-5.067l-29.941-2.293h-3.224z"/>
            <path d="M551.713 314.148l2.281 1.379 6.917-2.311-1.85-3.21-13.335 1.846-2.297-3.69 17.461-2.737 2.305-6.072 1.838 3.206 2.77.466.923-2.742-4.61-4.981.46-4.595-1.839-5.974-17.472-16.544-.46-4.595-5.518 3.217.92 11.488h2.299v6.434l-3.219-.46-3.678 1.379-6.897-3.217v9.19l-9.196 10.11.92 5.974 5.977.46 11.035-3.217 3.218 3.217-2.299 3.217.46 4.135 4.138 1.379 1.84 2.298-5.978 2.757 3.679 4.136 2.299 1.378 5.517.92-1.839-8.272 4.598 4.595 3.679-.46-6.438-9.19z"/>
            <path d="M568.695 299.59l-4.62-4.993.46-4.607-1.842-5.99-17.511-16.585-.461-4.607 1.843-5.99 11.981-6.91.461-11.518 12.903-5.068 5.069-8.292 7.373-5.068 12.442-3.225 2.765-1.843 8.755-11.979.461-5.067 7.373-3.686 6.912 4.146 3.687-8.753 8.755-5.99 3.226-2.764 9.216 4.607v4.147l-16.128 7.371v7.832h-6.913l-6.45 10.136-4.609 3.686-8.755 5.528v4.147l10.598.46 1.843 4.147-1.843 6.91 5.53 8.293 1.843 6.45-1.843 2.764-2.765-3.225-1.843 1.843-.461 6.45-7.373 5.99-14.285 5.528-2.765 4.607-5.069.46-9.216-9.213-4.608 3.225-.461 3.685v6.45l-5.07 3.225 3.687 5.068 1.383 4.607z"/>
            <path d="M617.372 232.902l-1.836 6.947 5.507 8.336 1.836 6.483-.459-1.389 2.754.463 1.835 3.705-1.835 2.779 8.26 11.115 8.26-1.853 8.72.463 4.13 2.78 5.508.462 5.507-5.557 5.048-8.336 8.26-1.853 8.72.463 4.59-3.242 1.376-4.63-3.212-12.968-3.672 4.168-7.343-4.631-.459-2.779-4.13-6.02h-4.13l-1.377-7.41h-2.295l-.458 4.631.458 4.631-1.835 6.947-4.59-2.316-.917 1.853.459 11.578-3.672-3.242-.918 2.779-4.589-3.705v4.63l-1.377.464-7.801-5.557-9.638-.927v-6.483l-3.671-6.484z"/>
            <path d="M665.947 267.73l5.078-8.13 8.31-1.808 8.77.452 4.617-3.162 1.385-4.517 5.078-.904.462-4.065 7.386 3.613.923 3.162 5.078 1.807 21.697.904 3.231 2.71-16.157 8.583-.923 6.324h-3.232l-.461 3.162h-3.693l-7.387-4.517-2.308 1.807 4.617 7.68-2.309 3.161-5.078-2.258v-3.614l-6.462-5.42-13.85-4.518z"/>
            <path d="M633.345 270.84l8.307-1.836 8.768.452 4.168 2.742 5.547.452 5.52-5.456 14.776.452 13.856 4.552 6.467 5.43v3.646l-6.935-.004v4.54l-5.539 2.723v2.724l-6 3.178-1.846 3.632-3.693 2.724-3.693-7.718-1.384 2.724-4.154.908-7.847-4.54-26.771 8.172h-2.77l-4.154-8.172h-4.616l-4.616-2.724.924-2.724 8.308-5.901 5.077-4.994 2.3-4.982zm14.967 44.65l4.155.9h5.078l-.461-4.5v-5.4h-5.54l-4.155-4.5-1.846 2.7 1.385 3.6-1.385 1.8 4.154 1.8-1.385 3.6zm28.437-2.7h2.77l3.232-.96-.924-3.84-5.078 4.8zM126.9 2.017L21.52 26.45 2.204 233.466l43.706 7.38 7.365-5.082-4.587-2.757-2.778-6-.918-11.055.918-11.082 17.023-13.812 3.696-.92 8.741 2.298 9.659-.46v-2.783l2.751-1.379.918-5.973v-4.163l.944-2.297 5.503-2.325 4.614 4.163 6.906 6.92.459 3.216h6.906l-7.365-11.974-1.403-3.243-5.503-3.676v-2.298l6.906-1.865 8.283 2.325 3.669-7.839 12.896 14.758 9.2 1.838 4.586 11.974 12.976-.46 10.495 1.838h3.237l13.786 12.46-.917 3.677 2.779 3.703 5.503 1.378v4.136l2.78 6 9.199 10.136 7.824 6 6.906 7.38h4.128l6.448 10.135 2.752-3.216 3.696-.46 5.962 1.838 7.365 6 5.072 7.38.917 5.513 17.941-6.433-8.741-16.136-16.106-23.515-3.21-6.92 10.575-6.46.917-2.297-3.669-11.541-.917-14.731 3.669-5.541 6.448-6.46 5.53-11.055 10.117-8.757 5.504-6.92-1.376-1.838-6.906-1.865-7.824-5.973-5.962-7.838-34.992-41.95-2.751-6.919v-5.081l-9.2-6.163-1.457-1.054-3.764-3.275-9.124-1.393-9.584-5.394-5.903-4.607-8.49-8.506-34.785-28.627-8.665-6.716z"/>
        </g>
        <g transform="translate(578 235)">
            <circle cx="6.5" cy="6.5" r="6.5" fill="#FFFAC9" stroke="#FFE76F"/>
            <circle cx="6.5" cy="6.5" r="4.333" fill="#FFE76F"/>
        </g>
        <g transform="translate(543 286)">
            <circle cx="6.5" cy="6.5" r="6.5" fill="#FFFAC9" stroke="#FFE76F"/>
            <circle cx="6.5" cy="6.5" r="4.333" fill="#FFE76F"/>
        </g>
        <g transform="translate(489 307)">
            <circle cx="6.5" cy="6.5" r="6.5" fill="#FFFAC9" stroke="#FFE76F"/>
            <circle cx="6.5" cy="6.5" r="4.333" fill="#FFE76F"/>
        </g>
        <g transform="translate(467 334)">
            <circle cx="6.5" cy="6.5" r="6.5" fill="#FFFAC9" stroke="#FFE76F"/>
            <circle cx="6.5" cy="6.5" r="4.333" fill="#FFE76F"/>
        </g>
        <g transform="translate(450 399)">
            <circle cx="6.5" cy="6.5" r="6.5" fill="#FFFAC9" stroke="#FFE76F"/>
            <circle cx="6.5" cy="6.5" r="4.333" fill="#FFE76F"/>
        </g>
        <g transform="translate(487 450)">
            <circle cx="6.5" cy="6.5" r="6.5" fill="#FFFAC9" stroke="#FFE76F"/>
            <circle cx="6.5" cy="6.5" r="4.333" fill="#FFE76F"/>
        </g>
        <g transform="translate(338 322)">
            <circle cx="6.5" cy="6.5" r="6.5" fill="#FFFAC9" stroke="#FFE76F"/>
            <circle cx="6.5" cy="6.5" r="4.333" fill="#FFE76F"/>
        </g>
        <g transform="translate(190 229)">
            <circle cx="6.5" cy="6.5" r="6.5" fill="#FFFAC9" stroke="#FFE76F"/>
            <circle cx="6.5" cy="6.5" r="4.333" fill="#FFE76F"/>
        </g>
        <g transform="translate(178 163)">
            <circle cx="6.5" cy="6.5" r="6.5" fill="#FFFAC9" stroke="#FFE76F"/>
            <circle cx="6.5" cy="6.5" r="4.333" fill="#FFE76F"/>
        </g>
        <g transform="translate(647 253)">
            <circle cx="6.5" cy="6.5" r="6.5" fill="#FFFAC9" stroke="#FFE76F"/>
            <circle cx="6.5" cy="6.5" r="4.333" fill="#FFE76F"/>
        </g>
        <g transform="translate(641 277)">
            <circle cx="6.5" cy="6.5" r="6.5" fill="#FFFAC9" stroke="#FFE76F"/>
            <circle cx="6.5" cy="6.5" r="4.333" fill="#FFE76F"/>
        </g>
        <g transform="translate(694 256)">
            <circle cx="6.5" cy="6.5" r="6.5" fill="#FFFAC9" stroke="#FFE76F"/>
            <circle cx="6.5" cy="6.5" r="4.333" fill="#FFE76F"/>
        </g>
        <g transform="translate(413 294)">
            <circle cx="6.5" cy="6.5" r="6.5" fill="#FFFAC9" stroke="#FFE76F"/>
            <circle cx="6.5" cy="6.5" r="4.333" fill="#FFE76F"/>
        </g>
    </g>
</svg>
